<svg xmlns="http://www.w3.org/2000/svg" class="Icon Icon-cat-abogacia" viewBox="0 0 24 24"><path fill="currentColor" d="M23.294 5.647h-6.007V.748A.756.756 0 0 0 16.54 0H7.58a.748.748 0 0 0-.741.748v4.9H.868a.755.755 0 0 0-.748.705v16.899A.755.755 0 0 0 .868 24h22.426a.748.748 0 0 0 .706-.748v-16.9a.748.748 0 0 0-.706-.705zm-7.496-4.15v4.15H8.329v-4.15h7.469zM14.3 10.128H9.826a.743.743 0 0 0-.748.749v.374H1.609v-4.13h20.902v4.13h-7.469v-.374a.74.74 0 0 0-.74-.749zm-4.475 7.123H14.3a.749.749 0 0 0 .706-.748v-3.756h7.504v9.755H1.609v-9.755h7.469v3.755a.748.748 0 0 0 .748.749zm.762-1.497v-4.13h2.965v4.13h-2.965z"/></svg>