<svg xmlns="http://www.w3.org/2000/svg" fill="none" viewBox="0 0 24 24" class="Icon Icon-abogacia"><path fill="currentColor" fill-rule="evenodd" d="M6.578 5.428H2.3c-.58 0-1.05.47-1.05 1.05V20.9c0 .58.47 1.05 1.05 1.05h19.407c.58 0 1.05-.47 1.05-1.05V6.478c0-.58-.47-1.05-1.05-1.05h-4.164a4.94 4.94 0 0 0-1.081-2.851c-.62-.762-1.498-1.327-2.405-1.327H10.11c-1.343 0-2.215.876-2.727 1.763-.466.806-.709 1.736-.805 2.415m1.52 0h7.942a3.44 3.44 0 0 0-.742-1.905c-.451-.555-.943-.773-1.241-.773H10.11c-.584 0-1.05.357-1.428 1.012-.304.527-.491 1.156-.584 1.666m-5.348 1.5V12.3h6.583v-.836c0-.58.47-1.05 1.05-1.05h3.173c.58 0 1.05.47 1.05 1.05v.836h6.65V6.93zM21.257 13.8h-6.651v.836c0 .58-.47 1.05-1.05 1.05h-3.172c-.58 0-1.05-.47-1.05-1.05V13.8H2.75v6.651h18.507zm-10.423-1.886v2.272h2.272v-2.272z" clip-rule="evenodd"/></svg>