<svg xmlns="http://www.w3.org/2000/svg" fill="none" class="Icon Icon-cat-administracion-general" viewBox="0 0 24 24"><g clip-path="url(#clip0)"><path fill="currentColor" d="M23.823 6.896a.706.706 0 0 0-.529-.232h-2.739V4.235a.706.706 0 0 0-.706-.706H7.765v-.86a.706.706 0 0 0-.706-.707H.706A.706.706 0 0 0 0 2.668v18.353a.74.74 0 0 0 .155.452.705.705 0 0 0 .55.254h21.079a.706.706 0 0 0 .705-.621L24 7.44a.706.706 0 0 0-.177-.544zM1.412 3.374h4.94v.861a.706.706 0 0 0 .707.706h12.07v1.723H3.53a.706.706 0 0 0-.705.557l-1.412 6.897V3.374zm19.765 16.941H1.567l2.52-12.247h18.424l-1.334 12.247z"/></g></svg>