<svg xmlns="http://www.w3.org/2000/svg" fill="none" viewBox="0 0 24 24" class="Icon Icon-administracion-general-del-estado"><path fill="currentColor" fill-rule="evenodd" d="M1 18.9V4.6A1.6 1.6 0 0 1 2.6 3h6.595a1.6 1.6 0 0 1 1.356.752l1.137 1.82H20.4a1.6 1.6 0 0 1 1.6 1.6V18.9a1.6 1.6 0 0 1-1.6 1.6H2.6A1.6 1.6 0 0 1 1 18.9M2.5 4.6v14.3a.1.1 0 0 0 .1.1h17.8a.1.1 0 0 0 .1-.1V7.171a.1.1 0 0 0-.1-.1h-9.487a.1.1 0 0 1-.085-.047L9.279 4.547a.1.1 0 0 0-.084-.047H2.6a.1.1 0 0 0-.1.1" clip-rule="evenodd"/></svg>