<svg xmlns="http://www.w3.org/2000/svg" class="Icon Icon-cat-bibliotecas" viewBox="0 0 100 100" fill-rule="evenodd" stroke-linejoin="round" stroke-miterlimit="2"><g transform="scale(4.16667)"><clipPath id="A"><path d="M0 0h24v24H0z"/></clipPath><g clip-path="url(#A)"><path d="M4.796 4.713H2.037c-.273 0-.494-.221-.494-.494s.221-.494.494-.494h2.759c.273 0 .494.222.494.494s-.221.494-.494.494m5.932 0H7.969c-.273 0-.494-.221-.494-.494s.221-.494.494-.494h2.759c.273 0 .494.222.494.494s-.221.494-.494.494m4.008.393c-.218 0-.417-.146-.476-.367a.49.49 0 0 1 .349-.604l2.665-.714a.49.49 0 0 1 .604.349c.071.263-.085.534-.349.605l-2.665.714a.52.52 0 0 1-.128.017m-9.94 1.518H2.037c-.273 0-.494-.221-.494-.494s.221-.493.494-.493h2.759c.273 0 .494.221.494.493s-.221.494-.494.494m5.932 0H7.969c-.273 0-.494-.221-.494-.494s.221-.493.494-.493h2.759c.273 0 .494.221.494.493s-.221.494-.494.494m4.503.327c-.218 0-.418-.145-.477-.366-.07-.263.086-.534.349-.604l2.665-.714c.264-.071.534.085.605.349s-.086.534-.349.604l-2.665.715c-.043.011-.086.016-.128.016m3.044 11.363c-.218 0-.417-.145-.476-.366-.071-.263.086-.534.349-.605l2.665-.714c.263-.07.534.086.605.35s-.086.534-.35.604l-2.664.714c-.043.012-.086.017-.129.017m-13.479.074H2.037c-.273 0-.494-.221-.494-.494s.221-.494.494-.494h2.759c.273 0 .494.221.494.494s-.221.494-.494.494m5.932 0H7.969c-.273 0-.494-.221-.494-.494s.221-.494.494-.494h2.759c.273 0 .494.221.494.494s-.221.494-.494.494m8.042 1.772c-.218 0-.417-.145-.477-.366-.07-.263.086-.534.35-.605l2.665-.714c.263-.07.534.086.604.35a.49.49 0 0 1-.349.604l-2.665.714c-.043.012-.086.017-.128.017m-13.974.139H2.037c-.273 0-.494-.221-.494-.494s.221-.494.494-.494h2.759c.273 0 .494.221.494.494s-.221.494-.494.494m5.932 0H7.969c-.273 0-.494-.221-.494-.494s.221-.494.494-.494h2.759c.273 0 .494.221.494.494s-.221.494-.494.494m7.024-18.481c-.018 0-.038.002-.058.008l-4.247 1.138c-.079.021-.121.076-.139.108a.23.23 0 0 0-.024.174l5.028 18.766c.022.079.077.121.108.139s.096.045.175.024l4.246-1.138c.079-.021.121-.077.14-.108s.045-.096.024-.175L17.976 1.989c-.021-.079-.076-.121-.108-.139-.023-.014-.064-.032-.116-.032m-16.534.476c-.125 0-.23.106-.23.231v19.427c0 .125.105.231.23.231h4.397c.125 0 .23-.106.23-.231V2.525c0-.125-.105-.231-.23-.231H1.218zm5.932 0c-.125 0-.23.106-.23.231v19.427c0 .125.105.231.23.231h4.396c.126 0 .231-.106.231-.231V2.525c0-.125-.105-.231-.231-.231H7.15zM18.535 23.17a1.21 1.21 0 0 1-.608-.164c-.283-.163-.485-.425-.569-.739L12.765 5.123v16.829a1.22 1.22 0 0 1-1.219 1.218H7.15a1.21 1.21 0 0 1-.768-.273 1.21 1.21 0 0 1-.767.273H1.218A1.22 1.22 0 0 1 0 21.952V2.525a1.22 1.22 0 0 1 1.218-1.219h4.397c.29 0 .558.103.767.273.21-.17.477-.273.768-.273h4.396c.576 0 1.06.402 1.187.94a1.2 1.2 0 0 1 .459-.236L17.438.872a1.21 1.21 0 0 1 .924.123c.283.163.484.425.568.739l5.028 18.765a1.21 1.21 0 0 1-.861 1.492l-4.247 1.138a1.21 1.21 0 0 1-.315.041" fill="currentColor" fill-rule="nonzero"/></g></g></svg>
