<svg xmlns="http://www.w3.org/2000/svg" fill="none" class="Icon Icon-cat-comunidades-autonomas" viewBox="0 0 24 24"><g clip-path="url(#clip0)"><path fill="currentColor" d="M23.541 11.421h-6.134v-.282a5.373 5.373 0 0 0-4.701-5.146h-.247V4.63h2.287a.459.459 0 0 0 .459-.452V1.976a.458.458 0 0 0-.46-.451H12a.459.459 0 0 0-.459.451v3.989h-.247A5.372 5.372 0 0 0 6.6 11.11v.282H.459a.459.459 0 0 0-.459.452v9.882a.452.452 0 0 0 .459.452H23.54a.45.45 0 0 0 .459-.452v-9.882a.459.459 0 0 0-.459-.424zM12.46 2.435h1.835V3.72H12.46V2.435zM6.6 21.318H.91v-6.79H6.6v6.79zm0-7.702H.91v-1.284H6.6v1.284zm6.593 7.702h-2.386v-4.589h2.386v4.589zm3.296 0h-2.371V16.27a.452.452 0 0 0-.452-.452h-3.318a.452.452 0 0 0-.452.452v5.047H7.511v-8.986h8.978v8.986zm-8.993-9.883v-.303a4.496 4.496 0 0 1 8.98 0v.303h-8.98zm15.593 9.883H17.4v-6.79h5.69v6.79zm0-7.702H17.4v-1.284h5.69v1.284z"/></g></svg>