<svg xmlns="http://www.w3.org/2000/svg" fill="none" class="Icon Icon-cat-comunidades-autonomas" viewBox="0 0 34 34"><path fill="currentColor" d="M33.24,16.06H24.73v-.28A7.68,7.68,0,0,0,18,8.43l-.25,0V6.76h3.11A.76.76,0,0,0,21.63,6V2.9a.76.76,0,0,0-.76-.76H17a.76.76,0,0,0-.76.76V8.4l-.25,0a7.68,7.68,0,0,0-6.71,7.35v.28H.76a.76.76,0,0,0-.76.76V30.74a.76.76,0,0,0,.76.76H33.24a.76.76,0,0,0,.76-.76V16.82A.76.76,0,0,0,33.24,16.06ZM1.53,19.15V17.59H9.28v1.56ZM1.53,30v-9.3H9.28V30Zm17-6.21V30H15.44V23.77Zm.76-1.53H14.68a.77.77,0,0,0-.76.77v7H10.81V17.59H23.19V30H20.08V23A.77.77,0,0,0,19.32,22.24ZM10.8,16.06v-.3a6.2,6.2,0,0,1,12.38,0v.3Zm21.67,4.62V30H24.72v-9.3Zm-7.75-1.53V17.59h7.75v1.56Zm-7-13.92V3.67H20.1V5.23Z"/></svg>
