<svg xmlns="http://www.w3.org/2000/svg" fill="none" viewBox="0 0 24 24" class="Icon Icon-comunidades-autonomas"><path fill="currentColor" fill-rule="evenodd" d="M13.4 4.3a1.25 1.25 0 1 0 0 2.5 1.25 1.25 0 0 0 0-2.5" clip-rule="evenodd"/><path fill="currentColor" fill-rule="evenodd" d="m13.464 11.906.003-.002.002-.002.001-.002a18 18 0 0 0 .422-.438q.247-.26.514-.548l.004-.005c1.28-1.385 2.793-3.222 2.793-5.131C17.203 3.25 15.286 2 13.37 2S9.75 3.406 9.75 5.778c0 1.908 1.432 3.67 2.642 5.08l.002.002.57.665m.464-1.764c-.46-.538-.908-1.082-1.298-1.669-.577-.87-.88-1.634-.88-2.314 0-1.506.994-2.278 2.12-2.278.647 0 1.24.213 1.648.57.378.331.685.857.685 1.708 0 .664-.316 1.445-.928 2.334-.401.581-.873 1.13-1.347 1.649m-.058 2.226-.09-.091m.084.097q.006.006.013 0l.085-.085.002-.002" clip-rule="evenodd"/><path fill="currentColor" fill-rule="evenodd" d="M5.78 4.77h.453c.444 0 .812.19 1.037.511.144.205.204.426.22.613h1.26v1.5H7.507a1.65 1.65 0 0 1-.857-.208 1.29 1.29 0 0 1-.637-.916h-.064l-.002.01a1.5 1.5 0 0 1-.33.666 1.29 1.29 0 0 1-.985.448h-.658c.165.7.25 1.152.276 1.316a.75.75 0 0 1-.083.472l-.562 1.037c.303.21.711.454.987.614h1.982c.204 0 .51.046.793.218.322.195.604.556.604 1.077v.613a1 1 0 0 1-.006.093c-.037.292-.225.7-.624 1.01-.18.14-.543.414-.835.634v3.338a.75.75 0 0 1-.204.514c-.14.149-.456.46-.803.725l.025.025 1.057.793a.75.75 0 0 1 .205.235l.552.992.987-.988a.75.75 0 0 1 .53-.22h2.103c.494-.01 1.592.11 2.812.605q.06-.126.132-.335c.338-.988 1.073-1.545 1.681-1.822l-.127-.124a.9.9 0 0 1-.578-.631c-.095-.365.024-.755.17-1.09.263-.604 1.434-3.687 1.995-5.177a.75.75 0 0 1 .351-.398l3.474-1.84.01-.004v-.319h-2.826v-1.5h2.929c.406 0 .794.105 1.074.383.256.253.343.574.323.847v.678c0 .742-.473 1.147-.88 1.28l-3.151 1.668c-.578 1.531-1.637 4.314-1.916 4.962.112.101.262.25.465.466.31.331.501.753.403 1.21a1.18 1.18 0 0 1-.597.782.8.8 0 0 1-.217.076c-.268.05-.926.345-1.164 1.038-.189.553-.419.983-.734 1.237-.172.138-.4.247-.67.245a.93.93 0 0 1-.507-.155c-1.119-.496-2.121-.59-2.422-.581H9.166l-.972.972a1.3 1.3 0 0 1-.632.358 1.2 1.2 0 0 1-.659-.045 1.5 1.5 0 0 1-.747-.615l-.603-1.086-.962-.722-.056-.046a2.6 2.6 0 0 1-.564-.73 1.26 1.26 0 0 1-.132-.683c.039-.337.234-.614.523-.78.127-.072.294-.2.465-.349q.097-.084.18-.163v-3.4a.75.75 0 0 1 .3-.6 118 118 0 0 0 1.113-.844.3.3 0 0 0 .05-.05v-.277H4.395a.75.75 0 0 1-.367-.096c-.287-.16-.991-.572-1.44-.9-.334-.246-.567-.587-.586-1-.014-.31.1-.567.237-.746l.485-.893a27 27 0 0 0-.25-1.128c-.126-.522-.087-1.134.43-1.493.35-.244.747-.23.996-.183h.58c.056-.36.237-.651.495-.847.273-.209.582-.275.807-.277m1.66 16.51h-.001z" clip-rule="evenodd"/></svg>