<svg xmlns="http://www.w3.org/2000/svg" fill="none" viewBox="0 0 24 24" class="Icon Icon-ayuntamientos-y-corporaciones-locales"><mask id="opo-mask-38076162" width="22" height="21" x="1" y="2" maskUnits="userSpaceOnUse" style="mask-type:alpha"><path fill="currentColor" fill-rule="evenodd" d="M10.85 18.325a.775.775 0 0 1 1.55 0v2.925h-1.55zm-6.722-5.428a.95.95 0 0 1 1.244 0l2.8 2.426a.95.95 0 0 1 .328.718v5.309a.95.95 0 0 1-.95.95h-5.6a.95.95 0 0 1-.95-.95v-5.309a.95.95 0 0 1 .328-.718zm.622 1.445-2.25 1.95V20.8H7v-4.508zm13.378-1.445a.95.95 0 0 1 1.244 0l2.8 2.426a.95.95 0 0 1 .328.718v5.309a.95.95 0 0 1-.95.95h-5.6a.95.95 0 0 1-.95-.95v-5.309a.95.95 0 0 1 .328-.718zm.622 1.445-2.25 1.95V20.8H21v-4.508zM6.6 2.95A.95.95 0 0 1 7.55 2h4.15a.95.95 0 0 1 .95.95v5.8h-1.5V6.7h-3.6a.95.95 0 0 1-.95-.95zm4.55 2.25V3.5H8.1v1.7z" clip-rule="evenodd"/><path fill="currentColor" fill-rule="evenodd" d="M11.232 8.392a.95.95 0 0 1 1.036 0l3.8 2.47a.95.95 0 0 1 .432.797v9.691a.95.95 0 0 1-.95.95h-7.6a.95.95 0 0 1-.95-.95v-9.692a.95.95 0 0 1 .432-.796zm.518 1.453L8.5 11.957V20.8H15v-8.843z" clip-rule="evenodd"/><path fill="currentColor" d="M12.95 13.35a1.2 1.2 0 1 1-2.4 0 1.2 1.2 0 0 1 2.4 0"/></mask><g mask="url(#opo-mask-38076162)"><path fill="currentColor" d="M0 0h24v24H0z"/></g></svg>