<svg xmlns="http://www.w3.org/2000/svg" fill="none" class="Icon Icon-cat-corporaciones-locales" viewBox="0 0 34 34"><path fill="currentColor" d="M28.4,34H5.4a1.79,1.79,0,0,1-1.68-1.22,1.7,1.7,0,0,1,.68-1.94l10-6.77a1.81,1.81,0,0,1,1.84-.11l13,6.77a1.71,1.71,0,0,1,.88,1.95A1.76,1.76,0,0,1,28.4,34Zm-13-8.81a.32.32,0,0,0-.18.06L5.23,32a.28.28,0,0,0-.11.33.29.29,0,0,0,.28.21h23a.29.29,0,0,0,.29-.23.28.28,0,0,0-.15-.33l-13-6.77A.33.33,0,0,0,15.37,25.17Z"/><path fill="currentColor" d="M32.23,31.37a1.81,1.81,0,0,1-.82-.2l-13-6.77A1.76,1.76,0,0,1,17.44,23a1.72,1.72,0,0,1,.76-1.53l10-6.77a1.8,1.8,0,0,1,1.65-.19,1.71,1.71,0,0,1,1.08,1.24L34,29.26a1.76,1.76,0,0,1-1.73,2.11ZM29.17,15.8a.31.31,0,0,0-.18,0L19,22.62a.3.3,0,0,0-.13.26.31.31,0,0,0,.16.25l13,6.77a.26.26,0,0,0,.32,0,.3.3,0,0,0,.12-.31L29.47,16a.29.29,0,0,0-.19-.21A.22.22,0,0,0,29.17,15.8Z"/><path fill="currentColor" d="M25.05,13.72a.26.26,0,0,1,.25.16h0a.21.21,0,0,1-.1.25L2.58,29.51a.24.24,0,0,1-.15,0,.27.27,0,0,1-.16,0,.21.21,0,0,1-.1-.23l2.16-9.56c.34.38.6.68.78.87A3.87,3.87,0,0,0,8,21.81a3.87,3.87,0,0,0,2.87-1.22A45.1,45.1,0,0,0,16,13.72h9m0-1.5H15.16l-.2.37a43,43,0,0,1-5.21,7A2.38,2.38,0,0,1,8,20.31a2.36,2.36,0,0,1-1.77-.74c-.31-.34-1-1.06-1.72-2l-1-1.16L.7,29a1.73,1.73,0,0,0,.74,1.81,1.79,1.79,0,0,0,1,.29,1.69,1.69,0,0,0,1-.31L26.05,15.38a1.7,1.7,0,0,0,.68-1.94h0a1.76,1.76,0,0,0-1.68-1.21Z"/><path fill="currentColor" d="M7.84,19a1.78,1.78,0,0,1-1.29-.55C5.45,17.31,0,11.26,0,7.57A7.71,7.71,0,0,1,7.84,0a7.7,7.7,0,0,1,7.83,7.55c0,3.69-5.45,9.74-6.54,10.92A1.81,1.81,0,0,1,7.84,19Zm0-17.63a6.29,6.29,0,0,0-6.4,6.16c0,2.64,3.88,7.53,6.17,10a.32.32,0,0,0,.45,0c2.29-2.46,6.17-7.35,6.17-10A6.29,6.29,0,0,0,7.84,1.41Zm0,9.79A3.7,3.7,0,0,1,4.07,7.57,3.71,3.71,0,0,1,7.84,3.94,3.7,3.7,0,0,1,11.6,7.57,3.7,3.7,0,0,1,7.84,11.2Zm0-5.87A2.3,2.3,0,0,0,5.5,7.57a2.34,2.34,0,0,0,4.67,0A2.3,2.3,0,0,0,7.84,5.33Z"/></svg>
