<svg xmlns="http://www.w3.org/2000/svg" fill="none" class="Icon Icon-cat-corporaciones-locales" viewBox="0 0 24 24"><g fill="currentColor" clip-path="url(#clip0)"><path d="M20.047 24H3.812a1.25 1.25 0 0 1-1.186-.861 1.207 1.207 0 0 1 .48-1.37l7.059-4.778a1.264 1.264 0 0 1 1.27-.05l9.177 4.779a1.2 1.2 0 0 1 .62 1.377 1.235 1.235 0 0 1-1.185.903zm-9.176-6.212a.29.29 0 0 0-.128.035l-7.051 4.765a.205.205 0 0 0-.078.233.212.212 0 0 0 .198.155h16.235a.211.211 0 0 0 .205-.162.212.212 0 0 0-.106-.24l-9.177-4.779a.226.226 0 0 0-.12-.007h.022zm11.879 4.37c-.2-.001-.4-.05-.578-.142l-9.177-4.778a1.24 1.24 0 0 1-.684-1.003 1.206 1.206 0 0 1 .536-1.073l7.059-4.786a1.248 1.248 0 0 1 1.165-.127 1.192 1.192 0 0 1 .762.876L24 20.675a1.214 1.214 0 0 1-.494 1.207c-.214.174-.48.271-.755.276zm-2.16-10.99a.287.287 0 0 0-.127 0l-7.051 4.813a.212.212 0 0 0-.092.184.217.217 0 0 0 .113.176l9.176 4.779a.184.184 0 0 0 .226 0 .205.205 0 0 0 .085-.219l-2.118-9.565a.226.226 0 0 0-.134-.155l-.077-.014zM1.715 21.939a1.241 1.241 0 0 1-1.22-1.468l2.004-8.86.706.82c.543.656.995 1.164 1.214 1.411a1.764 1.764 0 0 0 2.499 0 30.487 30.487 0 0 0 3.677-4.94l.141-.262h6.982a1.235 1.235 0 0 1 1.178 1.627c-.087.248-.253.46-.473.604L2.422 21.72a1.25 1.25 0 0 1-.706.219z"/><path d="M5.534 13.461a1.257 1.257 0 0 1-.91-.388C3.847 12.24 0 7.969 0 5.365A5.442 5.442 0 0 1 5.534.035a5.435 5.435 0 0 1 5.527 5.33c0 2.604-3.847 6.875-4.616 7.7a1.257 1.257 0 0 1-.91.396zm0-12.452a4.447 4.447 0 0 0-4.518 4.356c0 1.863 2.74 5.308 4.356 7.059a.233.233 0 0 0 .317 0c1.617-1.744 4.356-5.189 4.356-7.06a4.44 4.44 0 0 0-4.51-4.355zm0 6.918a2.619 2.619 0 0 1-2.661-2.562 2.619 2.619 0 0 1 2.661-2.541 2.612 2.612 0 0 1 2.654 2.54 2.612 2.612 0 0 1-2.654 2.563zm0-4.15a1.624 1.624 0 0 0-1.652 1.588 1.652 1.652 0 0 0 3.297 0 1.624 1.624 0 0 0-1.645-1.589z"/></g></svg>