<svg xmlns="http://www.w3.org/2000/svg" class="Icon Icon-cat-correos" fill="currentColor" viewBox="0 0 32 32"><path d="M23.93 1.26A26.33 26.33 0 0 0 16.07 0a26.72 26.72 0 0 0-8 1.28 3.48 3.48 0 0 0-2.42 3.33v26.45a.94.94 0 0 0 .94.94h18.82a.94.94 0 0 0 .94-.94V4.59a3.48 3.48 0 0 0-2.42-3.33zM7.53 4.61a1.62 1.62 0 0 1 1.13-1.55 25.11 25.11 0 0 1 7.41-1.19A24.32 24.32 0 0 1 23.35 3a1.62 1.62 0 0 1 1.12 1.55v.93H7.53v-.87zm16.94 25.51H7.53V7.4h16.94z"/><path d="M21.65 16.94h-11.3a.94.94 0 00-.93.94v7.53a.94.94 0 00.93.94h11.3a.94.94 0 00.93-.94v-7.53a.94.94 0 00-.93-.94zm-3.1 1.88L16 20.51l-2.55-1.69zm-7.26 5.65v-4.84l4.19 2.79a.93.93 0 001 0l4.19-2.79v4.84zM10.35 9.35a.93.93 0 00-.93.93v1.8A2.91 2.91 0 0012.33 15h7.2a2.91 2.91 0 002.91-2.91v-1.8a.93.93 0 00-.93-.93zm10.22 2.73a1 1 0 01-1 1h-7.2a1 1 0 01-1-1v-.86h9.28z"/></svg>
