<svg xmlns="http://www.w3.org/2000/svg" fill="none" class="Icon Icon-cat-cortes-generales" viewBox="0 0 24 24"><g clip-path="url(#clip0)"><path fill="currentColor" d="M0 7.426a.487.487 0 0 0 0 .092v.07a.402.402 0 0 0 0 .092v.162l.043.078v.07c.036.053.076.103.12.149.05.044.105.084.162.12a.78.78 0 0 0 .184.077.84.84 0 0 0 .247.043h2.068v10.588H.847a.847.847 0 0 0-.847.84v3.346A.847.847 0 0 0 .847 24h22.306a.846.846 0 0 0 .847-.847v-3.346a.848.848 0 0 0-.847-.847h-1.94V8.372h2.138l.184-.07c.062-.035.121-.075.176-.12a.706.706 0 0 0 .155-.184v-.064l.043-.085V7.694a.402.402 0 0 0 0-.092v-.07a.361.361 0 0 0 0-.092l-.142-.374-.162-.17-.078-.056L12.438.12l-.12-.056h-.155L12.07 0h-.318a.704.704 0 0 0-.155.07L.41 6.813l-.092.07-.268.389v.077L0 7.426zm22.313 13.228v1.659H1.687v-1.659h20.626zM4.476 18.96V8.372h3.89V18.96h-3.89zm5.583 0V8.372h3.883V18.96h-3.883zm5.577 0V8.372h3.89V18.96h-3.89zM12 1.828l8.104 4.864H3.869L12 1.828z"/></g></svg>