<svg xmlns="http://www.w3.org/2000/svg" fill="none" viewBox="0 0 24 24" class="Icon Icon-c-generales"><mask id="a" width="21" height="21" x="2" y="2" maskUnits="userSpaceOnUse" style="mask-type:alpha"><path fill="currentColor" fill-rule="evenodd" d="M11.69 2.122a.75.75 0 0 1 .808-.008l9.75 6.1a.75.75 0 0 1-.796 1.272L20.9 9.14V21.1h.8a.75.75 0 0 1 0 1.5H4.67a.75.75 0 0 1-.54 0H2.85a.75.75 0 0 1 0-1.5h.8V9.158l-.49.32a.75.75 0 1 1-.82-1.256zM5.15 9.4v11.7h3.9V9.4zm5.4 0v11.7h3.65V9.4zm5.15 0v11.7h3.7V9.4zm3.218-1.5H5.578l6.53-4.26z" clip-rule="evenodd"/></mask><g mask="url(#a)"><path fill="currentColor" d="M0 0h24v24H0z"/></g></svg>