<svg xmlns="http://www.w3.org/2000/svg" fill="none" viewBox="0 0 24 24" class="Icon Icon-ejercito"><mask id="a" width="18" height="23" x="3" y="1" maskUnits="userSpaceOnUse" style="mask-type:alpha"><path fill="currentColor" fill-rule="evenodd" d="M12.25 1a.75.75 0 0 1 .679.431l.913 1.945 2.023.313a.75.75 0 0 1 .423 1.265l-1.48 1.52.348 2.156a.75.75 0 0 1-1.102.777l-1.804-.995-1.804.995a.75.75 0 0 1-1.102-.777l.349-2.155-1.48-1.521a.75.75 0 0 1 .422-1.265l2.023-.313.913-1.945A.75.75 0 0 1 12.25 1m0 2.514-.404.86a.75.75 0 0 1-.564.423l-.981.152.73.75a.75.75 0 0 1 .203.643L11.07 7.35l.817-.45a.75.75 0 0 1 .724 0l.817.45-.163-1.007a.75.75 0 0 1 .203-.643l.73-.75-.981-.152a.75.75 0 0 1-.564-.423zM3.348 8.117a.75.75 0 0 1 .72-.046l7.683 3.601 7.683-3.568a.75.75 0 0 1 1.066.68v3.102a.75.75 0 0 1-.425.676l-8.039 3.864a.75.75 0 0 1-.652-.001L3.423 12.56A.75.75 0 0 1 3 11.886V8.75a.75.75 0 0 1 .348-.633M4.5 9.93v1.487l7.213 3.5L19 11.415V9.959l-6.934 3.221a.75.75 0 0 1-.634 0zm-1.135 4.177a.75.75 0 0 1 .739-.018l7.648 4.09 7.647-4.053a.75.75 0 0 1 1.101.663v3.553a.75.75 0 0 1-.39.657l-8.038 4.409a.75.75 0 0 1-.724-.002l-7.961-4.408A.75.75 0 0 1 3 18.342V14.75a.75.75 0 0 1 .365-.643M4.5 16.002V17.9l7.213 3.994L19 17.898v-1.863l-6.899 3.657a.75.75 0 0 1-.705-.002z" clip-rule="evenodd"/></mask><g mask="url(#a)"><path fill="currentColor" d="M0 0h24v24H0z"/></g></svg>