<svg xmlns="http://www.w3.org/2000/svg" class="Icon Icon-cat-emt" fill="currentColor" viewBox="0 0 32 32"><path d="M32 8.44a2.82 2.82 0 0 0-2.81-2.82h-.94V2.88A2.88 2.88 0 0 0 25.38 0H6.62a2.88 2.88 0 0 0-2.87 2.88v2.74h-.94A2.82 2.82 0 0 0 0 8.44v4.7h3.75v14.47H5v1.58A2.81 2.81 0 0 0 7.81 32h1.27a2.81 2.81 0 0 0 2.81-2.81v-1.58h8.22v1.58A2.81 2.81 0 0 0 22.92 32h1.27A2.81 2.81 0 0 0 27 29.19v-1.58h1.25V13.14H32zM6.62 1.88h18.76a1 1 0 0 1 1 1v.87H5.62v-.87a1 1 0 0 1 1-1zm-4.74 9.39V8.44a.94.94 0 0 1 .93-.94h.94v3.77zm24.5 12.59v1.87h-6V22h-8.79v3.75h-6v-1.89H9.4V22H5.63v-3.61a70.75 70.75 0 0 0 10.37.76 70.88 70.88 0 0 0 10.38-.76V22H22.6v1.88zm-7.84 1.87h-5.08v-1.87h5.08zM10 29.19a.94.94 0 0 1-.94.93H7.81a.93.93 0 0 1-.93-.93v-1.58H10zm15.11 0a.94.94 0 0 1-.94.93h-1.25a.94.94 0 0 1-.94-.93v-1.58h3.15zm1.25-12.7a68.8 68.8 0 0 1-20.76 0V5.62h20.78v10.87zm3.74-5.22h-1.85V7.5h.94a.94.94 0 0 1 .93.94z"/><path d="M17 17.72l1.17.12h.28a2.42 2.42 0 0 1-.13-.53 1.77 1.77 0 0 1 0-.32 2.71 2.71 0 0 1 5.42-.1v.19a6.69 6.69 0 0 1 1.41-.15 1.62 1.62 0 0 1 0-.22 4.11 4.11 0 0 0-8.21.29v.35a2.7 2.7 0 0 0 .06.37z"/></svg>
