<svg xmlns="http://www.w3.org/2000/svg" fill="none" viewBox="0 0 24 24" class="Icon Icon-emt"><path fill="currentColor" fill-rule="evenodd" d="M2 4.75A2.75 2.75 0 0 1 4.75 2h14a2.75 2.75 0 0 1 2.75 2.75v13a2.75 2.75 0 0 1-2.75 2.75H17.5v1.25a.75.75 0 0 1-1.5 0V20.5H7.5v1.25a.75.75 0 0 1-1.5 0V20.5H4.75A2.75 2.75 0 0 1 2 17.75zm1.5 7.75v5.25c0 .69.56 1.25 1.25 1.25h14c.69 0 1.25-.56 1.25-1.25V12.5zM20 11H3.5V4.75c0-.69.56-1.25 1.25-1.25h14c.69 0 1.25.56 1.25 1.25z" clip-rule="evenodd"/><path fill="currentColor" d="M7.75 15.75a1 1 0 1 1-2 0 1 1 0 0 1 2 0m10 0a1 1 0 1 1-2 0 1 1 0 0 1 2 0"/></svg>