<svg xmlns="http://www.w3.org/2000/svg" fill="none" class="Icon Icon-cat-fcs" viewBox="0 0 24 24"><g fill="currentColor" clip-path="url(#clip0)"><path d="M11.69 23.95a.798.798 0 0 0 .543 0c1.024-.388 5.59-2.823 7.856-5.971s2.252-9.134 2.048-14.118a.707.707 0 0 0-.255-.522.783.783 0 0 0-.564-.198A12.473 12.473 0 0 1 12.48.198a.79.79 0 0 0-1.052 0A12.55 12.55 0 0 1 2.591 3.14a.812.812 0 0 0-.748.432.706.706 0 0 0-.071.288c-.205 4.977-.156 11.082 2.047 14.118 2.287 3.155 6.896 5.626 7.87 5.972zM3.281 4.942v-.275h.247a13.9 13.9 0 0 0 8.252-2.774l.17-.134.176.134a13.878 13.878 0 0 0 8.23 2.767h.262v.282c.204 6.17-.402 10.27-1.8 12.19-1.821 2.507-5.499 4.645-6.755 5.26l-.127.063-.12-.063c-1.448-.706-4.998-2.86-6.735-5.252-1.426-1.998-2.018-5.986-1.8-12.198z"/><path d="M8.788 12.995l-.706 2.98a.706.706 0 0 0 .304.769.811.811 0 0 0 .854.042l2.697-1.56 2.703 1.56a.81.81 0 0 0 .89-.043.706.706 0 0 0 .296-.769l-.706-2.979 2.365-2.011a.74.74 0 0 0 .226-.798.784.784 0 0 0-.671-.515l-3.127-.283-1.242-2.823a.777.777 0 0 0-1.128-.335.77.77 0 0 0-.284.335l-1.25 2.823-3.127.283a.762.762 0 0 0-.663.515.706.706 0 0 0 .226.797l2.343 2.012zm1.814-2.117a.77.77 0 0 0 .636-.452l.706-1.61.705 1.61a.784.784 0 0 0 .643.452l1.793.155-1.356 1.158a.705.705 0 0 0-.24.705l.396 1.709-1.532-.897a.804.804 0 0 0-.798 0l-1.546.89.396-1.709a.705.705 0 0 0-.247-.705l-1.356-1.158 1.8-.148z"/></g></svg>