<svg xmlns="http://www.w3.org/2000/svg" fill="none" viewBox="0 0 24 24" class="Icon Icon-fuerzas-y-cuerpos-de-seguridad"><g clip-path="url(#a)"><mask id="b" width="23" height="18" x="0" y="3" maskUnits="userSpaceOnUse" style="mask-type:alpha"><path fill="currentColor" fill-rule="evenodd" d="M11.534 4.614c-1.62 1.139-3.633 2-5.256 2.585a36 36 0 0 1-2.885.9h-.004l-1.571 2.218 2.918 2.234h13.576l2.869-2.258-1.49-2.052c-2.249-.598-4.351-1.546-5.9-2.349a35 35 0 0 1-2.257-1.278m6.39 9.261h-12.8l-.009 1.337h12.81zM3.79 15.455l.012-1.952L0 10.593l2.594-3.661.242-.058h.002l.01-.003.042-.01.168-.043a35 35 0 0 0 2.772-.865c1.711-.616 3.765-1.515 5.277-2.667L11.483 3l.393.262.001.001.008.005.032.021.13.083q.173.112.505.313c.44.265 1.074.63 1.848 1.032 1.553.805 3.648 1.743 5.85 2.302l.233.059L23 10.545 19.248 13.5v1.904c.294.147.527.387.655.69.227.539.07 1.164-.454 1.56-1.574 1.19-4.205 2.443-7.783 2.443-3.545 0-6.265-1.23-7.94-2.399-.548-.384-.73-1.017-.512-1.572.112-.283.315-.515.575-.67m7.676-7.23c-.556 0-1.025.46-1.025 1.051 0 .592.47 1.052 1.024 1.052.556 0 1.025-.46 1.025-1.052a1.04 1.04 0 0 0-1.025-1.052m-2.349 1.05c0-1.302 1.042-2.376 2.348-2.376 1.307 0 2.348 1.074 2.348 2.376s-1.04 2.376-2.347 2.376-2.349-1.074-2.349-2.376m-4.653 7.318.022.018c1.488 1.04 3.949 2.16 7.181 2.16 3.259 0 5.615-1.139 6.985-2.175l.01-.008a.2.2 0 0 0-.108-.023H4.582a.2.2 0 0 0-.118.028" clip-rule="evenodd"/></mask><g mask="url(#b)"><path fill="currentColor" d="M0 0h24v24H0z"/></g></g><defs><clipPath id="a"><path fill="currentColor" d="M0 0h24v24H0z"/></clipPath></defs></svg>