<svg xmlns="http://www.w3.org/2000/svg" fill="none" viewBox="0 0 24 24" class="Icon Icon-formacion-transversal"><path fill="currentColor" d="M13.714 22.773h-3.428c-.8 0-1.715-.688-1.715-2.063v-2.407c0-1.146-.57-2.177-1.485-2.979C5.029 13.72 4 11.428 4 8.907 4.114 4.552 7.657 1.114 11.886 1c2.171 0 4.228.802 5.714 2.292S20 6.844 20 9.022c0 2.406-1.029 4.698-2.971 6.187-1.029.803-1.6 2.063-1.6 3.209v2.636c0 .916-.8 1.719-1.715 1.719M12 2.146c-3.657 0-6.743 3.094-6.857 6.76 0 2.178.914 4.24 2.628 5.501 1.258 1.032 1.943 2.407 1.943 3.896v2.407c0 .23 0 .917.572.917h3.428c.343 0 .572-.23.572-.573v-2.636c0-1.49.8-3.094 2.057-4.125 1.6-1.26 2.514-3.209 2.514-5.272 0-1.833-.685-3.552-2.057-4.927-1.257-1.26-2.971-1.948-4.8-1.948"/><path fill="currentColor" d="M14.852 18.881H9.148c-.343 0-.57-.23-.57-.573 0-.344.227-.573.57-.573h5.704c.342 0 .57.23.57.573 0 .344-.228.573-.57.573m1.712-9.741c-.343 0-.57-.229-.57-.573 0-2.177-1.826-4.01-3.994-4.01-.342 0-.57-.23-.57-.573 0-.344.228-.573.57-.573a5.124 5.124 0 0 1 5.134 5.156c0 .344-.228.573-.57.573"/><path fill="currentColor" fill-rule="evenodd" d="M8.536 17.815c-.137-.95-.668-1.805-1.45-2.491C5.029 13.72 4 11.428 4 8.907 4.114 4.552 7.657 1.114 11.886 1c2.171 0 4.228.802 5.714 2.292S20 6.844 20 9.022c0 2.406-1.029 4.698-2.971 6.187a4.24 4.24 0 0 0-1.552 2.624 4 4 0 0 0-.048.585v2.636c0 .916-.8 1.719-1.715 1.719h-3.428c-.8 0-1.715-.688-1.715-2.063v-2.407a3.4 3.4 0 0 0-.035-.488m5.84-.28c.24-1.213.956-2.413 1.967-3.242 1.6-1.26 2.514-3.209 2.514-5.272 0-1.833-.685-3.552-2.057-4.927-1.257-1.26-2.971-1.948-4.8-1.948-3.657 0-6.743 3.094-6.857 6.76 0 2.178.914 4.24 2.628 5.501 1.038.852 1.687 1.937 1.881 3.128q.016.1.029.2h4.659q.015-.1.035-.2m-.205 0c.244-1.275.99-2.532 2.045-3.397l.003-.002c1.55-1.221 2.438-3.11 2.438-5.115 0-1.78-.665-3.448-1.999-4.786-1.217-1.221-2.88-1.89-4.658-1.89-3.544 0-6.544 3.003-6.657 6.565 0 2.122.892 4.12 2.547 5.336l.009.006c1.081.888 1.76 2.028 1.956 3.283zm-4.457 1.346v1.829c0 .23 0 .917.572.917h3.428c.343 0 .572-.23.572-.573V18.88zm4.372.2H9.914v1.629c0 .118.002.314.06.477q.043.12.11.176a.3.3 0 0 0 .202.064h3.428a.37.37 0 0 0 .273-.1.38.38 0 0 0 .099-.273zm3.065-3.713c1.996-1.531 3.05-3.884 3.05-6.347 0-2.233-.938-4.345-2.46-5.87C16.216 1.62 14.107.8 11.887.8h-.006C7.547.917 3.917 4.44 3.8 8.902v.005c0 2.577 1.053 4.927 3.158 6.571.88.774 1.413 1.752 1.413 2.825v2.407c0 1.477.996 2.263 1.915 2.263h3.428c1.026 0 1.915-.893 1.915-1.92v-2.635c0-1.085.543-2.286 1.522-3.05m-1.143-6.244a.77.77 0 0 1-.215-.557c0-2.067-1.736-3.81-3.793-3.81a.77.77 0 0 1-.555-.217.77.77 0 0 1-.215-.556c0-.217.072-.414.215-.557A.77.77 0 0 1 12 3.211a5.324 5.324 0 0 1 5.334 5.356.77.77 0 0 1-.215.557.77.77 0 0 1-.555.216.77.77 0 0 1-.556-.216m-.015-.557c0 .344.228.573.57.573.343 0 .571-.229.571-.573A5.124 5.124 0 0 0 12 3.411c-.342 0-.57.229-.57.573s.228.573.57.573c2.168 0 3.993 1.833 3.993 4.01" clip-rule="evenodd"/></svg>