<svg xmlns="http://www.w3.org/2000/svg" fill="none" viewBox="0 0 24 24" class="Icon Icon-gestores-administrativos"><mask id="a" width="22" height="20" x="1" y="2" maskUnits="userSpaceOnUse" style="mask-type:alpha"><path fill="currentColor" d="M1 3.509V16.99c0 .834.716 1.509 1.6 1.509H8c1 0 .675-1.414 0-1.414-1.5-.086-5.4 0-5.4 0a.097.097 0 0 1-.1-.095V3.51c0-.052.045-.095.1-.095h5.595a.1.1 0 0 1 .084.045l1.549 2.335a.1.1 0 0 0 .085.045H17.4c.055 0 .1.042.1.094V7c0 1 1.5 1 1.5 0V5.933c0-.833-.716-1.509-1.6-1.509h-6.711L9.55 2.71A1.62 1.62 0 0 0 8.195 2H2.6C1.716 2 1 2.675 1 3.509"/><path fill="currentColor" fill-rule="evenodd" d="M16 9.465a.407.407 0 0 0-.407.407v.1a1.67 1.67 0 0 1-1.014 1.53.7.7 0 0 1-.176.051 1.67 1.67 0 0 1-1.707-.388l-.006-.006-.034-.034a.408.408 0 1 0-.577.576l.04.04a1.67 1.67 0 0 1 .344 1.824 1.67 1.67 0 0 1-1.522 1.073h-.068a.407.407 0 0 0 0 .815h.099a1.67 1.67 0 0 1 1.53 1.01 1.67 1.67 0 0 1-.337 1.841l-.006.006-.034.034a.408.408 0 1 0 .576.577l.04-.04a1.67 1.67 0 0 1 1.824-.344 1.67 1.67 0 0 1 1.073 1.523v.067a.407.407 0 0 0 .815 0v-.099a1.67 1.67 0 0 1 1.01-1.53 1.67 1.67 0 0 1 1.841.337l.006.006.034.034a.407.407 0 1 0 .577-.576l-.04-.04a1.67 1.67 0 0 1-.337-1.842 1.67 1.67 0 0 1 1.53-1.01h.053a.407.407 0 0 0 0-.814h-.099a1.67 1.67 0 0 1-1.53-1.014.7.7 0 0 1-.051-.176 1.67 1.67 0 0 1 .388-1.707l.006-.006a.5.5 0 0 0 .122-.166.407.407 0 0 0-.664-.445l-.04.04a1.67 1.67 0 0 1-1.842.337 1.67 1.67 0 0 1-1.01-1.53v-.003c0-.163-.05-.269-.12-.339A.4.4 0 0 0 16 9.465m-1.324-.917a1.87 1.87 0 0 1 2.648 0c.392.393.548.896.548 1.375V9.92a.21.21 0 0 0 .126.19l.007.004a.21.21 0 0 0 .227-.04l.03-.03a1.87 1.87 0 0 1 3.055.607 1.87 1.87 0 0 1-.436 2.071.21.21 0 0 0-.04.227 1 1 0 0 1 .038.108.2.2 0 0 0 .154.07h.095a1.872 1.872 0 1 1 0 3.745h-.05a.21.21 0 0 0-.188.126l-.003.007a.21.21 0 0 0 .04.227l.03.03a1.872 1.872 0 1 1-2.65 2.649l-.03-.03a.21.21 0 0 0-.226-.04l-.007.003a.21.21 0 0 0-.126.19v.094a1.873 1.873 0 0 1-3.744 0v-.04a.21.21 0 0 0-.136-.184l-.043-.017a.21.21 0 0 0-.227.04l-.03.03a1.875 1.875 0 0 1-2.649 0 1.88 1.88 0 0 1-.406-2.042 1.9 1.9 0 0 1 .406-.607l.03-.03a.21.21 0 0 0 .04-.227l-.003-.007a.21.21 0 0 0-.19-.126h-.094a1.872 1.872 0 0 1 0-3.744h.04a.21.21 0 0 0 .184-.136l.018-.043a.21.21 0 0 0-.04-.227l-.03-.03a1.875 1.875 0 0 1 0-2.649 1.87 1.87 0 0 1 2.648 0l.03.03a.21.21 0 0 0 .227.04 1 1 0 0 1 .108-.038.2.2 0 0 0 .07-.154v-.095c0-.496.198-.973.55-1.324M16 14.023a.977.977 0 1 0 0 1.954.977.977 0 0 0 0-1.954M13.558 15a2.442 2.442 0 1 1 4.884 0 2.442 2.442 0 0 1-4.884 0" clip-rule="evenodd"/></mask><g mask="url(#a)"><path fill="currentColor" d="M0 0h24v24H0z"/></g></svg>