<svg xmlns="http://www.w3.org/2000/svg" class="Icon Icon-cat-gestores-administrativos" viewBox="0 0 100 100" fill-rule="nonzero" stroke-linejoin="round" stroke-miterlimit="2" fill="currentColor"><path d="M72.8 60.638a8.13 8.13 0 0 0-8.117 8.117 8.06 8.06 0 0 0 3.946 6.963 8.24 8.24 0 0 0 8.321.017c2.446-1.463 3.967-4.133 3.967-6.979 0-3.004-1.65-5.75-4.304-7.167a8.14 8.14 0 0 0-3.813-.95m0 20.4c-2.213 0-4.383-.596-6.283-1.729-3.713-2.229-6-6.267-6-10.554 0-6.771 5.513-12.283 12.283-12.283a12.31 12.31 0 0 1 5.771 1.438c4.017 2.142 6.513 6.3 6.513 10.846a12.35 12.35 0 0 1-6 10.554 12.24 12.24 0 0 1-6.283 1.729m-17.596-1.967h0zm16.658 11.771h1.875l.454-3.338a3.63 3.63 0 0 1 2.696-3.038 16.07 16.07 0 0 0 4.129-1.713 3.63 3.63 0 0 1 4.046.233l2.692 2.046 1.325-1.325-2.042-2.688a3.62 3.62 0 0 1-.238-4.05c.763-1.304 1.342-2.696 1.713-4.129a3.63 3.63 0 0 1 3.038-2.696l3.338-.454v-1.875l-3.338-.454a3.63 3.63 0 0 1-3.038-2.692v-.004a14.12 14.12 0 0 0-.354-1.171 15.78 15.78 0 0 0-1.363-2.958 3.63 3.63 0 0 1 .242-4.05L89.08 53.8l-1.325-1.325-2.688 2.042a3.63 3.63 0 0 1-4.05.242c-1.25-.733-2.583-1.296-3.967-1.671-1.6-.417-2.658-1.608-2.858-3.079l-.454-3.338h-1.875l-.454 3.338c-.2 1.471-1.258 2.663-2.692 3.033-1.442.371-2.829.95-4.129 1.717a3.63 3.63 0 0 1-4.05-.238l-2.692-2.046-1.325 1.325 2.042 2.688a3.63 3.63 0 0 1 .242 4.054 16.07 16.07 0 0 0-1.717 4.125c-.371 1.438-1.563 2.496-3.033 2.696l-3.338.454v1.875l3.338.454c1.471.2 2.663 1.258 3.033 2.696a16.11 16.11 0 0 0 1.454 3.667l.254.45c.763 1.292.667 2.879-.233 4.063l-2.042 2.688 1.325 1.325 2.688-2.042c1.179-.896 2.767-.992 4.05-.242a16.04 16.04 0 0 0 4.133 1.717 3.63 3.63 0 0 1 2.692 3.033l.454 3.342zm5.513 4.167h-9.15l-.896-6.6a20.15 20.15 0 0 1-4.55-1.888l-5.308 4.029-6.467-6.467 4.033-5.308-.142-.25a20.5 20.5 0 0 1-1.75-4.296l-6.596-.9v-9.15l6.596-.896a20.29 20.29 0 0 1 1.892-4.55l-4.033-5.308 6.467-6.467 5.308 4.033c1.442-.817 2.971-1.454 4.55-1.892l.896-6.596h9.15l.9 6.6c1.679.479 3.158 1.1 4.55 1.888l5.304-4.033 6.467 6.467-4.029 5.308c.617 1.088 1.129 2.229 1.529 3.404.133.371.25.758.358 1.146l6.6.896v9.15l-6.6.9a20.31 20.31 0 0 1-1.888 4.55l4.029 5.304-6.467 6.467-5.304-4.029a20.51 20.51 0 0 1-4.554 1.892l-.896 6.596zm-5.722-66.99H10.55v41.975l11.571-31.133h49.533V28.021zm10.325 5.887V18.304H48.267l-4.008-8.729H.95v73.15h37.996v-4.167H5.013V13.742H41.68l4.008 8.729h32.229v15.604h15.292l-1.221 3.363h4.338l2.729-7.529H81.979z"/></svg>
