<svg xmlns="http://www.w3.org/2000/svg" fill="none" viewBox="0 0 24 24" class="Icon Icon-hacienda"><mask id="opo-mask-14443201" width="22" height="22" x="1" y="1" maskUnits="userSpaceOnUse" style="mask-type:alpha"><path fill="currentColor" fill-rule="evenodd" d="m5.11 3.087 2.081 3.746h4.618L13.8 3.25a1.6 1.6 0 0 0-.562-.279c-.223-.051-.448-.026-.75.075a7 7 0 0 0-.6.24c-.16.068-.34.146-.525.217-.45.173-.984.331-1.613.331m2.188 4.5h-4.95C5.282 9.541 2.5 11.753 2.5 15.583c0 1.987.742 3.241 1.624 4.028.892.796 1.966 1.145 2.665 1.223H10.5v-8.25a.75.75 0 0 1 .75-.75h3.845a52 52 0 0 0-3.157-3.5m4.646 3.5.266-.2-.002-.002-.004-.005-.014-.02a17 17 0 0 0-.266-.34 40 40 0 0 0-.804-.98 53 53 0 0 0-2.581-2.83l2.227-4.008a.75.75 0 0 0-.126-.895c-.564-.564-1.12-.91-1.705-1.044-.59-.137-1.115-.036-1.562.113-.22.073-.432.162-.625.244l-.1.044c-.16.069-.31.133-.463.192-.364.14-.704.231-1.075.231-.173 0-.458-.099-.946-.342l-.314-.16c-.37-.192-.804-.416-1.227-.575-.559-.21-1.247-.367-1.947-.157-.728.219-1.302.78-1.737 1.65a.75.75 0 0 0 .015.699L5.77 7.362C3.969 8.677 1 11.244 1 15.584c0 2.413.925 4.075 2.126 5.147 1.176 1.049 2.581 1.502 3.55 1.599l.074.004h15a.75.75 0 0 0 .75-.75v-9a.75.75 0 0 0-.75-.75h-4.793a.8.8 0 0 0-.107-.2zm4.416 3v-1.5h-9v1.5zm-9 1.5h9v1.5h-9zm0 3v1.5h9v-1.5zM5.11 3.087c.244-.37.47-.5.637-.55.237-.072.549-.042.99.124.331.124.651.29 1.003.47q.189.099.393.201c.45.225 1.04.501 1.617.501" clip-rule="evenodd"/></mask><g mask="url(#opo-mask-14443201)"><path fill="currentColor" d="M0 0h24v24H0z"/></g></svg>