<svg xmlns="http://www.w3.org/2000/svg" class="Icon Icon-cat-hacienda" fill="currentColor" viewBox="0 0 512 512"><path d="M392 496H120c-30.9 0-56-25.1-56-56V72c0-30.9 25.1-56 56-56h272c30.9 0 56 25.1 56 56v368c0 30.9-25.1 56-56 56zM120 32c-22.1 0-40 17.9-40 40v368c0 22.1 17.9 40 40 40h272c22.1 0 40-17.9 40-40V72c0-22.1-17.9-40-40-40H120z"/><path d="M280 464h-48c-13.3 0-24-10.7-24-24v-32c0-13.3 10.7-24 24-24h48c13.3 0 24 10.7 24 24v32c0 13.3-10.7 24-24 24zm-48-64c-4.4 0-8 3.6-8 8v32c0 4.4 3.6 8 8 8h48c4.4 0 8-3.6 8-8v-32c0-4.4-3.6-8-8-8h-48zM168 464h-48c-13.3 0-24-10.7-24-24v-32c0-13.3 10.7-24 24-24h48c13.3 0 24 10.7 24 24v32c0 13.3-10.7 24-24 24zm-48-64c-4.4 0-8 3.6-8 8v32c0 4.4 3.6 8 8 8h48c4.4 0 8-3.6 8-8v-32c0-4.4-3.6-8-8-8h-48zM392 464h-48c-13.3 0-24-10.7-24-24V312c0-13.3 10.7-24 24-24h48c13.3 0 24 10.7 24 24v128c0 13.3-10.7 24-24 24zm-48-160c-4.4 0-8 3.6-8 8v128c0 4.4 3.6 8 8 8h48c4.4 0 8-3.6 8-8V312c0-4.4-3.6-8-8-8h-48zM280 368h-48c-13.3 0-24-10.7-24-24v-32c0-13.3 10.7-24 24-24h48c13.3 0 24 10.7 24 24v32c0 13.3-10.7 24-24 24zm-48-64c-4.4 0-8 3.6-8 8v32c0 4.4 3.6 8 8 8h48c4.4 0 8-3.6 8-8v-32c0-4.4-3.6-8-8-8h-48zM168 368h-48c-13.3 0-24-10.7-24-24v-32c0-13.3 10.7-24 24-24h48c13.3 0 24 10.7 24 24v32c0 13.3-10.7 24-24 24zm-48-64c-4.4 0-8 3.6-8 8v32c0 4.4 3.6 8 8 8h48c4.4 0 8-3.6 8-8v-32c0-4.4-3.6-8-8-8h-48zM280 272h-48c-13.3 0-24-10.7-24-24v-32c0-13.3 10.7-24 24-24h48c13.3 0 24 10.7 24 24v32c0 13.3-10.7 24-24 24zm-48-64c-4.4 0-8 3.6-8 8v32c0 4.4 3.6 8 8 8h48c4.4 0 8-3.6 8-8v-32c0-4.4-3.6-8-8-8h-48zM168 272h-48c-13.3 0-24-10.7-24-24v-32c0-13.3 10.7-24 24-24h48c13.3 0 24 10.7 24 24v32c0 13.3-10.7 24-24 24zm-48-64c-4.4 0-8 3.6-8 8v32c0 4.4 3.6 8 8 8h48c4.4 0 8-3.6 8-8v-32c0-4.4-3.6-8-8-8h-48zM392 272h-48c-13.3 0-24-10.7-24-24v-32c0-13.3 10.7-24 24-24h48c13.3 0 24 10.7 24 24v32c0 13.3-10.7 24-24 24zm-48-64c-4.4 0-8 3.6-8 8v32c0 4.4 3.6 8 8 8h48c4.4 0 8-3.6 8-8v-32c0-4.4-3.6-8-8-8h-48zM392 160H120c-13.3 0-24-10.7-24-24V72c0-13.3 10.7-24 24-24h272c13.3 0 24 10.7 24 24v64c0 13.3-10.7 24-24 24zM120 64c-4.4 0-8 3.6-8 8v64c0 4.4 3.6 8 8 8h272c4.4 0 8-3.6 8-8V72c0-4.4-3.6-8-8-8H120z"/><path d="M371 111h-37.4c-3.9 0-7-3.2-7-7 0-3.9 3.2-7 7-7H371c3.9 0 7 3.2 7 7 0 3.9-3.1 7-7 7z"/><path d="M345.2 122.7V85.3c0-3.9 3.2-7 7-7 3.9 0 7 3.2 7 7v37.4c0 3.9-3.2 7-7 7-3.8.1-7-3.1-7-7z"/></svg>
