<svg xmlns="http://www.w3.org/2000/svg" fill="none" viewBox="0 0 24 24" class="Icon Icon-interior"><mask id="b" width="21" height="23" x="2" y="1" maskUnits="userSpaceOnUse" style="mask-type:alpha"><mask id="opo-mask-2251473" fill="#fff"><path fill-rule="evenodd" d="M11.67 1.22a.75.75 0 0 1 .946-.094c.742.494 2.11 1.257 3.753 1.893 1.647.639 3.519 1.131 5.281 1.131a.75.75 0 0 1 .75.75v6.3c0 5.023-2.53 8.117-5.036 9.927a15.5 15.5 0 0 1-4.547 2.234 10 10 0 0 1-.416.112l-.026.006-.008.002h-.003v.001l-.164-.732-.163.732h-.004l-.008-.003-.026-.006a7 7 0 0 1-.416-.112 15.5 15.5 0 0 1-4.547-2.234C4.529 19.317 2 16.223 2 11.2V4.9a.75.75 0 0 1 .913-.732c.66.147 2.067.208 3.72-.182 1.64-.386 3.475-1.204 5.037-2.766m.53 21.53-.163.732c.107.024.22.024.326 0zm0-.773.195-.055a14 14 0 0 0 4.091-2.01c2.218-1.603 4.414-4.285 4.414-8.712V5.625c-1.773-.115-3.548-.616-5.073-1.207a23.3 23.3 0 0 1-3.535-1.722c-1.695 1.528-3.61 2.349-5.314 2.75-1.33.314-2.556.377-3.478.311V11.2c0 4.427 2.196 7.109 4.414 8.71a14 14 0 0 0 4.091 2.012z" clip-rule="evenodd"/><path d="m12.2 5.95 2.156 3.334 3.836 1.02-2.504 3.08.215 3.963-3.703-1.43-3.703 1.43.216-3.964-2.504-3.08 3.836-1.02z"/></mask><path fill="currentColor" d="m12.616 1.126.832-1.248zm-.946.094 1.06 1.06zm4.7 1.8-.543 1.398zm.994 18.107-.878-1.216zm-3.416 1.846.544 1.398zm-1.13.388-.423-1.44zm-.326.09.371 1.453zm-.091.022.343 1.46h.005zm-.026.006.334 1.463.009-.002zm-.008.002.33 1.463h.004zm-.003 0 .327 1.465h.003zm0 .001.325 1.464h.001zm-.164-.732 1.464-.327a1.5 1.5 0 0 0-2.928 0zm-.163.732-.327 1.464h.001zm-.002 0-.33 1.463h.004zm-.002 0-.334 1.462h.004zm-.008-.003-.343 1.46.009.003zm-.026-.006-.348 1.46h.005zm-.09-.022-.372 1.453zm-.326-.09.422-1.44zm-1.131-.388-.544 1.398zm-3.416-1.846.878-1.216zM2.28 4.315l.938 1.17zm.632-.147-.326 1.464zm3.72-.182-.343-1.46zm5.762 17.936-.423-1.44zm-.195.055-.39 1.448a1.5 1.5 0 0 0 .78 0zm1.205-.402-.544-1.398zm3.08-1.664-.877-1.216zM20.9 5.625h1.5a1.5 1.5 0 0 0-1.403-1.497zm-5.073-1.207.542-1.399zm-3.535-1.722.777-1.283a1.5 1.5 0 0 0-1.78.169zm-5.314 2.75-.344-1.46zM3.5 5.757l.107-1.496A1.5 1.5 0 0 0 2 5.757zm4.414 14.154.878-1.216zm3.081 1.664.544-1.398zm1.01.347.423-1.44zM12.2 5.95l1.26-.814a1.5 1.5 0 0 0-2.52 0zm2.156 3.334-1.26.814a1.5 1.5 0 0 0 .874.636zm3.836 1.02 1.164.946a1.5 1.5 0 0 0-.779-2.396zm-2.504 3.08-1.164-.947a1.5 1.5 0 0 0-.334 1.028zm.215 3.963-.54 1.4a1.5 1.5 0 0 0 2.038-1.482zm-3.703-1.43.54-1.4a1.5 1.5 0 0 0-1.08 0zm-3.703 1.43L7 17.265a1.5 1.5 0 0 0 2.038 1.481zm.216-3.964 1.498.082a1.5 1.5 0 0 0-.334-1.028zm-2.504-3.08-.386-1.45a1.5 1.5 0 0 0-.778 2.397zm3.836-1.02.386 1.45a1.5 1.5 0 0 0 .874-.635zm3.403-9.405a2.25 2.25 0 0 0-2.839.281L12.73 2.28a.75.75 0 0 1-.946.094zm3.463 1.743C15.37 1.023 14.098.31 13.448-.122l-1.664 2.496c.833.556 2.3 1.368 4.043 2.044zM21.65 2.65c-1.507 0-3.185-.427-4.739-1.03l-1.084 2.798c1.74.674 3.805 1.232 5.823 1.232zM23.9 4.9a2.25 2.25 0 0 0-2.25-2.25v3a.75.75 0 0 1-.75-.75zm0 6.3V4.9h-3v6.3zm-5.658 11.143C21.037 20.325 23.9 16.819 23.9 11.2h-3c0 4.427-2.195 7.108-4.414 8.71zm-3.75 2.028a17 17 0 0 0 3.75-2.028l-1.756-2.432a14 14 0 0 1-3.081 1.664zm-1.252.43c.312-.092.742-.231 1.252-.43l-1.087-2.796c-.421.164-.77.276-1.01.347zm-.377.103q.141-.036.377-.104l-.845-2.878a8 8 0 0 1-.275.075zm-.114.028.114-.028-.743-2.907-.067.017zm-.031.008.025-.006-.684-2.921-.026.006zm-.017.003.008-.001-.668-2.925-.008.002zm-.007.002h.003l-.66-2.927h-.002zm-.004 0-.653-2.927h-.001zm-1.954-1.87.143.643.043.18a1.5 1.5 0 0 0 .102.26 1.5 1.5 0 0 0 1.624.797l.03-.006.01-.003-.65-2.929c-.036.009.26-.075.61-.008a1.5 1.5 0 0 1 1.156 1.056q.01.028.011.04l.007.028-.016-.07-.142-.638zm.976 1.871.01.003.03.006a1.5 1.5 0 0 0 .57 0 1.5 1.5 0 0 0 1.179-1.147l.02-.09.143-.643-2.928-.65-.142.638-.016.07.007-.029.01-.039a1.5 1.5 0 0 1 .333-.594 1.5 1.5 0 0 1 .823-.462c.35-.067.647.017.61.008zm-.003 0 .654-2.928zm-.006-.002.003.001.66-2.927h-.003zm-.012-.002.008.002.668-2.925-.008-.002zm-.035-.008.026.006.685-2.921-.026-.006zm-.12-.03.115.028.696-2.918-.067-.017zm-.376-.104q.235.068.377.104l.743-2.907a8 8 0 0 1-.275-.075zm-1.252-.429c.51.199.94.338 1.252.43l.845-2.88c-.24-.07-.589-.182-1.01-.346zm-3.75-2.028a17 17 0 0 0 3.75 2.028l1.087-2.796a14 14 0 0 1-3.08-1.664zM.5 11.2c0 5.619 2.863 9.125 5.658 11.143l1.756-2.432C5.695 18.308 3.5 15.627 3.5 11.2zm0-6.3v6.3h3V4.9zm.842-1.755A2.25 2.25 0 0 0 .5 4.9h3a.75.75 0 0 1-.28.585zm1.896-.441a2.25 2.25 0 0 0-1.896.44L3.22 5.486a.75.75 0 0 1-.632.147zm3.052-.178c-1.47.346-2.645.268-3.052.178l-.65 2.928c.914.203 2.552.247 4.39-.186zM10.609.16c-1.327 1.326-2.893 2.03-4.32 2.366l.689 2.92C8.83 5.01 10.933 4.078 12.73 2.28zm.127 22.264-.163.732 2.927.654.164-.732zm.975 2.523c.322.072.656.072.978 0l-.65-2.928a.74.74 0 0 1 .323 0zm2.116-1.791-.163-.732-2.928.654.164.732zm-1.855-2.672-.162.045.78 2.897q.095-.025.227-.064zm.89-.306c-.377.146-.685.245-.89.306l.845 2.878a14 14 0 0 0 1.131-.388zm2.746-1.482a12.5 12.5 0 0 1-2.747 1.482l1.087 2.796c.929-.36 2.17-.947 3.416-1.846zM19.4 11.2c0 3.833-1.863 6.101-3.792 7.495l1.756 2.432c2.507-1.811 5.036-4.905 5.036-9.927zm0-5.575V11.2h3V5.625zm-4.115.192c1.611.624 3.542 1.177 5.518 1.305l.194-2.994c-1.57-.101-3.19-.551-4.628-1.109zm-3.77-1.838a25 25 0 0 0 3.77 1.838l1.084-2.798a22 22 0 0 1-3.3-1.606zM7.323 6.906C9.22 6.46 11.379 5.54 13.297 3.81l-2.009-2.228C9.815 2.91 8.142 3.631 6.634 3.986zm-3.929.348c1.073.076 2.45 0 3.929-.348l-.688-2.92c-1.182.279-2.255.33-3.027.275zM5 11.2V5.757H2V11.2zm3.792 7.495C6.862 17.3 5 15.033 5 11.2H2c0 5.022 2.529 8.116 5.036 9.927zm2.747 1.482a12.5 12.5 0 0 1-2.747-1.482l-1.756 2.432c1.246.9 2.487 1.485 3.416 1.846zm.889.306a11 11 0 0 1-.89-.306l-1.086 2.796a14 14 0 0 0 1.13.388zm.161.045-.161-.045-.845 2.878q.131.039.227.064zM10.942 6.765l2.155 3.333 2.52-1.629-2.156-3.333zm3.03 3.969 3.836 1.02.77-2.9-3.836-1.02zm3.057-1.377-2.504 3.08 2.327 1.893 2.505-3.08zm-2.838 4.108.216 3.964 2.995-.164-.216-3.963zm2.254 2.483-3.703-1.43-1.081 2.798 3.703 1.43zm-4.784-1.43-3.703 1.43 1.08 2.798 3.704-1.43zm-1.665 2.91.216-3.963-2.996-.163L7 17.265zm-.118-4.991-2.504-3.08-2.328 1.893 2.504 3.08zm-3.283-.684 3.837-1.02-.771-2.899-3.837 1.02zm4.71-1.655 2.156-3.333-2.52-1.63L8.787 8.47z" mask="url(#opo-mask-2251473)"/></mask><g mask="url(#b)"><path fill="currentColor" d="M0 0h24v24H0z"/></g></svg>