<svg xmlns="http://www.w3.org/2000/svg" fill="none" viewBox="0 0 24 24" class="Icon Icon-interior"><path fill="currentColor" fill-rule="evenodd" d="M11.67 1.22a.75.75 0 0 1 .946-.094c.742.494 2.11 1.257 3.753 1.893 1.647.639 3.519 1.131 5.281 1.131a.75.75 0 0 1 .75.75v6.3c0 5.023-2.53 8.117-5.036 9.927a15.5 15.5 0 0 1-4.547 2.234 10 10 0 0 1-.416.112l-.026.006-.008.002h-.003v.001l-.164-.732-.163.732h-.004l-.008-.003-.026-.006a7 7 0 0 1-.416-.112 15.5 15.5 0 0 1-4.547-2.234C4.529 19.317 2 16.223 2 11.2V4.9a.75.75 0 0 1 .913-.732c.66.147 2.067.208 3.72-.182 1.64-.386 3.475-1.204 5.037-2.766m.53 21.53-.163.732c.107.024.22.024.326 0zm0-.773.195-.055a14 14 0 0 0 4.091-2.01c2.218-1.603 4.414-4.285 4.414-8.712V5.625c-1.773-.115-3.548-.616-5.073-1.207a23.3 23.3 0 0 1-3.535-1.722c-1.695 1.528-3.61 2.349-5.314 2.75-1.33.314-2.556.377-3.478.311V11.2c0 4.427 2.196 7.109 4.414 8.71a14 14 0 0 0 4.091 2.012z" clip-rule="evenodd"/><path fill="currentColor" fill-rule="evenodd" d="M14.356 9.284 12.2 5.95l-2.155 3.334-3.836 1.02 2.504 3.08-.216 3.963 3.703-1.43 3.703 1.43-.216-3.964 2.505-3.08zm1.208 1.873-1.594-.424a1.5 1.5 0 0 1-.874-.635L12.2 8.713l-.895 1.385a1.5 1.5 0 0 1-.874.635l-1.595.424 1.041 1.28a1.5 1.5 0 0 1 .334 1.028l-.09 1.647 1.539-.594a1.5 1.5 0 0 1 1.08 0l1.54.594-.09-1.647a1.5 1.5 0 0 1 .334-1.028z" clip-rule="evenodd"/></svg>