<svg xmlns="http://www.w3.org/2000/svg" class="Icon Icon-cat-juecesfiscales" fill="none" viewBox="0 0 24 24"><path fill="currentColor" fill-rule="evenodd" d="M4.095 10.11l5.516-5.515 4.808 4.809-5.515 5.515-4.809-4.808zm-1.068-.628l5.955-5.955a2.099 2.099 0 0 1 3.528-1.972l4.95 4.95a2.1 2.1 0 0 1-1.973 3.528l-1.492 1.492 8.768 8.768a.6.6 0 0 1 0 .849l-2.121 2.121a.6.6 0 0 1-.849 0l-8.768-8.768-1.492 1.493a2.099 2.099 0 0 1-3.528 1.972l-4.95-4.95a2.1 2.1 0 0 1 1.972-3.528zm.15 1.407a.9.9 0 0 0-1.274 1.273l4.95 4.95a.9.9 0 0 0 1.273-1.273l-4.95-4.95zM16.61 8.626a.9.9 0 0 1-1.273 0l-4.95-4.95a.9.9 0 1 1 1.274-1.273l4.95 4.95a.9.9 0 0 1 0 1.273zm3.607 13.364l-8.344-8.343 1.272-1.273 8.344 8.344-1.272 1.272z" clip-rule="evenodd"/></svg>
