<svg xmlns="http://www.w3.org/2000/svg" fill="none" viewBox="0 0 24 24" class="Icon Icon-jueces-y-fiscales"><path fill="currentColor" fill-rule="evenodd" d="M11.546 3.22a.75.75 0 0 1 1.06 0l3.935 3.934a.75.75 0 1 1-1.061 1.06L14.194 6.93 11.83 9.292l9.976 9.809a.75.75 0 0 1-1.051 1.07l-9.986-9.818-2.195 2.196 1.286 1.286a.75.75 0 0 1-1.061 1.06l-4.008-4.008a.75.75 0 0 1 1.06-1.06l1.662 1.661 5.62-5.62-1.587-1.588a.75.75 0 0 1 0-1.06M2 20.076a.75.75 0 0 1 .75-.75h11.4a.75.75 0 0 1 0 1.5H2.75a.75.75 0 0 1-.75-.75" clip-rule="evenodd"/></svg>