<svg xmlns="http://www.w3.org/2000/svg" fill="none" class="Icon Icon-cat-justicia" viewBox="0 0 24 24"><g clip-path="url(#clip0)"><path fill="currentColor" d="M4.235 1.793v.07l-4.1 9.177a.381.381 0 0 0 0 .07v.134a4.829 4.829 0 1 0 9.656.007v-.154a.206.206 0 0 0 0-.064L6.028 2.972h5.203v18.847H4.878a.763.763 0 0 0 0 1.518h14.237a.762.762 0 1 0 0-1.518h-6.353V2.972h5.203l-3.6 8.096a.378.378 0 0 0 0 .07v.235a4.835 4.835 0 0 0 9.663 0v-.198a.668.668 0 0 1 0-.092l-4.306-9.324-.063-.07-.064-.057-.056-.043-.48-.134H4.694l-.176.057-.057.042-.077.056-.064.057-.042.05-.043.077zM7.97 12.494a3.296 3.296 0 0 1-6.211 0l-.127-.36h6.473l-.135.36zm-.204-1.906H1.962L4.864 4.08l2.9 6.508zm11.35-6.508l2.909 6.508h-5.789l2.88-6.508zm3.106 8.414a3.296 3.296 0 0 1-6.212 0l-.127-.36h6.473l-.134.36z"/></g></svg>