<svg xmlns="http://www.w3.org/2000/svg" fill="none" viewBox="0 0 24 24" class="Icon Icon-justicia"><path fill="currentColor" fill-rule="evenodd" d="M10.918 4.5H5.637l2.383 6.052a.8.8 0 0 1 .052.275 3.536 3.536 0 1 1-7.072 0 .8.8 0 0 1 .052-.275l2.786-7.077A.75.75 0 0 1 4.536 3h14.265a.75.75 0 0 1 .698.475l2.786 7.077q.051.131.052.275a3.536 3.536 0 0 1-7.072 0q0-.143.052-.275L17.7 4.5h-5.282v15.44h5.268a.75.75 0 0 1 0 1.5H5.873a.75.75 0 0 1 0-1.5h5.045zm7.883 1.297 2.032 5.161a2.036 2.036 0 0 1-4.064 0zm-14.265 0 2.032 5.161a2.036 2.036 0 0 1-4.064 0z" clip-rule="evenodd"/></svg>