<svg xmlns="http://www.w3.org/2000/svg" class="Icon Icon-cat-medioambiente" fill="none" viewBox="0 0 32 32"><path fill="currentColor" d="M30.06,24,22.18,13.47h2.73a1,1,0,0,0,.77-1.54L17,.36a1,1,0,0,0-1.54,0L6.86,11.93a1,1,0,0,0-.09,1,1,1,0,0,0,.85.53h2.73L2.48,24a1,1,0,0,0,.77,1.53H15.31V31a1,1,0,0,0,1.92,0V16.93a1,1,0,0,0-1.93,0v6.69H5.16L13,13.08a1,1,0,0,0-.77-1.53H9.53l6.74-9,6.73,9H20.27a.94.94,0,0,0-.85.53,1,1,0,0,0,.09,1l7.87,10.54H21.06a1,1,0,1,0,0,1.91h8.23a.94.94,0,0,0,.85-.53A1,1,0,0,0,30.06,24Z"/></svg>
