<svg xmlns="http://www.w3.org/2000/svg" fill="none" viewBox="0 0 24 24" class="Icon Icon-medioambiente"><mask id="a" width="21" height="21" x="1" y="2" maskUnits="userSpaceOnUse" style="mask-type:alpha"><path fill="currentColor" fill-rule="evenodd" d="M1 2h.75c3.666 0 6.1 1.542 7.62 3.5 1.36 1.754 1.967 3.813 2.13 5.335.163-1.522.77-3.58 2.13-5.334C15.15 3.542 17.584 2 21.25 2H22v.75c0 1.555-.486 3.865-1.96 5.804-1.501 1.976-3.984 3.507-7.827 3.507h-.09v6.12a17.8 17.8 0 0 1 8.832 2.68.75.75 0 1 1-.793 1.273 16.3 16.3 0 0 0-8.64-2.463c-3.043 0-5.89.829-8.329 2.273a.75.75 0 1 1-.764-1.29 17.8 17.8 0 0 1 8.193-2.461V12.06c-3.749-.043-6.182-1.559-7.662-3.506C1.486 6.614 1 4.305 1 2.75zm8.945 8.533c-.203-1.236-.732-2.787-1.76-4.113-1.14-1.47-2.914-2.692-5.64-2.892.136 1.234.6 2.79 1.61 4.119 1.106 1.455 2.902 2.685 5.79 2.886m3.11 0c2.888-.2 4.685-1.43 5.79-2.886 1.01-1.328 1.474-2.885 1.61-4.119-2.726.2-4.5 1.422-5.64 2.892-1.028 1.326-1.557 2.877-1.76 4.113" clip-rule="evenodd"/></mask><g mask="url(#a)"><path fill="currentColor" d="M0 0h24v24H0z"/></g></svg>