<svg xmlns="http://www.w3.org/2000/svg" class="Icon Icon-cat-psicotecnicos" viewBox="0 0 34 34" fill="currentColor"><path d="M16.47 3.49A3.42 3.42 0 0 0 14.77.6a4.83 4.83 0 0 0-3.16-.54 5.39 5.39 0 0 0-3.37 1.77 4.27 4.27 0 0 0-1 3.08A5.61 5.61 0 0 0 2.91 6.5a5.54 5.54 0 0 0-1.63 5.15A3.87 3.87 0 0 0 2.65 14a4 4 0 0 0-.4 1.26 4.24 4.24 0 0 0 0 1.55 6.14 6.14 0 0 0 .09 9.61 5 5 0 0 0 2.86 1A5.48 5.48 0 0 0 6 30.3a7.09 7.09 0 0 0 4 3.41 7.4 7.4 0 0 0 2 .29 5.22 5.22 0 0 0 3.12-.93 4 4 0 0 0 1.39-2.91V27.5a.5.5 0 0 0 0-.18zm-10 23.63a2.46 2.46 0 0 1 1.13-1.81 3.12 3.12 0 0 0 .53.3 3.28 3.28 0 0 0 3.12-.31.65.65 0 0 0 .26-.42.69.69 0 0 0-.09-.49.65.65 0 0 0-.4-.27.6.6 0 0 0-.47.1 2 2 0 0 1-1.93.2 2.16 2.16 0 0 1-1.21-1.59 2.24 2.24 0 0 1 .63-1.92.68.68 0 0 0 0-.92.6.6 0 0 0-.88 0 3.49 3.49 0 0 0-.5 4.42A3.65 3.65 0 0 0 5.51 26a3.25 3.25 0 0 1-2.42-.73 4.62 4.62 0 0 1-1.82-3.86A4.7 4.7 0 0 1 2.82 18a2.9 2.9 0 0 0 1.46 1.14 2.45 2.45 0 0 0 2.36-.45.61.61 0 0 0 .22-.44.61.61 0 0 0-.14-.47.61.61 0 0 0-.88-.09 1.21 1.21 0 0 1-1.18.21 1.78 1.78 0 0 1-1-.94 2.68 2.68 0 0 1-.19-1.53A2.27 2.27 0 0 1 4.23 14a1.26 1.26 0 0 1 1.31-.22.57.57 0 0 0 .48 0 .6.6 0 0 0 .35-.33.67.67 0 0 0-.3-.87 2.49 2.49 0 0 0-2.61.38h0a2.57 2.57 0 0 1-1-1.57 4.23 4.23 0 0 1 1.29-3.94 4.37 4.37 0 0 1 3.43-1.24 2.57 2.57 0 0 0 .18 2.07.61.61 0 0 0 .85.23.68.68 0 0 0 .22-.89 1.23 1.23 0 0 1 .18-1.39A1.1 1.1 0 0 1 10 6.1a.61.61 0 0 0 .86-.2.67.67 0 0 0-.19-.9 2.29 2.29 0 0 0-2.18-.18 2.94 2.94 0 0 1 .73-2.13 4.22 4.22 0 0 1 2.61-1.34 3.65 3.65 0 0 1 2.37.38 2.16 2.16 0 0 1 1.07 1.89V8a3 3 0 0 1-1.61-.19 2.22 2.22 0 0 1-1.24-1.41 1.69 1.69 0 0 1 .45-1.65.68.68 0 0 0 .23-.44.67.67 0 0 0-.15-.47.59.59 0 0 0-.95-.11 3 3 0 0 0-.86 3A3.51 3.51 0 0 0 13.12 9a4.06 4.06 0 0 0 2.1.31v5.18a1.92 1.92 0 0 1-1.78 1.09A1.85 1.85 0 0 1 12 14.4a3.42 3.42 0 0 0 .68-1.22 3.63 3.63 0 0 0-.87-3.59.69.69 0 0 0-.45-.18.61.61 0 0 0-.43.21.67.67 0 0 0 0 .92 2.29 2.29 0 0 1 .55 2.24 2.17 2.17 0 0 1-1.71 1.48 2.14 2.14 0 0 1-2-1 .61.61 0 0 0-.86-.2.68.68 0 0 0-.19.9 3.32 3.32 0 0 0 3.22 1.58 3.34 3.34 0 0 0 1-.34 3.05 3.05 0 0 0 2.37 1.66 2.93 2.93 0 0 0 1.89-.54V26a3.12 3.12 0 0 0-2.65-.16 3.46 3.46 0 0 0-2 3.6.64.64 0 0 0 .62.55h.09a.63.63 0 0 0 .41-.26.65.65 0 0 0 .11-.49A2.12 2.12 0 0 1 13 27a2 2 0 0 1 2.19.57v2.63a2.75 2.75 0 0 1-.83 1.8 4.84 4.84 0 0 1-4.09.45 5.91 5.91 0 0 1-3.18-2.84 4 4 0 0 1-.58-2.49zm5.75-4.57a2.85 2.85 0 0 0 2.45-1.5 3.09 3.09 0 0 0-.23-3.17.61.61 0 0 0-.87-.12.67.67 0 0 0-.24.43.66.66 0 0 0 .12.48 1.72 1.72 0 0 1 .13 1.75 1.55 1.55 0 0 1-1.49.82 1.61 1.61 0 0 1-1.31-1.09.62.62 0 0 0-.31-.38.6.6 0 0 0-.47 0 .62.62 0 0 0-.36.33.64.64 0 0 0 0 .49 2.86 2.86 0 0 0 2.38 2zm19.49-5.79a4.24 4.24 0 0 0 0-1.55 4 4 0 0 0-.4-1.26 3.9 3.9 0 0 0 1.37-2.3 5.67 5.67 0 0 0-5.91-6.74 4.31 4.31 0 0 0-1-3.08A5.39 5.39 0 0 0 22.39.06a4.83 4.83 0 0 0-3.16.54 3.37 3.37 0 0 0-1.69 2.83v23.82a.57.57 0 0 0 0 .22v2.68a4 4 0 0 0 1.39 2.92A5.22 5.22 0 0 0 22 34h0a7.4 7.4 0 0 0 2-.29 7.09 7.09 0 0 0 4-3.41 5.48 5.48 0 0 0 .79-2.93 4.94 4.94 0 0 0 2.86-1 6.13 6.13 0 0 0 .09-9.6zM27.78 23a3.62 3.62 0 0 0-1-3.1.6.6 0 0 0-.88 0 .63.63 0 0 0-.16.46.65.65 0 0 0 .2.46 2.2 2.2 0 0 1 .63 1.91 2.16 2.16 0 0 1-1.21 1.6 2 2 0 0 1-1.93-.2.61.61 0 0 0-.87.17.7.7 0 0 0-.09.49.65.65 0 0 0 .26.42 3.31 3.31 0 0 0 3.12.31 3.12 3.12 0 0 0 .53-.3 2.42 2.42 0 0 1 1.13 1.81 4 4 0 0 1-.58 2.5 5.91 5.91 0 0 1-3.18 2.84 4.8 4.8 0 0 1-4.11-.37 2.61 2.61 0 0 1-.86-1.84v-2.55A2 2 0 0 1 21 27a2.12 2.12 0 0 1 1.19 2.19.67.67 0 0 0 .11.49.58.58 0 0 0 .39.25h.11a.63.63 0 0 0 .62-.55 3.45 3.45 0 0 0-2-3.59 3.12 3.12 0 0 0-2.65.16v-9.62a3 3 0 0 0 1.89.54A3.05 3.05 0 0 0 23 15.21 3.18 3.18 0 0 0 27.3 14a.65.65 0 0 0 .08-.49.62.62 0 0 0-.27-.41.65.65 0 0 0-.47-.09.63.63 0 0 0-.39.29 2.09 2.09 0 0 1-2 1 2.15 2.15 0 0 1-1.71-1.47 2.32 2.32 0 0 1 .55-2.25.67.67 0 0 0 0-.92.6.6 0 0 0-.88 0 3.63 3.63 0 0 0-.87 3.59A3.35 3.35 0 0 0 22 14.4a1.85 1.85 0 0 1-1.47 1.17 2 2 0 0 1-1.78-1.09V9.3a4.07 4.07 0 0 0 2.13-.3 3.45 3.45 0 0 0 1.95-2.26 3 3 0 0 0-.86-3 .58.58 0 0 0-.45-.15.61.61 0 0 0-.42.23.65.65 0 0 0-.14.48.63.63 0 0 0 .22.44 1.69 1.69 0 0 1 .45 1.65 2.22 2.22 0 0 1-1.24 1.41 2.87 2.87 0 0 1-1.61.2V3.57a2.14 2.14 0 0 1 1.07-1.84 3.65 3.65 0 0 1 2.37-.38 4.17 4.17 0 0 1 2.61 1.34 2.94 2.94 0 0 1 .73 2.13 2.29 2.29 0 0 0-2.18.18.67.67 0 0 0-.19.9.58.58 0 0 0 .39.28.56.56 0 0 0 .47-.09 1.12 1.12 0 0 1 1.34.14 1.23 1.23 0 0 1 .18 1.39.69.69 0 0 0-.07.49.65.65 0 0 0 .29.39.63.63 0 0 0 .86-.22 2.57 2.57 0 0 0 .16-2.07 4.32 4.32 0 0 1 3.44 1.24 4.23 4.23 0 0 1 1.26 3.92 2.57 2.57 0 0 1-1 1.57h0a2.51 2.51 0 0 0-2.61-.37.67.67 0 0 0-.3.87.62.62 0 0 0 .83.31 1.26 1.26 0 0 1 1.31.22 2.27 2.27 0 0 1 .75 1.45 2.68 2.68 0 0 1-.19 1.53 1.78 1.78 0 0 1-1 .94 1.21 1.21 0 0 1-1.18-.21.6.6 0 0 0-.46-.15.59.59 0 0 0-.42.24.67.67 0 0 0 .08.91 2.47 2.47 0 0 0 2.36.45 2.9 2.9 0 0 0 1.5-1.13 4.7 4.7 0 0 1 1.55 3.46 4.62 4.62 0 0 1-1.82 3.86 3.32 3.32 0 0 1-2.42.73 3.65 3.65 0 0 0-1.23-1.66 3.62 3.62 0 0 0 .52-1.39zM24 19.73h0a.61.61 0 0 0-.78.42 1.61 1.61 0 0 1-1.31 1.09 1.55 1.55 0 0 1-1.49-.82 1.72 1.72 0 0 1 .13-1.75.68.68 0 0 0 .12-.48.67.67 0 0 0-.24-.43.59.59 0 0 0-.46-.13.6.6 0 0 0-.41.25 3.09 3.09 0 0 0-.23 3.17 2.87 2.87 0 0 0 2.45 1.5h.24a2.85 2.85 0 0 0 2.38-2 .66.66 0 0 0-.4-.82zm-.1.3z"/></svg>
