<svg xmlns="http://www.w3.org/2000/svg" fill="none" viewBox="0 0 24 24" class="Icon Icon-psicotecnicos"><path fill="currentColor" fill-rule="evenodd" d="M11.73 1.912c.511-.433 1.19-.662 2.02-.662.818 0 1.496.196 2.013.592.519.399.798.94.929 1.483.153.639.113 1.323-.005 1.925H19.5c1.244 0 2.095.535 2.609 1.25a3.54 3.54 0 0 1 .641 2V12a.75.75 0 0 1-1.085.67c-.893-.445-1.653-.488-2.127-.29-.398.166-.788.586-.788 1.62 0 .465.134.716.276.864.153.16.392.279.722.334s.704.037 1.055-.035c.358-.072.634-.19.781-.287a.75.75 0 0 1 1.166.624v3c0 1.392-.493 2.359-1.197 2.967a3.23 3.23 0 0 1-2.053.783H9c-1.444 0-2.42-.619-3.009-1.437A4.1 4.1 0 0 1 5.25 18.5v-2.182c-1.846.592-4-.627-4-2.818s2.154-3.41 4-2.818V9.5c0-1.555.468-2.635 1.155-3.328C7.077 5.494 7.9 5.25 8.5 5.25h2.294a4.6 4.6 0 0 1 .032-1.797c.13-.55.4-1.114.904-1.541m.556 1.885c-.162.69.006 1.51.185 1.868A.75.75 0 0 1 11.8 6.75H8.5c-.232 0-.66.106-1.03.478-.354.357-.72 1.027-.72 2.272V12a.75.75 0 0 1-1.28.53c-1.075-1.075-2.72-.295-2.72.97s1.645 2.045 2.72.97a.75.75 0 0 1 1.28.53v3.5c0 .38.12.966.459 1.437.31.431.835.813 1.791.813h10.5c.265 0 .708-.103 1.072-.418.337-.291.678-.824.678-1.832v-1.9l-.147.033a4.5 4.5 0 0 1-1.601.044c-.545-.09-1.119-.316-1.56-.775-.451-.473-.692-1.117-.692-1.902 0-1.466.61-2.546 1.712-3.005.7-.292 1.5-.288 2.288-.08V8.5a2.04 2.04 0 0 0-.359-1.124c-.236-.328-.635-.626-1.391-.626h-3.8a.75.75 0 0 1-.702-1.013c.227-.607.385-1.44.235-2.062-.07-.29-.196-.499-.383-.642-.19-.146-.518-.283-1.1-.283-.546 0-.86.146-1.05.307q-.298.25-.414.74" clip-rule="evenodd"/></svg>