<svg xmlns="http://www.w3.org/2000/svg" fill="none" viewBox="0 0 24 24" class="Icon Icon-sanidad-celadores"><mask id="a" width="22" height="17" x="1" y="4" maskUnits="userSpaceOnUse" style="mask-type:alpha"><path fill="currentColor" fill-rule="evenodd" d="M1.71 4.535c.87-.773 2.205-.7 2.981.166l3.096 3.452h12.595a2.11 2.11 0 0 1 2.118 2.106 2.11 2.11 0 0 1-2.118 2.107H20V15h1.25a.75.75 0 0 1 0 1.5h-.308a2.43 2.43 0 0 1 .966 1.94 2.447 2.447 0 0 1-2.454 2.44A2.447 2.447 0 0 1 17 18.44c0-.793.38-1.495.966-1.94H8.942a2.43 2.43 0 0 1 .966 1.94 2.447 2.447 0 0 1-2.454 2.44A2.447 2.447 0 0 1 5 18.44c0-.793.38-1.495.966-1.94H4.75a.75.75 0 0 1 0-1.5H6.5v-2.634h-.582l-.24-.237-4.14-4.617a2.1 2.1 0 0 1 .172-2.977M8 12.366V15h10.5v-2.634zM3.575 5.702a.62.62 0 0 0-.869-.046l-.002.003a.597.597 0 0 0-.05.85l3.907 4.357h13.821A.61.61 0 0 0 21 10.26a.61.61 0 0 0-.618-.606H7.341l-.318-.105zM7.454 17.5a.947.947 0 0 0-.954.94c0 .514.421.94.954.94a.947.947 0 0 0 .954-.94.947.947 0 0 0-.954-.94m12 0a.947.947 0 0 0-.954.94c0 .514.421.94.954.94a.947.947 0 0 0 .954-.94.947.947 0 0 0-.954-.94" clip-rule="evenodd"/></mask><g mask="url(#a)"><path fill="currentColor" d="M0 0h24v24H0z"/></g></svg>