<svg xmlns="http://www.w3.org/2000/svg" fill="none" viewBox="0 0 24 24" class="Icon Icon-sanidad-legislacion"><path fill="currentColor" fill-rule="evenodd" d="M3 2.75A2.75 2.75 0 0 1 5.75 0h13a2.75 2.75 0 0 1 2.75 2.75v18a2.75 2.75 0 0 1-2.75 2.75h-13A2.75 2.75 0 0 1 3 20.75zM5.75 1.5c-.69 0-1.25.56-1.25 1.25v18c0 .69.56 1.25 1.25 1.25h13c.69 0 1.25-.56 1.25-1.25v-18c0-.69-.56-1.25-1.25-1.25zm2.2 2.25A.75.75 0 0 1 8.7 3h2.1a.75.75 0 0 1 .75.75v1.2h1.2a.75.75 0 0 1 .75.75v2.1a.75.75 0 0 1-.75.75h-1.2v1.2a.75.75 0 0 1-.75.75H8.7a.75.75 0 0 1-.75-.75v-1.2h-1.2A.75.75 0 0 1 6 7.8V5.7a.75.75 0 0 1 .75-.75h1.2zm1.5.75v1.2a.75.75 0 0 1-.75.75H7.5v.6h1.2a.75.75 0 0 1 .75.75V9h.6V7.8a.75.75 0 0 1 .75-.75H12v-.6h-1.2a.75.75 0 0 1-.75-.75V4.5zM6 12.75a.75.75 0 0 1 .75-.75h11a.75.75 0 0 1 0 1.5h-11a.75.75 0 0 1-.75-.75m0 3a.75.75 0 0 1 .75-.75h11a.75.75 0 0 1 0 1.5h-11a.75.75 0 0 1-.75-.75m0 3a.75.75 0 0 1 .75-.75h11a.75.75 0 0 1 0 1.5h-11a.75.75 0 0 1-.75-.75" clip-rule="evenodd"/></svg>