<svg xmlns="http://www.w3.org/2000/svg" fill="none" class="Icon Icon-cat-sanidad-celadores" viewBox="0 0 24 24"><path fill="currentColor" d="M23.132 7.814H6.529V5.38a.607.607 0 0 0-.6-.6H1.47V3.367a.6.6 0 0 0-1.2 0v9.106a.6.6 0 0 0 .6.6h1.41v4.878h-.402a.6.6 0 0 0-.6.6.579.579 0 0 0 .494.571l.5.092-.36.36a2.118 2.118 0 1 0 3.6 1.504 2.075 2.075 0 0 0-.57-1.49l-.438-.451h15.028l-.438.451a2.076 2.076 0 0 0-.607 1.476 2.119 2.119 0 1 0 3.6-1.504l-.36-.36.501-.092a.579.579 0 0 0 .494-.572.6.6 0 0 0-.6-.6h-.41V13.06h1.413a.6.6 0 0 0 .6-.6V8.414a.6.6 0 0 0-.593-.6zM1.468 5.98H5.33v1.835H1.47V5.98zm1.927 16a.917.917 0 1 1 0-1.834.917.917 0 0 1 0 1.834zm.092-4.045V13.06h17.026v4.877H3.487zm17.118 4.045a.917.917 0 1 1 0-1.834.917.917 0 0 1 0 1.834zm1.927-10.122H1.468V9.035h21.064v2.824z"/></svg>