<svg xmlns="http://www.w3.org/2000/svg" fill="none" class="Icon Icon-cat-sanidad-otras" viewBox="0 0 24 24"><g clip-path="url(#clip0)"><path fill="currentColor" d="M22.503 14.047l-.169-.064v-1.22a4.694 4.694 0 1 0-9.388 0v4.065a3.225 3.225 0 1 1-6.445 0v-2.42l.226-.036a5.76 5.76 0 0 0 4.786-5.647V4.489a.706.706 0 0 0-.706-.705h-1.97v-.34a.706.706 0 1 0-1.411 0v1.977a.706.706 0 0 0 1.412 0v-.24h1.2v3.53a4.283 4.283 0 0 1-8.288 1.692 4.285 4.285 0 0 1-.275-1.692V5.18h1.2v.261a.724.724 0 0 0 1.447 0V3.466a.706.706 0 0 0-1.411 0v.261H.706A.706.706 0 0 0 0 4.433v4.235a5.746 5.746 0 0 0 4.779 5.647l.226.043V16.8a4.694 4.694 0 1 0 9.388 0v-4.094a3.22 3.22 0 0 1 6.438 0v1.221l-.163.07a2.423 2.423 0 0 0 .767 4.66A2.42 2.42 0 0 0 24 16.272a2.415 2.415 0 0 0-1.497-2.224zm-.924 3.198a.953.953 0 1 1 .946-.953.96.96 0 0 1-.946.953z"/></g></svg>