<svg xmlns="http://www.w3.org/2000/svg" fill="none" viewBox="0 0 24 24" class="Icon Icon-sanidad-cuerpos-administrativos"><mask id="a" width="21" height="18" x="1" y="3" maskUnits="userSpaceOnUse" style="mask-type:alpha"><path fill="currentColor" fill-rule="evenodd" d="M9.524 9a.75.75 0 0 1 .75-.75h2.452a.75.75 0 0 1 .75.75v1.524H15a.75.75 0 0 1 .75.75v2.452a.75.75 0 0 1-.75.75h-1.524V16a.75.75 0 0 1-.75.75h-2.452a.75.75 0 0 1-.75-.75v-1.524H8a.75.75 0 0 1-.75-.75v-2.452a.75.75 0 0 1 .75-.75h1.524zm1.5.75v1.524a.75.75 0 0 1-.75.75H8.75v.952h1.524a.75.75 0 0 1 .75.75v1.524h.952v-1.524a.75.75 0 0 1 .75-.75h1.524v-.952h-1.524a.75.75 0 0 1-.75-.75V9.75z" clip-rule="evenodd"/><path fill="currentColor" fill-rule="evenodd" d="M1 18.9V4.6A1.6 1.6 0 0 1 2.6 3h6.595a1.6 1.6 0 0 1 1.356.752l1.137 1.82H20.4a1.6 1.6 0 0 1 1.6 1.6V18.9a1.6 1.6 0 0 1-1.6 1.6H2.6A1.6 1.6 0 0 1 1 18.9M2.5 4.6v14.3a.1.1 0 0 0 .1.1h17.8a.1.1 0 0 0 .1-.1V7.171a.1.1 0 0 0-.1-.1h-9.487a.1.1 0 0 1-.085-.047L9.279 4.547a.1.1 0 0 0-.084-.047H2.6a.1.1 0 0 0-.1.1" clip-rule="evenodd"/></mask><g mask="url(#a)"><path fill="currentColor" d="M0 0h24v24H0z"/></g></svg>