<svg xmlns="http://www.w3.org/2000/svg" fill="none" viewBox="0 0 24 24" class="Icon Icon-sanidad-auxiliares-enfermeria"><mask id="opo-mask-32826018" width="22" height="21" x="1" y="2" maskUnits="userSpaceOnUse" style="mask-type:alpha"><path fill="currentColor" fill-rule="evenodd" d="M10.478 3.5c-.572 0-.978.436-.978.9v1.708H14V4.4c0-.464-.406-.9-.978-.9zM15.5 6.108V4.4c0-1.357-1.143-2.4-2.478-2.4h-2.544C9.143 2 8 3.043 8 4.4v1.708H4.69C2.68 6.108 1 7.68 1 9.683v9.243C1 20.929 2.68 22.5 4.69 22.5h14.12c2.01 0 3.69-1.57 3.69-3.568v-9.25c0-2.003-1.68-3.574-3.69-3.574zm-10.81 1.5c-1.24 0-2.19.956-2.19 2.075v9.243C2.5 20.045 3.45 21 4.69 21h14.12c1.24 0 2.19-.957 2.19-2.068v-9.25c0-1.118-.95-2.074-2.19-2.074zM9.599 9.75a.75.75 0 0 1 .75-.75h2.802a.75.75 0 0 1 .75.75v1.849h1.849a.75.75 0 0 1 .75.75v2.802a.75.75 0 0 1-.75.75h-1.849v1.849a.75.75 0 0 1-.75.75H10.35a.75.75 0 0 1-.75-.75v-1.849H7.75a.75.75 0 0 1-.75-.75V12.35a.75.75 0 0 1 .75-.75h1.849zm1.5.75v1.849a.75.75 0 0 1-.75.75H8.5V14.4h1.849a.75.75 0 0 1 .75.75V17H12.4v-1.849a.75.75 0 0 1 .75-.75H15V13.1h-1.849a.75.75 0 0 1-.75-.75V10.5z" clip-rule="evenodd"/></mask><g mask="url(#opo-mask-32826018)"><path fill="currentColor" d="M0 0h24v24H0z"/></g></svg>