<svg xmlns="http://www.w3.org/2000/svg" fill="none" viewBox="0 0 24 24" class="Icon Icon-sanidad-otras-categorias"><mask id="a" width="22" height="19" x="1" y="3" maskUnits="userSpaceOnUse" style="mask-type:alpha"><path fill="currentColor" fill-rule="evenodd" d="M20.15 19.95a1.1 1.1 0 1 0 0-2.2 1.1 1.1 0 0 0 0 2.2m0 1.5a2.6 2.6 0 1 0 0-5.2 2.6 2.6 0 0 0 0 5.2" clip-rule="evenodd"/><path fill="currentColor" fill-rule="evenodd" d="M1 3.75A.75.75 0 0 1 1.75 3h2a.75.75 0 0 1 0 1.5H2.5v3.25c0 .527.185 1.351.733 2.028C3.755 10.423 4.659 11 6.25 11s2.495-.577 3.017-1.222C9.815 9.1 10 8.278 10 7.75V4.5H8.25a.75.75 0 0 1 0-1.5h2.5a.75.75 0 0 1 .75.75v4c0 .806-.265 1.982-1.067 2.972-.72.89-1.833 1.577-3.433 1.74v4.787c.001.367.129.945.495 1.414.34.435.931.837 2.009.837 1.394 0 1.941-.515 2.194-.944.294-.498.302-1.065.302-1.306v-2.993c-.01-.66.215-1.598.91-2.38.719-.81 1.871-1.377 3.562-1.377s2.849.567 3.578 1.371c.708.78.95 1.718.95 2.379v2.5a.75.75 0 0 1-1.5 0v-2.5c0-.339-.136-.902-.561-1.371-.405-.446-1.136-.879-2.467-.879s-2.05.433-2.44.873a2.1 2.1 0 0 0-.532 1.363v3.025c0 .274 0 1.193-.51 2.058-.558.946-1.634 1.681-3.486 1.681-1.519 0-2.554-.598-3.19-1.413a3.93 3.93 0 0 1-.814-2.335v-4.789c-1.6-.164-2.713-.852-3.433-1.74A4.88 4.88 0 0 1 1 7.75z" clip-rule="evenodd"/></mask><g mask="url(#a)"><path fill="currentColor" d="M0 0h24v24H0z"/></g></svg>