<svg xmlns="http://www.w3.org/2000/svg" fill="none" class="Icon Icon-cat-sanidad-cuerpos-administrativos" viewBox="0 0 24 24"><g fill="currentColor" clip-path="url(#clip0)"><path d="M20.47 4.984H16.9V3.042A2.327 2.327 0 0 0 14.57.706H9.431a2.33 2.33 0 0 0-2.33 2.33v1.948H3.53A3.53 3.53 0 0 0 0 8.513v11.252a3.53 3.53 0 0 0 3.53 3.53h16.94a3.53 3.53 0 0 0 3.53-3.53V8.47a3.53 3.53 0 0 0-3.53-3.487zM2.895 22.016l-.388-.19a2.294 2.294 0 0 1-1.278-2.061V8.47a2.294 2.294 0 0 1 1.278-2.047l.388-.191v15.784zM8.336 3.043a1.094 1.094 0 0 1 1.095-1.1h5.138a1.094 1.094 0 0 1 1.095 1.1v1.942H8.335V3.042zM19.878 22.06H4.122V6.212h15.756v15.847zm2.894-2.294a2.294 2.294 0 0 1-1.278 2.047l-.388.19V6.254l.388.19a2.294 2.294 0 0 1 1.278 2.027v11.294z"/><path d="M7.765 16.172h2.23v2.23a.614.614 0 0 0 .614.614h2.824a.614.614 0 0 0 .614-.614v-2.23h2.23a.614.614 0 0 0 .615-.614v-2.852a.614.614 0 0 0-.614-.614H14.04v-2.21a.615.615 0 0 0-.628-.635h-2.824a.614.614 0 0 0-.614.621v2.23h-2.21a.613.613 0 0 0-.613.615v2.824a.614.614 0 0 0 .614.635zm.614-2.824h2.21a.621.621 0 0 0 .62-.614v-2.252h1.61v2.224a.622.622 0 0 0 .621.614h2.23v1.617h-2.258a.621.621 0 0 0-.621.614v2.237h-1.596V15.53a.621.621 0 0 0-.62-.614H8.343l.035-1.567z"/></g></svg>