<svg xmlns="http://www.w3.org/2000/svg" fill="none" class="Icon Icon-cat-sanidad-legislacion" viewBox="0 0 24 24"><g fill="currentColor" clip-path="url(#clip0)"><path d="M21.395 4.546v-.311h-.035a2.223 2.223 0 0 1 0-3.155.607.607 0 0 0 .127-.656.6.6 0 0 0-.685-.424h-15.6a2.605 2.605 0 0 0-2.604 2.598v18.804A2.605 2.605 0 0 0 5.202 24h15.6a.6.6 0 0 0 .6-.6V4.588s-.007-.028-.007-.042zM5.202 1.2h14.471a3.401 3.401 0 0 0 0 2.824H5.203a1.412 1.412 0 0 1 0-2.824zm.82 21.6h-.82a1.412 1.412 0 0 1-1.411-1.412V4.786c.42.272.91.416 1.411.416h.82V22.8zm14.18 0H7.222V5.202h12.98V22.8z"/><path d="M10.066 15.678a.753.753 0 0 0 .572.204h1.411v.607a7.132 7.132 0 0 0 0 .777.706.706 0 0 0 .128.508.706.706 0 0 0 .585.268h1.913a.708.708 0 0 0 .53-.204.704.704 0 0 0 .204-.53v-1.412h1.412a.706.706 0 0 0 .77-.705v-1.906a.705.705 0 0 0-.791-.706h-1.405v-.854a1.122 1.122 0 0 0 0-.31v-.079a.987.987 0 0 0-.254-.783.918.918 0 0 0-.783-.177h-1.582a.706.706 0 0 0-.776.728v1.411h-1.567a.628.628 0 0 0-.473.268.706.706 0 0 0-.134.396v1.948a.762.762 0 0 0 .24.55zm2.061-1.935h.148a.888.888 0 0 0 .989-.988v-1.171h.917v1.34a.988.988 0 0 0 .099.488.622.622 0 0 0 .543.324h1.518v.911H15a.748.748 0 0 0-.706.325.649.649 0 0 0-.099.339V16.8h-.946v-1.504a.607.607 0 0 0-.522-.607 4.237 4.237 0 0 0-.784 0h-.854v-.917l1.038-.029z"/></g></svg>