<svg xmlns="http://www.w3.org/2000/svg" fill="none" class="Icon Icon-cat-sanidad-auxiliares-enfermeria" viewBox="0 0 24 24"><g fill="currentColor" clip-path="url(#clip0)"><path d="M22.878 4.807a.832.832 0 0 0-.367-.635C22.362 4.08 18.868 1.8 12 1.8 5.132 1.8 1.638 4.08 1.496 4.172a.84.84 0 0 0-.374.635L0 18.282v3.325a.847.847 0 0 0 1.087.812A44.386 44.386 0 0 1 12 20.78c3.692.09 7.358.64 10.913 1.638a.862.862 0 0 0 .748-.134.842.842 0 0 0 .339-.706V18.26a.503.503 0 0 1 0-.092L22.878 4.807zm-20.11.579l.133-.064C3.988 4.772 7.06 3.487 12 3.487s8.012 1.285 9.099 1.828l.134.07.967 11.556-.395-.141A29.647 29.647 0 0 0 12 15.19a29.66 29.66 0 0 0-9.805 1.617l-.395.141.967-11.562zM22.312 20.47l-.339-.078A43.642 43.642 0 0 0 12 19.094a43.637 43.637 0 0 0-9.974 1.327l-.339.05v-1.66l.17-.07A27.94 27.94 0 0 1 12 16.878a27.902 27.902 0 0 1 10.143 1.863l.17.07v1.66z"/><path d="M12.847 11.57v-1.412h1.412a.847.847 0 1 0 0-1.694h-1.412V7.052a.847.847 0 1 0-1.694 0v1.412H9.74a.847.847 0 0 0 0 1.694h1.412v1.411a.847.847 0 0 0 1.694 0z"/></g></svg>