<svg xmlns="http://www.w3.org/2000/svg" fill="none" class="Icon Icon-cat-seguridad-social" viewBox="0 0 24 24"><g fill="currentColor" clip-path="url(#clip0)"><path d="M19.059.91A4.313 4.313 0 0 0 16.46 0C14.457 0 12.784 1.412 12 2.252 11.216 1.412 9.544 0 7.539 0A4.313 4.313 0 0 0 4.94.91a4.32 4.32 0 0 0-1.708 4.158c.395 3.403 3.741 6.974 8.513 9.05a.705.705 0 0 0 .508 0c4.772-2.076 8.118-5.647 8.513-9.05A4.32 4.32 0 0 0 19.059.911zm.438 4.031c-.255 2.224-2.38 5.647-7.497 7.892-5.118-2.301-7.242-5.69-7.496-7.892A3.141 3.141 0 0 1 7.539 1.3c2.117 0 3.939 2.308 3.96 2.33a.657.657 0 0 0 1.01 0s1.835-2.33 3.952-2.33a3.141 3.141 0 0 1 3.036 3.642zM7.242 24h3.826a.643.643 0 0 0 .643-.642v-3.149a4.137 4.137 0 0 0-2.083-3.444 11.032 11.032 0 0 1-2.04-1.942 18.15 18.15 0 0 0-1.56-1.552 1.222 1.222 0 0 0-.932-.325 1.258 1.258 0 0 0-.86.466 1.475 1.475 0 0 0-.177 1.164c.146.604.415 1.171.79 1.666.38.541.83 1.028 1.342 1.447a.635.635 0 0 0 .905-.086.642.642 0 0 0 .14-.471.664.664 0 0 0-.177-.403 6.201 6.201 0 0 1-1.144-1.2 3.233 3.233 0 0 1-.564-1.157c.45.42.88.862 1.284 1.327.667.798 1.43 1.51 2.273 2.118 1.052.705 1.525 1.468 1.525 2.392v2.513H7.849v-.254c0-.29 0-.564-.042-.89a2.238 2.238 0 0 0-.706-1.552 73.155 73.155 0 0 1-1.475-1.504l-.064-.063a68.37 68.37 0 0 0-1.235-1.264 1.207 1.207 0 0 1-.303-.487c-.318-.924-.544-1.637-.706-2.3a4.826 4.826 0 0 1-.05-.566 33.175 33.175 0 0 1 .07-3.367c.107.58.17 1.168.191 1.758a.656.656 0 0 0 .432.564.601.601 0 0 0 .246.029.65.65 0 0 0 .445-.212.607.607 0 0 0 .155-.459c-.085-1.412-.17-2.28-.628-2.746a1.228 1.228 0 0 0-2.118.791 35.534 35.534 0 0 0-.085 3.692c.022.288.07.574.142.854.19.706.416 1.412.748 2.386.126.364.333.695.607.967.423.416.833.84 1.228 1.256a60.8 60.8 0 0 0 1.532 1.553 1.01 1.01 0 0 1 .325.748c0 .332 0 .615.035.918.035.304 0 .508 0 .819a.643.643 0 0 0 .65.607zm10.843-8.47a6.3 6.3 0 0 1-1.144 1.207.635.635 0 0 0-.226.43.656.656 0 0 0 .142.466.634.634 0 0 0 .903.085c.51-.42.962-.906 1.341-1.447a4.513 4.513 0 0 0 .79-1.666 1.411 1.411 0 0 0-.126-1.193 1.156 1.156 0 0 0-1.765-.17 17.224 17.224 0 0 0-1.588 1.581 11.729 11.729 0 0 1-2.04 1.913 4.135 4.135 0 0 0-2.083 3.445v3.148a.642.642 0 0 0 .643.643h3.826a.643.643 0 0 0 .642-.607c0-.31 0-.572.035-.82v-.063c0-.275 0-.543.036-.854a.974.974 0 0 1 .31-.706 81.576 81.576 0 0 0 1.553-1.58c.395-.41.798-.834 1.221-1.25.278-.269.49-.597.622-.96.324-.94.564-1.701.748-2.386.058-.284.09-.572.098-.861a35.5 35.5 0 0 0-.084-3.685 1.228 1.228 0 0 0-2.118-.79c-.459.465-.55 1.411-.628 2.745a.608.608 0 0 0 .155.46.65.65 0 0 0 .445.21.586.586 0 0 0 .459-.154.657.657 0 0 0 .219-.445c.02-.588.084-1.173.19-1.75.08 1.12.104 2.243.07 3.366a4.992 4.992 0 0 1-.049.565c-.183.664-.41 1.412-.705 2.301a1.203 1.203 0 0 1-.304.487c-.43.424-.847.854-1.264 1.292a59.626 59.626 0 0 1-1.51 1.532l-.057.063a2.18 2.18 0 0 0-.607 1.497c0 .332-.035.614-.042.918v.225h-2.626V20.21c0-.924.473-1.665 1.525-2.392a12.444 12.444 0 0 0 2.273-2.118c.402-.467.83-.91 1.284-1.327-.106.42-.299.815-.564 1.157z"/></g></svg>