<svg xmlns="http://www.w3.org/2000/svg" fill="none" viewBox="0 0 24 24" class="Icon Icon-seguridad-social"><mask id="a" width="21" height="19" x="2" y="3" maskUnits="userSpaceOnUse" style="mask-type:alpha"><path fill="currentColor" fill-rule="evenodd" d="M18.415 3.766A3.63 3.63 0 0 0 16.23 3c-1.22 0-2.292.62-3.043 1.231a7 7 0 0 0-.712.664 7 7 0 0 0-.712-.664C11.012 3.621 9.938 3 8.719 3a3.63 3.63 0 0 0-2.186.766 3.64 3.64 0 0 0-1.438 3.5c.333 2.863 3.149 5.87 7.165 7.616.138.053.29.053.428 0 4.016-1.746 6.832-4.753 7.165-7.616a3.64 3.64 0 0 0-1.438-3.5m-5.941 9.568c3.562-1.66 5.654-4.22 5.889-6.241l.003-.031.005-.031a2.14 2.14 0 0 0-.844-2.056l-.017-.012-.017-.013a2.13 2.13 0 0 0-1.273-.45c-1.03.005-2.057.783-2.65 1.418l-1.096 1.176-1.097-1.176c-.592-.635-1.618-1.413-2.649-1.418a2.13 2.13 0 0 0-1.273.45l-.017.013-.017.012a2.14 2.14 0 0 0-.845 2.056l.005.03.004.032c.235 2.022 2.327 4.58 5.889 6.24M2.675 9.004a.75.75 0 0 1 .821.671c.19 1.898 1.725 3.315 3.527 4.817l.263.22c.777.646 1.582 1.314 2.203 2.014.696.784 1.258 1.71 1.258 2.824v1.1a.75.75 0 0 1-1.5 0v-1.1c0-.579-.287-1.16-.88-1.828-.54-.609-1.253-1.202-2.05-1.865l-.255-.213c-1.71-1.426-3.798-3.217-4.058-5.82a.75.75 0 0 1 .671-.82m19.434.048a.75.75 0 0 1 .689.807c-.2 2.531-2.053 4.323-3.587 5.768l-.212.199c-.718.675-1.361 1.279-1.848 1.898-.527.67-.798 1.268-.798 1.876v1.1a.75.75 0 1 1-1.5 0v-1.1c0-1.085.492-2.007 1.12-2.804.56-.713 1.288-1.396 1.988-2.053l.221-.208c1.603-1.51 2.973-2.925 3.12-4.794a.75.75 0 0 1 .807-.689" clip-rule="evenodd"/></mask><g mask="url(#a)"><path fill="currentColor" d="M0 0h24v24H0z"/></g></svg>