<svg xmlns="http://www.w3.org/2000/svg" class="Icon Icon-cat-tropa-marineria" viewBox="0 0 384.58 384.58"><path fill="currentColor" d="M353.3,104.32c-2.17-1.3-4.9-1.37-7.13-.19l-148.13,78.81L49.91,104.13c-2.23-1.19-4.97-1.12-7.13,.19-2.17,1.3-3.51,3.68-3.51,6.21v67.95c0,2.66,1.46,5.1,3.8,6.37l151.53,81.88c1.05,.57,2.24,.87,3.44,.87s2.39-.3,3.44-.87l151.53-81.88c2.34-1.27,3.8-3.71,3.8-6.37V110.52c0-2.53-1.34-4.9-3.51-6.21Zm-10.97,18.26v51.59l-144.29,77.97L53.75,174.16v-51.59l140.89,74.96c2.13,1.13,4.67,1.13,6.8,0l140.89-74.96Z"/><path fill="currentColor" d="M353.3,221.3c-2.16-1.3-4.89-1.37-7.13-.19l-148.13,78.81L49.91,221.11c-2.24-1.19-4.97-1.12-7.13,.19-2.17,1.3-3.51,3.68-3.51,6.21v67.96c0,2.66,1.46,5.1,3.8,6.37l151.53,81.88c1.05,.57,2.24,.87,3.44,.87s2.39-.3,3.44-.87l151.53-81.88c2.34-1.27,3.8-3.71,3.8-6.37v-67.96c0-2.53-1.34-4.9-3.51-6.2Zm-10.97,18.26v51.59l-144.29,77.97L53.75,291.14v-51.59l140.89,74.96c2.13,1.13,4.67,1.13,6.8,0l140.89-74.96Z"/><path fill="currentColor" d="M158.87,85.98l-6.77,39.46c-.47,2.74,.64,5.45,2.88,7.08,1.27,.92,2.75,1.39,4.25,1.39,1.15,0,2.31-.28,3.38-.84l35.43-18.63,35.43,18.63c2.4,1.26,5.44,1.04,7.62-.55,2.24-1.63,3.35-4.34,2.88-7.08l-6.77-39.46,28.66-27.94c1.99-1.94,2.69-4.78,1.83-7.42-.86-2.64-3.1-4.53-5.84-4.93l-39.61-5.76L204.53,4.04c-1.23-2.49-3.72-4.04-6.49-4.04s-5.26,1.55-6.49,4.04l-17.72,35.9-39.62,5.76c-2.74,.4-4.98,2.29-5.84,4.93-.86,2.64-.15,5.48,1.83,7.42l28.67,27.94Zm63.43-1.3l4.93,28.75-25.82-13.57c-1.04-.54-2.2-.83-3.37-.83s-2.33,.29-3.37,.83l-25.82,13.57,4.93-28.75c.4-2.35-.38-4.74-2.08-6.41l-20.89-20.36,28.86-4.19c2.36-.34,4.4-1.82,5.45-3.96l12.91-26.16,12.91,26.16c1.06,2.14,3.09,3.62,5.45,3.96l28.87,4.19-20.89,20.36c-1.71,1.66-2.49,4.06-2.08,6.41Z"/></svg>
