<svg xmlns="http://www.w3.org/2000/svg" fill="none" class="Icon Icon-cat-universidades" viewBox="0 0 24 24"><g fill="currentColor" clip-path="url(#clip0)"><path d="M22.285 0H1.715A1.694 1.694 0 0 0 0 1.673V17.3a1.694 1.694 0 0 0 1.715 1.673h12V17.86h-12a.566.566 0 0 1-.571-.558V1.673a.565.565 0 0 1 .571-.558h20.57a.565.565 0 0 1 .572.558v8.915H24V1.673A1.695 1.695 0 0 0 22.285 0z"/><path d="M20.57 2.23H3.43a1.13 1.13 0 0 0-1.143 1.116v12.282a1.13 1.13 0 0 0 1.144 1.116h9.176v-1.116H3.431V3.346h17.138v5.583h1.144V3.346a1.136 1.136 0 0 0-1.144-1.115z"/><path d="M23.463 12.84a5.153 5.153 0 0 0-4.609-2.823 5.076 5.076 0 0 0-5.139 5.011 4.991 4.991 0 0 0 2.824 4.504v3.882a.567.567 0 0 0 .572.558.614.614 0 0 0 .317-.092l1.412-.91 1.412.91a.579.579 0 0 0 .79-.155.558.558 0 0 0 .1-.31v-3.883a4.943 4.943 0 0 0 2.322-6.692zm-3.465 9.558l-.826-.516a.579.579 0 0 0-.636 0l-.825.537v-2.323h2.287v2.302zm-1.144-3.424a3.91 3.91 0 1 1 4.003-3.903 3.945 3.945 0 0 1-4.003 3.903z"/><path d="M18.854 12.282a2.822 2.822 0 1 0 .07 5.645 2.822 2.822 0 0 0-.07-5.645zm0 4.462a1.672 1.672 0 1 1 1.715-1.673 1.693 1.693 0 0 1-1.715 1.673zm-5.139-11.16H9.141v1.115h4.574V5.584zm2.852 2.788H6.282v1.115h10.285V8.372z"/></g></svg>