<svg xmlns="http://www.w3.org/2000/svg" fill="none" viewBox="0 0 24 24" class="Icon Icon-universidades"><mask id="a" width="22" height="17" x="1" y="4" maskUnits="userSpaceOnUse" style="mask-type:alpha"><path fill="currentColor" fill-rule="evenodd" d="M2.25 4.891a3.54 3.54 0 0 1 2-.641h9a.75.75 0 0 1 0 1.5h-9a2.04 2.04 0 0 0-1.124.359c-.328.236-.626.635-.626 1.391V16c0 .297.095.758.359 1.124.236.328.635.626 1.391.626h9a.75.75 0 0 1 0 1.5h-9c-1.244 0-2.095-.535-2.609-1.25A3.54 3.54 0 0 1 1 16V7.5c0-1.244.535-2.095 1.25-2.609M5 10a.75.75 0 0 1 .75-.75h7a.75.75 0 0 1 0 1.5h-7A.75.75 0 0 1 5 10m0 4a.75.75 0 0 1 .75-.75h8a.75.75 0 0 1 0 1.5h-8A.75.75 0 0 1 5 14m13.75-3.5a2.5 2.5 0 1 0 0-5 2.5 2.5 0 0 0 0 5m0 1.5a4 4 0 1 0 0-8 4 4 0 0 0 0 8" clip-rule="evenodd"/><path fill="currentColor" fill-rule="evenodd" d="m18.535 12.5-1.532 5.828.712-.324a2.5 2.5 0 0 1 2.07 0l.712.324-1.532-5.828zM18.15 11a1 1 0 0 0-.967.746l-1.898 7.219a1 1 0 0 0 1.381 1.164l1.67-.76a1 1 0 0 1 .828 0l1.67.76a1 1 0 0 0 1.381-1.165l-1.898-7.218A1 1 0 0 0 19.35 11z" clip-rule="evenodd"/></mask><g mask="url(#a)"><path fill="currentColor" d="M0 0h24v24H0z"/></g></svg>