<svg xmlns="http://www.w3.org/2000/svg" fill="none" viewBox="0 0 24 24" class="Icon Icon-alert"><mask id="a" width="21" height="19" x="2" y="3" maskUnits="userSpaceOnUse" style="mask-type:alpha"><path fill="currentColor" fill-rule="evenodd" d="M12.267 4.998 3.869 19.504h16.796zm.866-1.499a1 1 0 0 0-1.731 0L2.136 19.503a1 1 0 0 0 .865 1.501h18.532a1 1 0 0 0 .865-1.5z" clip-rule="evenodd"/><path fill="currentColor" fill-rule="evenodd" d="M12.267 9.254a.75.75 0 0 1 .75.75v5.5a.75.75 0 0 1-1.5 0v-5.5a.75.75 0 0 1 .75-.75" clip-rule="evenodd"/><path fill="currentColor" d="M13.017 17.754a.75.75 0 1 1-1.5 0 .75.75 0 0 1 1.5 0"/></mask><g mask="url(#a)"><path fill="currentColor" d="M0 0h24v24H0z"/></g></svg>