<svg class="Icon Icon-answer-2" width="24" height="24" viewBox="0 0 24 24" fill="none" xmlns="http://www.w3.org/2000/svg">
<path fill-rule="evenodd" clip-rule="evenodd" d="M13.992 14.32L14.888 17.168H17.08L13.368 6H10.744L7 17.168H9.144L10.024 14.32H13.992ZM10.536 12.512L11.96 7.92H12.04L13.48 12.512H10.536Z" fill="currentColor"/>
<path fill-rule="evenodd" clip-rule="evenodd" d="M12 23C18.0751 23 23 18.0751 23 12C23 5.92487 18.0751 1 12 1C5.92487 1 1 5.92487 1 12C1 18.0751 5.92487 23 12 23ZM21 12C21 16.9706 16.9706 21 12 21C7.02944 21 3 16.9706 3 12C3 7.02944 7.02944 3 12 3C16.9706 3 21 7.02944 21 12Z" fill="currentColor"/>
</svg>
