<svg width="24" height="24" viewBox="0 0 24 24" fill="none" xmlns="http://www.w3.org/2000/svg">
<path d="M17.4648 3.15583C9.81354 -0.509495 4.62951 5.43746 2.91814 8.5747C0.636235 12.5675 3.10827 13.5182 4.62949 13.4231C6.1507 13.3281 6.43588 13.7083 6.62603 13.9935C7.31058 15.1344 6.3408 16.3703 5.19997 17.1308C3.20329 18.4618 4.81966 20.268 5.77042 20.8384C11.7032 24.0327 17.1796 19.8878 19.1762 17.416C24.6525 9.65845 20.5369 4.62755 17.4648 3.15583Z" stroke="#383641" stroke-width="2"/>
<circle cx="10.9983" cy="17.4974" r="1.30106" fill="#383641" stroke="#383641"/>
<circle cx="15.5015" cy="14.7958" r="1.30106" fill="#383641" stroke="#383641"/>
<circle cx="17.3494" cy="10.2457" r="1.30106" fill="#383641" stroke="#383641"/>
<path d="M10.7207 10.941C9.4574 11.9079 8.12611 11.6607 7.63015 11.0126C7.1342 10.3646 7.24332 9.01498 8.50664 8.04811C9.76996 7.08123 11.1013 7.32847 11.5972 7.97649C12.0932 8.6245 11.984 9.97415 10.7207 10.941Z" stroke="#383641" stroke-width="2"/>
</svg>
