<svg xmlns="http://www.w3.org/2000/svg" fill="none" viewBox="0 0 24 24" class="Icon Icon-appearance"><path stroke="currentColor" stroke-width="2" d="M17.465 3.156C9.814-.51 4.63 5.437 2.918 8.575c-2.282 3.993.19 4.943 1.711 4.848 1.522-.095 1.807.285 1.997.57.685 1.141-.285 2.377-1.426 3.138-1.997 1.33-.38 3.137.57 3.707 5.933 3.195 11.41-.95 13.406-3.422 5.477-7.758 1.36-12.788-1.711-14.26Z"/><circle cx="10.998" cy="17.497" r="1.301" fill="currentColor" stroke="currentColor"/><circle cx="15.502" cy="14.796" r="1.301" fill="currentColor" stroke="currentColor"/><circle cx="17.349" cy="10.246" r="1.301" fill="currentColor" stroke="currentColor"/><path stroke="currentColor" stroke-width="2" d="M10.72 10.941c-1.263.967-2.594.72-3.09.072s-.387-1.998.877-2.965c1.263-.967 2.594-.72 3.09-.072s.387 1.998-.876 2.965Z"/></svg>
