<svg xmlns="http://www.w3.org/2000/svg" fill="none" viewBox="0 0 24 24" class="Icon Icon-appearance"><mask id="a" width="20" height="20" x="2" y="2" maskUnits="userSpaceOnUse" style="mask-type:alpha"><path fill="currentColor" fill-rule="evenodd" d="M19.233 7.252c-1.947-3.571-5.992-3.962-7.808-3.683-2.69.414-5.016 2.19-6.457 4.112-.72.959-1.186 1.911-1.374 2.69-.198.818-.052 1.24.119 1.41.383.384.856.4 1.583.427l.231.008c.348.014.883.044 1.316.338.514.35.702.92.702 1.564 0 .635-.208 1.117-.533 1.497-.256.299-.586.526-.827.693l-.089.062c-.278.194-.462.342-.591.527-.115.165-.218.407-.218.834 0 .355.33 1.152 1.456 1.731 1.098.566 2.938.898 5.754.248 2.693-.622 5.014-2.607 6.34-5.047 1.328-2.443 1.595-5.213.396-7.411m-8.036-5.165c2.098-.323 6.965.069 9.353 4.446 1.51 2.77 1.1 6.096-.395 8.846-1.496 2.754-4.143 5.059-7.32 5.792-3.055.705-5.28.397-6.778-.375-1.471-.757-2.27-1.993-2.27-3.065 0-.702.18-1.25.488-1.692.294-.422.674-.698.961-.898l.086-.06c.268-.187.429-.3.55-.442.099-.114.173-.252.173-.52a.9.9 0 0 0-.047-.326c-.036-.022-.154-.063-.532-.078l-.215-.005c-.66-.013-1.766-.035-2.599-.868-.733-.732-.756-1.835-.516-2.824.249-1.027.826-2.163 1.632-3.237 1.607-2.142 4.249-4.205 7.43-4.694" clip-rule="evenodd"/><path fill="currentColor" fill-rule="evenodd" d="M9.167 10.238c.377-.048.845-.253 1.26-.667.414-.414.619-.883.666-1.26.047-.374-.06-.578-.158-.675-.097-.097-.3-.205-.675-.158-.377.047-.846.252-1.26.666s-.62.883-.667 1.26c-.047.375.061.578.158.676.098.097.301.205.676.158m-1.736.902c.98.98 2.796.752 4.056-.508s1.489-3.077.509-4.057-2.796-.752-4.057.509c-1.26 1.26-1.488 3.077-.508 4.056" clip-rule="evenodd"/><path fill="currentColor" d="M18.538 9.828a1.58 1.58 0 1 1-3.162 0 1.58 1.58 0 0 1 3.162 0m-1.808 4.516a1.58 1.58 0 1 1-3.16 0 1.58 1.58 0 0 1 3.16 0m-4.515 2.71a1.58 1.58 0 1 1-3.161 0 1.58 1.58 0 0 1 3.161 0"/></mask><g mask="url(#a)"><path fill="currentColor" d="M0 0h24v24H0z"/></g></svg>