<svg xmlns="http://www.w3.org/2000/svg" fill="none" viewBox="0 0 24 24" class="Icon Icon-bar-chart"><mask id="a" width="16" height="20" x="4" y="2" maskUnits="userSpaceOnUse" style="mask-type:alpha"><path fill="currentColor" fill-rule="evenodd" d="M11.75 2a.75.75 0 0 1 .75.75v18a.75.75 0 0 1-1.5 0v-18a.75.75 0 0 1 .75-.75m7 6.75a.75.75 0 0 1 .75.75v11.25a.75.75 0 0 1-1.5 0V9.5a.75.75 0 0 1 .75-.75m-14 6.75a.75.75 0 0 1 .75.75v4.5a.75.75 0 0 1-1.5 0v-4.5a.75.75 0 0 1 .75-.75" clip-rule="evenodd"/></mask><g mask="url(#a)"><path fill="currentColor" d="M0 0h24v24H0z"/></g></svg>