<svg xmlns="http://www.w3.org/2000/svg" fill="none" viewBox="0 0 24 24" class="Icon Icon-bar-chart-2"><mask id="opo-mask-73647818" width="15" height="20" x="5" y="2" maskUnits="userSpaceOnUse" style="mask-type:alpha"><path fill="currentColor" fill-rule="evenodd" d="M19.25 2a.75.75 0 0 1 .75.75v18a.75.75 0 0 1-1.5 0v-18a.75.75 0 0 1 .75-.75M12.5 8.75a.75.75 0 0 1 .75.75v11.25a.75.75 0 1 1-1.5 0V9.5a.75.75 0 0 1 .75-.75M5.75 15.5a.75.75 0 0 1 .75.75v4.5a.75.75 0 0 1-1.5 0v-4.5a.75.75 0 0 1 .75-.75" clip-rule="evenodd"/></mask><g mask="url(#opo-mask-73647818)"><path fill="currentColor" d="M0 0h24v24H0z"/></g></svg>