<svg xmlns="http://www.w3.org/2000/svg" fill="none" viewBox="0 0 24 24" class="Icon Icon-notifications-off"><mask id="opo-mask-14800889" width="21" height="21" x="1" y="1" maskUnits="userSpaceOnUse" style="mask-type:alpha"><path fill="currentColor" fill-rule="evenodd" d="M11.425 1.06A6.75 6.75 0 0 1 18.5 7.814v.01c-.026 1.618.178 3.23.604 4.791a.75.75 0 1 1-1.447.395A18.6 18.6 0 0 1 17 7.805a5.25 5.25 0 0 0-8.164-4.37.75.75 0 1 1-.832-1.247 6.75 6.75 0 0 1 3.42-1.127M9.643 19.163a.75.75 0 0 1 1.025.272 1.25 1.25 0 0 0 2.163 0 .75.75 0 0 1 1.297.753 2.75 2.75 0 0 1-4.757 0 .75.75 0 0 1 .272-1.025M6.23 5.355a.75.75 0 0 1 .497.937A5.1 5.1 0 0 0 6.5 7.81v.001c0 3.611-.775 5.987-1.592 7.485a9 9 0 0 1-.468.765h12.31a.75.75 0 0 1 0 1.5h-14a.75.75 0 0 1-.423-1.369l.009-.006.063-.05c.06-.05.156-.136.275-.262.239-.252.575-.669.918-1.297C4.275 13.325 5 10.5 5 7.812" clip-rule="evenodd"/><path fill="currentColor" fill-rule="evenodd" d="M1.22 1.22a.75.75 0 0 1 1.06 0l19.5 19.5a.75.75 0 1 1-1.06 1.06L1.22 2.28a.75.75 0 0 1 0-1.06" clip-rule="evenodd"/></mask><g mask="url(#opo-mask-14800889)"><path fill="currentColor" d="M0 0h24v24H0z"/></g></svg>