<svg xmlns="http://www.w3.org/2000/svg" fill="none" viewBox="0 0 24 24" class="Icon Icon-notifications"><path fill="currentColor" fill-rule="evenodd" d="M6.977 2.977A6.75 6.75 0 0 1 18.5 7.75c0 3.39.725 5.514 1.409 6.766a6.2 6.2 0 0 0 .917 1.296 3 3 0 0 0 .338.312l.009.007a.75.75 0 0 1-.423 1.369h-18a.75.75 0 0 1-.423-1.37l.009-.006.063-.05c.06-.05.156-.136.275-.262.239-.252.575-.668.918-1.296C4.275 13.264 5 11.14 5 7.75a6.75 6.75 0 0 1 1.977-4.773M4.44 16h14.62a9 9 0 0 1-.468-.766C17.775 13.736 17 11.361 17 7.75a5.25 5.25 0 0 0-10.5 0c0 3.61-.775 5.986-1.592 7.484A9 9 0 0 1 4.44 16m5.203 3.101a.75.75 0 0 1 1.025.273 1.25 1.25 0 0 0 2.163 0 .75.75 0 0 1 1.297.752 2.75 2.75 0 0 1-4.757 0 .75.75 0 0 1 .272-1.025" clip-rule="evenodd"/></svg>