<svg class="Icon Icon-bell-off" viewBox="0 0 24 24" fill="none" xmlns="http://www.w3.org/2000/svg"><g clip-path="url(#a)"><path fill-rule="evenodd" clip-rule="evenodd" d="M1.707.293A1 1 0 0 0 .293 1.707L5.58 6.994 5 8.001c0 3.352-.717 5.434-1.378 6.645a5.936 5.936 0 0 1-.88 1.244 3.002 3.002 0 0 1-.305.284l-.003.002A1 1 0 0 0 3 18h13.586l5.707 5.707a1 1 0 0 0 1.414-1.414l-5.994-5.994-.012-.012-10.72-10.72-.03-.03L1.707.293Zm5.29 8.118c-.057 3.419-.812 5.713-1.62 7.193A9.38 9.38 0 0 1 5.15 16h9.437l-7.59-7.59ZM11.663.999A7 7 0 0 1 19 8v.017a16.89 16.89 0 0 0 .595 4.72 1 1 0 0 1-1.93.527A18.89 18.89 0 0 1 17 7.994a5 5 0 0 0-7.775-4.161 1 1 0 1 1-1.11-1.664A7 7 0 0 1 11.663 1ZM9.768 20.135a1 1 0 0 1 1.367.363 1 1 0 0 0 1.73 0 1 1 0 1 1 1.73 1.004 3 3 0 0 1-5.19 0 1 1 0 0 1 .363-1.367Z" fill="currentColor"/></g><defs><clipPath id="a"><path fill="currentColor" d="M0 0h24v24H0z"/></clipPath></defs></svg>
