<svg xmlns="http://www.w3.org/2000/svg" fill="none" viewBox="0 0 24 24" class="Icon Icon-bookmark"><mask id="opo-mask-61948234" width="16" height="20" x="4" y="2" maskUnits="userSpaceOnUse" style="mask-type:alpha"><path fill="currentColor" fill-rule="evenodd" d="M6.75 3.5A1.25 1.25 0 0 0 5.5 4.75v14.543l5.814-4.153a.75.75 0 0 1 .872 0L18 19.293V4.75a1.25 1.25 0 0 0-1.25-1.25zm-1.945-.695A2.75 2.75 0 0 1 6.75 2h10a2.75 2.75 0 0 1 2.75 2.75v16a.75.75 0 0 1-1.186.61l-6.564-4.688-6.564 4.688A.75.75 0 0 1 4 20.75v-16c0-.73.29-1.429.805-1.945" clip-rule="evenodd"/></mask><g mask="url(#opo-mask-61948234)"><path fill="currentColor" d="M0 0h24v24H0z"/></g></svg>