<svg xmlns="http://www.w3.org/2000/svg" fill="none" viewBox="0 0 24 24" class="Icon Icon-calendar"><mask id="opo-mask-89140892" width="18" height="20" x="3" y="2" maskUnits="userSpaceOnUse" style="mask-type:alpha"><path fill="currentColor" fill-rule="evenodd" d="M8.25 2a.75.75 0 0 1 .75.75V3.8h5.7V2.75a.75.75 0 0 1 1.5 0V3.8h1.95a2.55 2.55 0 0 1 2.55 2.55v12.6a2.55 2.55 0 0 1-2.55 2.55H5.55A2.55 2.55 0 0 1 3 18.95V6.35A2.55 2.55 0 0 1 5.55 3.8H7.5V2.75A.75.75 0 0 1 8.25 2M7.5 5.3H5.55c-.58 0-1.05.47-1.05 1.05V9.2h14.7V6.35c0-.58-.47-1.05-1.05-1.05H16.2v1.05a.75.75 0 0 1-1.5 0V5.3H9v1.05a.75.75 0 0 1-1.5 0zm11.7 5.4H4.5v8.25c0 .58.47 1.05 1.05 1.05h12.6c.58 0 1.05-.47 1.05-1.05z" clip-rule="evenodd"/></mask><g mask="url(#opo-mask-89140892)"><path fill="currentColor" d="M0 0h24v24H0z"/></g></svg>