<svg xmlns="http://www.w3.org/2000/svg" fill="none" viewBox="0 0 24 24" class="Icon Icon-camera"><path fill="currentColor" fill-rule="evenodd" d="M9.035 3.334A.75.75 0 0 1 9.66 3h5.182a.75.75 0 0 1 .624.334l1.505 2.257h3.053A2.477 2.477 0 0 1 22.5 8.068v9.5a2.477 2.477 0 0 1-2.477 2.477H4.477A2.477 2.477 0 0 1 2 17.569v-9.5a2.477 2.477 0 0 1 2.477-2.477H7.53zM10.06 4.5 8.557 6.757a.75.75 0 0 1-.624.334H4.477a.977.977 0 0 0-.977.977v9.5a.977.977 0 0 0 .977.977h15.546a.977.977 0 0 0 .977-.977v-9.5a.98.98 0 0 0-.977-.977h-3.455a.75.75 0 0 1-.624-.334L14.44 4.5zm2.191 5.183a2.705 2.705 0 1 0 0 5.409 2.705 2.705 0 0 0 0-5.41m-4.204 2.704a4.205 4.205 0 1 1 8.409 0 4.205 4.205 0 0 1-8.41 0" clip-rule="evenodd"/></svg>