<svg class="Icon Icon-camera" viewBox="0 0 24 24" fill="none" xmlns="http://www.w3.org/2000/svg"><path fill-rule="evenodd" clip-rule="evenodd" d="M9.545 4a1 1 0 0 0-.818.426L7.389 6.333H4.636a2.68 2.68 0 0 0-1.846.731C2.29 7.54 2 8.194 2 8.89v8.555c0 .695.29 1.35.79 1.825A2.68 2.68 0 0 0 4.636 20h14.728a2.68 2.68 0 0 0 1.846-.73c.5-.476.79-1.131.79-1.826V8.89c0-.695-.29-1.35-.79-1.825a2.68 2.68 0 0 0-1.846-.73H16.61l-1.338-1.908A1 1 0 0 0 14.454 4H9.546Zm-.817 3.908L10.066 6h3.868l1.338 1.908a1 1 0 0 0 .819.425h3.273a.68.68 0 0 1 .468.18.518.518 0 0 1 .168.376v8.555c0 .131-.054.267-.168.376a.68.68 0 0 1-.468.18H4.636a.68.68 0 0 1-.468-.18.518.518 0 0 1-.168-.376V8.89c0-.13.054-.267.168-.375a.68.68 0 0 1 .468-.18H7.91a1 1 0 0 0 .819-.426ZM10 13a2 2 0 1 1 4 0 2 2 0 0 1-4 0Zm2-4a4 4 0 1 0 0 8 4 4 0 0 0 0-8Z" fill="currentColor"/></svg>
