<svg xmlns="http://www.w3.org/2000/svg" fill="none" viewBox="0 0 24 24" class="Icon Icon-cart"><mask id="opo-mask-44136586" width="23" height="22" x="1" y="1" maskUnits="userSpaceOnUse" style="mask-type:alpha"><path fill="currentColor" fill-rule="evenodd" d="M1 1.75A.75.75 0 0 1 1.75 1h3.745a.75.75 0 0 1 .736.603l.816 4.079H22.35a.75.75 0 0 1 .737.89l-1.5 7.862a2.62 2.62 0 0 1-2.614 2.112H9.884a2.62 2.62 0 0 1-2.615-2.111l-1.565-7.82-.014-.07L4.88 2.5H1.75A.75.75 0 0 1 1 1.75m6.348 5.432 1.393 6.96a1.12 1.12 0 0 0 1.122.904h9.131a1.12 1.12 0 0 0 1.122-.902v-.002l1.328-6.96zM9.24 20.29a.186.186 0 1 0 0 .373.186.186 0 0 0 0-.373m-1.686.186a1.686 1.686 0 1 1 3.373 0 1.686 1.686 0 0 1-3.373 0m11.987-.186a.186.186 0 1 0 0 .372.186.186 0 0 0 0-.372m-1.686.186a1.686 1.686 0 1 1 3.373 0 1.686 1.686 0 0 1-3.373 0" clip-rule="evenodd"/></mask><g mask="url(#opo-mask-44136586)"><path fill="currentColor" d="M0 0h24v24H0z"/></g></svg>