<svg xmlns="http://www.w3.org/2000/svg" fill="none" viewBox="0 0 24 24" class="Icon Icon-copy"><mask id="a" width="22" height="22" x="1" y="1" maskUnits="userSpaceOnUse" style="mask-type:alpha"><path fill="currentColor" fill-rule="evenodd" d="M3.75 2.5A1.25 1.25 0 0 0 2.5 3.75v9A1.25 1.25 0 0 0 3.75 14h1a.75.75 0 0 1 0 1.5h-1A2.75 2.75 0 0 1 1 12.75v-9A2.75 2.75 0 0 1 3.75 1h9a2.75 2.75 0 0 1 2.75 2.75v1a.75.75 0 0 1-1.5 0v-1a1.25 1.25 0 0 0-1.25-1.25zm7 7c-.69 0-1.25.56-1.25 1.25v9c0 .69.56 1.25 1.25 1.25h9c.69 0 1.25-.56 1.25-1.25v-9c0-.69-.56-1.25-1.25-1.25zM8 10.75A2.75 2.75 0 0 1 10.75 8h9a2.75 2.75 0 0 1 2.75 2.75v9a2.75 2.75 0 0 1-2.75 2.75h-9A2.75 2.75 0 0 1 8 19.75z" clip-rule="evenodd"/></mask><g mask="url(#a)"><path fill="currentColor" d="M0 0h24v24H0z"/></g></svg>