<svg class="Icon Icon-create-challenge" viewBox="0 0 24 24" fill="none" xmlns="http://www.w3.org/2000/svg"><path d="M3.3 3.3c-.4.4-.4 1.05 0 1.45l7.253 7.266-3.603 3.609-1.447-1.45c-.4-.4-1.048-.4-1.447 0-.4.4-.4 1.05 0 1.45l1.447 1.45L3.33 19.25c-.4.4-.4 1.05 0 1.45.4.4 1.048.4 1.448 0l2.171-2.175 1.448 1.45c.4.4 1.047.4 1.447 0 .4-.4.4-1.05 0-1.45l-1.447-1.45L12 13.465l3.602 3.61-1.447 1.45c-.4.4-.4 1.049 0 1.449.4.4 1.048.4 1.448 0l1.447-1.45L19.22 20.7c.4.4 1.048.4 1.448 0 .4-.4.4-1.05 0-1.45l-2.172-2.175 1.448-1.45c.4-.4.4-1.05 0-1.45-.4-.4-1.048-.4-1.448 0l-1.447 1.45-3.602-3.608L20.7 4.75c.4-.4.4-1.05 0-1.45-.4-.4-1.047-.4-1.447 0L12 10.566 4.747 3.3c-.4-.4-1.048-.4-1.447 0Z" fill="currentColor"/></svg>
