<svg xmlns="http://www.w3.org/2000/svg" fill="none" viewBox="0 0 24 24" class="Icon Icon-add-square"><mask id="opo-mask-74499172" width="20" height="20" x="2" y="2" maskUnits="userSpaceOnUse" style="mask-type:alpha"><path fill="currentColor" fill-rule="evenodd" d="M12 5.25a.75.75 0 0 1 .75.75v5.25H18a.75.75 0 0 1 0 1.5h-5.25V18a.75.75 0 0 1-1.5 0v-5.25H6a.75.75 0 0 1 0-1.5h5.25V6a.75.75 0 0 1 .75-.75M3.5 3.5h17v17h-17zM3 2a1 1 0 0 0-1 1v18a1 1 0 0 0 1 1h18a1 1 0 0 0 1-1V3a1 1 0 0 0-1-1z" clip-rule="evenodd"/></mask><g mask="url(#opo-mask-74499172)"><path fill="currentColor" d="M0 0h24v24H0z"/></g></svg>