<svg xmlns="http://www.w3.org/2000/svg" fill="none" viewBox="0 0 24 24" class="Icon Icon-details"><mask id="a" width="20" height="14" x="2" y="5" maskUnits="userSpaceOnUse" style="mask-type:alpha"><path fill="currentColor" fill-rule="evenodd" d="M6.5 6a.75.75 0 0 1 .75-.75h14a.75.75 0 0 1 0 1.5h-14A.75.75 0 0 1 6.5 6m-4 4a.75.75 0 0 1 .75-.75h18a.75.75 0 0 1 0 1.5h-18A.75.75 0 0 1 2.5 10m0 4a.75.75 0 0 1 .75-.75h18a.75.75 0 0 1 0 1.5h-18A.75.75 0 0 1 2.5 14m0 4a.75.75 0 0 1 .75-.75h18a.75.75 0 0 1 0 1.5h-18A.75.75 0 0 1 2.5 18" clip-rule="evenodd"/></mask><g mask="url(#a)"><path fill="currentColor" d="M0 0h24v24H0z"/></g></svg>