<svg xmlns="http://www.w3.org/2000/svg" fill="none" viewBox="0 0 24 24" class="Icon Icon-doubt-off"><path fill="#5C96F8" fill-rule="evenodd" d="M5.224 18.376A9.3 9.3 0 1 0 18.376 5.224 9.3 9.3 0 1 0 5.224 18.376m-1.06 1.06c4.217 4.218 11.055 4.218 15.273 0 4.217-4.217 4.217-11.055 0-15.273-4.218-4.217-11.056-4.217-15.274 0-4.217 4.218-4.217 11.056 0 15.274" clip-rule="evenodd"/><path fill="#5C96F8" d="M15.652 8.506a1.96 1.96 0 0 0-2.433.672.9.9 0 0 1-1.486-1.016 3.757 3.757 0 0 1 6.728 3.098c-.365 1.36-1.598 2.04-2.461 2.368a8 8 0 0 1-1.143.332l-.097.36a.9.9 0 0 1-1.739-.465l.247-.92a.9.9 0 0 1 .778-.662l.016-.002.075-.01a6 6 0 0 0 1.223-.315c.74-.282 1.234-.673 1.362-1.152v-.002a1.96 1.96 0 0 0-1.07-2.286m-3.522 8.058a1.076 1.076 0 1 1 2.08.557 1.076 1.076 0 0 1-2.08-.557M7.655 10.48a1.048 1.048 0 0 1 1.76.466v.001c.056.207-.037.512-.348.893a3.6 3.6 0 0 1-.58.561l-.005.005a.78.78 0 0 0-.3.82l.265 1.063a.78.78 0 0 0 1.514-.377l-.148-.593c.141-.131.305-.298.464-.494.383-.47.905-1.31.645-2.281a2.608 2.608 0 0 0-5.12.473.78.78 0 1 0 1.555.119c.019-.247.124-.48.298-.656m2.061 5.152a.905.905 0 1 0 .468 1.748.905.905 0 0 0-.468-1.748"/></svg>