<svg fill="none" viewBox="0 0 20 20" xmlns="http://www.w3.org/2000/svg" class="Icon Icon-doubt"><g stroke="currentColor"><circle cx="10.0267" cy="10.0269" r="8.7" stroke-width="1.6"/><path d="m10.2469 7.15508c.3175-.46399.7889-.80065 1.3308-.95035.5419-.14971 1.1193-.1028 1.63.13243.5106.23522.9215.64357 1.1599 1.15272.2384.50916.2889 1.08626.1426 1.62909-.4108 1.53303-2.8787 1.78443-2.8787 1.78443l-.2053.7664" stroke-linecap="round" stroke-linejoin="round" stroke-width="1.5"/><circle cx="10.8252" cy="13.9654" r=".39677" transform="matrix(.96592583 .25881905 -.25881905 .96592583 3.983371 -2.325908)"/><path d="m5.33318 9.16c.02748-.35873.18103-.69617.43346-.95253.25243-.25637.58745-.41512.94572-.44815.35826-.03303.71666.06181 1.0117.2677.29505.2059.5077.50957.6003.85724.26287.98104-1.02442 1.91004-1.02442 1.91004l.22056.8862" stroke-linecap="round" stroke-linejoin="round" stroke-width="1.3"/><circle cx="8.14242" cy="13.6849" r=".253914" transform="matrix(.96592583 -.25881905 .25881905 .96592583 -3.264467 2.573715)"/></g></svg>
