<svg fill="none" viewBox="0 0 20 20" xmlns="http://www.w3.org/2000/svg" class="Icon Icon-doubt"><g stroke="currentColor"><path d="m9.84143 5.78936c.55007-.80388 1.36677-1.38716 2.30567-1.64653s1.9393-.17809 2.8239.22944c.8847.40753 1.5966 1.11501 2.0097 1.99713.413.88213.5006 1.88197.2471 2.82244-.7117 2.65596-4.9874 3.09156-4.9874 3.09156l-.3558 1.3279" stroke-linecap="round" stroke-linejoin="round" stroke-width="1.8"/><circle cx="11.1217" cy="16.4811" fill="#383641" r=".687416" transform="matrix(.96592583 .25881905 -.25881905 .96592583 4.644585 -2.316928)"/><path d="m2.45645 9.7035c.04761-.62152.31365-1.20613.751-1.65029.43734-.44417 1.01777-.71921 1.63847-.77643.62071-.05722 1.24164.10708 1.75281.4638s.87961.88284 1.04004 1.48518c.45543 1.69974-1.77484 3.30924-1.77484 3.30924l.22769.8498" stroke-linecap="round" stroke-linejoin="round" stroke-width="1.8"/><circle cx="6.85909" cy="16.2173" fill="#383641" r=".439913" transform="matrix(.96592583 -.25881905 .25881905 .96592583 -3.963628 2.327854)"/></g></svg>
