<svg fill="none" viewBox="0 0 20 20" xmlns="http://www.w3.org/2000/svg" class="Icon Icon-doubt-filled"><circle cx="10" cy="10" fill="currentColor" r="8.2" stroke="#383641" stroke-width="1.6"/><g stroke="#fff"><path d="m10.2469 7.15557c.3175-.46399.7889-.80065 1.3308-.95036.5419-.1497 1.1193-.10279 1.6299.13243.5107.23523.9216.64358 1.16 1.15273.2384.50916.2889 1.08626.1426 1.62909-.4108 1.53304-2.8787 1.78444-2.8787 1.78444l-.2053.7664" stroke-linecap="round" stroke-linejoin="round" stroke-width="1.5"/><circle cx="10.8252" cy="13.9664" fill="#fff" r=".39677" transform="matrix(.96592583 .25881905 -.25881905 .96592583 3.98363 -2.325874)"/><path d="m5.33316 9.16098c.02748-.35874.18104-.69617.43347-.95254.25243-.25636.58745-.41512.94571-.44814.35827-.03303.71666.0618 1.01171.2677.29504.2059.5077.50957.6003.85723.26287.98105-1.02443 1.91007-1.02443 1.91007l.22056.8862" stroke-linecap="round" stroke-linejoin="round" stroke-width="1.3"/><circle cx="8.1424" cy="13.6864" fill="#fff" r=".253914" transform="matrix(.96592583 -.25881905 .25881905 .96592583 -3.264855 2.573761)"/></g></svg>
