<svg xmlns="http://www.w3.org/2000/svg" fill="none" viewBox="0 0 24 24" class="Icon Icon-edit"><mask id="a" width="21" height="22" x="2" y="1" maskUnits="userSpaceOnUse" style="mask-type:alpha"><path fill="currentColor" fill-rule="evenodd" d="M19.04 3.25a1.96 1.96 0 0 0-1.386.574L4.859 16.62l-1.04 3.812 3.812-1.04L20.426 6.597A1.96 1.96 0 0 0 19.04 3.25m-1.324-1.237a3.46 3.46 0 0 1 3.77 5.644L8.551 20.593a.75.75 0 0 1-.333.193l-5.27 1.438a.75.75 0 0 1-.922-.921l1.438-5.27a.75.75 0 0 1 .193-.334L16.593 2.764a3.5 3.5 0 0 1 1.123-.75" clip-rule="evenodd"/></mask><g mask="url(#a)"><path fill="currentColor" d="M0 0h24v24H0z"/></g></svg>