<svg xmlns="http://www.w3.org/2000/svg" fill="none" viewBox="0 0 24 24" class="Icon Icon-edit-2"><mask id="a" width="22" height="22" x="1" y="1" maskUnits="userSpaceOnUse" style="mask-type:alpha"><path fill="currentColor" fill-rule="evenodd" d="M19.75 2.5a1.37 1.37 0 0 0-.97.402l-9.353 9.353-.646 2.585 2.586-.646 9.353-9.353a1.372 1.372 0 0 0-.97-2.341m-2.03-.659a2.871 2.871 0 1 1 4.06 4.06l-9.5 9.5a.75.75 0 0 1-.348.198l-4 1a.75.75 0 0 1-.91-.91l1-4a.75.75 0 0 1 .198-.348zM1.805 3.927A2.75 2.75 0 0 1 3.75 3.12h7a.75.75 0 0 1 0 1.5h-7A1.25 1.25 0 0 0 2.5 5.87v14a1.25 1.25 0 0 0 1.25 1.25h14A1.25 1.25 0 0 0 19 19.87v-7a.75.75 0 0 1 1.5 0v7a2.75 2.75 0 0 1-2.75 2.75h-14A2.75 2.75 0 0 1 1 19.871v-14c0-.73.29-1.429.805-1.944" clip-rule="evenodd"/></mask><g mask="url(#a)"><path fill="currentColor" d="M0 0h24v24H0z"/></g></svg>