<svg xmlns="http://www.w3.org/2000/svg" fill="none" viewBox="0 0 24 24" class="Icon Icon-mail"><path fill="currentColor" fill-rule="evenodd" d="m2.552 5.396 9.198 6.439 9.198-6.44A1.26 1.26 0 0 0 19.75 4.5h-16c-.563 0-1.044.38-1.198.896M21 7.19l-8.82 6.174a.75.75 0 0 1-.86 0L2.5 7.19v10.56c0 .686.564 1.25 1.25 1.25h16c.686 0 1.25-.564 1.25-1.25zM1 5.75A2.756 2.756 0 0 1 3.75 3h16a2.756 2.756 0 0 1 2.75 2.75v12a2.756 2.756 0 0 1-2.75 2.75h-16A2.756 2.756 0 0 1 1 17.75z" clip-rule="evenodd"/></svg>