<svg xmlns="http://www.w3.org/2000/svg" fill="none" viewBox="0 0 24 24" class="Icon Icon-view-off"><mask id="a" width="20" height="20" x="2" y="2" maskUnits="userSpaceOnUse" style="mask-type:alpha"><path fill="currentColor" fill-rule="evenodd" d="M2.22 2.22a.75.75 0 0 1 1.06 0l4.21 4.208.015.015 9.885 9.885.015.015 4.21 4.21a.75.75 0 0 1-1.061 1.06l-3.77-3.77a9.14 9.14 0 0 1-4.854 1.49h-.012c-3.217 0-5.693-1.836-7.318-3.57a17 17 0 0 1-2.348-3.192 10 10 0 0 1-.158-.292l-.01-.018-.002-.006-.001-.002.67-.336-.67.335a.75.75 0 0 1 .01-.69 16.1 16.1 0 0 1 3.756-4.655L2.22 3.28a.75.75 0 0 1 0-1.06m4.69 5.75a14.6 14.6 0 0 0-3.304 3.948 15.7 15.7 0 0 0 2.087 2.818c1.498 1.598 3.603 3.094 6.218 3.096a7.64 7.64 0 0 0 3.784-1.078l-2.059-2.058a3.26 3.26 0 0 1-1.724.532 3.25 3.25 0 0 1-2.776-5.032zm3.33 3.33a1.75 1.75 0 0 0 2.292 2.291zM11.916 6a7 7 0 0 0-1.577.18.75.75 0 1 1-.342-1.46 8.4 8.4 0 0 1 1.922-.22l-.001.75V4.5c3.216 0 5.692 1.837 7.318 3.57a17.2 17.2 0 0 1 2.347 3.192 10 10 0 0 1 .159.293l.009.018.003.005v.002c.001.001.001.001-.67.337l-.661-.354q-.095.177-.194.352a15.6 15.6 0 0 0-2.087-2.818C16.64 7.496 14.533 6 11.916 6m8.313 5.915c-.44.77-.948 1.499-1.519 2.177a.75.75 0 1 0 1.148.966 16 16 0 0 0 1.888-2.788.75.75 0 0 0 .01-.689l-.672.336-.67.335-.001-.001-.005-.01-.025-.048a9 9 0 0 0-.154-.278" clip-rule="evenodd"/></mask><g mask="url(#a)"><path fill="currentColor" d="M0 0h24v24H0z"/></g></svg>