<svg xmlns="http://www.w3.org/2000/svg" fill="none" viewBox="0 0 24 24" class="Icon Icon-view-on"><path fill="currentColor" fill-rule="evenodd" d="M2.604 12.023a17 17 0 0 0 2.307 3.123c1.641 1.751 3.957 3.4 6.839 3.4s5.198-1.649 6.84-3.4a17 17 0 0 0 2.306-3.123A17 17 0 0 0 18.59 8.9c-1.641-1.752-3.957-3.4-6.839-3.4S6.552 7.148 4.91 8.9a17 17 0 0 0-2.306 3.123m19.146 0 .67-.336v-.003l-.004-.006-.01-.02a7 7 0 0 0-.171-.316 18.6 18.6 0 0 0-2.552-3.47C17.916 5.988 15.231 4 11.75 4S5.584 5.988 3.816 7.873a18.6 18.6 0 0 0-2.551 3.47 11 11 0 0 0-.171.316l-.01.02-.003.005-.001.002.67.337-.67-.336a.75.75 0 0 0 0 .671l.67-.335-.67.335v.003l.004.006.01.02a7 7 0 0 0 .171.316 18.6 18.6 0 0 0 2.551 3.47c1.768 1.884 4.453 3.872 7.934 3.872s6.166-1.988 7.933-3.873a18.6 18.6 0 0 0 2.552-3.47 11 11 0 0 0 .171-.316l.01-.019.003-.006.001-.002zm0 0 .67.335a.75.75 0 0 0 0-.671zm-10-1.978a1.977 1.977 0 1 0 0 3.955 1.977 1.977 0 0 0 0-3.955m-3.477 1.977a3.477 3.477 0 1 1 6.955 0 3.477 3.477 0 0 1-6.955 0" clip-rule="evenodd"/></svg>