<svg class="Icon Icon-feedback" viewBox="0 0 24 24" fill="none" xmlns="http://www.w3.org/2000/svg"><path d="M3 22c-.3 0-.5-.1-.7-.3-.3-.3-.4-.7-.2-1l1.8-5.3c-.6-1.2-.9-2.6-.9-3.9 0-1.8.5-3.5 1.4-5C5.3 5 6.7 3.8 8.3 3c1.3-.7 2.8-1 4.2-1h.5c2.4.1 4.6 1.1 6.2 2.8 1.7 1.7 2.6 3.8 2.8 6.2v.6c0 1.5-.3 2.9-1 4.3-.8 1.6-2 2.9-3.5 3.8-1.5.9-3.2 1.4-5 1.4-1.3 0-2.6-.3-3.8-.8l-5.3 1.8c-.2-.1-.3-.1-.4-.1Zm9.5-18c-1.2 0-2.3.3-3.3.8-1.3.6-2.3 1.6-3 2.8C5.4 8.7 5 10.1 5 11.5c0 1.2.3 2.3.8 3.3.1.2.1.5.1.8l-1.3 3.8 3.8-1.3c.3-.1.5-.1.8.1 1 .5 2.2.8 3.3.8 1.4 0 2.8-.4 3.9-1.1 1.2-.7 2.1-1.8 2.8-3 .5-1 .8-2.2.8-3.4V11c-.1-1.8-.9-3.5-2.2-4.8-1.3-1.3-3-2.1-4.9-2.2h-.4Z" fill="currentColor"/></svg>
