<svg xmlns="http://www.w3.org/2000/svg" fill="none" viewBox="0 0 24 24" class="Icon Icon-comment"><mask id="a" width="21" height="20" x="2" y="2" maskUnits="userSpaceOnUse" style="mask-type:alpha"><path fill="currentColor" fill-rule="evenodd" d="M13.5 3.75a7.75 7.75 0 0 0-7.41 10.03.75.75 0 0 1-.006.46L4.2 19.795l4.79-1.649a.75.75 0 0 1 .621.06A7.75 7.75 0 1 0 13.5 3.75M4.25 11.5a9.25 9.25 0 1 1 4.913 8.172L3.244 21.71a.75.75 0 0 1-.954-.95l2.297-6.776A9.3 9.3 0 0 1 4.25 11.5" clip-rule="evenodd"/></mask><g mask="url(#a)"><path fill="currentColor" d="M0 0h24v24H0z"/></g></svg>