<svg xmlns="http://www.w3.org/2000/svg" fill="none" viewBox="0 0 24 24" class="Icon Icon-folder"><path fill="currentColor" fill-rule="evenodd" d="M4 4.75A1.25 1.25 0 0 0 2.75 6v12A1.25 1.25 0 0 0 4 19.25h16A1.25 1.25 0 0 0 21.25 18V9A1.25 1.25 0 0 0 20 7.75h-9a.75.75 0 0 1-.624-.334L8.599 4.75zm-1.945-.695A2.75 2.75 0 0 1 4 3.25h5a.75.75 0 0 1 .624.334l1.777 2.666H20A2.75 2.75 0 0 1 22.75 9v9A2.75 2.75 0 0 1 20 20.75H4A2.75 2.75 0 0 1 1.25 18V6c0-.73.29-1.429.805-1.945" clip-rule="evenodd"/></svg>