<svg xmlns="http://www.w3.org/2000/svg" fill="none" viewBox="0 0 24 24" class="Icon Icon-sad"><path fill="currentColor" fill-rule="evenodd" d="M11.75 2.5a9.25 9.25 0 1 0 0 18.5 9.25 9.25 0 0 0 0-18.5M1 11.75C1 5.813 5.813 1 11.75 1S22.5 5.813 22.5 11.75 17.687 22.5 11.75 22.5 1 17.687 1 11.75m7-3A.75.75 0 0 1 8.75 8h.01a.75.75 0 0 1 0 1.5h-.01A.75.75 0 0 1 8 8.75m6 0a.75.75 0 0 1 .75-.75h.01a.75.75 0 0 1 0 1.5h-.01a.75.75 0 0 1-.75-.75m-2.25 5.87c-2.103 0-3.117 1.162-3.33 1.586a.75.75 0 1 1-1.34-.671c.454-.91 1.973-2.415 4.67-2.415s4.216 1.505 4.67 2.415a.75.75 0 1 1-1.34.67c-.213-.423-1.226-1.585-3.33-1.585" clip-rule="evenodd"/></svg>