<svg xmlns="http://www.w3.org/2000/svg" fill="none" viewBox="0 0 24 24" class="Icon Icon-gift"><mask id="opo-mask-48379790" width="22" height="22" x="1" y="1" maskUnits="userSpaceOnUse" style="mask-type:alpha"><path fill="currentColor" fill-rule="evenodd" d="M7.25 2.5a1.75 1.75 0 1 0 0 3.5h3.51a9 9 0 0 0-.605-1.388C9.511 3.442 8.582 2.5 7.25 2.5m3.75 5V11H2.5V7.5zM4.51 6a3.25 3.25 0 0 1 2.74-5c2.166 0 3.488 1.559 4.22 2.889q.153.28.28.553.127-.273.28-.553C12.762 2.559 14.083 1 16.25 1a3.25 3.25 0 0 1 2.739 5h2.761a.75.75 0 0 1 .75.75v5a.75.75 0 0 1-.75.75H20.5v9.25a.75.75 0 0 1-.75.75h-16a.75.75 0 0 1-.75-.75V12.5H1.75a.75.75 0 0 1-.75-.75v-5A.75.75 0 0 1 1.75 6zm-.01 6.5V21H11v-8.5zm8 0V21H19v-8.5zM21 11V7.5h-8.5V11zm-4.75-5a1.75 1.75 0 0 0 0-3.5c-1.333 0-2.262.941-2.905 2.111A9 9 0 0 0 12.74 6z" clip-rule="evenodd"/></mask><g mask="url(#opo-mask-48379790)"><path fill="currentColor" d="M0 0h24v24H0z"/></g></svg>