<svg xmlns="http://www.w3.org/2000/svg" fill="none" viewBox="0 0 24 24" class="Icon Icon-globe"><path fill="currentColor" fill-rule="evenodd" d="M2.78 11.25h4.502a16.05 16.05 0 0 1 3.014-8.343A9.255 9.255 0 0 0 2.78 11.25M12 3.149a14.55 14.55 0 0 0-3.214 8.101h6.428A14.55 14.55 0 0 0 12 3.149m3.214 9.601A14.55 14.55 0 0 1 12 20.851a14.55 14.55 0 0 1-3.214-8.101zm-7.932 0H2.78a9.255 9.255 0 0 0 7.516 8.343 16.05 16.05 0 0 1-3.014-8.343m6.422 8.343a16.05 16.05 0 0 0 3.014-8.343h4.502a9.255 9.255 0 0 1-7.516 8.343m7.516-9.843h-4.502a16.05 16.05 0 0 0-3.014-8.343 9.255 9.255 0 0 1 7.516 8.343M1.25 12C1.25 6.063 6.063 1.25 12 1.25S22.75 6.063 22.75 12 17.937 22.75 12 22.75 1.25 17.937 1.25 12" clip-rule="evenodd"/></svg>