<svg xmlns="http://www.w3.org/2000/svg" fill="none" viewBox="0 0 24 24" class="Icon Icon-heart-on"><mask id="opo-mask-71019932" width="22" height="20" x="1" y="2" maskUnits="userSpaceOnUse" style="mask-type:alpha"><path fill="currentColor" d="M16.547 2.8a5.84 5.84 0 0 0-4.14 1.72L12 4.93l-.407-.408a5.845 5.845 0 0 0-8.28 0 5.877 5.877 0 0 0 0 8.298l8.12 8.146a.8.8 0 0 0 1.133 0l8.12-8.146A5.87 5.87 0 0 0 22.4 8.67a5.88 5.88 0 0 0-1.714-4.149 5.85 5.85 0 0 0-4.14-1.72"/></mask><g mask="url(#opo-mask-71019932)"><path fill="currentColor" d="M0 0h24v24H0z"/></g></svg>
