<svg xmlns="http://www.w3.org/2000/svg" fill="none" viewBox="0 0 24 24" class="Icon Icon-heart-off"><mask id="a" width="22" height="19" x="1" y="3" maskUnits="userSpaceOnUse" style="mask-type:alpha"><path fill="currentColor" fill-rule="evenodd" d="M14.12 3.456a5.986 5.986 0 0 1 7.824 7.823 6 6 0 0 1-1.298 1.943l-8.416 8.415a.75.75 0 0 1-1.06 0l-8.416-8.415a5.988 5.988 0 0 1 8.467-8.468l.479.479.478-.479a6 6 0 0 1 1.943-1.298M16.413 4.5a4.5 4.5 0 0 0-3.173 1.315l-1.01 1.009a.75.75 0 0 1-1.06 0l-1.01-1.01a4.487 4.487 0 0 0-6.346 6.347l7.886 7.885 7.885-7.885A4.487 4.487 0 0 0 16.412 4.5" clip-rule="evenodd"/></mask><g mask="url(#a)"><path fill="currentColor" d="M0 0h24v24H0z"/></g></svg>