<svg xmlns="http://www.w3.org/2000/svg" fill="none" viewBox="0 0 24 24" class="Icon Icon-help"><path fill="currentColor" fill-rule="evenodd" d="M12.321 2.5A7.82 7.82 0 0 0 4.5 10.321v.202h2.107a2.655 2.655 0 0 1 2.655 2.655v2.857a2.655 2.655 0 0 1-2.655 2.655h-.952A2.655 2.655 0 0 1 3 16.035v-5.714a9.321 9.321 0 0 1 18.643 0v5.714c0 .36-.073.71-.21 1.035-.454 1.664-1.6 2.921-3.006 3.791-1.807 1.12-4.093 1.639-6.106 1.639a.75.75 0 0 1 0-1.5c1.79 0 3.79-.468 5.317-1.414a6.4 6.4 0 0 0 1.147-.896h-.75a2.655 2.655 0 0 1-2.654-2.655v-2.857a2.655 2.655 0 0 1 2.655-2.655h2.107v-.202A7.82 7.82 0 0 0 12.32 2.5m7.691 14.069a1.16 1.16 0 0 1-1.024.621h-.952a1.155 1.155 0 0 1-1.155-1.155v-2.857a1.154 1.154 0 0 1 1.155-1.155h2.107v3.441q-.001.585-.13 1.105M4.5 16.035a1.155 1.155 0 0 0 1.155 1.155h.952a1.155 1.155 0 0 0 1.155-1.155v-2.857a1.154 1.154 0 0 0-1.155-1.155H4.5z" clip-rule="evenodd"/></svg>