<svg xmlns="http://www.w3.org/2000/svg" fill="none" viewBox="0 0 24 24" class="Icon Icon-help-circle"><path fill="currentColor" fill-rule="evenodd" d="M5.99 18.01A8.5 8.5 0 1 0 18.01 5.99 8.5 8.5 0 0 0 5.99 18.01m-1.061 1.061c3.905 3.905 10.237 3.905 14.142 0s3.905-10.237 0-14.142-10.237-3.905-14.142 0-3.905 10.237 0 14.142" clip-rule="evenodd"/><path fill="currentColor" fill-rule="evenodd" d="M12 8.108a2.25 2.25 0 0 0-2.25 2.25.75.75 0 0 1-1.5 0 3.75 3.75 0 1 1 4.5 3.675v.825a.75.75 0 0 1-1.5 0v-2.25H12a2.25 2.25 0 0 0 0-4.5" clip-rule="evenodd"/><path fill="currentColor" d="M12.7 17.108a.75.75 0 1 1-1.5 0 .75.75 0 0 1 1.5 0"/></svg>