<svg class="Icon Icon-help" viewBox="0 0 24 24" fill="none" xmlns="http://www.w3.org/2000/svg"><path fill-rule="evenodd" clip-rule="evenodd" d="M12 3c-2.146 0-4.19.788-5.686 2.168-1.148 1.06-1.9 2.4-2.185 3.832H6a3 3 0 0 1 3 3v3a3 3 0 0 1-3 3H5a3 3 0 0 1-3-3v-5c0-.054.004-.107.013-.159.125-2.323 1.18-4.513 2.945-6.143C6.838 1.963 9.373 1 12 1s5.162.963 7.042 2.698c1.766 1.63 2.82 3.82 2.945 6.143.009.052.013.105.013.159v5.062c-.05 3.42-2.367 5.646-4.56 6.721-1.052.516-3.287 1.612-6.601 1.07a1 1 0 1 1 .322-1.974c2.685.44 4.45-.426 5.399-.891.923-.453 1.802-1.118 2.44-1.988h-1a3 3 0 0 1-3-3v-3a3 3 0 0 1 3-3h1.87c-.285-1.432-1.036-2.772-2.184-3.832C16.19 3.788 14.146 3 12 3Zm8 8h-2a1 1 0 0 0-1 1v3a1 1 0 0 0 1 1h1a1 1 0 0 0 1-1.004V11ZM4 11v4a1 1 0 0 0 1 1h1a1 1 0 0 0 1-1v-3a1 1 0 0 0-1-1H4Z" fill="currentColor"/></svg>
