<svg xmlns="http://www.w3.org/2000/svg" fill="none" viewBox="0 0 24 24" class="Icon Icon-history"><mask id="opo-mask-23941627" width="22" height="21" x="1" y="2" maskUnits="userSpaceOnUse" style="mask-type:alpha"><path fill="currentColor" fill-rule="evenodd" d="M1.75 9.745a.75.75 0 0 1-.75-.75l.004-4.75a.75.75 0 1 1 1.5 0l-.003 2.95.23-.225a98 98 0 0 1 2.433-2.33 10.2 10.2 0 0 1 6.117-2.613c5.646-.415 10.559 3.826 10.973 9.472s-3.826 10.558-9.472 10.973c-4.764.35-9.005-2.615-10.463-6.94a.75.75 0 0 1 1.421-.48 8.75 8.75 0 1 0 2.429-9.3 97 97 0 0 0-2.597 2.493l2.928.003a.75.75 0 1 1 0 1.5z" clip-rule="evenodd"/><path fill="currentColor" fill-rule="evenodd" d="M11.22 7.04a.75.75 0 0 1 .75.75v4.688l3.281 3.28a.75.75 0 0 1-1.06 1.061l-3.72-3.72V7.79a.75.75 0 0 1 .75-.75" clip-rule="evenodd"/></mask><g mask="url(#opo-mask-23941627)"><path fill="currentColor" d="M0 0h24v24H0z"/></g></svg>