<svg xmlns="http://www.w3.org/2000/svg" fill="none" viewBox="0 0 24 24" class="Icon Icon-info"><path fill="currentColor" fill-rule="evenodd" d="M11.75 2.5a9.25 9.25 0 1 0 0 18.5 9.25 9.25 0 0 0 0-18.5M1 11.75C1 5.813 5.813 1 11.75 1S22.5 5.813 22.5 11.75 17.687 22.5 11.75 22.5 1 17.687 1 11.75" clip-rule="evenodd"/><path fill="currentColor" fill-rule="evenodd" d="M11.75 11a.75.75 0 0 1 .75.75v4a.75.75 0 0 1-1.5 0v-4a.75.75 0 0 1 .75-.75M11 7.75a.75.75 0 0 1 .75-.75h.01a.75.75 0 0 1 0 1.5h-.01a.75.75 0 0 1-.75-.75" clip-rule="evenodd"/></svg>