<svg xmlns="http://www.w3.org/2000/svg" fill="none" viewBox="0 0 24 24" class="Icon Icon-link"><mask id="a" width="21" height="21" x="2" y="2" maskUnits="userSpaceOnUse" style="mask-type:alpha"><path fill="currentColor" fill-rule="evenodd" d="M13.07 3.544a5.5 5.5 0 0 1 7.776 7.776l-.009.01-2.85 2.849a5.5 5.5 0 0 1-8.292-.594.75.75 0 0 1 1.2-.899 4 4 0 0 0 6.032.432l2.845-2.845a4 4 0 0 0-5.656-5.654l-1.63 1.62a.75.75 0 1 1-1.057-1.063zm-4.7 5.384a5.5 5.5 0 0 1 6.325 1.858.75.75 0 1 1-1.2.899 4 4 0 0 0-6.032-.432l-2.845 2.845a4 4 0 0 0 5.655 5.655l1.62-1.62a.75.75 0 0 1 1.06 1.061l-1.633 1.634a5.5 5.5 0 0 1-7.776-7.777l.009-.01 2.85-2.848A5.5 5.5 0 0 1 8.37 8.928" clip-rule="evenodd"/></mask><g mask="url(#a)"><path fill="currentColor" d="M0 0h24v24H0z"/></g></svg>