<svg xmlns="http://www.w3.org/2000/svg" fill="none" viewBox="0 0 24 24" class="Icon Icon-list"><path fill="currentColor" fill-rule="evenodd" d="M2 5.75A.75.75 0 0 1 2.75 5h.01a.75.75 0 0 1 0 1.5h-.01A.75.75 0 0 1 2 5.75m5 0A.75.75 0 0 1 7.75 5h13a.75.75 0 0 1 0 1.5h-13A.75.75 0 0 1 7 5.75m-5 6a.75.75 0 0 1 .75-.75h.01a.75.75 0 0 1 0 1.5h-.01a.75.75 0 0 1-.75-.75m5 0a.75.75 0 0 1 .75-.75h13a.75.75 0 0 1 0 1.5h-13a.75.75 0 0 1-.75-.75m-5 6a.75.75 0 0 1 .75-.75h.01a.75.75 0 0 1 0 1.5h-.01a.75.75 0 0 1-.75-.75m5 0a.75.75 0 0 1 .75-.75h13a.75.75 0 0 1 0 1.5h-13a.75.75 0 0 1-.75-.75" clip-rule="evenodd"/></svg>