<svg xmlns="http://www.w3.org/2000/svg" fill="none" viewBox="0 0 24 24" class="Icon Icon-loader"><mask id="opo-mask-62642710" width="22" height="22" x="1" y="1" maskUnits="userSpaceOnUse" style="mask-type:alpha"><path fill="currentColor" fill-rule="evenodd" d="M11.75 1.25a.75.75 0 0 1 .75.75v4A.75.75 0 0 1 11 6V2a.75.75 0 0 1 .75-.75M4.15 4.4a.75.75 0 0 1 1.06 0l2.83 2.83a.75.75 0 0 1-1.06 1.06L4.15 5.46a.75.75 0 0 1 0-1.06m15.2 0a.75.75 0 0 1 0 1.06l-2.83 2.83a.75.75 0 0 1-1.06-1.06l2.83-2.83a.75.75 0 0 1 1.06 0M1 12a.75.75 0 0 1 .75-.75h4a.75.75 0 0 1 0 1.5h-4A.75.75 0 0 1 1 12m16 0a.75.75 0 0 1 .75-.75h4a.75.75 0 0 1 0 1.5h-4A.75.75 0 0 1 17 12m-8.96 3.71a.75.75 0 0 1 0 1.06L5.21 19.6a.75.75 0 1 1-1.06-1.06l2.83-2.83a.75.75 0 0 1 1.06 0m7.42 0a.75.75 0 0 1 1.06 0l2.83 2.83a.75.75 0 0 1-1.06 1.06l-2.83-2.83a.75.75 0 0 1 0-1.06m-3.71 1.54a.75.75 0 0 1 .75.75v4a.75.75 0 0 1-1.5 0v-4a.75.75 0 0 1 .75-.75" clip-rule="evenodd"/></mask><g mask="url(#opo-mask-62642710)"><path fill="currentColor" d="M0 0h24v24H0z"/></g></svg>