<svg class="Icon Icon-loader" viewBox="0 0 24 24" fill="none" xmlns="http://www.w3.org/2000/svg"><path fill-rule="evenodd" clip-rule="evenodd" d="M13 2a1 1 0 1 0-2 0v4a1 1 0 1 0 2 0V2Zm0 16a1 1 0 1 0-2 0v4a1 1 0 1 0 2 0v-4ZM4.223 4.223a1 1 0 0 1 1.414 0l2.83 2.83a1 1 0 1 1-1.414 1.414l-2.83-2.83a1 1 0 0 1 0-1.414Zm12.724 11.31a1 1 0 0 0-1.414 1.414l2.83 2.83a1 1 0 0 0 1.414-1.414l-2.83-2.83ZM1 12a1 1 0 0 1 1-1h4a1 1 0 1 1 0 2H2a1 1 0 0 1-1-1Zm17-1a1 1 0 1 0 0 2h4a1 1 0 1 0 0-2h-4Zm-9.533 4.533a1 1 0 0 1 0 1.414l-2.83 2.83a1 1 0 0 1-1.414-1.414l2.83-2.83a1 1 0 0 1 1.414 0Zm11.31-9.896a1 1 0 0 0-1.414-1.414l-2.83 2.83a1 1 0 0 0 1.414 1.414l2.83-2.83Z" fill="currentColor"/></svg>
