<svg viewBox="0 0 24 24" fill="none" xmlns="http://www.w3.org/2000/svg" class="Icon Icon-marker"><path fill-rule="evenodd" clip-rule="evenodd" d="M1.9 21.5L4.8 21.6C4.94641 21.6 5.09282 21.5464 5.27846 21.4785C5.34641 21.4536 5.41961 21.4268 5.5 21.4L5.7 21.3L5.8 21.2C6.1 20.9 6.4 20.7 6.8 20.5C7.2 20.4 7.7 20.3 8.1 20.3H9.8C9.9 20.3 10.1 20.3 10.2 20.2C10.3 20.2 10.4 20.1 10.5 20L21.6 7.6C22 7.2 22.2 6.6 22.2 6C22.2 5.4 21.9 4.8 21.5 4.4L19.8 2.7C19.4 2.3 18.8 2 18.2 2C17.5 2 17 2.2 16.5 2.6L4 13.6C3.95 13.65 3.925 13.7 3.9 13.75C3.875 13.8 3.85 13.85 3.8 13.9C3.7 14 3.7 14.2 3.7 14.3V16C3.7 16.5 3.7 16.9 3.5 17.3C3.44502 17.3825 3.39003 17.4725 3.33297 17.5659C3.18248 17.8124 3.01752 18.0825 2.8 18.3L1.3 19.9C1.1 20 1 20.2 1 20.4C1 20.6 1 20.8 1.1 20.9C1.1 21.1 1.2 21.2 1.4 21.3C1.5 21.4 1.7 21.5 1.9 21.5ZM5.1 19.2L4.8 18.9C5.2 18.2 5.5 17.5 5.6 16.6L7.4 18.4C6.5 18.5 5.8 18.7 5.1 19.2ZM9.7 18L6 14.3L17.7 3.9C17.8 3.8 17.9 3.8 18 3.8C18.05 3.85 18.1 3.875 18.15 3.9C18.2 3.925 18.25 3.95 18.3 4L20 5.7C20.1 5.8 20.2 5.9 20.2 6C20.2 6.1 20.2 6.2 20.1 6.3L9.7 18Z" fill="currentColor"/></svg>
