<svg viewBox="0 0 24 24" fill="none" xmlns="http://www.w3.org/2000/svg" class="Icon Icon-marker-filled"> <g clip-path="url(#clip0)"> <path fill-rule="evenodd" clip-rule="evenodd" d="M19.7992 2.7L21.4992 4.4C21.8992 4.8 22.1992 5.4 22.1992 6C22.1992 6.6 21.9992 7.2 21.5992 7.6L11.0992 19.4L4.69922 13L16.4992 2.6C16.9992 2.2 17.4992 2 18.1992 2C18.7992 2 19.3992 2.3 19.7992 2.7ZM3.7 16V14.6L9.4 20.3H8.1C7.7 20.3 7.2 20.4 6.8 20.5C6.4 20.7 6.1 20.9 5.8 21.2L5.7 21.3L5.5 21.4C5.45 21.4 5.425 21.425 5.4 21.45C5.375 21.475 5.35 21.5 5.3 21.5C5.18284 21.5 5.06569 21.5343 4.96863 21.5627C4.9 21.5828 4.84142 21.6 4.8 21.6L1.9 21.5C1.7 21.5 1.5 21.4 1.4 21.3C1.2 21.2 1.1 21.1 1.1 20.9C1 20.8 1 20.6 1 20.4C1 20.2 1.1 20 1.3 19.9L2.8 18.3C2.9 18.2 2.975 18.075 3.05 17.95C3.125 17.825 3.2 17.7 3.3 17.6C3.35 17.55 3.375 17.5 3.4 17.45C3.425 17.4 3.45 17.35 3.5 17.3C3.7 16.9 3.7 16.5 3.7 16Z" fill="currentColor"/> </g> <defs> <clipPath id="clip0"> <rect width="21.2" height="19.6" fill="white" transform="translate(1 2)"/> </clipPath> </defs> </svg>
