<svg xmlns="http://www.w3.org/2000/svg" fill="none" viewBox="0 0 24 24" class="Icon Icon-marker-off"><path fill="currentColor" fill-rule="evenodd" d="M18.253 3.188a.75.75 0 0 1 1.027.032l3 3a.75.75 0 0 1 .051 1.004l-11 13.5a.75.75 0 0 1-1.111.056c-.278-.278-.844-.36-1.76-.076-.856.265-1.734.77-2.274 1.156a.75.75 0 0 1-.436.14h-3a.75.75 0 0 1-.53-1.28c2.7-2.7 2.894-4.826 2.795-5.323a.75.75 0 0 1 .238-.709zm-7.56 15.945-3.849-3.85L18.72 4.78l2.022 2.022zm-4.34-2.22 2.214 2.214q-.289.062-.552.144c-.946.294-1.868.804-2.5 1.229H4.432c1.077-1.347 1.658-2.586 1.922-3.587" clip-rule="evenodd"/></svg>