<svg xmlns="http://www.w3.org/2000/svg" fill="none" viewBox="0 0 24 24" class="Icon Icon-maximize"><path fill="currentColor" fill-rule="evenodd" d="M2.805 2.805A2.75 2.75 0 0 1 4.75 2h3a.75.75 0 0 1 0 1.5h-3A1.25 1.25 0 0 0 3.5 4.75v3a.75.75 0 0 1-1.5 0v-3c0-.73.29-1.429.805-1.945M15 2.75a.75.75 0 0 1 .75-.75h3a2.75 2.75 0 0 1 2.75 2.75v3a.75.75 0 0 1-1.5 0v-3a1.25 1.25 0 0 0-1.25-1.25h-3a.75.75 0 0 1-.75-.75M2.75 15a.75.75 0 0 1 .75.75v3A1.25 1.25 0 0 0 4.75 20h3a.75.75 0 0 1 0 1.5h-3A2.75 2.75 0 0 1 2 18.75v-3a.75.75 0 0 1 .75-.75m18 0a.75.75 0 0 1 .75.75v3a2.75 2.75 0 0 1-2.75 2.75h-3a.75.75 0 0 1 0-1.5h3A1.25 1.25 0 0 0 20 18.75v-3a.75.75 0 0 1 .75-.75" clip-rule="evenodd"/></svg>