<svg xmlns="http://www.w3.org/2000/svg" fill="none" viewBox="0 0 24 24" class="Icon Icon-menu"><mask id="opo-mask-99904932" width="20" height="14" x="2" y="5" maskUnits="userSpaceOnUse" style="mask-type:alpha"><path fill="currentColor" fill-rule="evenodd" d="M2.5 5.75A.75.75 0 0 1 3.25 5h18a.75.75 0 0 1 0 1.5h-18a.75.75 0 0 1-.75-.75m0 6a.75.75 0 0 1 .75-.75h18a.75.75 0 0 1 0 1.5h-18a.75.75 0 0 1-.75-.75m0 6a.75.75 0 0 1 .75-.75h18a.75.75 0 0 1 0 1.5h-18a.75.75 0 0 1-.75-.75" clip-rule="evenodd"/></mask><g mask="url(#opo-mask-99904932)"><path fill="currentColor" d="M0 0h24v24H0z"/></g></svg>