<svg xmlns="http://www.w3.org/2000/svg" fill="none" viewBox="0 0 24 24" class="Icon Icon-microphone"><path fill="currentColor" fill-rule="evenodd" d="M9.572 2.017C10.343 1.357 11.368 1 12.417 1c1.048 0 2.073.356 2.845 1.017.775.665 1.238 1.593 1.238 2.59v7.62c0 .996-.463 1.925-1.238 2.589-.772.661-1.797 1.017-2.845 1.017-1.05 0-2.074-.356-2.845-1.017-.776-.664-1.239-1.593-1.239-2.59V4.607c0-.997.463-1.925 1.239-2.59m2.845.483c-.72 0-1.39.246-1.87.656-.475.408-.714.933-.714 1.451v7.62c0 .518.24 1.043.715 1.45.478.41 1.15.656 1.869.656s1.39-.246 1.869-.656c.475-.407.714-.932.714-1.45v-7.62c0-.518-.24-1.043-.714-1.45-.48-.411-1.15-.657-1.87-.657M5.75 8.778a.75.75 0 0 1 .75.75v1.975a6.3 6.3 0 0 0 1.742 4.368 5.8 5.8 0 0 0 4.175 1.796 5.8 5.8 0 0 0 4.174-1.796 6.3 6.3 0 0 0 1.742-4.368V9.528a.75.75 0 0 1 1.5 0v1.975c0 2.024-.775 3.97-2.162 5.41a7.32 7.32 0 0 1-4.504 2.215V21h2.583a.75.75 0 0 1 0 1.5H9.083a.75.75 0 0 1 0-1.5h2.584v-1.872a7.32 7.32 0 0 1-4.504-2.216A7.8 7.8 0 0 1 5 11.503V9.528a.75.75 0 0 1 .75-.75" clip-rule="evenodd"/></svg>