<svg xmlns="http://www.w3.org/2000/svg" fill="none" viewBox="0 0 24 24" class="Icon Icon-menu-vertical"><mask id="a" width="4" height="18" x="10" y="3" maskUnits="userSpaceOnUse" style="mask-type:alpha"><path fill="currentColor" fill-rule="evenodd" d="M11.75 4.5a.25.25 0 1 0 0 .5.25.25 0 0 0 0-.5M10 4.75a1.75 1.75 0 1 1 3.5 0 1.75 1.75 0 0 1-3.5 0m1.75 6.75a.25.25 0 1 0 0 .5.25.25 0 0 0 0-.5m-1.75.25a1.75 1.75 0 1 1 3.5 0 1.75 1.75 0 0 1-3.5 0m1.75 6.75a.25.25 0 1 0 0 .5.25.25 0 0 0 0-.5m-1.75.25a1.75 1.75 0 1 1 3.5 0 1.75 1.75 0 0 1-3.5 0" clip-rule="evenodd"/></mask><g mask="url(#a)"><path fill="currentColor" d="M0 0h24v24H0z"/></g></svg>