<svg xmlns="http://www.w3.org/2000/svg" fill="none" viewBox="0 0 24 24" class="Icon Icon-menu-horizontal"><mask id="a" width="18" height="4" x="3" y="10" maskUnits="userSpaceOnUse" style="mask-type:alpha"><path fill="currentColor" fill-rule="evenodd" d="M4.75 11.5a.25.25 0 1 0 0 .5.25.25 0 0 0 0-.5M3 11.75a1.75 1.75 0 1 1 3.5 0 1.75 1.75 0 0 1-3.5 0m8.75-.25a.25.25 0 1 0 0 .5.25.25 0 0 0 0-.5m-1.75.25a1.75 1.75 0 1 1 3.5 0 1.75 1.75 0 0 1-3.5 0m8.75-.25a.25.25 0 1 0 0 .5.25.25 0 0 0 0-.5m-1.75.25a1.75 1.75 0 1 1 3.5 0 1.75 1.75 0 0 1-3.5 0" clip-rule="evenodd"/></mask><g mask="url(#a)"><path fill="currentColor" d="M0 0h24v24H0z"/></g></svg>