<svg class="Icon Icon-paperclip" width="22" height="23" viewBox="0 0 22 23" fill="none" xmlns="http://www.w3.org/2000/svg">
<path d="M20.44 11.05L11.25 20.24C10.1242 21.3658 8.59723 21.9983 7.00505 21.9983C5.41286 21.9983 3.88589 21.3658 2.76005 20.24C1.6342 19.1141 1.00171 17.5872 1.00171 15.995C1.00171 14.4028 1.6342 12.8758 2.76005 11.75L11.95 2.55998C12.7006 1.80942 13.7186 1.38776 14.78 1.38776C15.8415 1.38776 16.8595 1.80942 17.61 2.55998C18.3606 3.31054 18.7823 4.32852 18.7823 5.38998C18.7823 6.45144 18.3606 7.46942 17.61 8.21998L8.41005 17.41C8.03476 17.7853 7.52577 17.9961 6.99505 17.9961C6.46432 17.9961 5.95533 17.7853 5.58005 17.41C5.20476 17.0347 4.99393 16.5257 4.99393 15.995C4.99393 15.4643 5.20476 14.9553 5.58005 14.58L14.07 6.09998" stroke="currentColor" stroke-width="2" stroke-linecap="round" stroke-linejoin="round"/>
</svg>
