<svg xmlns="http://www.w3.org/2000/svg" fill="none" viewBox="0 0 24 24" class="Icon Icon-attach"><path fill="currentColor" fill-rule="evenodd" d="M15.099 3.5c-.723 0-1.416.287-1.928.798L5.19 12.28a4.464 4.464 0 1 0 6.313 6.313l7.981-7.982a.75.75 0 0 1 1.061 1.061l-7.982 7.982a5.964 5.964 0 0 1-8.434-8.435l7.982-7.981a4.226 4.226 0 1 1 5.976 5.976l-7.99 7.982a2.489 2.489 0 0 1-3.519-3.519l7.374-7.365a.75.75 0 0 1 1.06 1.061L7.64 14.738a.99.99 0 0 0 .699 1.687 1 1 0 0 0 .698-.29l7.99-7.981A2.727 2.727 0 0 0 15.1 3.5" clip-rule="evenodd"/></svg>