<svg xmlns="http://www.w3.org/2000/svg" fill="none" viewBox="0 0 24 24" class="Icon Icon-pause"><mask id="a" width="14" height="18" x="5" y="3" maskUnits="userSpaceOnUse" style="mask-type:alpha"><path fill="currentColor" fill-rule="evenodd" d="M5.5 3.75A.75.75 0 0 1 6.25 3h4a.75.75 0 0 1 .75.75v16a.75.75 0 0 1-.75.75h-4a.75.75 0 0 1-.75-.75zM7 4.5V19h2.5V4.5zm6.5-.75a.75.75 0 0 1 .75-.75h4a.75.75 0 0 1 .75.75v16a.75.75 0 0 1-.75.75h-4a.75.75 0 0 1-.75-.75zm1.5.75V19h2.5V4.5z" clip-rule="evenodd"/></mask><g mask="url(#a)"><path fill="currentColor" d="M0 0h24v24H0z"/></g></svg>