<svg xmlns="http://www.w3.org/2000/svg" fill="none" viewBox="0 0 24 24" class="Icon Icon-phone"><path fill="currentColor" fill-rule="evenodd" d="M2.736 2.77C3.186 2.23 3.77 2 4.25 2h3c.852 0 1.55.454 2.065 1.026s.906 1.325 1.17 2.097a7.7 7.7 0 0 1 .42 2.393c.004.759-.13 1.55-.531 2.15a1 1 0 0 1-.094.114l-.65.65c.413.882 1.194 1.783 2.107 2.598a17.6 17.6 0 0 0 2.393 1.781l.59-.59c.266-.266.617-.4.929-.473a4.5 4.5 0 0 1 1.05-.099c.734.008 1.58.143 2.379.363.795.22 1.592.537 2.208.94.566.369 1.214.965 1.214 1.8v3c0 1.044-.452 1.77-1.062 2.209a3 3 0 0 1-1.688.541 1 1 0 0 1-.11-.008c-6.98-1.034-11.4-4.666-14.061-8.367a21.5 21.5 0 0 1-2.777-5.27C2.248 7.305 2 5.995 2 5.25c0-1.122.281-1.934.736-2.48m1.153.96c-.17.204-.389.642-.389 1.52 0 .504.19 1.631.714 3.1a20 20 0 0 0 2.582 4.9c2.455 3.413 6.518 6.77 13.002 7.749.214-.01.521-.083.764-.258.223-.16.438-.435.438-.991v-3c0-.016-.039-.221-.534-.544-.444-.29-1.083-.556-1.787-.75-.7-.193-1.416-.302-1.996-.309a3 3 0 0 0-.694.06c-.16.037-.21.077-.211.076l-.998.997a.75.75 0 0 1-.894.126 18.6 18.6 0 0 1-3.148-2.259c-1.117-.997-2.237-2.271-2.7-3.66a.75.75 0 0 1 .182-.767l.94-.94c.146-.254.248-.68.245-1.255a6.2 6.2 0 0 0-.34-1.917c-.22-.642-.523-1.198-.866-1.579-.343-.382-.666-.529-.949-.529h-3c-.02 0-.187.02-.361.23" clip-rule="evenodd"/></svg>