<svg xmlns="http://www.w3.org/2000/svg" fill="none" viewBox="0 0 24 24" class="Icon Icon-refresh"><path fill="currentColor" fill-rule="evenodd" d="M2.695 9.23a.75.75 0 0 1-.693-.804l.499-6.731a.75.75 0 1 1 1.496.11L3.63 6.742l.246-.208A98 98 0 0 1 6.473 4.39a10.2 10.2 0 0 1 6.293-2.158c3.905 0 7.3 2.184 9.029 5.394a.75.75 0 0 1-1.32.711 8.75 8.75 0 0 0-7.71-4.605 8.7 8.7 0 0 0-5.37 1.841 97 97 0 0 0-2.773 2.295l4.915.364a.75.75 0 1 1-.11 1.496zm18.495 5.004a.75.75 0 0 1 .692.803l-.498 6.732a.75.75 0 0 1-1.496-.111l.366-4.937-.246.208a98 98 0 0 1-2.597 2.144 10.2 10.2 0 0 1-6.292 2.159c-3.905 0-7.3-2.185-9.03-5.395a.75.75 0 1 1 1.321-.711 8.75 8.75 0 0 0 7.709 4.606 8.7 8.7 0 0 0 5.37-1.842 97 97 0 0 0 2.55-2.105l.223-.19-4.914-.364a.75.75 0 0 1 .11-1.496z" clip-rule="evenodd"/></svg>