<svg class="Icon Icon-refresh-ccw" viewBox="0 0 24 24" fill="none" xmlns="http://www.w3.org/2000/svg"><path fill-rule="evenodd" clip-rule="evenodd" d="M14.212 2.249a10 10 0 0 0-9.268 2.673L2 7.688V4a1 1 0 0 0-2 0v6a1 1 0 0 0 1 1h6a1 1 0 1 0 0-2H3.524l2.8-2.631a8 8 0 0 1 13.223 2.965 1 1 0 1 0 1.886-.668 10 10 0 0 0-7.22-6.417ZM20.475 15H17a1 1 0 1 1 0-2h6a1 1 0 0 1 1 1v6a1 1 0 1 1-2 0v-3.688l-2.944 2.766a10 10 0 0 1-16.489-3.744 1 1 0 0 1 1.886-.668 8 8 0 0 0 13.2 2.987l.013-.013.01-.009 2.8-2.631Z" fill="currentColor"/></svg>
