<svg xmlns="http://www.w3.org/2000/svg" fill="none" viewBox="0 0 24 24" class="Icon Icon-repeat"><mask id="a" width="18" height="22" x="3" y="1" maskUnits="userSpaceOnUse" style="mask-type:alpha"><path fill="currentColor" fill-rule="evenodd" d="M15.436 1.506a.75.75 0 0 1 1.058-.07l3.866 3.383a.75.75 0 0 1 .39.658V5.5a.75.75 0 0 1-.256.564l-4 3.5a.75.75 0 0 1-.988-1.128l2.525-2.21H7.556c-.714 0-1.42.319-1.954.92-.537.605-.852 1.442-.852 2.33v2a.75.75 0 0 1-1.5 0v-2c0-1.233.435-2.43 1.23-3.326.8-.899 1.903-1.423 3.076-1.423h10.421l-2.47-2.163a.75.75 0 0 1-.071-1.058M20 11.25a.75.75 0 0 1 .75.75v2c0 1.233-.435 2.431-1.23 3.327-.8.898-1.903 1.423-3.076 1.423H5.811l2.72 2.72a.75.75 0 1 1-1.061 1.06l-4-4a.75.75 0 0 1 0-1.06l4-4a.75.75 0 0 1 1.06 1.06l-2.72 2.72h10.634c.714 0 1.42-.318 1.954-.92.537-.604.852-1.441.852-2.33v-2a.75.75 0 0 1 .75-.75" clip-rule="evenodd"/></mask><g mask="url(#a)"><path fill="currentColor" d="M0 0h24v24H0z"/></g></svg>