<svg xmlns="http://www.w3.org/2000/svg" fill="none" viewBox="0 0 24 24" class="Icon Icon-restart"><path fill="currentColor" fill-rule="evenodd" d="M1.695 9.23a.75.75 0 0 1-.693-.804l.499-6.731a.75.75 0 1 1 1.496.11L2.63 6.742l.245-.208A98 98 0 0 1 5.473 4.39a10.2 10.2 0 0 1 6.293-2.158c5.66 0 10.25 4.589 10.25 10.25s-4.59 10.25-10.25 10.25c-4.777 0-8.79-3.268-9.927-7.688a.75.75 0 1 1 1.452-.374 8.75 8.75 0 1 0 8.474-10.938 8.7 8.7 0 0 0-5.37 1.841 97 97 0 0 0-2.773 2.295l4.915.364a.75.75 0 0 1-.11 1.496z" clip-rule="evenodd"/></svg>