<svg xmlns="http://www.w3.org/2000/svg" fill="none" viewBox="0 0 24 24" class="Icon Icon-save"><path fill="currentColor" fill-rule="evenodd" d="M5.25 3.5A1.25 1.25 0 0 0 4 4.75v14A1.25 1.25 0 0 0 5.25 20H6.5v-7.25a.75.75 0 0 1 .75-.75h10a.75.75 0 0 1 .75.75V20h1.25a1.25 1.25 0 0 0 1.25-1.25V8.06L15.94 3.5H8V7h7.25a.75.75 0 0 1 0 1.5h-8a.75.75 0 0 1-.75-.75V3.5zm0-1.5A2.75 2.75 0 0 0 2.5 4.75v14a2.75 2.75 0 0 0 2.75 2.75h14A2.75 2.75 0 0 0 22 18.75v-11a.75.75 0 0 0-.22-.53l-5-5a.75.75 0 0 0-.53-.22zM16.5 20v-6.5H8V20z" clip-rule="evenodd"/></svg>