<svg xmlns="http://www.w3.org/2000/svg" fill="none" viewBox="0 0 24 24" class="Icon Icon-settings"><mask id="a" width="22" height="22" x="1" y="1" maskUnits="userSpaceOnUse" style="mask-type:alpha"><path fill="currentColor" fill-rule="evenodd" d="M11.75 2.5a1.07 1.07 0 0 0-1.068 1.068v.158a2.25 2.25 0 0 1-1.364 2.059.8.8 0 0 1-.214.056 2.25 2.25 0 0 1-2.333-.51l-.006-.005-.054-.055a1.07 1.07 0 1 0-1.513 1.512l.06.06a2.25 2.25 0 0 1 .46 2.46 2.25 2.25 0 0 1-2.05 1.451h-.1a1.068 1.068 0 0 0 0 2.137h.158a2.25 2.25 0 0 1 2.057 1.36 2.25 2.25 0 0 1-.451 2.478l-.006.006-.055.054a1.07 1.07 0 1 0 1.512 1.513l.06-.06a2.25 2.25 0 0 1 2.46-.46 2.25 2.25 0 0 1 1.451 2.05v.1a1.068 1.068 0 0 0 2.137 0v-.158a2.25 2.25 0 0 1 1.36-2.057 2.25 2.25 0 0 1 2.478.451l.006.006.054.055a1.07 1.07 0 1 0 1.513-1.512l-.06-.06a2.25 2.25 0 0 1-.452-2.48 2.25 2.25 0 0 1 2.057-1.359h.085a1.068 1.068 0 0 0 0-2.136h-.158a2.25 2.25 0 0 1-2.059-1.364.8.8 0 0 1-.056-.214 2.25 2.25 0 0 1 .51-2.333l.005-.006.055-.054a1.07 1.07 0 1 0-1.512-1.513l-.06.06a2.25 2.25 0 0 1-2.479.452 2.25 2.25 0 0 1-1.36-2.057v-.085A1.07 1.07 0 0 0 11.75 2.5m-1.816-.748a2.568 2.568 0 0 1 4.384 1.816v.08a.75.75 0 0 0 .455.685l.007.004a.75.75 0 0 0 .825-.148l.05-.05a2.57 2.57 0 1 1 3.634 3.633l-.05.05a.75.75 0 0 0-.148.825.8.8 0 0 1 .053.177.75.75 0 0 0 .635.358h.153a2.568 2.568 0 1 1 0 5.136h-.08a.75.75 0 0 0-.685.455l-.004.007a.75.75 0 0 0 .148.825l.05.05a2.57 2.57 0 1 1-3.633 3.634l-.05-.05a.75.75 0 0 0-.825-.148l-.008.003a.75.75 0 0 0-.454.685v.153a2.568 2.568 0 0 1-5.136 0v-.072a.75.75 0 0 0-.491-.679l-.044-.018a.75.75 0 0 0-.825.148l-.05.05a2.569 2.569 0 1 1-3.634-3.633l.05-.05a.75.75 0 0 0 .148-.825l-.003-.008a.75.75 0 0 0-.685-.454h-.153a2.568 2.568 0 0 1 0-5.136h.072a.75.75 0 0 0 .679-.491l.018-.044a.75.75 0 0 0-.148-.825l-.05-.05A2.57 2.57 0 1 1 7.77 4.21l.051.05a.75.75 0 0 0 .825.148.8.8 0 0 1 .177-.053.75.75 0 0 0 .358-.635v-.153c0-.68.27-1.334.752-1.816m1.817 8.021a1.977 1.977 0 1 0 0 3.955 1.977 1.977 0 0 0 0-3.955M8.272 11.75a3.477 3.477 0 1 1 6.955 0 3.477 3.477 0 0 1-6.955 0" clip-rule="evenodd"/></mask><g mask="url(#a)"><path fill="currentColor" d="M0 0h24v24H0z"/></g></svg>