<svg xmlns="http://www.w3.org/2000/svg" fill="none" viewBox="0 0 24 24" class="Icon Icon-shopping-bag"><path fill="currentColor" fill-rule="evenodd" d="M5.15 1.3a.75.75 0 0 1 .6-.3h12a.75.75 0 0 1 .6.3l3 4a.75.75 0 0 1 .15.45v14a2.75 2.75 0 0 1-2.75 2.75h-14A2.75 2.75 0 0 1 2 19.75v-14a.75.75 0 0 1 .15-.45zm.975 1.2L4.25 5h15l-1.875-2.5zM20 6.5H3.5v13.25A1.25 1.25 0 0 0 4.75 21h14A1.25 1.25 0 0 0 20 19.75zM7.75 9a.75.75 0 0 1 .75.75 3.25 3.25 0 1 0 6.5 0 .75.75 0 0 1 1.5 0 4.75 4.75 0 1 1-9.5 0A.75.75 0 0 1 7.75 9" clip-rule="evenodd"/></svg>