<svg xmlns="http://www.w3.org/2000/svg" fill="none" viewBox="0 0 24 24" class="Icon Icon-stack"><mask id="opo-mask-54791704" width="22" height="17" x="1" y="4" maskUnits="userSpaceOnUse" style="mask-type:alpha"><path fill="currentColor" fill-rule="evenodd" d="M1 4.75A.75.75 0 0 1 1.75 4h20a.75.75 0 0 1 .75.75v6a.75.75 0 0 1-.75.75h-20a.75.75 0 0 1-.75-.75zm1.5.75V10H21V5.5zM1 13.75a.75.75 0 0 1 .75-.75h20a.75.75 0 0 1 .75.75v6a.75.75 0 0 1-.75.75h-20a.75.75 0 0 1-.75-.75zm1.5.75V19H21v-4.5z" clip-rule="evenodd"/></mask><g mask="url(#opo-mask-54791704)"><path fill="currentColor" d="M0 0h24v24H0z"/></g></svg>