<svg xmlns="http://www.w3.org/2000/svg" fill="none" viewBox="0 0 24 24" class="Icon Icon-star"><mask id="opo-mask-52835280" width="21" height="20" x="2" y="2" maskUnits="userSpaceOnUse" style="mask-type:alpha"><path fill="currentColor" fill-rule="evenodd" d="M12.474 2.25a.75.75 0 0 1 .673.418L15.9 8.246l6.157.9a.75.75 0 0 1 .415 1.279l-4.455 4.339 1.052 6.13a.75.75 0 0 1-1.089.79l-5.506-2.896-5.506 2.896a.75.75 0 0 1-1.088-.79l1.051-6.13-4.454-4.339a.75.75 0 0 1 .415-1.28l6.157-.9 2.753-5.577a.75.75 0 0 1 .672-.418m0 2.444L10.22 9.263a.75.75 0 0 1-.564.41l-5.044.737 3.65 3.554a.75.75 0 0 1 .215.665l-.86 5.02 4.51-2.372a.75.75 0 0 1 .697 0l4.51 2.372-.86-5.02a.75.75 0 0 1 .215-.665l3.65-3.554-5.045-.737a.75.75 0 0 1-.564-.41z" clip-rule="evenodd"/></mask><g mask="url(#opo-mask-52835280)"><path fill="currentColor" d="M0 0h24v24H0z"/></g></svg>