<svg class="Icon Icon-student" viewBox="0 0 16 16" fill="none" xmlns="http://www.w3.org/2000/svg"><path fill-rule="evenodd" clip-rule="evenodd" d="M7.697 3.066a.729.729 0 0 1 .606 0l6.847 3.169c.211.097.345.289.35.5v3.755c0 .318-.292.576-.652.576-.36 0-.652-.258-.652-.576V7.738l-.979.494v3.987a.552.552 0 0 1-.234.442c-1.155.85-3.138 1.214-4.983 1.214-1.845 0-3.828-.364-4.983-1.214a.552.552 0 0 1-.234-.442V8.232L.829 7.245a.567.567 0 0 1-.329-.51.573.573 0 0 1 .35-.5l6.847-3.17ZM4.087 8.89v3.039c.856.498 2.328.794 3.913.794s3.057-.296 3.913-.794V8.89l-3.59 1.812a.728.728 0 0 1-.647 0L4.087 8.89ZM8 6.17h4.197L8 4.227l-5.49 2.54L8 9.538l4.392-2.217H8c-.36 0-.652-.258-.652-.576 0-.318.292-.576.652-.576Z" fill="currentColor"/></svg>
