<svg xmlns="http://www.w3.org/2000/svg" fill="none" viewBox="0 0 24 24" class="Icon Icon-delete"><mask id="a" width="19" height="20" x="2" y="2" maskUnits="userSpaceOnUse" style="mask-type:alpha"><path fill="currentColor" fill-rule="evenodd" d="M9.751 3.5a1.05 1.05 0 0 0-1.05 1.05V5.6h5.7V4.55a1.05 1.05 0 0 0-1.05-1.05zm6.15 2.1V4.55A2.55 2.55 0 0 0 13.351 2h-3.6a2.55 2.55 0 0 0-2.55 2.55V5.6h-3.75a.75.75 0 1 0 0 1.5H4.5v11.85a2.55 2.55 0 0 0 2.55 2.55h9a2.55 2.55 0 0 0 2.55-2.55V7.1h1.05a.75.75 0 0 0 0-1.5zm-.767 1.5h1.967v11.85a1.05 1.05 0 0 1-1.05 1.05h-9a1.05 1.05 0 0 1-1.05-1.05V7.1zm-5.383 3a.75.75 0 0 1 .75.75v5.4a.75.75 0 0 1-1.5 0v-5.4a.75.75 0 0 1 .75-.75m3.6 0a.75.75 0 0 1 .75.75v5.4a.75.75 0 0 1-1.5 0v-5.4a.75.75 0 0 1 .75-.75" clip-rule="evenodd"/></mask><g mask="url(#a)"><path fill="currentColor" d="M0 0h24v24H0z"/></g></svg>