<svg xmlns="http://www.w3.org/2000/svg" fill="none" viewBox="0 0 24 24" class="Icon Icon-lock-open"><path fill="currentColor" fill-rule="evenodd" d="M11.75 2.5A4.25 4.25 0 0 0 7.5 6.75v3.255h11.25a2.75 2.75 0 0 1 2.75 2.75v7a2.75 2.75 0 0 1-2.75 2.75h-14A2.75 2.75 0 0 1 2 19.755v-7a2.75 2.75 0 0 1 2.75-2.75H6V6.75a5.75 5.75 0 1 1 11.5 0 .75.75 0 0 1-1.5 0 4.25 4.25 0 0 0-4.25-4.25m-7 9.005c-.69 0-1.25.56-1.25 1.25v7c0 .69.56 1.25 1.25 1.25h14c.69 0 1.25-.56 1.25-1.25v-7c0-.69-.56-1.25-1.25-1.25z" clip-rule="evenodd"/></svg>