<svg xmlns="http://www.w3.org/2000/svg" fill="none" viewBox="0 0 24 24" class="Icon Icon-users"><path fill="currentColor" fill-rule="evenodd" d="M9.25 3.75a3.25 3.25 0 1 0 0 6.5 3.25 3.25 0 0 0 0-6.5M4.5 7A4.75 4.75 0 1 1 14 7a4.75 4.75 0 0 1-9.5 0m11.023-4.056a.75.75 0 0 1 .913-.54 4.75 4.75 0 0 1 0 9.203.75.75 0 0 1-.372-1.454 3.25 3.25 0 0 0 0-6.296.75.75 0 0 1-.54-.913M1.891 15.641A4.75 4.75 0 0 1 5.25 14.25h8A4.75 4.75 0 0 1 18 19v2a.75.75 0 0 1-1.5 0v-2a3.25 3.25 0 0 0-3.25-3.25h-8A3.25 3.25 0 0 0 2 19v2a.75.75 0 0 1-1.5 0v-2c0-1.26.5-2.468 1.391-3.359m17.633-.698a.75.75 0 0 1 .913-.54A4.75 4.75 0 0 1 24 19v2a.75.75 0 0 1-1.5 0v-2a3.25 3.25 0 0 0-2.437-3.144.75.75 0 0 1-.54-.913" clip-rule="evenodd"/></svg>