<svg xmlns="http://www.w3.org/2000/svg" fill="none" viewBox="0 0 24 24" class="Icon Icon-user"><mask id="opo-mask-13441309" width="18" height="20" x="3" y="2" maskUnits="userSpaceOnUse" style="mask-type:alpha"><path fill="currentColor" fill-rule="evenodd" d="M11.75 3.5a3.25 3.25 0 1 0 0 6.5 3.25 3.25 0 0 0 0-6.5M7 6.75a4.75 4.75 0 1 1 9.5 0 4.75 4.75 0 0 1-9.5 0m-2.609 8.641A4.75 4.75 0 0 1 7.75 14h8a4.75 4.75 0 0 1 4.75 4.75v2a.75.75 0 0 1-1.5 0v-2a3.25 3.25 0 0 0-3.25-3.25h-8a3.25 3.25 0 0 0-3.25 3.25v2a.75.75 0 0 1-1.5 0v-2c0-1.26.5-2.468 1.391-3.359" clip-rule="evenodd"/></mask><g mask="url(#opo-mask-13441309)"><path fill="currentColor" d="M0 0h24v24H0z"/></g></svg>