<svg xmlns="http://www.w3.org/2000/svg" fill="none" viewBox="0 0 24 24" class="Icon Icon-video"><mask id="a" width="22" height="15" x="1" y="5" maskUnits="userSpaceOnUse" style="mask-type:alpha"><path fill="currentColor" fill-rule="evenodd" d="M3.568 6.5c-.59 0-1.068.478-1.068 1.068v9.091c0 .59.478 1.068 1.068 1.068h10c.59 0 1.068-.478 1.068-1.068V7.57c0-.59-.478-1.069-1.068-1.069zM1 7.568A2.57 2.57 0 0 1 3.568 5h10a2.57 2.57 0 0 1 2.568 2.568v3.088l5.178-3.698a.75.75 0 0 1 1.186.61v9.091a.75.75 0 0 1-1.186.61l-5.178-3.698v3.088a2.57 2.57 0 0 1-2.568 2.568h-10A2.57 2.57 0 0 1 1 16.66zm15.677 4.546L21 15.202V9.026z" clip-rule="evenodd"/></mask><g mask="url(#a)"><path fill="currentColor" d="M0 0h24v24H0z"/></g></svg>