<svg xmlns="http://www.w3.org/2000/svg" fill="none" viewBox="0 0 24 24" class="Icon Icon-close"><mask id="a" width="14" height="14" x="5" y="5" maskUnits="userSpaceOnUse" style="mask-type:alpha"><path fill="currentColor" fill-rule="evenodd" d="M5.72 5.22a.75.75 0 0 1 1.06 0l5.47 5.47 5.47-5.47a.75.75 0 1 1 1.06 1.06l-5.47 5.47 5.47 5.47a.75.75 0 1 1-1.06 1.06l-5.47-5.47-5.47 5.47a.75.75 0 0 1-1.06-1.06l5.47-5.47-5.47-5.47a.75.75 0 0 1 0-1.06" clip-rule="evenodd"/></mask><g mask="url(#a)"><path fill="currentColor" d="M0 0h24v24H0z"/></g></svg>