<svg xmlns="http://www.w3.org/2000/svg" fill="none" viewBox="0 0 24 24" class="Icon Icon-zoom-in"><mask id="opo-mask-57209306" width="20" height="20" x="2" y="2" maskUnits="userSpaceOnUse" style="mask-type:alpha"><path fill="currentColor" fill-rule="evenodd" d="M10.75 3.5a7.25 7.25 0 1 0 5.047 12.455.8.8 0 0 1 .158-.158A7.25 7.25 0 0 0 10.75 3.5m6.695 12.884a8.75 8.75 0 1 0-1.06 1.06l3.835 3.837a.75.75 0 1 0 1.06-1.06zM10.75 7a.75.75 0 0 1 .75.75V10h2.25a.75.75 0 0 1 0 1.5H11.5v2.25a.75.75 0 0 1-1.5 0V11.5H7.75a.75.75 0 0 1 0-1.5H10V7.75a.75.75 0 0 1 .75-.75" clip-rule="evenodd"/></mask><g mask="url(#opo-mask-57209306)"><path fill="currentColor" d="M0 0h24v24H0z"/></g></svg>