<svg viewBox="0 0 130 40" xmlns="http://www.w3.org/2000/svg" class="Badge-app-store"><g fill="none" fill-rule="evenodd"><rect fill="#000" height="39" rx="6" stroke="#a6a6a6" width="129" x=".5" y=".5"/><g fill="#fff"><g transform="translate(10 8)"><path d="m15.76888 12.30068c.021857-1.6964709.9112429-3.26349389 2.35656-4.15206-.9159274-1.30810723-2.395048-2.10774165-3.99116-2.15768-1.67924-.17626-3.30719 1.00483-4.1629 1.00483-.87227 0-2.18977-.98733-3.6085-.95814-1.86667874.06030842-3.56474283 1.09589548-4.47292 2.72787-1.934 3.34842-.49141 8.26947 1.3612 10.97608.9269 1.32535 2.01018 2.8058 3.42763 2.7533 1.38706-.05753 1.9051-.88448 3.5794-.88448 1.65876 0 2.14479.88448 3.591.8511 1.48838-.02416 2.42613-1.33124 3.32051-2.66914.6659761-.9443603 1.1784437-1.9880841 1.51842-3.09251-1.7677434-.7476687-2.9171768-2.4798157-2.91924-4.39917z"/><path d="m13.03725 4.21089c.8115266-.97420809 1.211335-2.22638755 1.11452-3.49062-1.2398322.13022049-2.3850898.72277968-3.20758 1.65961-.8121713.92430903-1.22361537 2.13355268-1.14371 3.36139 1.2564568.01293677 2.4494361-.55111678 3.23677-1.53038z"/></g><g transform="translate(40 7)"><path d="m17.34719 14.34765c2.29781.00001 3.8125 1.81641 3.8125 4.62208 0 2.81348-1.50586 4.62109-3.77832 4.62109-1.1746147.0614446-2.2810376-.5537893-2.84863-1.584h-.043v4.48438h-1.8584v-12.04882h1.79886v1.50586h.03418c.5928083-1.0237521 1.7004243-1.6387212 2.88281-1.60059zm9.96481.00001c2.29788 0 3.81253 1.8164 3.81253 4.62207 0 2.81348-1.50586 4.62109-3.77832 4.62109-1.1746147.0614446-2.2810376-.5537893-2.84863-1.584h-.043v4.48438h-1.8584v-12.04882h1.79882v1.50586h.03418c.5928126-1.0237515 1.7004328-1.6387169 2.88282-1.60058zm13.34183-3.47662c2.624 0 4.42285 1.47168 4.4834 3.61426h-1.876c-.1123-1.23926-1.13672-1.9873-2.63379-1.9873s-2.52148.75684-2.52148 1.8584c0 .87793.6543 1.39453 2.25488 1.79l1.36816.33594c2.54785.60254 3.60645 1.626 3.60645 3.44238 0 2.32324-1.85059 3.77832-4.79395 3.77832-2.75391 0-4.61328-1.4209-4.7334-3.667l1.90237.00009c.1377 1.23145 1.334 2.04 2.96875 2.04 1.56641 0 2.69336-.80859 2.69336-1.91895 0-.96387-.67969-1.541-2.28906-1.93652l-1.60937-.3877c-2.28027-.55078-3.33887-1.61719-3.33887-3.34766 0-2.14258 1.86719-3.61426 4.51855-3.61426zm15.70512 3.46002c2.625 0 4.29492 1.79 4.29492 4.63867 0 2.85645-1.66113 4.63867-4.29492 4.63867-2.63286 0-4.29395-1.78223-4.29395-4.63867 0-2.84863 1.67773-4.63867 4.29395-4.63867zm15.04879-.00001c2.50488 0 4.08008 1.7207 4.08008 4.46582v.63672h-6.39453v.1123c-.0597026.6740316.1730416 1.3412294.6390299 1.8318799.4659884.4906505 1.1203076.7574634 1.7965201.7325701.9018423.0844996 1.7521031-.4333623 2.09082-1.27344l1.76464.00001c-.25 1.64355-1.85059 2.77148-3.89844 2.77148-2.63379 0-4.26855-1.76465-4.26855-4.5957 0-2.83984 1.64355-4.68164 4.19043-4.68164zm-22.06153-2.03125v2.14258h1.72168v1.47168h-1.72168v4.99121c0 .77539.34473 1.13672 1.10156 1.13672.2043914-.0035641.4084521-.0179174.61133-.043v1.46289c-.3402717.0635796-.6861292.0923745-1.03223.08594-1.833 0-2.54785-.68848-2.54785-2.44434v-5.18942h-1.3164v-1.47168h1.31638v-2.14258zm-42.35254-1.2217 4.4834 12.418h-2.03907l-1.13573-3.35645h-4.7334l-1.13672 3.35645h-2.00488l4.4834-12.418zm59.18558 3.26954c.214164-.0007478.4277372.0225107.63672.06934v1.73828c-.270369-.0826167-.5524104-.1205487-.835-.1123-.5463518-.0221646-1.0750991.1955747-1.4474085.596046-.3723095.4004712-.5509849.9436647-.4891115 1.486954v5.37012h-1.8584v-9.0537h1.77247v1.541h.043c.247176-.9920116 1.1561326-1.6747484 2.17773-1.63574zm-9.82031 1.51467c-1.50586 0-2.40039 1.16211-2.40039 3.10742 0 1.96191.89453 3.10645 2.40039 3.10645s2.40137-1.14454 2.40137-3.10645c0-1.9541-.89551-3.10742-2.40137-3.10742zm-39.50199.06933c-1.41992 0-2.375 1.23047-2.375 3.03809 0 1.82422.95508 3.0459 2.375 3.0459 1.44532 0 2.39258-1.19629 2.39258-3.0459 0-1.833-.94727-3.03809-2.39258-3.03809zm9.96484 0c-1.41992 0-2.375 1.23047-2.375 3.03809 0 1.82422.95508 3.0459 2.375 3.0459 1.44532 0 2.39259-1.19629 2.39259-3.0459 0-1.833-.94728-3.03809-2.39259-3.03809zm-20.8603-2.78809h-.05176l-1.85063 5.44727h3.752zm65.44625 2.69336c-.6112582-.0036478-1.1986493.2370246-1.6316145.6685232-.4329652.4314987-.6756292 1.0180697-.6740631 1.6293368h4.5263776c.0337255-.6056725-.1867435-1.1979469-.6082899-1.6341385-.4215465-.4361915-1.0059493-.6767511-1.6124101-.6637215z" fill-rule="nonzero"/><path d="m3.71875 7.14941406c-1.72265625 0-2.79931641-1.27441406-2.79931641-3.31787109 0-2.04785156 1.07226563-3.32226563 2.79492188-3.32226563 1.3359375 0 2.37744141.83935547 2.56640625 2.06103516h-.80419922c-.2109375-.81738281-.88769531-1.33154297-1.76220703-1.33154297-1.21728516 0-1.98193359 1.00195313-1.98193359 2.59277344s.76464843 2.58837891 1.98632812 2.58837891c.88330078 0 1.55566406-.45263672 1.7578125-1.18652344h.80419922c-.2109375 1.16455078-1.21289063 1.91601562-2.56201172 1.91601562zm5.73925781-.06591797c-1.34912109 0-2.18408203-.93164062-2.18408203-2.45214843 0-1.52490235.83496094-2.45214844 2.18408203-2.45214844s2.18408199.92724609 2.18408199 2.45214844c0 1.52050781-.8349609 2.45214843-2.18408199 2.45214843zm0-.68115234c.89648439 0 1.40185549-.65039063 1.40185549-1.77099609 0-1.125-.5053711-1.7709961-1.40185549-1.7709961-.89648437 0-1.40185547.6459961-1.40185547 1.7709961 0 1.12060546.5053711 1.77099609 1.40185547 1.77099609zm3.37060549.59765625v-4.73730469h.7207031v.74707031h.0703125c.2373047-.52294921.6987305-.8305664 1.4238281-.8305664 1.0634766 0 1.6567383.62841797 1.6567383 1.75341797v3.06738281h-.7558594v-2.8828125c0-.85253906-.3603515-1.25683594-1.1162109-1.25683594s-1.2436523.5053711-1.2436523 1.3359375v2.80371094zm5.1416015-3.44091797c0-.78662109.760254-1.37988281 1.7666016-1.37988281.9931641 0 1.6831055.4921875 1.7841797 1.27001953h-.7470703c-.1010742-.37792969-.4702149-.62841797-1.0415039-.62841797-.5625 0-1.0019531.28564453-1.0019531.70751953 0 .32519531.2636718.52734375.8217773.66357422l.7294922.17578125c.8920898.21533203 1.3227539.60205078 1.3227539 1.28320313 0 .84814453-.8217774 1.43261718-1.8984375 1.43261718-1.0546875 0-1.7797852-.50537109-1.8632813-1.29199218h.7778321c.1274414.39990234.5053711.65478515 1.1118164.65478515.637207 0 1.0942383-.30322265 1.0942383-.73828125 0-.32519531-.2460938-.54492187-.7514649-.66796875l-.8129883-.1977539c-.8876953-.21533204-1.2919922-.59765625-1.2919922-1.28320313zm4.838379 3.44091797v-4.73730469h.7558593v4.73730469zm.7207031-5.39648438h-.6679688l.7778321-1.49414062h.9052734zm3.3925781 4.65820313c.8789062 0 1.40625-.66796875 1.40625-1.70068359 0-1.03271485-.5317383-1.7006836-1.40625-1.7006836-.8789062 0-1.3710938.66796875-1.3710938 1.7006836 0 1.03271484.4921876 1.70068359 1.3710938 1.70068359zm.0351562 2.55761719c-1.1425781 0-1.8720703-.51416016-1.9863281-1.29638672h.7998047c.0834961.38671875.5053711.63720703 1.1865234.63720703.8481446 0 1.3535157-.41748047 1.3535157-1.11621094v-.93164062h-.0703125c-.2988282.52294922-.834961.81738281-1.4853516.81738281-1.2260742 0-1.9863281-.94921875-1.9863281-2.36865234 0-1.4194336.769043-2.38183594 1.9863281-2.38183594.6635742 0 1.2480469.32519531 1.5205078.83496094h.0703125v-.75146485h.7207031v4.82080078c0 1.05908203-.8173828 1.73583985-2.109375 1.73583985zm7.3652344-6.55664063v4.73730469h-.7207031v-.74267578h-.0703125c-.2373047.52734375-.7426758.82617187-1.4677734.82617187-1.0634766 0-1.6171875-.6328125-1.6171875-1.75341797v-3.06738281h.7558593v2.8828125c0 .85253907.3164063 1.24804688 1.0722657 1.24804688.8349609 0 1.2919921-.49658203 1.2919921-1.32714844v-2.80371094zm3.3134766.58447266c-.7558594 0-1.2832031.55371094-1.340332 1.39306641h2.6103515c-.0175781-.83935547-.5185547-1.39306641-1.2700195-1.39306641zm1.2480469 2.92675781h.7558593c-.2197265.80859375-.9580078 1.30957031-1.9951172 1.30957031-1.3139648 0-2.1357421-.94921875-2.1357421-2.4477539 0-1.4897461.8349609-2.45654297 2.1357421-2.45654297 1.2788086 0 2.0566407.90966797 2.0566407 2.38183594v.29003906h-3.4057617v.03515625c.0395507.93603515.5625 1.52929687 1.3666992 1.52929687.6108398 0 1.0239258-.22412109 1.2216797-.64160156zm2.0478515 1.22607422v-6.61816406h.7558594v6.61816406zm4.1704102.08349609c-1.3491211 0-2.184082-.93164062-2.184082-2.45214843 0-1.52490235.8349609-2.45214844 2.184082-2.45214844s2.184082.92724609 2.184082 2.45214844c0 1.52050781-.8349609 2.45214843-2.184082 2.45214843zm0-.68115234c.8964844 0 1.4018554-.65039063 1.4018554-1.77099609 0-1.125-.505371-1.7709961-1.4018554-1.7709961s-1.4018555.6459961-1.4018555 1.7709961c0 1.12060546.5053711 1.77099609 1.4018555 1.77099609zm7.800293-3.55517578c-.7558594 0-1.2832032.55371094-1.3403321 1.39306641h2.6103516c-.0175781-.83935547-.5185547-1.39306641-1.2700195-1.39306641zm1.2480468 2.92675781h.7558594c-.2197266.80859375-.9580078 1.30957031-1.9951172 1.30957031-1.3139648 0-2.1357422-.94921875-2.1357422-2.4477539 0-1.4897461.834961-2.45654297 2.1357422-2.45654297 1.2788086 0 2.0566406.90966797 2.0566406 2.38183594v.29003906h-3.4057617v.03515625c.0395508.93603515.5625 1.52929687 1.3666992 1.52929687.6108399 0 1.0239258-.22412109 1.2216797-.64160156zm2.0039063 1.22607422v-4.73730469h.7207031v.74707031h.0703125c.2373047-.52294921.6987305-.8305664 1.4238281-.8305664 1.0634766 0 1.6567383.62841797 1.6567383 1.75341797v3.06738281h-.7558594v-2.8828125c0-.85253906-.3603515-1.25683594-1.1162109-1.25683594s-1.2436524.5053711-1.2436524 1.3359375v2.80371094zm9.6811523-4.15283203c-.7558594 0-1.2832031.55371094-1.340332 1.39306641h2.6103516c-.0175782-.83935547-.5185547-1.39306641-1.2700196-1.39306641zm1.2480469 2.92675781h.7558594c-.2197266.80859375-.9580078 1.30957031-1.9951172 1.30957031-1.3139649 0-2.1357422-.94921875-2.1357422-2.4477539 0-1.4897461.8349609-2.45654297 2.1357422-2.45654297 1.2788086 0 2.0566406.90966797 2.0566406 2.38183594v.29003906h-3.4057617v.03515625c.0395508.93603515.5625 1.52929687 1.3666992 1.52929687.6108398 0 1.0239258-.22412109 1.2216797-.64160156zm2.0478516 1.22607422v-6.61816406h.7558593v6.61816406z"/></g></g></g></svg>
