<svg viewBox="0 0 1024 1024" xmlns="http://www.w3.org/2000/svg"><path d="m843.887916 797.468315c-15.475476 35.751538-33.793405 68.660622-55.016934 98.916806-28.929707 41.246857-52.616671 69.797581-70.871437 85.652083-28.298024 26.024076-58.617354 39.351936-91.084308 40.109946-23.307973 0-51.416523-6.63239-84.136124-20.08652-32.826975-13.39113-62.994713-20.023426-90.578989-20.023426-28.92969 0-59.956476 6.632296-93.143497 20.023426-33.237592 13.45413-60.01333 20.46552-80.485202 21.16034-31.13416 1.32646-62.167229-12.3804-93.143497-41.183766-19.770707-17.244143-44.499902-46.805506-74.124429-88.684089-31.784748-44.720942-57.9162178-96.57962-78.3880809-155.702303-21.9246615-63.860088-32.9154181-125.698879-32.9154181-185.566892 0-68.578521 14.8185721-127.726477 44.4999275-177.292266 23.3269312-39.813042 54.3600235-71.218821 93.2003265-94.274155 38.840337-23.055299 80.807339-34.804036 126.002096-35.555719 24.729178 0 57.15825 7.649314 97.457675 22.682652 40.185742 15.083864 65.988758 22.733179 77.301639 22.733179 8.457826 0 37.122224-8.944218 85.715265-26.775747 45.95275-16.536669 84.736207-23.383807 116.508332-20.686653 86.094265 6.948185 150.775493 40.886889 193.791043 102.03086-76.998447 46.653871-115.08711 111.998328-114.329134 195.824942.69482 65.29392 24.381785 119.62867 70.934583 162.770575 21.097184 20.023354 44.657847 35.498847 70.871368 46.489617-5.684795 16.486124-11.685495 32.277445-18.065205 47.43711zm-197.454593-776.9958683c0 51.1770979-18.696947 98.9610093-55.964427 143.1893013-44.973701 52.578789-99.371598 82.961265-158.361652 78.167032-.751657-6.139673-1.187504-12.601467-1.187504-19.391725 0-49.12996 21.387766-101.708722 59.369055-144.6990029 18.962179-21.7667319 43.07868-39.865475 72.324206-54.3031855 29.182346-14.22229114 56.785576-22.08752446 82.746475-23.43441205.758036 6.8415785 1.073847 13.68358755 1.073847 20.47132845z" transform="translate(81)"/></svg>