<svg viewBox="0 0 1024 1024" xmlns="http://www.w3.org/2000/svg" xmlns:xlink="http://www.w3.org/1999/xlink"><defs><polygon id="path-1" points="0 0 1023.94 0 1023.94 1017.74 0 1017.74"></polygon></defs><g id="Artboard" stroke="none" stroke-width="1" fill="none" fill-rule="evenodd"><mask id="mask-2" fill="white"> <use xlink:href="#path-1"></use></mask><g id="path-1"></g><path d="M1024,512 C1024,229.23 794.77,0 512,0 C229.23,0 0,229.23 0,512 C0,767.554 187.231,979.37 432,1017.78 L432,660 L302,660 L302,512 L432,512 L432,399.2 C432,270.88 508.438,200 625.39,200 C681.407,200 740,210 740,210 L740,336 L675.438,336 C611.835,336 592,375.467 592,415.957 L592,512 L734,512 L711.3,660 L592,660 L592,1017.78 C836.769,979.37 1024,767.554 1024,512" id="Fill-1" fill="#FFFFFE" fill-rule="nonzero" mask="url(#mask-2)"></path></g></svg>
