<svg class="Icon Icon-google" viewBox="0 0 1024 1024" xmlns="http://www.w3.org/2000/svg"><g fill="none" transform="translate(10)"><path d="m1003.52 523.636363c0-36.305454-3.25818-71.214545-9.309093-104.727272h-482.210907v198.050909h275.549093c-11.869093 64-47.94182 118.225454-102.167273 154.530907v128.465459h165.469087c96.814547-89.134546 152.669093-220.392732 152.669093-376.320003z" fill="#4285f4"/><path d="m512 1024c138.24 0 254.13818-45.847273 338.850907-124.043634l-165.469087-128.465459c-45.847274 30.72-104.494547 48.872727-173.38182 48.872727-133.352727 0-246.225455-90.065454-286.487273-211.083634h-171.054545v132.654546c84.247273 167.330908 257.396363 282.065454 457.541818 282.065454z" fill="#34a853"/><path d="m225.512727 609.28c-10.24-30.72-16.058182-63.534545-16.058182-97.28s5.818182-66.56 16.058182-97.28v-132.654545h-171.054545c-34.676364 69.12-54.458182 147.316363-54.458182 229.934545 0 82.61818 19.781818 160.814546 54.458182 229.934546z" fill="#fbbc05"/><path d="m512 203.636363c75.170907 0 142.66182 25.832728 195.723634 76.567274l146.850912-146.85091c-88.669092-82.6181816-204.567273-133.352727-342.574546-133.352727-200.145455 0-373.294545 114.734545-457.541818 282.065455l171.054545 132.654545c40.261818-121.018182 153.134546-211.083637 286.487273-211.083637z" fill="#ea4335"/></g></svg>
