<svg xmlns="http://www.w3.org/2000/svg" fill="none" viewBox="0 0 24 24" class="Icon Icon-instagram"><path fill="url(#a)" d="M11.915.12c-4.973 0-6.427.005-6.71.029-1.02.085-1.655.245-2.347.59A4.8 4.8 0 0 0 1.489 1.74Q.357 2.917.11 4.637c-.08.557-.103.67-.108 3.516-.002.948 0 2.196 0 3.87 0 4.968.005 6.421.03 6.703.082.993.237 1.618.567 2.301a5.02 5.02 0 0 0 3.252 2.657c.491.126 1.033.196 1.73.229.294.013 3.3.022 6.309.022 3.008 0 6.017-.004 6.304-.018.806-.039 1.274-.101 1.792-.235a4.99 4.99 0 0 0 3.252-2.662c.323-.667.487-1.315.561-2.257.016-.205.023-3.476.023-6.743s-.007-6.533-.023-6.739c-.075-.956-.24-1.599-.573-2.279a4.7 4.7 0 0 0-1.02-1.396c-.788-.753-1.751-1.211-2.9-1.377-.556-.08-.667-.104-3.514-.109z"/><path fill="url(#b)" d="M11.915.12c-4.973 0-6.427.005-6.71.029-1.02.085-1.655.245-2.347.59A4.8 4.8 0 0 0 1.489 1.74Q.357 2.917.11 4.637c-.08.557-.103.67-.108 3.516-.002.948 0 2.196 0 3.87 0 4.968.005 6.421.03 6.703.082.993.237 1.618.567 2.301a5.02 5.02 0 0 0 3.252 2.657c.491.126 1.033.196 1.73.229.294.013 3.3.022 6.309.022 3.008 0 6.017-.004 6.304-.018.806-.039 1.274-.101 1.792-.235a4.99 4.99 0 0 0 3.252-2.662c.323-.667.487-1.315.561-2.257.016-.205.023-3.476.023-6.743s-.007-6.533-.023-6.739c-.075-.956-.24-1.599-.573-2.279a4.7 4.7 0 0 0-1.02-1.396c-.788-.753-1.751-1.211-2.9-1.377-.556-.08-.667-.104-3.514-.109z"/><path fill="#fff" d="M11.909 3.235c-2.388 0-2.688.01-3.626.053-.936.043-1.575.19-2.134.408A4.3 4.3 0 0 0 4.59 4.71c-.49.49-.79.98-1.015 1.558-.218.56-.367 1.198-.409 2.134-.041.938-.052 1.238-.052 3.626s.01 2.688.053 3.625.191 1.576.408 2.135a4.3 4.3 0 0 0 1.014 1.558c.49.489.98.79 1.558 1.015.56.217 1.198.365 2.134.408.938.043 1.238.053 3.626.053s2.687-.01 3.625-.053c.937-.043 1.576-.19 2.136-.408a4.3 4.3 0 0 0 1.556-1.015c.49-.49.79-.98 1.015-1.558.217-.56.365-1.198.409-2.134.042-.938.053-1.237.053-3.626s-.01-2.688-.053-3.626c-.044-.936-.192-1.575-.409-2.134a4.3 4.3 0 0 0-1.014-1.558 4.3 4.3 0 0 0-1.558-1.014c-.56-.217-1.2-.365-2.136-.408-.938-.043-1.237-.053-3.626-.053zm-.789 1.584h.789c2.348 0 2.626.009 3.553.05.858.04 1.323.183 1.633.304.41.16.703.35 1.01.657s.499.601.659 1.012c.12.31.264.775.303 1.632.042.927.05 1.206.05 3.552s-.008 2.626-.05 3.553c-.04.857-.183 1.322-.303 1.632-.16.41-.35.703-.658 1.01s-.6.499-1.01.658c-.31.121-.776.264-1.634.303-.927.042-1.205.051-3.553.051s-2.626-.009-3.553-.05c-.858-.04-1.323-.184-1.633-.304-.41-.16-.704-.35-1.012-.658a2.7 2.7 0 0 1-.658-1.01c-.12-.31-.264-.776-.303-1.633-.042-.927-.05-1.205-.05-3.554s.008-2.625.05-3.552c.04-.858.183-1.323.303-1.633.16-.41.35-.703.658-1.011a2.7 2.7 0 0 1 1.012-.658c.31-.121.775-.264 1.633-.303.81-.037 1.125-.048 2.764-.05zm5.483 1.46a1.056 1.056 0 1 0 0 2.112 1.056 1.056 0 0 0 0-2.112M11.91 7.512a4.516 4.516 0 1 0 0 9.033 4.516 4.516 0 0 0 0-9.033m0 1.585a2.931 2.931 0 1 1 0 5.863 2.931 2.931 0 0 1 0-5.863"/><defs><radialGradient id="a" cx="0" cy="0" r="1" gradientTransform="matrix(0 -23.6021 21.9579 0 6.303 25.776)" gradientUnits="userSpaceOnUse"><stop stop-color="#FD5"/><stop offset=".1" stop-color="#FD5"/><stop offset=".5" stop-color="#FF543E"/><stop offset="1" stop-color="#C837AB"/></radialGradient><radialGradient id="b" cx="0" cy="0" r="1" gradientTransform="rotate(78.68 -3.115 -1.516)scale(10.5503 43.4999)" gradientUnits="userSpaceOnUse"><stop stop-color="#3771C8"/><stop offset=".13" stop-color="#3771C8"/><stop offset="1" stop-color="#60F" stop-opacity="0"/></radialGradient></defs></svg>