<svg class="Icon Icon-instagram" viewBox="0 0 1024 1024" xmlns="http://www.w3.org/2000/svg" xmlns:xlink="http://www.w3.org/1999/xlink"><radialGradient id="a" cx="6.471899%" cy="97.809314%" r="126.962879%"><stop offset=".09" stop-color="#fa8f21"/><stop offset=".78" stop-color="#d82d7e"/></radialGradient><radialGradient id="b" cx="69.266502%" cy="94.59833%" r="111.728534%"><stop offset=".64" stop-color="#8c3aaa" stop-opacity="0"/><stop offset="1" stop-color="#8c3aaa"/></radialGradient><g fill="none"><path d="m259.636493 1020.28743c-60.892243-2.76921-93.970639-12.9027-115.972184-21.48422-29.152808-11.350729-49.9371173-24.862051-71.816939-46.711442s-35.4215751-42.6337-46.7114413-71.786508c-8.5815156-22.001545-18.71500745-55.079941-21.48421993-115.972184-3.04309064-65.822051-3.65170877-85.571709-3.65170877-252.333076s.66947994-186.480594 3.62127786-252.363507c2.76921248-60.892243 12.96356614-93.909777 21.48421994-115.972184 11.3507281-29.152808 24.8924814-49.9371173 46.7114413-71.8473699 21.8493908-21.8493908 42.6336999-35.4215751 71.8169389-46.7114413 22.001545-8.5815156 55.079941-18.71500746 115.972184-21.48421994 65.852482-3.01265973 85.632571-3.62127786 252.333076-3.62127786 166.761367 0 186.480595.66947994 252.363507 3.62127786 60.892244 2.76921248 93.909777 12.96356614 115.972184 21.48421994 29.152808 11.2898662 49.937118 24.8620505 71.816939 46.7114413 21.879822 21.8493908 35.360713 42.6641309 46.711442 71.8169389 8.58152 22.001545 18.71501 55.079941 21.48422 115.972184 3.01266 65.882913 3.62128 85.60214 3.62128 252.363507 0 166.700505-.60862 186.480594-3.62128 252.363507-2.76921 60.892243-12.96357 93.970639-21.48422 115.972184-11.350729 29.152808-24.862051 49.937117-46.711442 71.786508s-42.664131 35.360713-71.816939 46.711442c-22.001545 8.58152-55.07994 18.71501-115.972184 21.48422-65.822051 3.01266-85.60214 3.62128-252.363507 3.62128-166.700505 0-186.480594-.57819-252.302645-3.62128" fill="url(#a)"/><path d="m259.636493 1020.28743c-60.892243-2.76921-93.970639-12.9027-115.972184-21.48422-29.152808-11.350729-49.9371173-24.862051-71.816939-46.711442s-35.4215751-42.6337-46.7114413-71.786508c-8.5815156-22.001545-18.71500745-55.079941-21.48421993-115.972184-3.04309064-65.822051-3.65170877-85.571709-3.65170877-252.333076s.66947994-186.480594 3.62127786-252.363507c2.76921248-60.892243 12.96356614-93.909777 21.48421994-115.972184 11.3507281-29.152808 24.8924814-49.9371173 46.7114413-71.8473699 21.8493908-21.8493908 42.6336999-35.4215751 71.8169389-46.7114413 22.001545-8.5815156 55.079941-18.71500746 115.972184-21.48421994 65.852482-3.01265973 85.632571-3.62127786 252.333076-3.62127786 166.761367 0 186.480595.66947994 252.363507 3.62127786 60.892244 2.76921248 93.909777 12.96356614 115.972184 21.48421994 29.152808 11.2898662 49.937118 24.8620505 71.816939 46.7114413 21.879822 21.8493908 35.360713 42.6641309 46.711442 71.8169389 8.58152 22.001545 18.71501 55.079941 21.48422 115.972184 3.01266 65.882913 3.62128 85.60214 3.62128 252.363507 0 166.700505-.60862 186.480594-3.62128 252.363507-2.76921 60.892243-12.96357 93.970639-21.48422 115.972184-11.350729 29.152808-24.862051 49.937117-46.711442 71.786508s-42.664131 35.360713-71.816939 46.711442c-22.001545 8.58152-55.07994 18.71501-115.972184 21.48422-65.822051 3.01266-85.60214 3.62128-252.363507 3.62128-166.700505 0-186.480594-.57819-252.302645-3.62128" fill="url(#b)"/><path d="m386.244279 514.13625c0-70.024559 56.750598-126.805587 126.775156-126.805587 70.024559 0 126.805587 56.781028 126.805587 126.805587 0 70.024558-56.781028 126.805587-126.805587 126.805587-70.024558 0-126.775156-56.781029-126.775156-126.805587m-68.548659 0c0 107.877563 87.446252 195.323815 195.323815 195.323815 107.877564 0 195.323816-87.446252 195.323816-195.323815 0-107.877564-87.446252-195.323816-195.323816-195.323816-107.877563 0-195.323815 87.440166-195.323815 195.323816m352.736804-203.068482c-.010078 25.209786 20.418317 45.654528 45.628103 45.664615 25.209785.010079 45.654528-20.418315 45.664617-45.6281.01008-25.209785-20.418313-45.65453-45.628098-45.664616h-.018258c-25.197794.011744-45.624535 20.430314-45.646364 45.628101m-311.089066 512.696868c-37.086146-1.688915-57.243578-7.866389-70.639263-13.08529-17.759477-6.913902-30.430906-15.148505-43.753557-28.452897-13.322651-13.304393-21.569427-25.96365-28.452898-43.723127-5.221943-13.389598-11.399417-33.553117-13.085289-70.639263-1.844113-40.095762-2.212327-52.140315-2.212327-153.721723 0-101.581409.398645-113.592488 2.212327-153.721724 1.688915-37.086145 7.912035-57.210104 13.085289-70.639263 6.913902-17.759477 15.148506-30.430906 28.452898-43.753557s25.963649-21.569426 43.753557-28.452897c13.389599-5.221944 33.553117-11.399418 70.639263-13.08529 40.095762-1.844113 52.140315-2.212327 153.676077-2.212327 101.535763 0 113.592488.392559 153.721724 2.218413 37.086146 1.688915 57.210104 7.912036 70.639263 13.08529 17.759477 6.883471 30.430906 15.148505 43.753557 28.452897s21.538996 25.99408 28.452898 43.753557c5.221943 13.389599 11.399417 33.553118 13.085289 70.639263 1.844113 40.129237 2.212327 52.140315 2.212327 153.721724s-.368214 113.592487-2.212327 153.721724c-1.688915 37.086145-7.89682 57.243578-13.085289 70.639263-6.913902 17.759477-15.148506 30.430906-28.452898 43.723126s-25.99408 21.538995-43.753557 28.452897c-13.389599 5.221944-33.553117 11.399418-70.639263 13.08529-40.095762 1.844113-52.140315 2.212327-153.721724 2.212327-101.581408 0-113.592487-.368214-153.676077-2.212327m-3.149599-687.717183c-40.494407 1.844113-68.16523 8.265035-92.330413 17.668185-25.011162 9.710502-46.212374 22.737973-67.383156 43.87528-21.170781 21.137308-34.164778 42.341564-43.875281 67.383156-9.40315 24.180399-15.824071 51.836006-17.668184 92.330414-1.874544 40.558312-2.30362 53.524921-2.30362 156.825676 0 103.300754.429076 116.267364 2.30362 156.825676 1.844113 40.49745 8.265034 68.150015 17.668184 92.330413 9.710503 25.011162 22.707543 46.254977 43.875281 67.383156 21.167739 21.128178 42.341563 34.137391 67.383156 43.875281 24.210829 9.40315 51.836006 15.824071 92.330413 17.668184 40.579614 1.844113 53.524922 2.303619 156.825676 2.303619 103.300755 0 116.267364-.429075 156.825676-2.303619 40.497451-1.844113 68.150015-8.265034 92.330414-17.668184 25.011161-9.73789 46.212374-22.737974 67.383156-43.875281 21.170781-21.137308 34.13739-42.371994 43.87528-67.383156 9.40315-24.180398 15.854503-51.836006 17.668185-92.330413 1.844113-40.588743 2.273188-53.524922 2.273188-156.825676 0-103.300755-.429075-116.267364-2.273188-156.825676-1.844113-40.497451-8.265035-68.165231-17.668185-92.330414-9.73789-25.011161-22.737973-46.212374-43.87528-67.383156-21.137308-21.170781-42.371995-34.164778-67.352726-43.87528-24.210829-9.40315-51.866436-15.854503-92.330413-17.668185-40.564398-1.853242-53.524921-2.303619-156.81046-2.303619-103.28554 0-116.276494.429076-156.856107 2.303619" fill="#fff"/></g></svg>
