<svg xmlns="http://www.w3.org/2000/svg" fill="none" viewBox="0 0 24 24" class="Icon Icon-linkedin"><path fill="#0A66C2" d="M20.434 20.434H16.88V14.87c0-1.327-.024-3.036-1.849-3.036-1.85 0-2.133 1.446-2.133 2.939v5.661H9.345V8.991h3.411v1.564h.048a3.74 3.74 0 0 1 3.366-1.849c3.601 0 4.265 2.369 4.265 5.45zM5.336 7.426a2.07 2.07 0 0 1-2.063-2.062c0-1.131.931-2.062 2.062-2.062s2.062.93 2.062 2.062-.93 2.062-2.061 2.062m1.776 13.008H3.555V8.991h3.557zM22.205.002H1.77A1.76 1.76 0 0 0 0 1.731v20.52c.011.96.81 1.741 1.77 1.73h20.435a1.763 1.763 0 0 0 1.777-1.73V1.73A1.76 1.76 0 0 0 22.205.001"/></svg>