<svg viewBox="0 0 1024 1024" xmlns="http://www.w3.org/2000/svg" xmlns:xlink="http://www.w3.org/1999/xlink"><defs><polygon id="path-1" points="0.137777778 0 1023.05689 0 1023.05689 1022.86222 0.137777778 1022.86222"></polygon></defs><g id="Artboard" stroke="none" stroke-width="1" fill="none" fill-rule="evenodd"><g id="LinkedIn-Icon"><g id="Group-3"><g id="Fill-1-Clipped"><mask id="mask-2" fill="white"><use xlink:href="#path-1"></use></mask><g id="path-1"></g><path d="M947.205037,0 L74.5863704,0 C32.8678519,0 -1,33.0714074 -1,73.7848889 L-1,950.120296 C-1,990.890667 32.8678519,1024 74.5863704,1024 L947.205037,1024 C988.961481,1024 1023.05689,990.890667 1023.05689,950.120296 L1023.05689,73.7848889 C1023.05689,33.0714074 988.961481,0 947.205037,0" id="Fill-1" fill="#0071A1" fill-rule="nonzero" mask="url(#mask-2)"></path></g></g><path d="M226.764148,140.970667 C275.309333,140.970667 314.771259,180.451556 314.771259,229.015704 C314.771259,277.636741 275.309333,317.098667 226.764148,317.098667 C178.067259,317.098667 138.719111,277.636741 138.719111,229.015704 C138.719111,180.451556 178.067259,140.970667 226.764148,140.970667 Z M150.779556,872.561778 L302.729778,872.561778 L302.729778,383.905185 L150.779556,383.905185 L150.779556,872.561778 Z" id="Fill-4" fill="#FFFFFE" fill-rule="nonzero"></path><path d="M397.980741,383.905185 L543.692148,383.905185 L543.692148,450.673778 L545.759111,450.673778 C566.030519,412.254815 615.599704,371.730963 689.479407,371.730963 C843.174222,371.730963 871.561778,472.917333 871.561778,604.539259 L871.561778,872.580741 L719.858074,872.580741 L719.858074,634.936889 C719.858074,578.256593 718.739259,505.362963 640.915259,505.362963 C561.87763,505.362963 549.817185,567.087407 549.817185,630.859852 L549.817185,872.580741 L397.980741,872.580741 L397.980741,383.905185" id="Fill-5" fill="#FFFFFE" fill-rule="nonzero"></path></g></g></svg>
