<svg viewBox="0 0 130 40" xmlns="http://www.w3.org/2000/svg" xmlns:xlink="http://www.w3.org/1999/xlink" class="Badge-play-store"><linearGradient id="opo-mask-49835142" x1="80.748326%" x2="0%" y1="49.99766%" y2="49.99766%"><stop offset="0" stop-color="#ffbc00"/><stop offset="1" stop-color="#ffda03"/></linearGradient><linearGradient id="b" x1="86.244827%" x2="9.430618%" y1="30.901639%" y2="79.698467%"><stop offset="0" stop-color="#e22652"/><stop offset="1" stop-color="#ff3a44"/></linearGradient><linearGradient id="c" x1="11.309705%" x2="63.318843%" y1="14.754695%" y2="50%"><stop offset="0" stop-color="#0ed574"/><stop offset="1" stop-color="#07f076"/></linearGradient><mask id="d" fill="#fff"><path d="m5.013 9.274-4.125-4.128v-.292l4.127-4.127 4.982 2.83c1.396.794 1.396 2.092 0 2.885l-4.889 2.778z" fill="#fff" fill-rule="evenodd"/></mask><mask id="e" fill="#fff"><path d="m17.108 4.22-4.22-4.22-12.453 12.453c.461.487 1.221.547 2.077.061z" fill="#fff" fill-rule="evenodd"/></mask><mask id="f" fill="#fff"><path d="m17.108 8.78-14.596-8.294c-.856-.486-1.616-.426-2.077.061l12.453 12.453z" fill="#fff" fill-rule="evenodd"/></mask><g fill="none" fill-rule="evenodd"><rect fill="#000" height="39" rx="6" stroke="#a6a6a6" width="129" x=".5" y=".5"/><g transform="translate(8 7)"><path d="m1.435.547c-.291.308-.462.785-.462 1.404v22.098c0 .619.171 1.096.462 1.404l.074.072 12.379-12.379v-.292l-12.379-12.379z" fill="#00d7fe"/><path d="m5.013 9.274-4.125-4.128v-.292l4.127-4.127 4.982 2.83c1.396.794 1.396 2.092 0 2.885l-4.889 2.778z" fill="url(#opo-mask-49835142)" mask="url(#d)" transform="translate(13 8)"/><path d="m17.108 4.22-4.22-4.22-12.453 12.453c.461.487 1.221.547 2.077.061z" fill="url(#b)" mask="url(#e)" transform="translate(1 13)"/><path d="m17.108 8.78-14.596-8.294c-.856-.486-1.616-.426-2.077.061l12.453 12.453z" fill="url(#c)" mask="url(#f)" transform="translate(1)"/></g><g transform="translate(38 6)"><path d="m65.894 23.953h1.866v-12.501h-1.866zm16.807-7.998-2.139 5.42h-.064l-2.22-5.42h-2.01l3.329 7.575-1.898 4.214h1.947l5.13-11.789zm-10.582 6.578c-.612 0-1.464-.305-1.464-1.061 0-.965 1.062-1.335 1.978-1.335.821 0 1.206.177 1.705.418-.145 1.158-1.142 1.978-2.219 1.978zm.225-6.851c-1.351 0-2.75.595-3.329 1.914l1.656.691c.354-.691 1.013-.917 1.705-.917.965 0 1.946.579 1.962 1.609v.128c-.338-.193-1.061-.482-1.946-.482-1.785 0-3.603.981-3.603 2.814 0 1.673 1.464 2.751 3.104 2.751 1.255 0 1.946-.563 2.381-1.223h.064v.965h1.801v-4.792c0-2.22-1.656-3.458-3.795-3.458zm-11.532 1.795h-2.654v-4.285h2.654c1.395 0 2.187 1.155 2.187 2.142 0 .969-.792 2.143-2.187 2.143zm-.048-6.025h-4.471v12.501h1.865v-4.736h2.606c2.068 0 4.101-1.498 4.101-3.883s-2.033-3.882-4.101-3.882zm-24.381 11.083c-1.289 0-2.368-1.079-2.368-2.561 0-1.498 1.079-2.594 2.368-2.594 1.273 0 2.271 1.096 2.271 2.594 0 1.482-.998 2.561-2.271 2.561zm2.142-5.88h-.064c-.419-.499-1.224-.95-2.239-.95-2.127 0-4.076 1.868-4.076 4.269 0 2.384 1.949 4.237 4.076 4.237 1.015 0 1.82-.451 2.239-.967h.064v.612c0 1.628-.869 2.498-2.271 2.498-1.144 0-1.853-.822-2.143-1.515l-1.627.677c.467 1.128 1.708 2.513 3.77 2.513 2.191 0 4.044-1.289 4.044-4.43v-7.637h-1.773zm3.062 7.298h1.869v-12.502h-1.869zm4.623-4.124c-.048-1.643 1.273-2.481 2.223-2.481.742 0 1.37.37 1.579.902zm5.8-1.418c-.354-.95-1.434-2.706-3.641-2.706-2.191 0-4.011 1.723-4.011 4.253 0 2.384 1.804 4.253 4.22 4.253 1.95 0 3.078-1.192 3.545-1.885l-1.45-.967c-.483.709-1.144 1.176-2.095 1.176-.95 0-1.627-.435-2.062-1.288l5.687-2.352zm-45.308-1.401v1.804h4.317c-.129 1.015-.467 1.756-.982 2.272-.629.628-1.612 1.32-3.335 1.32-2.658 0-4.737-2.142-4.737-4.8 0-2.659 2.079-4.801 4.737-4.801 1.434 0 2.481.564 3.254 1.289l1.273-1.273c-1.08-1.031-2.513-1.821-4.527-1.821-3.641 0-6.702 2.965-6.702 6.606s3.061 6.605 6.702 6.605c1.965 0 3.447-.644 4.607-1.853 1.192-1.192 1.563-2.867 1.563-4.221 0-.419-.032-.805-.097-1.127zm11.079 5.525c-1.289 0-2.401-1.063-2.401-2.577 0-1.531 1.112-2.578 2.401-2.578 1.288 0 2.4 1.047 2.4 2.578 0 1.514-1.112 2.577-2.4 2.577zm0-6.83c-2.353 0-4.27 1.788-4.27 4.253 0 2.448 1.917 4.253 4.27 4.253 2.352 0 4.269-1.805 4.269-4.253 0-2.465-1.917-4.253-4.269-4.253zm9.313 6.83c-1.289 0-2.401-1.063-2.401-2.577 0-1.531 1.112-2.578 2.401-2.578s2.4 1.047 2.4 2.578c0 1.514-1.111 2.577-2.4 2.577zm0-6.83c-2.352 0-4.269 1.788-4.269 4.253 0 2.448 1.917 4.253 4.269 4.253s4.269-1.805 4.269-4.253c0-2.465-1.917-4.253-4.269-4.253z" fill="#fffffe"/><path d="m.82353523 7v-6.3984375h1.80615235c.55664341 0 1.04882598.12304565 1.4765625.36914063.42773651.24609498.75805547.59618913.99096679 1.05029296.23291133.45410384.35083007.975583.35375977 1.56445313v.4086914c0 .60351865-.11645391 1.13232195-.34936523 1.58642579-.23291133.45410383-.56542753.80273316-.9975586 1.04589843-.43213107.24316528-.93529986.36767576-1.50952148.37353516zm.84375-5.70410156v5.01416015h.88769532c.65039387 0 1.15649233-.20214641 1.51831054-.60644531.36181822-.4042989.54272461-.97997673.54272461-1.72705078v-.37353516c0-.72656613-.17065259-1.29125775-.51196289-1.69409179-.3413103-.40283405-.82543632-.60717771-1.45239258-.61303711zm5.6633789 5.70410156h-.84375v-6.3984375h.84375zm3.12773437-2.85205078c-.72363644-.20800885-1.2502425-.46362153-1.57983399-.7668457-.32959149-.30322418-.49438477-.67748801-.49438477-1.12280274 0-.50390877.201414-.92065265.60424805-1.25024414.40283404-.32959149.92651045-.49438476 1.57104491-.49438476.4394553 0 .8312971.08496008 1.1755371.25488281.34424.16992272.6108389.40429538.7998047.703125s.2834473.62548651.2834473.97998047h-.8481446c0-.38672069-.1230456-.69067273-.3691406-.91186524s-.5932595-.33178711-1.0415039-.33178711c-.4160177 0-.74047734.09155182-.97338866.27465821-.23291132.18310638-.34936524.43725423-.34936524.76245117 0 .26074349.1105946.48120027.33178711.66137695.22119252.18017668.59765359.34496996 1.12939449.49438477.531741.14941481.9477524.31420808 1.2480469.49438476s.5229485.39037966.6679688.63061524c.1450202.24023557.2175293.52294759.2175293.84814453 0 .51855728-.2021464.93383633-.6064453 1.24584961s-.9448209.46801757-1.6215821.46801757c-.4394553 0-.84960745-.08422767-1.23046873-.25268554-.38086128-.16845788-.67455951-.39916846-.88110351-.69213867-.206544-.29297022-.30981446-.62548642-.30981446-.9975586h.84814453c0 .38672069.14282084.69213755.4284668.91625977.28564596.22412221.66723397.33618164 1.14477537.33618164.4453147 0 .7866199-.09081941 1.0239258-.27246094s.355957-.42919765.355957-.74267578-.1098621-.55590735-.3295898-.72729492c-.2197277-.17138758-.6181612-.34057534-1.1953125-.50756836zm3.9978515.34716797v2.50488281h-.84375v-6.3984375h2.3598633c.7001988 0 1.2487773.17870915 1.645752.53613281.3969746.35742366.595459.83056346.595459 1.4194336 0 .62109685-.1940899 1.09936355-.5822754 1.43481445-.3881856.3354509-.9440882.50317383-1.6677246.50317383zm0-.68994141h1.5161133c.4511742 0 .7968738-.10620011 1.0371094-.31860351.2402356-.21240341.3603516-.51928511.3603516-.9206543 0-.38086128-.120116-.68554573-.3603516-.9140625s-.5698221-.34716793-.9887695-.35595703h-1.5644532zm9.4558594.20214844c0 .62695626-.1054677 1.17406993-.3164062 1.64135742-.2109386.46728749-.5097637.82397338-.8964844 1.07006836s-.8378881.36914062-1.3535156.36914062c-.5039088 0-.9506817-.12377805-1.3403321-.37133789-.3896504-.24755983-.6921376-.60058364-.9074707-1.05908203-.2153331-.45849838-.3259277-.98949893-.3317871-1.59301758v-.46142578c0-.61523745.1069325-1.15868904.3208008-1.63037109.2138682-.47168205.5163555-.83276242.9074707-1.08325195.3911152-.25048954.8386205-.37573242 1.3425293-.37573242.5126979 0 .9645976.12377805 1.3557129.37133789.3911152.24755983.6921376.60644296.9030762 1.07666015.2109385.4702172.3164062 1.01733087.3164062 1.64135742zm-.8393555-.41308594c0-.75879286-.1523422-1.34106242-.4570312-1.74682617s-.7309543-.60864258-1.2788086-.60864258c-.5332058 0-.9528793.20287883-1.2590332.60864258s-.463623.96899054-.4724121 1.68969727v.47021484c0 .73535524.1545395 1.31323032.463623 1.73364258.3090836.42041226.7346165.63061523 1.2766114.63061523.5449246 0 .9667953-.19848434 1.265625-.59545898.2988296-.39697464.4526366-.96606075.4614257-1.70727539zm6.722461 3.40576172h-.8481446l-3.2211914-4.93066406v4.93066406h-.8481445v-6.3984375h.8481445l3.2299805 4.95263672v-4.95263672h.8393555zm2.1038085 0h-.84375v-6.3984375h.84375zm1.2424805 0v-6.3984375h2.0917969c.6943394 0 1.216551.14355325 1.5666504.43066406s.5251465.71191125.5251465 1.27441406c0 .29882962-.0849601.56323128-.2548829.7932129-.1699227.22998161-.4013657.40795835-.6943359.53393554.3457049.09668017.6188955.28051623.8195801.55151367.2006846.27099745.3010254.59399227.3010254.96899415 0 .57422162-.1860333 1.02538898-.5581055 1.35351562s-.8979458.4921875-1.5776367.4921875zm.84375-2.99267578v2.30273437h1.3930664c.3925801 0 .7023914-.10180562.9294434-.30541992.2270519-.2036143.3405761-.48412907.3405761-.84155273 0-.77051167-.4189411-1.15576172-1.2568359-1.15576172zm0-.67675781h1.2744141c.3691424 0 .6643055-.09228424.885498-.27685547.2211925-.18457124.3317871-.43505701.3317871-.75146485 0-.35156425-.102538-.60717693-.3076172-.7668457-.2050791-.15966877-.5170877-.23950195-.9360351-.23950195h-1.2480469zm5.3074219 2.97949218h3.0322265v.68994141h-3.8803711v-6.3984375h.8481446zm7.3113281-2.26757812h-2.7729492v2.26757812h3.2211914v.68994141h-4.0649414v-6.3984375h4.0209961v.69433594h-3.1772461v2.05664062h2.7729492zm6.7432617 0h-2.7729492v2.26757812h3.2211914v.68994141h-4.0649414v-6.3984375h4.020996v.69433594h-3.177246v2.05664062h2.7729492zm6.1160156 2.95751953h-.8481445l-3.2211915-4.93066406v4.93066406h-.8481445v-6.3984375h.8481445l3.2299805 4.95263672v-4.95263672h.8393555z" fill="#fff"/></g></g></svg>
