<svg viewBox="0 0 1024 1024" xmlns="http://www.w3.org/2000/svg"><path d="m322.02752 928.11264c386.41664 0 597.77024-320.14336 597.77024-597.77024 0-9.09312 0-18.14528-.6144-27.15648 41.116934-29.740611 76.609761-66.56494 104.81664-108.7488-38.343512 16.99028-79.018832 28.132502-120.66816 33.05472 43.857674-26.256095 76.682179-67.552379 92.3648-116.20352-41.240269 24.47177-86.358176 41.718252-133.40672 50.9952-65.123009-69.2472103-168.602853-86.1957087-252.413981-41.34175-83.811127 44.853958-127.110115 140.355412-105.617379 232.95263-168.92331-8.468499-326.308832-88.255559-432.98816-219.50464-55.7620119 95.995688-27.2798564 218.802564 65.04448 280.45312-33.43396-.990925-66.138957-10.010084-95.35488-26.29632v2.6624c.0273666 100.007649 70.522941 186.144162 168.5504 205.94688-30.930141 8.435302-63.382299 9.668375-94.86336 3.60448 27.522987 85.582758 106.396654 144.211309 196.28032 145.89952-74.394213 58.467611-166.295162 90.207343-260.9152 90.112-16.7156298-.032092-33.4150015-1.044173-50.01216-3.03104 96.0772485 61.65613 207.868453 94.360244 322.02752 94.208" fill="#1da1f2"/></svg>
