<svg xmlns="http://www.w3.org/2000/svg" fill="none" viewBox="0 0 24 24" class="Icon Icon-whatsapp"><path fill="#383641" d="M17.346 16.25v-1.616a1.077 1.077 0 0 0-.926-1.093 7 7 0 0 1-1.513-.377 1.08 1.08 0 0 0-1.136.242l-.684.684a8.6 8.6 0 0 1-3.23-3.23l.683-.685a1.08 1.08 0 0 0 .242-1.136 7 7 0 0 1-.377-1.513A1.08 1.08 0 0 0 9.328 6.6H7.713a1.077 1.077 0 0 0-1.071 1.174 10.66 10.66 0 0 0 1.653 4.668 10.5 10.5 0 0 0 3.23 3.231 10.66 10.66 0 0 0 4.647 1.653 1.076 1.076 0 0 0 1.174-1.077"/><path fill="#383641" fill-rule="evenodd" d="M12.1 1C6.08 1 1.2 5.88 1.2 11.9c0 2.398.775 4.617 2.088 6.417l-1.814 4.716 4.873-1.874A10.85 10.85 0 0 0 12.1 22.8c6.02 0 10.9-4.88 10.9-10.9S18.12 1 12.1 1M3.2 11.9a8.9 8.9 0 1 1 8.9 8.9 8.86 8.86 0 0 1-5.064-1.58l-.435-.301-1.645.632.609-1.582-.367-.45A8.86 8.86 0 0 1 3.2 11.9" clip-rule="evenodd"/></svg>