<svg class="Icon Icon-share-twitter" viewBox="0 0 24 24" xmlns="http://www.w3.org/2000/svg"><path d="M22.368 6.378c-.767.34-1.592.57-2.458.673a4.286 4.286 0 001.881-2.367 8.565 8.565 0 01-2.716 1.039 4.279 4.279 0 00-7.29 3.902 12.148 12.148 0 01-8.82-4.47 4.257 4.257 0 00-.58 2.15c0 1.485.756 2.795 1.904 3.562a4.266 4.266 0 01-1.938-.536v.055a4.282 4.282 0 003.432 4.195 4.302 4.302 0 01-1.932.073 4.283 4.283 0 003.996 2.971 8.583 8.583 0 01-6.334 1.772 12.108 12.108 0 006.559 1.922c7.87 0 12.173-6.52 12.173-12.173 0-.186-.004-.37-.012-.554a8.666 8.666 0 002.135-2.214z" fill="currentColor"/></svg>