<svg fill="none" viewBox="0 0 24 24" xmlns="http://www.w3.org/2000/svg" class="Icon Icon-exam-guest"><path d="m13 2h-7c-.53043 0-1.03914.21071-1.41421.58579-.37508.37507-.58579.88378-.58579 1.41421v16c0 .5304.21071 1.0391.58579 1.4142.37507.3751.88378.5858 1.41421.5858h12c.5304 0 1.0391-.2107 1.4142-.5858s.5858-.8838.5858-1.4142v-11z" stroke="currentColor" stroke-linecap="round" stroke-linejoin="round" stroke-width="2"/><path d="m13 2v7h7" stroke="currentColor" stroke-linecap="round" stroke-linejoin="round" stroke-width="2"/><g fill="currentColor"><path d="m16 13.5c0 .2761-.2239.5-.5.5v2c1.3807 0 2.5-1.1193 2.5-2.5zm-.5-.5c.2761 0 .5.2239.5.5h2c0-1.3807-1.1193-2.5-2.5-2.5zm-2.5.5c0 1.3807 1.1193 2.5 2.5 2.5v-2c-.2761 0-.5-.2239-.5-.5zm2 0c0-.2761.2239-.5.5-.5v-2c-1.3807 0-2.5 1.1193-2.5 2.5z"/><path d="m7 16v-1h-1v1zm0 3h-1v1h1zm3-3h1v-1h-1zm0 3v1h1v-1zm-4-3v3h2v-3zm1 1h3v-2h-3zm2-1v3h2v-3zm1 2h-3v2h3z"/></g></svg>
