<svg xmlns="http://www.w3.org/2000/svg" viewBox="0 0 24 24" fill="currentColor" class="Icon Icon-exam-challenge"><path d="M23.64,19.44l-2.16-2.19a2.81,2.81,0,0,0-.41-3.41.65.65,0,0,0-.91,0l-1,1L14.4,10.1l3-3,2.85-2.88V1.77H17.84L12,7.68,8.46,4.1,6.16,1.77H3.79V4.24L9.6,10.1,4.87,14.88l-1-1a.63.63,0,0,0-.91,0,2.81,2.81,0,0,0-.41,3.41L.36,19.44a1.23,1.23,0,0,0-.36.87,1.27,1.27,0,0,0,.36.88l.67.68a1.26,1.26,0,0,0,1.73,0l2.17-2.19a2.67,2.67,0,0,0,1.43.41,2.71,2.71,0,0,0,2-.82.66.66,0,0,0,.19-.46.64.64,0,0,0-.19-.46l-1-1L12,12.53l4.73,4.78-1,1a.6.6,0,0,0-.19.46.65.65,0,0,0,.18.46,2.72,2.72,0,0,0,2,.82,2.67,2.67,0,0,0,1.43-.41l2.17,2.19a1.22,1.22,0,0,0,1.73,0l.67-.68a1.27,1.27,0,0,0,.36-.88A1.23,1.23,0,0,0,23.64,19.44Zm-19.8-2.6a1.5,1.5,0,0,1-.35-1.51L6.82,18.7a1.45,1.45,0,0,1-1.49-.35h0Zm.12,2L1.9,20.89l-.57-.58,2.05-2.08ZM11.08,8.6l-.57.58L7.59,6.23,5.09,3.69V3.08h.53ZM6.36,16.38l-.57-.58,9.78-9.88h0l2.81-2.85h.53v.61Zm11.28,0-4.72-4.77.57-.58,4.72,4.77Zm3,1.85,2.05,2.08-.57.58L20,18.81Zm-.46-1.39-1.49,1.51a1.45,1.45,0,0,1-1.49.35l3.33-3.37A1.5,1.5,0,0,1,20.16,16.84Z"/></svg>
