<svg xmlns="http://www.w3.org/2000/svg" fill="none" viewBox="0 0 24 24" class="Icon Icon-test-de-prueba"><mask id="a" width="20" height="22" x="2" y="1" maskUnits="userSpaceOnUse" style="mask-type:alpha"><path fill="currentColor" fill-rule="evenodd" d="M3.75 2.5a.25.25 0 0 0-.25.25v18.5c0 .138.112.25.25.25h1.5a.75.75 0 0 1 0 1.5h-1.5A1.75 1.75 0 0 1 2 21.25V2.75C2 1.784 2.784 1 3.75 1h11.836c.406 0 .799.141 1.112.4l4.165 3.43c.403.332.637.827.637 1.35v2.57a.75.75 0 0 1-1.5 0V6.18a.25.25 0 0 0-.091-.193l-4.164-3.43a.25.25 0 0 0-.16-.057z" clip-rule="evenodd"/><path fill="currentColor" fill-rule="evenodd" d="M12.6 9.707c-.057.015-.182.071-.369.257-.673.674-.741 1.052-.73 1.197.01.123.1.316.494.56.382.236.906.428 1.464.593q.226.066.444.125a8 8 0 0 0-.057-.323 7 7 0 0 0-.515-1.598c-.244-.502-.475-.736-.616-.8a.15.15 0 0 0-.114-.011m-.333 3.793a6 6 0 0 1-1.062-.504c-.548-.34-1.132-.884-1.199-1.715-.065-.809.388-1.6 1.165-2.377.308-.309.653-.541 1.039-.645.4-.108.788-.062 1.132.096.633.291 1.06.932 1.339 1.51l.061.13q.03-.066.062-.13c.28-.578.705-1.219 1.339-1.51a1.64 1.64 0 0 1 1.132-.096c.385.104.73.336 1.039.645.777.776 1.23 1.568 1.165 2.377-.067.83-.651 1.375-1.2 1.715a6 6 0 0 1-1.062.504h3.533a.75.75 0 0 1 .75.75v8a.75.75 0 0 1-.75.75h-12a.75.75 0 0 1-.75-.75v-8a.75.75 0 0 1 .75-.75zm3.315-1.061q.217-.059.444-.125c.558-.165 1.082-.357 1.464-.593.393-.244.484-.437.493-.56.012-.145-.056-.523-.73-1.197-.186-.186-.311-.242-.369-.257a.15.15 0 0 0-.114.01c-.14.065-.373.299-.616.801a7 7 0 0 0-.515 1.598q-.034.168-.057.323M9.5 15v6.5H14V15zm6 0v6.5H20V15z" clip-rule="evenodd"/></mask><g mask="url(#a)"><path fill="currentColor" d="M0 0h24v24H0z"/></g></svg>