<svg xmlns="http://www.w3.org/2000/svg" fill="none" viewBox="0 0 24 24" class="Icon Icon-convocatorias-anteriores"><mask id="opo-mask-30283322" width="22" height="22" x="1" y="1" maskUnits="userSpaceOnUse" style="mask-type:alpha"><path fill="currentColor" fill-rule="evenodd" d="M2.75 2.5a.25.25 0 0 0-.25.25v18.4c0 .138.112.25.25.25h6.5a.75.75 0 1 1 0 1.5h-6.5A1.75 1.75 0 0 1 1 21.15V2.75C1 1.784 1.784 1 2.75 1h11.123c.425 0 .836.155 1.156.436l3.877 3.41c.378.333.594.811.594 1.315V8.75a.75.75 0 0 1-1.5 0V6.16a.25.25 0 0 0-.085-.187l-3.877-3.41.495-.564-.495.563a.25.25 0 0 0-.165-.062zm12.99 7.875a.83.83 0 0 1 1.02 0l1.357 1.056 1.708.077a.83.83 0 0 1 .773.652l.373 1.702 1.264 1.177c.274.255.342.66.174.989l-.793 1.547.223 1.73a.83.83 0 0 1-.501.873l-1.582.666-.921 1.467a.83.83 0 0 1-.955.35l-1.63-.521-1.63.52a.83.83 0 0 1-.955-.349l-.921-1.467-1.582-.666a.83.83 0 0 1-.501-.873l.223-1.73-.793-1.547a.83.83 0 0 1 .174-.989l1.264-1.177.373-1.702a.83.83 0 0 1 .773-.652l1.708-.076zm-4.255 3.69.653.143zm8.384 6.6-.567-.356zM16.25 11.88l-1.114.866a.83.83 0 0 1-.472.175l-1.407.062-.307 1.404a.83.83 0 0 1-.246.43l-.51-.548.51.549-1.047.975.657 1.283-.668.342.668-.342c.077.15.106.32.085.486l-.186 1.431 1.308.55a.83.83 0 0 1 .38.324l.758 1.206 1.339-.428a.83.83 0 0 1 .504 0l1.34.428.757-1.206a.83.83 0 0 1 .38-.323l1.308-.55-.185-1.432a.83.83 0 0 1 .084-.486l.657-1.283-1.047-.975a.83.83 0 0 1-.246-.431l.733-.16-.733.16-.307-1.404-1.406-.062a.83.83 0 0 1-.473-.175zm4.505 6.917v-.001l.26.616-.26-.616m-9.01 0v-.001l-.26.616.26-.616m7.022-3.89c.3.285.312.76.026 1.06l-2.857 3a.75.75 0 0 1-1.086 0l-1.143-1.2a.75.75 0 1 1 1.086-1.034l.6.63 2.314-2.43a.75.75 0 0 1 1.06-.026" clip-rule="evenodd"/></mask><g mask="url(#opo-mask-30283322)"><path fill="currentColor" d="M0 0h24v24H0z"/></g></svg>