<svg fill="currentColor" xmlns="http://www.w3.org/2000/svg" viewBox="0 0 24 24" class="Icon Icon-exam-random"><path d="M23.26,10.39a.74.74,0,0,0-.74.74V19.8a2.72,2.72,0,0,1-2.72,2.72H4.2A2.72,2.72,0,0,1,1.48,19.8V4.2A2.72,2.72,0,0,1,4.2,1.48h8.67a.74.74,0,0,0,.74-.74A.74.74,0,0,0,12.87,0H4.2A4.21,4.21,0,0,0,0,4.2V19.8A4.21,4.21,0,0,0,4.2,24H19.8A4.21,4.21,0,0,0,24,19.8V11.13A.74.74,0,0,0,23.26,10.39Z"/><path d="M6.8,17.94h4.33a.75.75,0,0,0,.53-.22L23.78,5.59a.73.73,0,0,0,0-1L19.45.22A.73.73,0,0,0,18.93,0h0a.73.73,0,0,0-.52.22L6.28,12.34a.75.75,0,0,0-.22.53V17.2A.74.74,0,0,0,6.8,17.94ZM18.93,1.79l3.28,3.28L20.66,6.62,17.38,3.34ZM7.54,13.17l8.79-8.79,3.29,3.29-8.79,8.79H7.54Z"/></svg>
