<svg fill="currentColor" xmlns="http://www.w3.org/2000/svg" viewBox="0 0 24 24" class="Icon Icon-exam-previouscall"><path d="M20,4.7V4.62h0s0,0,0-.06h0l0-.06h0l0,0h0l0,0L15.64.14s0,0,0,0h0a.09.09,0,0,0-.05,0h0l0,0h0L15.4,0H4.69a.47.47,0,0,0-.47.47V20.54a.47.47,0,0,0,.47.47h7.06v2.53A.46.46,0,0,0,12,24a.48.48,0,0,0,.48,0l1.78-1.12L16,23.94a.43.43,0,0,0,.25.07.49.49,0,0,0,.23-.06.48.48,0,0,0,.24-.41V21h2.8a.47.47,0,0,0,.47-.47V4.71ZM15.78,1.6l2.64,2.64H15.78ZM11.52,14.48a1,1,0,0,1-.09-.29,1.25,1.25,0,0,1,.24-.18,1.45,1.45,0,0,0,.49-.41,1.71,1.71,0,0,0,.25-.6,1.42,1.42,0,0,1,.09-.27H13a1.4,1.4,0,0,0,.43-.06,2,2,0,0,0,.54-.33,1.13,1.13,0,0,1,.27-.19,1.15,1.15,0,0,1,.28.19,1.7,1.7,0,0,0,.54.33,1.35,1.35,0,0,0,.43.06H16a2.83,2.83,0,0,1,.09.27,1.68,1.68,0,0,0,.24.6,1.59,1.59,0,0,0,.5.41,1.66,1.66,0,0,1,.24.18,1.55,1.55,0,0,1-.09.29,1.88,1.88,0,0,0-.15.65,1.82,1.82,0,0,0,.15.64,1.62,1.62,0,0,1,.09.3s-.17.12-.24.17a1.78,1.78,0,0,0-.5.42,1.55,1.55,0,0,0-.24.6,2.83,2.83,0,0,1-.09.27H15.5a1.35,1.35,0,0,0-.43.06,1.56,1.56,0,0,0-.54.34,1.18,1.18,0,0,1-.28.18,1.39,1.39,0,0,1-.27-.18,1.77,1.77,0,0,0-.54-.34,1.4,1.4,0,0,0-.43-.06H12.5a1.42,1.42,0,0,1-.09-.27,1.57,1.57,0,0,0-.25-.6,1.62,1.62,0,0,0-.49-.42,1.91,1.91,0,0,1-.24-.17,1.1,1.1,0,0,1,.09-.3,1.82,1.82,0,0,0,.15-.64A1.88,1.88,0,0,0,11.52,14.48Zm4.3,8.21-1.32-.82a.45.45,0,0,0-.5,0l-1.31.82V18.47h.45a1.8,1.8,0,0,1,.25.18,1.41,1.41,0,0,0,.86.39,1.41,1.41,0,0,0,.87-.39,1.09,1.09,0,0,1,.25-.18h.45v4.22Zm.94-2.62v-2a1.61,1.61,0,0,0,.24-.6,1.43,1.43,0,0,1,.1-.28,1.07,1.07,0,0,1,.24-.17,1.38,1.38,0,0,0,.63-.67,1.41,1.41,0,0,0-.1-.92,1.45,1.45,0,0,1-.09-.32,1.32,1.32,0,0,1,.09-.32,1.41,1.41,0,0,0,.1-.92,1.38,1.38,0,0,0-.63-.67,1.07,1.07,0,0,1-.24-.17,1.73,1.73,0,0,1-.1-.28,1.28,1.28,0,0,0-.43-.8,1.12,1.12,0,0,0-.68-.19H15.5a.24.24,0,0,1-.13,0,1,1,0,0,1-.25-.17,1.37,1.37,0,0,0-.87-.4,1.36,1.36,0,0,0-.86.4,1.58,1.58,0,0,1-.25.17.24.24,0,0,1-.13,0h-.4a1.1,1.1,0,0,0-.67.19,1.29,1.29,0,0,0-.44.8,1.15,1.15,0,0,1-.09.28,1.07,1.07,0,0,1-.24.17,1.33,1.33,0,0,0-.63.67,1.35,1.35,0,0,0,.1.92,1.32,1.32,0,0,1,.09.32,1.45,1.45,0,0,1-.09.32,1.35,1.35,0,0,0-.1.92,1.33,1.33,0,0,0,.63.67,1.07,1.07,0,0,1,.24.17,1,1,0,0,1,.09.28,1.64,1.64,0,0,0,.25.6v2H5.16V.94h9.68V4.71a.47.47,0,0,0,.47.47h3.78V20.07Z" style="fill-rule:evenodd"/><path d="M7,5.18h6a.47.47,0,0,0,0-.94H7a.47.47,0,0,0,0,.94Z" style="fill-rule:evenodd"/><path d="M17.32,6.61H7a.47.47,0,0,0,0,.94H17.32a.47.47,0,1,0,0-.94Z" style="fill-rule:evenodd"/><path d="M15.44,9H7a.47.47,0,0,0,0,.94h8.46a.47.47,0,1,0,0-.94Z" style="fill-rule:evenodd"/><path d="M17.32,9a.47.47,0,0,0-.47.47.47.47,0,1,0,.94,0A.47.47,0,0,0,17.32,9Z" style="fill-rule:evenodd"/><path d="M13,15.54a3.32,3.32,0,0,0,.33.5,1.56,1.56,0,0,0,.41.4.5.5,0,0,0,.59-.14l.44-.38a14.85,14.85,0,0,0,1.56-1.71.33.33,0,0,0-.46-.46,14,14,0,0,1-1.31,1.47l-.34.32L14,15.7s-.16.1-.19.16,0,0,.09,0,.15,0,.08,0l-.07-.07c-.05-.06-.11-.12-.15-.18a2.26,2.26,0,0,1-.25-.38.32.32,0,0,0-.56.32Z"/></svg>
