<svg xmlns="http://www.w3.org/2000/svg" fill="none" viewBox="0 0 24 24" class="Icon Icon-personalizado"><mask id="a" width="20" height="22" x="2" y="1" maskUnits="userSpaceOnUse" style="mask-type:alpha"><path fill="currentColor" fill-rule="evenodd" d="M2 2.75C2 1.784 2.784 1 3.75 1h9.836c.406 0 .799.141 1.112.4l4.165 3.43c.403.332.637.827.637 1.35v1.21a.75.75 0 0 1-1.5 0V6.18a.25.25 0 0 0-.091-.193l-4.164-3.43a.25.25 0 0 0-.16-.057H3.75a.25.25 0 0 0-.25.25v18c0 .138.112.25.25.25h2.985a.75.75 0 0 1 0 1.5H3.75A1.75 1.75 0 0 1 2 20.75zm18.135 7.3c.703.561 1.277 1.392 1.383 2.334a.75.75 0 0 1-.184.58l-6.887 7.784a.8.8 0 0 1-.238.18l-4.015 1.918a.75.75 0 0 1-1.059-.823l.88-4.42a.75.75 0 0 1 .173-.35l6.887-7.783a.75.75 0 0 1 .478-.248c.942-.106 1.88.268 2.582.829m-2.152.658c.391.028.828.205 1.217.515.374.299.639.67.76 1.031l-6.535 7.386-2.527 1.207.548-2.752z" clip-rule="evenodd"/></mask><g mask="url(#a)"><path fill="currentColor" d="M0 0h24v24H0z"/></g></svg>