<svg fill="currentColor" xmlns="http://www.w3.org/2000/svg" viewBox="0 0 24 24" class="Icon Icon-exam-virtual"><path d="M22.21,5.9a1.37,1.37,0,0,0-1-.42h-6V2.11A2.11,2.11,0,0,0,13.07,0H2.66A2.12,2.12,0,0,0,.55,2.11V22a2,2,0,0,0,2,2H13.15a2,2,0,0,0,2-2V17.11h6a1.42,1.42,0,0,0,1.41-1.41V6.89A1.37,1.37,0,0,0,22.21,5.9ZM5,1.41h5.76v.8a.6.6,0,0,1-.6.6H5.58a.6.6,0,0,1-.6-.6v-.8ZM13.77,22a.62.62,0,0,1-.62.61H2.58A.61.61,0,0,1,2,22V19.46a2.72,2.72,0,0,0,1.27.32h9.26a2.76,2.76,0,0,0,1.28-.32Zm-1.28-3.6H3.23a1.28,1.28,0,0,1-.9-.38A1.23,1.23,0,0,1,2,17.18V2.11a.7.7,0,0,1,.7-.7h.91v.8a2,2,0,0,0,2,2h4.56a2,2,0,0,0,2-2v-.8h.92a.7.7,0,0,1,.7.7V5.48H7.21A1.42,1.42,0,0,0,5.8,6.89V15.7a1.4,1.4,0,0,0,1.41,1.41h6.56A1.28,1.28,0,0,1,12.49,18.38Zm8.73-2.68h-14V6.89h14Z" style="fill-rule:evenodd"/><path d="M7.86,20.51a.7.7,0,1,0,.71.7A.7.7,0,0,0,7.86,20.51Z" style="fill-rule:evenodd"/><path d="M9.32,10.88h.37a.7.7,0,0,0,.7-.71.7.7,0,0,0-.7-.7H9.32a.7.7,0,0,0-.71.7A.71.71,0,0,0,9.32,10.88Z" style="fill-rule:evenodd"/><path d="M9.32,13.69h6.84a.71.71,0,0,0,0-1.41H9.32a.71.71,0,1,0,0,1.41Z" style="fill-rule:evenodd"/><path d="M12.5,10.88h.38a.7.7,0,0,0,.7-.71.7.7,0,0,0-.7-.7H12.5a.7.7,0,0,0-.7.7A.7.7,0,0,0,12.5,10.88Z" style="fill-rule:evenodd"/><path d="M15.69,10.88h.38a.71.71,0,0,0,.7-.71.7.7,0,0,0-.7-.7h-.38a.7.7,0,0,0-.7.7A.7.7,0,0,0,15.69,10.88Z" style="fill-rule:evenodd"/><path d="M18.88,10.88h.37a.71.71,0,0,0,.71-.71.7.7,0,0,0-.71-.7h-.37a.7.7,0,0,0-.71.7A.71.71,0,0,0,18.88,10.88Z" style="fill-rule:evenodd"/></svg>
