<svg xmlns="http://www.w3.org/2000/svg" fill="none" viewBox="0 0 24 24" class="Icon Icon-reto"><mask id="a" width="19" height="22" x="3" y="1" maskUnits="userSpaceOnUse" style="mask-type:alpha"><path fill="currentColor" fill-rule="evenodd" d="M4.75 2.5a.25.25 0 0 0-.25.25v18.4c0 .138.112.25.25.25h.5a.75.75 0 1 1 0 1.5h-.5A1.75 1.75 0 0 1 3 21.15V2.75C3 1.784 3.784 1 4.75 1h11.123c.425 0 .836.155 1.156.436l3.877 3.41c.378.333.594.811.594 1.315V7.25a.75.75 0 0 1-1.5 0V6.16a.25.25 0 0 0-.085-.187l-3.877-3.41a.25.25 0 0 0-.165-.063z" clip-rule="evenodd"/><path fill="currentColor" fill-rule="evenodd" d="M8 9.5a.75.75 0 0 1 1.06 0l5.47 5.47L20 9.5a.75.75 0 0 1 1.06 1.06l-5.469 5.47 2.822 2.822.881-.881a.75.75 0 1 1 1.06 1.06l-.88.882L21.06 21.5A.75.75 0 0 1 20 22.56l-1.587-1.587-.882.882a.75.75 0 0 1-1.06-1.06l.881-.882-2.822-2.822-2.821 2.822.881.881a.75.75 0 1 1-1.06 1.06l-.882-.88-1.587 1.587A.75.75 0 1 1 8 21.5l1.587-1.587-.881-.882a.75.75 0 0 1 1.06-1.06l.882.881 2.822-2.822L8 10.56A.75.75 0 0 1 8 9.5" clip-rule="evenodd"/></mask><g mask="url(#a)"><path fill="currentColor" d="M0 0h24v24H0z"/></g></svg>