<svg fill="currentColor" xmlns="http://www.w3.org/2000/svg" viewBox="0 0 24 24" class="Icon Icon-exam-alleged"><path d="M23.26,9.24H20.45a.7.7,0,0,0-.7.71v.7H18.5L13.45,8.24l1.89-2.69a.71.71,0,0,0-.18-1L12.86,3a.71.71,0,0,0-1,.16L9.35,6.67a2.13,2.13,0,0,0-1.61-.11l-.06,0L5,7.74a2.21,2.21,0,0,0-.94.8C0,15,.22,14.58.19,14.65a2.11,2.11,0,0,0,.94,2.83,2.14,2.14,0,0,0,.75.2l-.36,2.43a.7.7,0,0,0,1,.72L4.63,19.7a2.11,2.11,0,0,0,1.67.81A2.07,2.07,0,0,0,7.7,20a2.08,2.08,0,0,0,1.41.54,2.12,2.12,0,0,0,2.11-2.11v-.27a9.6,9.6,0,0,0,4.22,1,10,10,0,0,0,4.31-1v1.66a.7.7,0,0,0,.7.7h2.81a.7.7,0,0,0,.71-.7V10A.71.71,0,0,0,23.26,9.24Zm-17,4.22L11,6.8l1.18.82L8.08,13.46Zm6.73-7-1.16-.82.81-1.14,1.16.81ZM1.43,15.3l3.82-6A.8.8,0,0,1,5.56,9L8.21,7.88a.76.76,0,0,1,.3,0l-4.6,6.46L2.48,16.2a.86.86,0,0,1-.72,0A.71.71,0,0,1,1.43,15.3Zm1.91,2.08.49-.64a2.17,2.17,0,0,0,1.08.83l-.41.6h0l-1.37.74Zm3,1.72a.69.69,0,0,1-.55-.26l.8-1.16H7v.72A.7.7,0,0,1,6.3,19.1Zm2.81,0a.7.7,0,0,1-.71-.7v-.72H9.81v.72A.7.7,0,0,1,9.11,19.1Zm6.33-1.4a9.19,9.19,0,0,1-4.6-1.35.71.71,0,0,0-.32-.07H5.59a.69.69,0,0,1-.7-.69.73.73,0,0,1,.7-.72H9.93a5.44,5.44,0,0,0,3.89-1.6.7.7,0,0,0-1-1,4.07,4.07,0,0,1-2.9,1.18H9.79L12.64,9.4,18,12a.78.78,0,0,0,.3.07h1.41v4.5A9,9,0,0,1,15.44,17.7Zm7.12,1.39H21.15V10.65h1.41Z"/></svg>
