<svg fill="none" viewBox="0 0 24 24" xmlns="http://www.w3.org/2000/svg" class="Icon Icon-exam-official"><path d="m13 2h-7c-.53043 0-1.03914.21071-1.41421.58579-.37508.37507-.58579.88378-.58579 1.41421v16c0 .5304.21071 1.0391.58579 1.4142.37507.3751.88378.5858 1.41421.5858h12c.5304 0 1.0391-.2107 1.4142-.5858s.5858-.8838.5858-1.4142v-11z" stroke="currentColor" stroke-linecap="round" stroke-linejoin="round" stroke-width="2"/><path d="m13 2v7h7" stroke="currentColor" stroke-linecap="round" stroke-linejoin="round" stroke-width="2"/><g fill="currentColor"><ellipse cx="12.0003" cy="19.063" rx=".936347" ry=".937018"/><path clip-rule="evenodd" d="m12.0001 12.843c-.5179 0-.9378.4125-.9378.9214 0 .509-.4199.9215-.9379.9215-.51798 0-.93788-.4125-.93788-.9215 0-1.5267 1.25968-2.7644 2.81358-2.7644 1.554 0 2.8136 1.2377 2.8136 2.7644 0 1.2037-.7829 2.2277-1.8757 2.6072v.4644c0 .509-.4199.9215-.9379.9215-.5179 0-.9378-.4125-.9378-.9215v-1.2286c0-.5089.4199-.9215.9378-.9215.518 0 .9379-.4125.9379-.9215 0-.5089-.4199-.9214-.9379-.9214z" fill-rule="evenodd"/></g></svg>
