<svg xmlns="http://www.w3.org/2000/svg" fill="none" viewBox="0 0 24 24" class="Icon Icon-supuestos"><mask id="a" width="19" height="22" x="3" y="1" maskUnits="userSpaceOnUse" style="mask-type:alpha"><path fill="currentColor" fill-rule="evenodd" d="M4.75 2.5a.25.25 0 0 0-.25.25v18.4c0 .138.112.25.25.25h4.5a.75.75 0 1 1 0 1.5h-4.5A1.75 1.75 0 0 1 3 21.15V2.75C3 1.784 3.784 1 4.75 1h11.123c.425 0 .836.155 1.156.436l3.877 3.41c.378.333.594.811.594 1.315V8.75a.75.75 0 0 1-1.5 0V6.16a.25.25 0 0 0-.085-.187l-3.877-3.41a.25.25 0 0 0-.165-.063z" clip-rule="evenodd"/><path fill="currentColor" fill-rule="evenodd" d="M5.96 6.43a.75.75 0 0 1 .742-.202l2.397.671a.75.75 0 0 1 .295.16l.937.83a1 1 0 0 1 .126-.011H14c.288 0 .608.047.92.203q.48.242.783.742.165.272.277.621c.437.046.828.16 1.167.355.47.271.775.665.966 1.106.115.265.189.547.237.832.428.03.818.116 1.16.28.45.214.776.54.998.946.407.744.442 1.74.442 2.707a.75.75 0 0 1-1.5 0c0-1.032-.065-1.634-.258-1.987a.7.7 0 0 0-.328-.313 1.4 1.4 0 0 0-.415-.116l.001.399v.017a.75.75 0 0 1-1.5 0c0-.486 0-.91-.032-1.292-.031-.383-.09-.668-.181-.877a.8.8 0 0 0-.503-.478q.016.307.016.647a.75.75 0 0 1-1.5 0c0-1.216-.17-1.804-.33-2.07a.43.43 0 0 0-.171-.178.55.55 0 0 0-.249-.044h-2.823q.015.171.05.36c.068.365.186.692.33.92.358.284.95.652 1.943.652q.151.001.285.056c.11.03.215.086.306.169l6.57 5.982c.49.447.766.997.73 1.588-.033.574-.353 1.034-.736 1.334-.736.576-1.999.765-2.915-.07l-.02-.02-3.871-3.808a3.8 3.8 0 0 1-.767.185c-.313.039-.775.043-1.182-.211-.468-.292-.669-.794-.669-1.35V13.67c0-1.005-.279-1.442-.546-1.714a2.3 2.3 0 0 0-.341-.296 1 1 0 0 0-.078-.045h-.22v3.55c0 1.39.25 2.34.59 2.913.324.546.707.73 1.09.73.354 0 .69.086.974.291.282.203.445.475.54.73.164.44.163.962.162 1.292v1.075a.75.75 0 1 1-1.5 0V21.17c0-.188 0-.35-.012-.502a1.2 1.2 0 0 0-.056-.317l-.015-.034a.4.4 0 0 0-.092-.008c-1.005 0-1.837-.548-2.381-1.466-.528-.892-.8-2.14-.8-3.679v-3.848l-.087.092L6.701 9.73a.75.75 0 0 1-.196-.313L5.786 7.18a.75.75 0 0 1 .174-.75m3.318 3.685h.494a5 5 0 0 1-.103-.81L8.53 8.297l-.888-.249.234.728zm3.38 2.627q.047.274.064.587l6.038 5.939c.26.23.682.215.971-.01.131-.103.16-.196.163-.242.002-.03.002-.166-.243-.39m0 0-6.394-5.821a5 5 0 0 1-.599-.063" clip-rule="evenodd"/></mask><g mask="url(#a)"><path fill="currentColor" d="M0 0h24v24H0z"/></g></svg>