<svg fill="currentColor" xmlns="http://www.w3.org/2000/svg" viewBox="0 0 24 24" class="Icon Icon-exam-fails"><path d="M23.29,6.83a.7.7,0,0,0-.7.71V22.59H1.41V1.41H15.92a.7.7,0,0,0,.71-.7A.71.71,0,0,0,15.92,0H.71A.71.71,0,0,0,0,.71V23.29A.71.71,0,0,0,.71,24H23.29a.71.71,0,0,0,.71-.71V7.54A.71.71,0,0,0,23.29,6.83Z"/><path d="M11.4,9.05c-.39.4-.78.82-1.17,1.25A33.85,33.85,0,0,1,6.54,6c-.4-.54-.76-.53-1-.43A2.16,2.16,0,0,0,4.74,7.6a13.52,13.52,0,0,0,3,5.74l-.25.34a17,17,0,0,0-1.28,2.06,9.42,9.42,0,0,0-.56,1.19,5.37,5.37,0,0,0-.22.69c0,.15-.08.66-.08.68l0,.2h0a2,2,0,0,0,.57,1.68.88.88,0,0,0,.53.2h.1A1,1,0,0,0,7.15,20h0l.12-.12.26-.3c0-.07.09-.15.15-.24s0-.09.07-.14l.54-.84c.35-.53.77-1.08,1.3-1.74.21-.26.43-.51.65-.77a28.05,28.05,0,0,0,3.39,2.6l.31.2c1.18.78,2.78,1.85,3.93.82a2.73,2.73,0,0,0,.42-2.84,4.68,4.68,0,0,0-2.54-2.24c-.28-.15-.57-.3-.84-.47-.55-.33-1.11-.7-1.71-1.14h0a51.34,51.34,0,0,1,4.16-3.64c.58-.46,1.25-1,1.92-1.44l0,0A4.87,4.87,0,0,0,21,6a3.13,3.13,0,0,0,.17-2.29,1.41,1.41,0,0,0-.8-.87,2.49,2.49,0,0,0-2.33.52,24.9,24.9,0,0,0-2.3,1.65A48.28,48.28,0,0,0,11.4,9.05Z"/></svg>
