<svg fill="currentColor" xmlns="http://www.w3.org/2000/svg" viewBox="0 0 24 24" class="Icon Icon-exam-official"><path d="M21.7,6.2l-6-6a.71.71,0,0,0-.5-.21H5A2.59,2.59,0,0,0,2.39,2.55V21.41A2.59,2.59,0,0,0,5,24H19.31a2.59,2.59,0,0,0,2.59-2.59V6.7a.72.72,0,0,0-.2-.5ZM15.87,2.37,19.5,6H17.05a1.18,1.18,0,0,1-1.18-1.18Zm3.44,20.22H5A1.18,1.18,0,0,1,3.8,21.41V2.55A1.18,1.18,0,0,1,5,1.37h9.48V4.82a2.6,2.6,0,0,0,2.59,2.59h3.44v14a1.18,1.18,0,0,1-1.18,1.18Z"/><path d="M9.13,10.52h-3a.7.7,0,0,0-.7.71v3a.7.7,0,0,0,.7.71h3a.7.7,0,0,0,.7-.71v-3a.7.7,0,0,0-.7-.71Zm-.71,3H6.82V11.93h1.6Z"/><path d="M9.13,16.56h-3a.7.7,0,0,0-.7.7v3a.7.7,0,0,0,.7.7h3a.7.7,0,0,0,.7-.7v-3A.7.7,0,0,0,9.13,16.56Zm-.71,3H6.82V18h1.6Z"/><path d="M11.44,11.23a.7.7,0,0,0,.71.7h3a.7.7,0,0,0,.71-.7.71.71,0,0,0-.71-.71h-3A.71.71,0,0,0,11.44,11.23Z"/><path d="M18.18,13.54h-6a.71.71,0,1,0,0,1.41h6a.71.71,0,0,0,0-1.41Z"/><path d="M12.15,18h3a.71.71,0,0,0,.71-.71.7.7,0,0,0-.71-.7h-3a.7.7,0,0,0-.71.7A.71.71,0,0,0,12.15,18Z"/><path d="M18.18,19.57h-6a.71.71,0,0,0-.71.71.7.7,0,0,0,.71.7h6a.7.7,0,0,0,.7-.7A.7.7,0,0,0,18.18,19.57Z"/><path d="M6.11,5.14H9.88a.7.7,0,0,0,.71-.7.71.71,0,0,0-.71-.71H6.11a.7.7,0,0,0-.7.71A.7.7,0,0,0,6.11,5.14Z"/><path d="M6.11,8.16h6a.71.71,0,0,0,0-1.41h-6a.71.71,0,0,0,0,1.41Z"/></svg>
