<?xml version="1.0" encoding="utf-8"?>
<svg version="1.1" id="Capa_1" x="0px" y="0px" viewBox="583.668 311.289 4001.864 780.021" style="enable-background:new 0 0 5169.2 1402.6;" xmlns="http://www.w3.org/2000/svg">
  <style type="text/css">
	.st0{fill:#0053FF;}
</style>
  <polygon id="_75_fuera" class="st0" points="837.7,313.6 752.9,630.2 878.4,630.2 959.5,313.6 1052.4,676 611.9,676 584.6,777.7 &#10;&#9;713.4,777.7 676.2,916.6 805,916.6 840.6,777.7 1078.4,777.7 1114,916.6 1242.8,916.6 1081.2,313.6 "/>
  <rect x="1807.2" y="313.6" class="st0" width="117.7" height="603"/>
  <path class="st0" d="M1692.9,537.1c-35.9-43.1-84.5-64.6-145.8-64.6c-63,0-108.8,21-137.5,63v-53H1301V1089h117.7V870.2 c12.1,16,29.4,29.4,51.8,40.2s47.9,16.2,76.6,16.2c61.3,0,109.9-21.5,145.8-64.6s53.8-97.2,53.9-162.4 C1746.7,634.4,1728.8,580.2,1692.9,537.1z M1599.6,788.2c-19.6,23.2-45.4,34.8-77.5,34.8s-57.9-11.6-77.5-34.8s-29.4-52.8-29.4-88.7 s9.8-65.5,29.4-88.7s45.4-34.8,77.5-34.8s57.9,11.6,77.5,34.8s29.4,52.8,29.4,88.7S1619.2,765,1599.6,788.2z"/>
  <path class="st0" d="M3937.5,472.5c-59.1,0-107.2,20.4-144.2,61.3c-26.5-40.9-68.5-61.3-125.9-61.3c-60.8,0-102.5,21-125.1,63v-53 h-108.5v434.1h117.7V667.2c0-29.3,7.3-52.2,22-68.8s35.5-24.9,62.5-24.8c46.4,0,69.6,28.4,69.6,85.3v257.7h117.7V669.7 c0-30.4,7.2-54,21.5-70.8s35.4-25.3,63-25.3c46.4,0,69.6,28.4,69.6,85.3v257.7h117.7v-271c0-52.5-13.5-94.4-40.6-125.9 C4027.3,488.2,3988.3,472.5,3937.5,472.5z"/>
  <path class="st0" d="M2322.6,482.4v53c-28.7-42-74.6-63-137.5-63c-61.3,0-109.9,21.5-145.8,64.6c-35.9,43.1-53.8,97.2-53.9,162.4 c0,65.2,18,119.3,53.9,162.4c35.9,43.1,84.5,64.6,145.8,64.6c63,0,108.8-21,137.5-63v53h108.6v-434H2322.6z M2287.4,788.2 c-19.6,23.2-45.4,34.8-77.5,34.8c-32,0-57.9-11.6-77.5-34.8s-29.4-52.8-29.4-88.7s9.8-65.5,29.4-88.7c19.6-23.2,45.4-34.8,77.5-34.8 c32,0,57.9,11.6,77.5,34.8s29.4,52.8,29.4,88.7C2316.8,735.4,2307,765,2287.4,788.2L2287.4,788.2z"/>
  <path class="st0" d="M3237.3,482.4v53c-28.7-42-74.6-63-137.5-63c-61.3,0-109.9,21.5-145.8,64.6s-53.8,97.2-53.9,162.4 c0,65.2,17.9,119.3,53.9,162.4s84.5,64.6,145.8,64.6c63,0,108.8-21,137.5-63v53h108.6v-434H3237.3z M3202.1,788.2 c-19.6,23.2-45.4,34.8-77.5,34.8s-57.9-11.6-77.5-34.8s-29.4-52.8-29.4-88.7s9.8-65.5,29.4-88.7c19.6-23.2,45.4-34.8,77.5-34.8 s57.9,11.6,77.5,34.8s29.4,52.8,29.4,88.7S3221.7,765,3202.1,788.2z"/>
  <path class="st0" d="M4584.6,698.7c0-65.2-20-119.2-60.1-162s-91.8-64.2-155.4-64.2c-63.5,0-115.7,21.5-156.6,64.6 s-61.3,96.9-61.3,161.6c0,66.9,20.4,121.5,61.3,164.1s93.4,63.8,157.4,63.8c49.7,0,93.2-13.7,130.5-41s62.3-63.1,75-107.3H4457 c-6.4,15.2-18,27.7-32.7,35.2c-15.2,8-32.2,12-51,12c-29.8,0-53.9-7.9-72.1-23.6s-29.3-38.5-33.1-68.4H4583L4584.6,698.7z M4269.7,649c5-25.4,16-45.4,33.1-60.1c17.1-14.7,38.9-22,65.5-21.9c27.1,0,49.2,7.5,66.3,22.4s27.9,34.8,32.3,59.7h-197.2V649z"/>
  <polygon class="st0" points="2871.2,578.7 2871.2,482.4 2509.8,482.4 2509.8,584.4 2723.6,584.4 2506.7,819.8 2506.7,916.6 &#10;&#9;2873.8,916.6 2873.8,814.7 2652.6,814.7 "/>
</svg>