<svg viewBox="583.67 311.29 4001.86 780.02" style="width:80px" xmlns="http://www.w3.org/2000/svg" class="Icon Icon-aplazame"><path fill="#0053FF" class="st0" d="m837.7 313.6-84.8 316.6h125.5l81.1-316.6 92.9 362.4H611.9l-27.3 101.7h128.8l-37.2 138.9H805l35.6-138.9h237.8l35.6 138.9h128.8l-161.6-603zm969.5 0h117.7v603h-117.7zm-114.3 223.5c-35.9-43.1-84.5-64.6-145.8-64.6-63 0-108.8 21-137.5 63v-53H1301V1089h117.7V870.2c12.1 16 29.4 29.4 51.8 40.2s47.9 16.2 76.6 16.2c61.3 0 109.9-21.5 145.8-64.6s53.8-97.2 53.9-162.4c-.1-65.2-18-119.4-53.9-162.5zm-93.3 251.1c-19.6 23.2-45.4 34.8-77.5 34.8s-57.9-11.6-77.5-34.8-29.4-52.8-29.4-88.7 9.8-65.5 29.4-88.7 45.4-34.8 77.5-34.8 57.9 11.6 77.5 34.8 29.4 52.8 29.4 88.7-9.8 65.5-29.4 88.7zm2337.9-315.7c-59.1 0-107.2 20.4-144.2 61.3-26.5-40.9-68.5-61.3-125.9-61.3-60.8 0-102.5 21-125.1 63v-53h-108.5v434.1h117.7V667.2c0-29.3 7.3-52.2 22-68.8s35.5-24.9 62.5-24.8c46.4 0 69.6 28.4 69.6 85.3v257.7h117.7V669.7c0-30.4 7.2-54 21.5-70.8s35.4-25.3 63-25.3c46.4 0 69.6 28.4 69.6 85.3v257.7h117.7v-271c0-52.5-13.5-94.4-40.6-125.9-27.2-31.5-66.2-47.2-117-47.2zm-1614.9 9.9v53c-28.7-42-74.6-63-137.5-63-61.3 0-109.9 21.5-145.8 64.6-35.9 43.1-53.8 97.2-53.9 162.4 0 65.2 18 119.3 53.9 162.4 35.9 43.1 84.5 64.6 145.8 64.6 63 0 108.8-21 137.5-63v53h108.6v-434h-108.6zm-35.2 305.8c-19.6 23.2-45.4 34.8-77.5 34.8-32 0-57.9-11.6-77.5-34.8s-29.4-52.8-29.4-88.7 9.8-65.5 29.4-88.7c19.6-23.2 45.4-34.8 77.5-34.8 32 0 57.9 11.6 77.5 34.8s29.4 52.8 29.4 88.7c0 35.9-9.8 65.5-29.4 88.7zm949.9-305.8v53c-28.7-42-74.6-63-137.5-63-61.3 0-109.9 21.5-145.8 64.6s-53.8 97.2-53.9 162.4c0 65.2 17.9 119.3 53.9 162.4s84.5 64.6 145.8 64.6c63 0 108.8-21 137.5-63v53h108.6v-434h-108.6zm-35.2 305.8c-19.6 23.2-45.4 34.8-77.5 34.8s-57.9-11.6-77.5-34.8-29.4-52.8-29.4-88.7 9.8-65.5 29.4-88.7c19.6-23.2 45.4-34.8 77.5-34.8s57.9 11.6 77.5 34.8 29.4 52.8 29.4 88.7-9.8 65.5-29.4 88.7zm1382.5-89.5c0-65.2-20-119.2-60.1-162s-91.8-64.2-155.4-64.2c-63.5 0-115.7 21.5-156.6 64.6s-61.3 96.9-61.3 161.6c0 66.9 20.4 121.5 61.3 164.1s93.4 63.8 157.4 63.8c49.7 0 93.2-13.7 130.5-41s62.3-63.1 75-107.3H4457c-6.4 15.2-18 27.7-32.7 35.2-15.2 8-32.2 12-51 12-29.8 0-53.9-7.9-72.1-23.6s-29.3-38.5-33.1-68.4H4583l1.6-34.8zM4269.7 649c5-25.4 16-45.4 33.1-60.1 17.1-14.7 38.9-22 65.5-21.9 27.1 0 49.2 7.5 66.3 22.4s27.9 34.8 32.3 59.7h-197.2v-.1zm-1398.5-70.3v-96.3h-361.4v102h213.8l-216.9 235.4v96.8h367.1V814.7h-221.2z"/></svg>