<svg class="Icon Icon-sec-visa" xmlns="http://www.w3.org/2000/svg" viewBox="0 -0.0010004043579101562 1000.0460205078125 323.65399169921875"><path fill="#00579f" d="M433.352 318.984h-81.01l50.67-313.305h81.006zM727.023 13.339c-15.978-6.34-41.322-13.34-72.66-13.34-80 0-136.336 42.661-136.682 103.653-.664 45 40.335 69.994 71 84.998 31.341 15.332 41.995 25.34 41.995 39.006-.319 20.989-25.326 30.664-48.65 30.664-32.343 0-49.673-4.988-76.009-16.666l-10.667-5.005-11.337 70.33c19 8.656 54.006 16.337 90.35 16.674 85.002 0 140.34-42 140.996-106.997.324-35.666-21.326-62.994-68-85.325-28.334-14.336-45.686-24.002-45.686-38.67.332-13.334 14.677-26.991 46.661-26.991 26.336-.67 45.686 5.661 60.345 11.996l7.327 3.327 11.017-67.654zm107.671 194.652c6.671-17.999 32.343-87.66 32.343-87.66-.337.669 6.658-18.331 10.658-29.995l5.662 26.996s15.34 74.995 18.672 90.66h-67.335zM934.69 5.68h-62.66c-19.323 0-34.004 5.662-42.341 25.995L709.357 318.98h85.002s13.994-38.669 17.002-46.997h104.011c2.326 11 9.666 46.997 9.666 46.997h75.008L934.691 5.68zm-650.012 0l-79.336 213.643-8.67-43.33C182.006 125.997 136.005 71.677 84.67 44.667l72.669 273.985h85.667L370.34 5.679h-85.662z"></path><path fill="#faa61a" d="M131.672 5.68H1.333L0 12.01c101.672 25.999 169.008 88.67 196.673 163.997L168.339 32.015c-4.665-20.01-19-25.676-36.667-26.336z"></path></svg>