<svg xmlns="http://www.w3.org/2000/svg" fill="none" viewBox="0 0 59 48" class="Icon Icon-mastercard"><g clip-path="url(#opo-mask-62080833)"><path fill="#231F20" d="M14.49 41.96v-2.39a1.42 1.42 0 0 0-1.498-1.515 1.48 1.48 0 0 0-1.34.678 1.4 1.4 0 0 0-1.26-.678 1.26 1.26 0 0 0-1.116.566v-.47h-.829v3.81h.837v-2.096a.893.893 0 0 1 .933-1.013c.55 0 .83.359.83 1.005v2.12h.836v-2.112a.896.896 0 0 1 .933-1.013c.566 0 .837.359.837 1.005v2.12zm12.386-3.81h-1.363v-1.156h-.837v1.156h-.758v.757h.774v1.754c0 .885.343 1.411 1.323 1.411.366.002.726-.1 1.037-.295l-.24-.71a1.53 1.53 0 0 1-.733.216c-.399 0-.55-.255-.55-.638v-1.738h1.355zm7.072-.096a1.12 1.12 0 0 0-1.005.558v-.462h-.82v3.81h.828v-2.136c0-.63.271-.98.798-.98.177-.003.353.03.518.095l.255-.797a1.8 1.8 0 0 0-.59-.104zm-10.692.399a2.85 2.85 0 0 0-1.554-.399c-.965 0-1.595.462-1.595 1.22 0 .622.463 1.004 1.316 1.124l.398.056c.455.064.67.183.67.398 0 .295-.303.463-.869.463a2.03 2.03 0 0 1-1.267-.399l-.4.646a2.75 2.75 0 0 0 1.651.494c1.1 0 1.738-.518 1.738-1.243s-.502-1.02-1.331-1.14l-.399-.056c-.359-.048-.646-.12-.646-.375s.271-.447.726-.447c.42.005.832.118 1.196.327zm22.209-.399a1.12 1.12 0 0 0-1.005.558v-.462h-.821v3.81h.83v-2.136c0-.63.27-.98.796-.98.178-.003.354.03.519.095l.255-.797a1.8 1.8 0 0 0-.59-.104zM34.78 40.047a1.925 1.925 0 0 0 2.033 1.993c.498.026.987-.136 1.371-.454l-.398-.67a1.67 1.67 0 0 1-.997.343 1.224 1.224 0 0 1 0-2.44c.36.004.71.125.997.343l.398-.67a2 2 0 0 0-1.37-.454 1.926 1.926 0 0 0-2.034 1.993zm7.766 0V38.15h-.83v.462a1.45 1.45 0 0 0-1.195-.558 1.993 1.993 0 1 0 0 3.986 1.45 1.45 0 0 0 1.196-.558v.463h.829zm-3.086 0a1.152 1.152 0 1 1 1.156 1.22 1.145 1.145 0 0 1-1.156-1.22m-10.006-1.993a1.994 1.994 0 1 0 .056 3.986 2.32 2.32 0 0 0 1.583-.518l-.399-.614a1.8 1.8 0 0 1-1.108.399 1.056 1.056 0 0 1-1.14-.933h2.83v-.319c0-1.196-.741-1.993-1.81-1.993zm0 .741a.943.943 0 0 1 .965.925h-1.993a.98.98 0 0 1 1.012-.925zm20.773 1.26V36.62h-.797v1.993a1.45 1.45 0 0 0-1.196-.558 1.993 1.993 0 0 0 0 3.986 1.45 1.45 0 0 0 1.196-.558v.463h.797zm1.384 1.352a.4.4 0 0 1 .275.107.37.37 0 0 1-.124.614.4.4 0 0 1-.151.032.4.4 0 0 1-.36-.231.37.37 0 0 1 .085-.415.4.4 0 0 1 .287-.108zm0 .673a.28.28 0 0 0 .285-.287.3.3 0 0 0-.078-.2.29.29 0 0 0-.323-.064.3.3 0 0 0-.096.065.295.295 0 0 0 0 .398q.042.042.096.064.061.027.128.024zm.024-.474a.16.16 0 0 1 .103.032.1.1 0 0 1 .036.084.1.1 0 0 1-.028.071.14.14 0 0 1-.084.036l.116.132h-.092l-.107-.132h-.036v.132h-.076v-.351zm-.088.068v.095h.088a.1.1 0 0 0 .047 0 .04.04 0 0 0 0-.036.04.04 0 0 0 0-.035.1.1 0 0 0-.047 0zm-4.385-1.619a1.152 1.152 0 1 1 1.156 1.22 1.145 1.145 0 0 1-1.156-1.22m-27.996 0V38.15h-.83v.462a1.45 1.45 0 0 0-1.196-.558 1.993 1.993 0 0 0 0 3.986 1.45 1.45 0 0 0 1.196-.558v.463h.83zm-3.086 0a1.152 1.152 0 1 1 1.156 1.22 1.145 1.145 0 0 1-1.164-1.22z"/><path fill="#FF5F00" d="M22.982 9.109h12.557v22.567H22.982z"/><path fill="#EB001B" d="M23.779 20.395A14.33 14.33 0 0 1 29.26 9.11a14.351 14.351 0 1 0 0 22.566 14.33 14.33 0 0 1-5.481-11.281"/><path fill="#F79E1B" d="M52.48 20.394a14.351 14.351 0 0 1-23.22 11.282 14.352 14.352 0 0 0 0-22.567A14.351 14.351 0 0 1 52.48 20.39zm-1.37 8.89v-.462h.187v-.096h-.474v.096h.203v.462zm.92 0v-.558h-.143l-.168.399-.167-.399h-.128v.558h.104v-.418l.156.362h.107l.156-.363v.423z"/></g><defs><clipPath id="opo-mask-62080833"><path fill="#fff" d="M0 0h58.52v48H0z"/></clipPath></defs></svg>