<svg class="Icon Icon-pay-mastercard" xmlns="http://www.w3.org/2000/svg" fill-rule="evenodd" stroke-linejoin="round" stroke-miterlimit="2" clip-rule="evenodd" viewBox="0 0 117 73"><path fill="#ff5f00" d="M40.925 7.7h34.66v56.61h-34.66z"/><path fill="#eb001b" fill-rule="nonzero" d="M44.495 36.01a35.964 35.964 0 0 1 13.75-28.3A36.008 36.008 0 0 0 36 .013c-19.75 0-36 16.251-36 36 0 19.75 16.25 36 36 36a36.008 36.008 0 0 0 22.245-7.695 35.962 35.962 0 0 1-13.75-28.31z"/><path fill="#f79e1b" fill-rule="nonzero" d="M113.055 58.32v-1.16h.5v-.24h-1.19v.24h.47v1.16h.22zm2.31 0v-1.4h-.36l-.42 1-.42-1h-.36v1.4h.26v-1.06l.39.91h.27l.39-.91v1.06h.25zm1.13-22.31c0 19.748-16.251 35.998-36 35.998a36.006 36.006 0 0 1-22.25-7.699A36.022 36.022 0 0 0 72 36.004 36.022 36.022 0 0 0 58.245 7.7 36.006 36.006 0 0 1 80.495 0c19.749 0 36 16.25 36 36v.01z"/></svg>
