<svg xmlns="http://www.w3.org/2000/svg" fill="none" viewBox="0 0 27 16" class="Icon Icon-mastercard"><g clip-path="url(#opo-mask-72921252)"><path fill="#FF5F00" d="M10.725 2.793h5.74v10.316h-5.74z"/><path fill="#EB001B" d="M11.09 7.952a6.55 6.55 0 0 1 2.505-5.16 6.56 6.56 0 1 0 0 10.317 6.55 6.55 0 0 1-2.505-5.157"/><path fill="#F79E1B" d="M24.21 7.952a6.56 6.56 0 0 1-10.615 5.157 6.56 6.56 0 0 0 0-10.316A6.56 6.56 0 0 1 24.212 7.95zm-.626 4.064v-.212h.085v-.043h-.216v.043h.093v.212zm.42 0v-.255h-.065l-.076.182-.077-.182h-.058v.255h.047v-.192l.071.166h.05l.07-.166v.193z"/></g><defs><clipPath id="opo-mask-72921252"><path fill="#fff" d="M0 0h26.971v16H0z"/></clipPath></defs></svg>