<svg xmlns="http://www.w3.org/2000/svg" fill="none" viewBox="0 0 181 48" class="Icon Icon-paypal"><g clip-path="url(#opo-mask-72792472)"><path fill="#253B80" d="M67.139 9.817h-9.937a1.38 1.38 0 0 0-1.364 1.166L51.82 36.492a.83.83 0 0 0 .82.957h4.743a1.38 1.38 0 0 0 1.365-1.168l1.084-6.88a1.38 1.38 0 0 1 1.362-1.168h3.146c6.545 0 10.323-3.171 11.309-9.455.445-2.749.019-4.909-1.267-6.422-1.412-1.66-3.917-2.54-7.242-2.54m1.146 9.316c-.543 3.57-3.268 3.57-5.902 3.57h-1.499l1.052-6.667a.83.83 0 0 1 .818-.7h.687c1.794 0 3.487 0 4.361 1.025.522.61.682 1.518.483 2.772m28.555-.115H92.08a.83.83 0 0 0-.818.7l-.21 1.332-.333-.483c-1.03-1.497-3.327-1.997-5.62-1.997-5.257 0-9.748 3.987-10.623 9.58-.455 2.79.192 5.457 1.772 7.318 1.45 1.71 3.525 2.423 5.994 2.423 4.236 0 6.586-2.727 6.586-2.727l-.213 1.323a.83.83 0 0 0 .817.96h4.286a1.38 1.38 0 0 0 1.364-1.168l2.572-16.304a.825.825 0 0 0-.815-.957m-6.633 9.271c-.459 2.722-2.616 4.549-5.368 4.549-1.382 0-2.486-.444-3.195-1.285-.703-.835-.97-2.023-.747-3.347.429-2.698 2.623-4.584 5.332-4.584 1.351 0 2.45.45 3.173 1.297.725.857 1.013 2.053.805 3.37m31.974-9.27h-4.782a1.39 1.39 0 0 0-1.143.606l-6.595 9.725-2.795-9.346a1.39 1.39 0 0 0-1.325-.986h-4.699a.82.82 0 0 0-.675.346.82.82 0 0 0-.111.75l5.267 15.474-4.951 6.998a.82.82 0 0 0-.061.86.83.83 0 0 0 .736.45h4.776a1.38 1.38 0 0 0 1.134-.594L122.86 20.32a.828.828 0 0 0-.679-1.302"/><path fill="#179BD7" d="M138.011 9.817h-9.938a1.38 1.38 0 0 0-1.363 1.166l-4.018 25.509a.816.816 0 0 0 .47.881.8.8 0 0 0 .346.076h5.1a.966.966 0 0 0 .953-.818l1.14-7.23a1.38 1.38 0 0 1 1.363-1.168h3.144c6.547 0 10.323-3.171 11.311-9.455.446-2.749.017-4.909-1.268-6.421-1.411-1.662-3.915-2.54-7.24-2.54m1.146 9.316c-.542 3.57-3.266 3.57-5.901 3.57h-1.498l1.053-6.666a.824.824 0 0 1 .817-.7h.687c1.793 0 3.487 0 4.361 1.024.522.61.68 1.518.481 2.772m28.553-.115h-4.755a.824.824 0 0 0-.816.7l-.211 1.332-.334-.483c-1.03-1.496-3.326-1.997-5.618-1.997-5.258 0-9.748 3.987-10.622 9.58-.454 2.79.19 5.457 1.771 7.318 1.453 1.71 3.524 2.423 5.993 2.423 4.236 0 6.586-2.727 6.586-2.727l-.212 1.323a.84.84 0 0 0 .188.67.83.83 0 0 0 .631.29h4.284a1.38 1.38 0 0 0 1.363-1.168l2.573-16.304a.82.82 0 0 0-.19-.667.83.83 0 0 0-.631-.29m-6.632 9.272c-.456 2.721-2.617 4.548-5.368 4.548-1.379 0-2.486-.444-3.195-1.284-.703-.835-.968-2.024-.747-3.347.432-2.698 2.623-4.585 5.332-4.585 1.351 0 2.45.45 3.173 1.297.728.857 1.016 2.053.805 3.37m12.242-17.773-4.078 25.975a.816.816 0 0 0 .47.881.8.8 0 0 0 .346.076h4.1c.682 0 1.26-.495 1.364-1.168l4.022-25.507a.82.82 0 0 0-.47-.882.8.8 0 0 0-.346-.077h-4.592a.83.83 0 0 0-.816.702"/><path fill="#253B80" d="m10.557 42.406.76-4.832-1.693-.04H1.542L7.158 1.88a.46.46 0 0 1 .456-.39h13.628c4.525 0 7.647.943 9.277 2.803.764.873 1.25 1.785 1.486 2.789.247 1.053.252 2.311.01 3.846l-.017.112v.983l.764.433a5.4 5.4 0 0 1 1.547 1.181c.654.747 1.077 1.695 1.256 2.82.184 1.156.123 2.532-.179 4.09-.349 1.791-.912 3.352-1.674 4.63a9.5 9.5 0 0 1-2.651 2.908c-1.011.719-2.213 1.264-3.571 1.614-1.316.343-2.817.516-4.463.516h-1.061c-.759 0-1.495.273-2.073.764a3.2 3.2 0 0 0-1.081 1.931l-.08.435-1.343 8.516-.06.313c-.017.1-.044.148-.085.182a.23.23 0 0 1-.14.05z"/><path fill="#179BD7" d="M33.486 11.152q-.062.39-.14.8c-1.797 9.238-7.946 12.43-15.798 12.43h-3.999c-.96 0-1.77.697-1.919 1.646L9.583 39.026l-.58 3.684a1.025 1.025 0 0 0 1.01 1.184h7.092c.84 0 1.553-.611 1.685-1.44l.07-.36 1.335-8.484.085-.465a1.706 1.706 0 0 1 1.686-1.443h1.06c6.871 0 12.25-2.793 13.821-10.874.657-3.376.317-6.195-1.42-8.178a6.8 6.8 0 0 0-1.941-1.498"/><path fill="#222D65" d="M31.606 10.402a14 14 0 0 0-1.748-.389 22 22 0 0 0-3.525-.257H15.652a1.7 1.7 0 0 0-1.684 1.443l-2.273 14.408-.065.42a1.944 1.944 0 0 1 1.92-1.646h3.998c7.852 0 14.001-3.193 15.798-12.429q.08-.41.14-.8a9.6 9.6 0 0 0-1.478-.624 13 13 0 0 0-.402-.127"/><path fill="#253B80" d="M13.968 11.199a1.7 1.7 0 0 1 1.684-1.442h10.681c1.266 0 2.447.083 3.525.258q1.096.172 2.152.513a10 10 0 0 1 1.477.624c.535-3.414-.004-5.738-1.848-7.843C29.607.992 25.94 0 21.244 0H7.616A1.95 1.95 0 0 0 5.69 1.648L.015 37.67a1.173 1.173 0 0 0 1.155 1.355h8.413l2.113-13.418z"/></g><defs><clipPath id="opo-mask-72792472"><path fill="#fff" d="M0 0h180.156v48H0z"/></clipPath></defs></svg>