<svg xmlns="http://www.w3.org/2000/svg" fill="none" viewBox="0 0 61 16" class="Icon Icon-paypal"><g clip-path="url(#opo-mask-36830988)"><path fill="#253B80" d="M22.38 3.272h-3.312a.46.46 0 0 0-.455.39l-1.34 8.502a.276.276 0 0 0 .273.319h1.582a.46.46 0 0 0 .454-.39l.362-2.293a.46.46 0 0 1 .454-.39h1.048c2.182 0 3.441-1.056 3.77-3.15.148-.917.006-1.637-.422-2.141-.471-.554-1.306-.847-2.414-.847m.382 3.106c-.181 1.19-1.09 1.19-1.968 1.19h-.5l.351-2.223a.28.28 0 0 1 .273-.233h.229c.598 0 1.162 0 1.454.342.174.203.227.506.16.924m9.518-.039h-1.586a.276.276 0 0 0-.273.234l-.07.444-.11-.161c-.344-.5-1.11-.666-1.874-.666-1.753 0-3.25 1.329-3.541 3.193-.152.93.064 1.82.59 2.44.484.57 1.175.807 1.998.807 1.412 0 2.195-.909 2.195-.909l-.07.441a.277.277 0 0 0 .272.32h1.429a.46.46 0 0 0 .454-.389l.858-5.435a.275.275 0 0 0-.272-.319m-2.21 3.09c-.154.908-.873 1.517-1.79 1.517-.46 0-.829-.148-1.065-.428-.235-.279-.324-.675-.25-1.116.144-.9.875-1.528 1.778-1.528.45 0 .817.15 1.058.432.242.286.337.685.268 1.124m10.657-3.09h-1.594a.46.46 0 0 0-.381.203l-2.198 3.241-.932-3.115a.46.46 0 0 0-.442-.329h-1.566a.276.276 0 0 0-.262.366l1.756 5.158-1.65 2.332a.277.277 0 0 0 .224.437h1.592a.46.46 0 0 0 .379-.198l5.3-7.66a.277.277 0 0 0-.226-.435"/><path fill="#179BD7" d="M46.004 3.272H42.69a.46.46 0 0 0-.454.39l-1.34 8.502a.277.277 0 0 0 .273.319h1.7a.32.32 0 0 0 .317-.273l.38-2.41a.46.46 0 0 1 .455-.39h1.047c2.183 0 3.441-1.056 3.77-3.15.15-.917.007-1.637-.422-2.141-.47-.554-1.305-.847-2.413-.847m.382 3.106c-.18 1.19-1.089 1.19-1.967 1.19h-.5l.351-2.223a.275.275 0 0 1 .273-.233h.229c.597 0 1.162 0 1.453.342.174.203.227.506.16.924m9.517-.039h-1.585a.275.275 0 0 0-.272.234l-.07.444-.111-.161c-.344-.5-1.109-.666-1.873-.666-1.753 0-3.25 1.329-3.54 3.193-.152.93.063 1.82.59 2.44.484.57 1.175.807 1.997.807 1.413 0 2.196-.909 2.196-.909l-.071.441a.277.277 0 0 0 .273.32h1.428a.46.46 0 0 0 .454-.389l.858-5.435a.276.276 0 0 0-.273-.319m-2.21 3.09c-.152.908-.872 1.517-1.79 1.517-.46 0-.828-.148-1.065-.428-.234-.279-.322-.675-.249-1.116.144-.9.875-1.528 1.778-1.528.45 0 .816.15 1.057.432.243.286.339.685.269 1.124m4.08-5.924-1.359 8.659a.276.276 0 0 0 .272.319h1.367a.46.46 0 0 0 .455-.39l1.34-8.502a.277.277 0 0 0-.272-.32h-1.53a.276.276 0 0 0-.273.234"/><path fill="#253B80" d="m3.519 14.135.253-1.61-.564-.013H.514L2.386.627a.15.15 0 0 1 .152-.13h4.543c1.508 0 2.549.314 3.092.934.255.29.417.595.495.93.083.35.084.77.004 1.281l-.006.038v.327l.255.145c.194.098.369.232.516.394q.327.374.418.94c.061.385.041.843-.06 1.363-.116.597-.304 1.117-.558 1.543a3.2 3.2 0 0 1-.883.97 3.6 3.6 0 0 1-1.19.537 6 6 0 0 1-1.489.172h-.353a1.07 1.07 0 0 0-1.051.899l-.027.145-.448 2.839-.02.104c-.005.033-.014.05-.028.06a.1.1 0 0 1-.046.017z"/><path fill="#179BD7" d="M11.162 3.717a8 8 0 0 1-.047.267c-.599 3.08-2.648 4.143-5.266 4.143H4.516c-.32 0-.59.233-.64.549l-.682 4.332-.193 1.229a.34.34 0 0 0 .337.394h2.364c.28 0 .517-.203.561-.48l.024-.12.445-2.828.028-.155a.57.57 0 0 1 .562-.48h.354c2.29 0 4.083-.932 4.607-3.625.219-1.126.105-2.065-.474-2.726a2.3 2.3 0 0 0-.647-.5"/><path fill="#222D65" d="M10.535 3.467a5 5 0 0 0-.582-.13 7.4 7.4 0 0 0-1.175-.085h-3.56a.57.57 0 0 0-.562.48l-.757 4.804-.022.14a.65.65 0 0 1 .64-.549h1.332c2.618 0 4.667-1.064 5.266-4.143q.027-.137.047-.267a3.2 3.2 0 0 0-.627-.25"/><path fill="#253B80" d="M4.656 3.733a.57.57 0 0 1 .561-.48h3.56q.635-.001 1.176.085.365.058.717.171.265.088.492.208c.179-1.138-.001-1.912-.616-2.614C9.87.331 8.647 0 7.082 0H2.54a.65.65 0 0 0-.642.55L.005 12.556a.39.39 0 0 0 .385.451h2.804l.706-4.47z"/></g><defs><clipPath id="opo-mask-36830988"><path fill="#fff" d="M0 0h60.052v16H0z"/></clipPath></defs></svg>