<svg xmlns="http://www.w3.org/2000/svg" fill="none" viewBox="0 0 39 16" class="Icon Icon-stripe-black"><path fill="#0A2540" fill-rule="evenodd" d="M38.538 8.267c0-2.734-1.328-4.892-3.865-4.892-2.548 0-4.09 2.158-4.09 4.87 0 3.216 1.82 4.84 4.433 4.84 1.274 0 2.237-.29 2.965-.695v-2.136c-.728.363-1.563.587-2.623.587-1.038 0-1.959-.363-2.076-1.623h5.234c0-.14.022-.695.022-.951m-5.289-1.015c0-1.207.739-1.709 1.413-1.709.654 0 1.35.502 1.35 1.71zm-6.797-3.877c-1.05 0-1.724.491-2.098.833l-.14-.662H21.86V16l2.677-.566.01-3.023c.386.278.953.673 1.895.673 1.916 0 3.661-1.538 3.661-4.924-.01-3.097-1.777-4.785-3.65-4.785m-.643 7.36c-.631 0-1.006-.225-1.263-.503l-.01-3.962c.278-.31.663-.524 1.273-.524.975 0 1.65 1.09 1.65 2.489 0 1.431-.665 2.5-1.65 2.5m-7.632-7.99 2.687-.577V0l-2.687.566zm0 .812h2.687v9.346h-2.687zm-2.88.79-.171-.79h-2.312v9.346h2.676V6.569c.632-.823 1.702-.673 2.034-.556V3.557c-.343-.128-1.595-.363-2.227.79M9.945 1.24l-2.612.555-.01 8.556c0 1.58 1.187 2.745 2.772 2.745.877 0 1.52-.16 1.873-.353v-2.168c-.342.139-2.034.63-2.034-.95V5.832h2.034V3.557H9.934zM2.708 6.27c0-.416.343-.576.91-.576.814 0 1.842.246 2.655.684v-2.51a7.1 7.1 0 0 0-2.655-.492C1.445 3.375 0 4.507 0 6.398c0 2.948 4.068 2.478 4.068 3.749 0 .491-.428.651-1.028.651-.888 0-2.023-.363-2.922-.854v2.542a7.4 7.4 0 0 0 2.922.609c2.227 0 3.758-1.1 3.758-3.012-.011-3.183-4.09-2.617-4.09-3.813" clip-rule="evenodd"/></svg>