<svg xmlns="http://www.w3.org/2000/svg" fill="none" viewBox="0 0 39 16" class="Icon Icon-stripe-purple"><path fill="#635BFF" fill-rule="evenodd" d="M38.549 8.267c0-2.734-1.328-4.892-3.866-4.892-2.548 0-4.09 2.158-4.09 4.87 0 3.216 1.82 4.84 4.433 4.84 1.274 0 2.238-.29 2.966-.695v-2.136c-.728.363-1.564.587-2.624.587-1.038 0-1.96-.363-2.077-1.623h5.236c0-.14.022-.695.022-.951m-5.29-1.015c0-1.207.739-1.709 1.413-1.709.654 0 1.35.502 1.35 1.71zm-6.8-3.877c-1.049 0-1.724.491-2.098.833l-.14-.662h-2.355V16l2.677-.566.01-3.023c.386.278.953.673 1.896.673 1.916 0 3.662-1.538 3.662-4.924-.011-3.097-1.778-4.785-3.652-4.785m-.642 7.36c-.632 0-1.007-.225-1.264-.503l-.01-3.962c.278-.31.663-.524 1.274-.524.974 0 1.649 1.09 1.649 2.489 0 1.431-.664 2.5-1.65 2.5m-7.635-7.99 2.688-.577V0l-2.688.566zm0 .812h2.688v9.346h-2.688zm-2.88.79-.172-.79h-2.313v9.346h2.677V6.569c.632-.823 1.703-.673 2.035-.556V3.557c-.343-.128-1.596-.363-2.227.79M9.948 1.24l-2.613.555-.01 8.556c0 1.58 1.188 2.745 2.773 2.745.878 0 1.52-.16 1.874-.353v-2.168c-.343.139-2.035.63-2.035-.95V5.832h2.035V3.557H9.937zM2.709 6.27c0-.416.343-.576.91-.576.814 0 1.842.246 2.656.684v-2.51a7.1 7.1 0 0 0-2.656-.492C1.446 3.375 0 4.507 0 6.398c0 2.948 4.069 2.478 4.069 3.749 0 .491-.428.651-1.028.651-.889 0-2.024-.363-2.923-.854v2.542a7.4 7.4 0 0 0 2.923.609c2.227 0 3.759-1.1 3.759-3.012C6.789 6.9 2.71 7.466 2.71 6.27" clip-rule="evenodd"/></svg>