<svg xmlns="http://www.w3.org/2000/svg" fill="none" viewBox="0 0 43 16" class="Icon Icon-visa"><g clip-path="url(#opo-mask-86442594)"><path fill="#1A1F71" d="M21.019 2.212 18.538 13.81h-3.001l2.481-11.598zm12.624 7.49 1.579-4.356.909 4.355zm3.349 4.108h2.774L37.342 2.212h-2.56c-.576 0-1.062.334-1.277.85L29.002 13.81h3.152l.625-1.732h3.85zm-7.833-3.786c.013-3.061-4.232-3.23-4.203-4.599.009-.415.405-.858 1.272-.971.43-.055 1.615-.1 2.959.52l.526-2.461A8.1 8.1 0 0 0 26.906 2c-2.966 0-5.053 1.576-5.07 3.834-.019 1.67 1.49 2.6 2.626 3.157 1.17.568 1.562.933 1.556 1.44-.008.779-.933 1.123-1.794 1.136-1.51.024-2.384-.408-3.082-.733l-.544 2.543c.702.321 1.996.601 3.336.615 3.153 0 5.215-1.557 5.225-3.968M16.73 2.212 11.869 13.81H8.698L6.305 4.554c-.145-.57-.271-.779-.713-1.019-.721-.392-1.912-.758-2.96-.986l.071-.337H7.81c.65 0 1.235.433 1.384 1.182l1.264 6.712 3.122-7.894z"/></g><defs><clipPath id="opo-mask-86442594"><path fill="#fff" d="M2.632 2h37.304v12H2.632z"/></clipPath></defs></svg>