<svg class="Icon Icon-pay-visa" xmlns="http://www.w3.org/2000/svg" fill-rule="evenodd" stroke-linejoin="round" stroke-miterlimit="2" clip-rule="evenodd" viewBox="0 0 143 46"><path fill="#1a1f71" fill-rule="nonzero" d="M70.481.812l-9.51 44.461H49.468L58.979.812h11.502zm48.392 28.709l6.054-16.696 3.484 16.696h-9.538zm12.838 15.752h10.636L133.055.812h-9.811c-2.211 0-4.075 1.282-4.9 3.259l-17.259 41.202h12.08l2.398-6.64h14.755l1.393 6.64zm-30.027-14.515c.05-11.734-16.221-12.384-16.112-17.627.035-1.593 1.555-3.29 4.877-3.724 1.647-.212 6.192-.384 11.344 1.99l2.015-9.432C101.041.964 97.48 0 93.049 0c-11.371 0-19.37 6.04-19.434 14.696-.073 6.401 5.714 9.97 10.065 12.102 4.486 2.179 5.989 3.576 5.967 5.523-.031 2.983-3.577 4.304-6.879 4.354-5.786.09-9.14-1.564-11.813-2.81l-2.088 9.747c2.692 1.232 7.652 2.304 12.788 2.359 12.089 0 19.993-5.969 20.029-15.213M54.045.812L35.408 45.273H23.251L14.079 9.79c-.556-2.182-1.041-2.984-2.732-3.906C8.581 4.382 4.015 2.977 0 2.103L.272.812h19.572c2.493 0 4.736 1.659 5.307 4.531l4.845 25.73L41.961.812h12.084z"/></svg>
