<svg xmlns="http://www.w3.org/2000/svg" fill="none" viewBox="0 0 103 33" class="Icon Icon-visa"><g clip-path="url(#a)"><path fill="#00579F" d="M44.633 32.524H36.29L41.51.579h8.343zM74.88 1.36C73.234.714 70.624 0 67.396 0c-8.24 0-14.042 4.35-14.077 10.569-.069 4.588 4.154 7.136 7.312 8.666 3.228 1.563 4.326 2.584 4.326 3.977-.033 2.14-2.609 3.127-5.011 3.127-3.331 0-5.116-.509-7.829-1.7l-1.098-.51L49.85 31.3c1.957.883 5.562 1.666 9.306 1.7 8.754 0 14.454-4.282 14.522-10.91.033-3.636-2.197-6.422-7.004-8.7-2.918-1.461-4.706-2.447-4.706-3.942.035-1.36 1.512-2.752 4.806-2.752 2.713-.068 4.706.577 6.215 1.223l.755.34zm11.09 19.847c.687-1.835 3.33-8.938 3.33-8.938-.034.068.686-1.869 1.098-3.058l.584 2.752s1.58 7.647 1.923 9.244zM96.268.58h-6.454c-1.99 0-3.502.578-4.361 2.65L73.06 32.525h8.755s1.442-3.943 1.751-4.792H94.28c.24 1.121.996 4.792.996 4.792H103zM29.32.58l-8.17 21.784-.894-4.418c-1.51-5.098-6.248-10.637-11.535-13.39l7.484 27.935h8.823L38.143.58z"/><path fill="#FAA61A" d="M13.562.58H.137L0 1.224c10.472 2.65 17.407 9.04 20.256 16.72l-2.918-14.68c-.48-2.04-1.957-2.619-3.776-2.686"/></g><defs><clipPath id="a"><path fill="#fff" d="M0 0h103v33H0z"/></clipPath></defs></svg>