<svg viewBox="0 0 512 512" xmlns="http://www.w3.org/2000/svg"  class="Icon Icon-challenge"><g stroke-width="1.63351"><path d="m317.96963 181.00859a4.2382623 3.717631 0 0 0 -3.10458-2.26424l-35.14442-6.11955 6.73238-50.01208a4.3254694 3.7941255 0 0 0 -2.91273-4.00831 4.4126764 3.87062 0 0 0 -1.34298-.18359 4.2731452 3.7482288 0 0 0 -3.69758 1.88177l-47.09181 71.6906a4.2731452 3.7482288 0 0 0 3.24411 5.58411l33.34796 3.05977-11.98224 48.40571a4.2731452 3.7482288 0 0 0 7.69166 2.93738l53.75443-67.54461a4.1684968 3.6564354 0 0 0 .45347-3.53405zm-49.04525 51.51138 8.49398-34.25422a4.3952349 3.855321 0 0 0 -.71511-3.05978 4.2033796 3.6870332 0 0 0 -3.01736-1.5299l-31.53406-2.96798 33.36541-50.88412-4.74406 35.34044a4.2731452 3.7482288 0 0 0 3.48828 4.1154l32.58055 5.63001z" fill="currentColor"/><g fill="currentColor"><path d="m266.72677 85.880076a9.854396 8.6438746 0 0 0 9.8544-8.643875v-65.616952a9.8544 8.6438782 0 0 0 -19.7088 0v65.616952a9.854396 8.6438746 0 0 0 9.8544 8.643875z"/><path d="m376.0844 152.15488a9.854396 8.6438746 0 0 0 13.83104 1.5299l58.93452-40.43498a9.874441 8.6614573 0 0 0 -12.20898-13.616014l-58.93452 40.434964a9.854396 8.6438746 0 0 0 -1.62206 12.08613z"/><path d="m330.99836 97.813212a9.8195132 8.6132768 0 0 0 7.97072-3.549342l43.01051-51.725558a9.854396 8.6438746 0 1 0 -15.90655-10.189062l-43.01052 51.69496a9.854396 8.6438746 0 0 0 7.93584 13.769002z"/><path d="m143.53811 156.94343a9.8744415 8.6614578 0 0 0 12.20898-13.61601l-58.93453-40.41967a9.8744411 8.6614574 0 0 0 -12.208983 13.61601z"/><path d="m194.48445 97.614328a9.8552661 8.6446377 0 1 0 15.92401-10.189064l-43.01052-51.69496a9.8552644 8.6446362 0 0 0 -15.924 10.189063z"/><path d="m214.89091 404.75491v-48.29861a61.690263 54.112184 0 0 0 -14.51126-35.30985c-29.65039-30.2765-52.70793-82.33864-20.02274-129.42863a81.207199 71.231646 0 0 1 15.29613-16.07914 8.5986146 7.5423543 0 0 0 -11.44158-11.24469 98.857906 86.714126 0 0 0 -18.55766 19.53669c-37.48158 53.9898-11.7555 112.96703 21.66223 147.08356a44.615124 39.134568 0 0 1 10.3602 25.50326v52.91887c-2.12784 4.1307-8.19745 6.11956-13.32523 7.48116-7.98818 2.21834-16.08099 4.1307-24.12148 6.22664a288.46346 253.02839 0 0 0 -46.06276 15.08471c-25.150505 10.95402-47.00459 28.37946-56.300861 52.09273-3.488282 8.82746 12.470606 12.60628 15.906564 3.84003 9.993927-25.44207 38.057147-40.75625 65.422727-49.7367 15.88912-5.20163 32.30148-8.90397 48.50456-13.26415 9.92416-2.67729 20.77271-7.64944 25.23771-15.68135a8.406759 7.3740665 0 0 0 1.91856-4.58968v-.70375a22.185472 19.460192 0 0 0 0-5.26282.50580085.4436679 0 0 0 .0349-.16828z"/><path d="m465.34954 500.72486a83.300169 73.067514 0 0 0 -58.51593-54.92303c-17.68559-4.48258-36.24326-5.99715-54.06838-10.26555-14.09266-3.39635-36.36533-8.46029-37.11532-23.74389a7.9009582 6.9303986 0 0 0 .22674-.97911v-40.87865a3.4882817 3.0597786 0 0 1 3.48828-3.05978h29.6504a29.09227 25.518554 0 0 0 28.97019-25.54915v-31.05676h6.55796a19.429729 17.042966 0 0 0 14.66823-28.21116l-22.81336-23.07073a9.1218569 8.001321 0 0 1 -1.58716-4.58967v-2.26423a9.3137122 8.1696088 0 0 1 2.35458-5.43112 26.4935 23.239019 0 0 0 6.4882-18.48106 132.3803 116.1186 0 0 0 -20.42389-46.12615 8.5839254 7.5294695 0 1 0 -14.28451 8.35319 116.02025 101.76823 0 0 1 17.66814 39.77713 9.1218569 8.001321 0 0 1 -2.28482 6.48673 26.510942 23.254318 0 0 0 -6.74982 15.42128v2.29483a26.388851 23.147226 0 0 0 5.00568 13.58542l.48836.53546 23.10987 23.36141a2.1104104 1.851166 0 0 1 .34883 2.11125 2.1278519 1.866465 0 0 1 -2.04065 1.14742h-15.22635a8.5811732 7.5270554 0 0 0 -8.58117 7.52705v38.62971a11.877599 10.418546 0 0 1 -11.86016 10.41854h-29.65039a20.615745 18.083292 0 0 0 -20.47621 18.19039v40.93983a9.3137122 8.1696088 0 0 0 .22674.99443c-.81975 31.76051 52.46374 39.14987 79.0619 43.46416 17.0577 2.7079 34.20261 5.07923 48.0162 15.00821a67.794757 59.466798 0 0 1 23.49356 34.22361c2.09299 9.17934 17.99954 5.26282 15.85426-3.84001z"/></g></g></svg>
