<svg xmlns="http://www.w3.org/2000/svg" fill="none" viewBox="0 0 24 24" class="Icon Icon-challenge"><mask id="a" width="21" height="21" x="2" y="2" maskUnits="userSpaceOnUse" style="mask-type:alpha"><path fill="currentColor" fill-rule="evenodd" d="M2.22 2.22a.75.75 0 0 1 1.06 0l8.97 8.97 8.97-8.97a.75.75 0 1 1 1.06 1.06l-8.97 8.97 5.471 5.47 2.501-2.5a.75.75 0 1 1 1.06 1.06l-2.5 2.501 2.438 2.439a.75.75 0 1 1-1.06 1.06l-2.439-2.438-2.438 2.438a.75.75 0 1 1-1.06-1.06l2.438-2.439-5.471-5.47-5.174 5.173 2.736 2.736a.75.75 0 1 1-1.061 1.06l-2.735-2.735L3.28 22.28a.75.75 0 0 1-1.06-1.06l2.735-2.736L2.22 15.75a.75.75 0 0 1 1.06-1.06l2.736 2.735 5.173-5.174-8.97-8.97a.75.75 0 0 1 0-1.06" clip-rule="evenodd"/></mask><g mask="url(#a)"><path fill="currentColor" d="M0 0h24v24H0z"/></g></svg>