<svg viewBox="0 0 212 133" xmlns="http://www.w3.org/2000/svg" class="svg-logo-opositatest-2"><path d="m131.71 23.46c1.501032 3.4857209 2.322418 7.2260803 2.42 11.02.396313 7.5436927-2.487695 14.8904395-7.91 20.15-5.314112 5.4838552-12.654444 8.5335841-20.29 8.43-7.6254161.1172431-14.9592425-2.927055-20.26-8.41-5.5390985-5.3508939-8.7443311-12.6704664-8.92-20.37-.4016243-7.5445532 2.483217-14.8934221 7.91-20.15 5.3038476-5.48679949 12.6395223-8.53760054 20.27-8.43 7.629006-.11581838 14.967258 2.92369417 20.28 8.4.13.13.24.27.37.4l13.52-13.53 4.72 4.72-37.91 38-15.7-15.7 4-4 10.93 10.93 16.34-16.35c-.12-.13-.24-.27-.37-.4-4.109868-4.2583351-9.847215-6.5518177-15.76-6.3-5.9889433.0659315-11.7015685 2.5296362-15.86 6.84-4.247394 4.0986726-6.5492838 9.8115776-6.33 15.71.0726865 5.993565 2.5476518 11.7072405 6.87 15.86 4.0997184 4.2807909 9.8371581 6.5997941 15.76 6.37 3.615014-.0409711 7.166295-.9570986 10.35-2.67l-7.39-7.39 4-4 8 8c.28-.25.56-.49.83-.76 4.262591-4.110575 6.572078-9.8424677 6.35-15.76-.045274-2.0095846-.344309-4.0053938-.89-5.94zm-125.86 53.33c2.3330897-2.4075068 5.5578986-3.7430337 8.91-3.69 3.3862467-.0551855 6.6583764 1.2234953 9.11 3.56 2.4710031 2.2233306 3.8601632 5.4063666 3.81 8.73.0549881 3.3583288-1.2804116 6.5900684-3.69 8.93-2.3310249 2.4105435-5.5572118 3.7466411-8.91 3.69-3.3831929.0547059-6.65203547-1.2240941-9.1-3.56-2.47365523-2.2256368-3.86306738-5.4128972-3.81-8.74-.05842384-3.3540659 1.27361275-6.5828068 3.68-8.92zm18.89 8.54c.0298775-2.6126856-1.0537891-5.1145736-2.98-6.88-1.8686683-1.8274271-4.3864547-2.8381385-7-2.81-2.5983846-.0430541-5.09120877 1.0268588-6.85 2.94-1.84227216 1.8834031-2.85417327 4.4257596-2.81 7.06-.04818061 2.5952887 1.01424752 5.0876287 2.92 6.85 1.88542944 1.8368712 4.4282206 2.8417419 7.06 2.79 2.6031463.0420785 5.0999146-1.0316046 6.86-2.95 1.8275338-1.8678398 2.8352212-4.3870582 2.8-7zm24.42-11.46c1.5717466.1477128 3.054528.7962106 4.23 1.85 1.1187609.9907692 1.7412533 2.4261635 1.7 3.92v.83c.0331545 1.5678975-.53587 3.0888748-1.59 4.25-1.078822 1.1755506-2.5681398 1.8915688-4.16 2h-4.93v10.65h-2.9v-23.6zm2.17 8.92c.5336614-.7475149.8235277-1.6415604.83-2.56.0102935-.7503492-.1906949-1.4884617-.58-2.13-.4151177-.66598-1.0420087-1.1731277-1.78-1.44-.506794-.175779-1.0291403-.3030172-1.56-.38h-3.83v8.08h4.75c.8844775-.2538734 1.6521977-.8093207 2.17-1.57zm43.11 2.6c.0439208 3.3445014-1.2906027 6.5596543-3.69 8.89-2.3312857 2.4329596-5.5708449 3.7845878-8.94 3.73-3.3831929.0547059-6.6520355-1.2240941-9.1-3.56-2.4736552-2.2256368-3.8630674-5.4128972-3.81-8.74-.053639-3.3531592 1.2776451-6.580076 3.68-8.92 2.3402616-2.4151862 5.5775334-3.7513755 8.94-3.69 3.3862467-.0551855 6.6583764 1.2234953 9.11 3.56 2.4710031 2.2233306 3.8601632 5.4063666 3.81 8.73zm-12.6 9.9v-.01c2.6066112.0449537 5.1075871-1.0289733 6.87-2.95 1.8275338-1.8678398 2.8352212-4.3870582 2.8-7 .0449436-2.6025091-1.0206372-5.1009869-2.93-6.87-1.882159-1.8441843-4.4253494-2.8564173-7.06-2.81-2.5983846-.0430541-5.0912088 1.0268588-6.85 2.94-1.8422722 1.8834031-2.8541733 4.4257596-2.81 7.06-.0481806 2.5952887 1.0142475 5.0876287 2.92 6.85 1.8854294 1.8368712 4.4282206 2.8417419 7.06 2.79zm38.74.93c-1.462127 1.030876-3.211076 1.576548-5 1.56-1.577921.0155704-3.130236-.3993021-4.49-1.2-.696627-.4944892-1.279626-1.1320386-1.71-1.87-.457012-.8534265-.815963-1.7558365-1.07-2.69l2.58-1.31c-.029726 1.2728875.495905 2.4957102 1.44 3.35.907359.8726118 2.121207 1.3538417 3.38 1.34.512778-.0006604 1.022287-.081642 1.51-.24.530131-.1760602 1.027011-.439711 1.47-.78.499164-.3830735.89451-.8849912 1.15-1.46.287072-.6062141.434036-1.2692618.43-1.94.065174-.8105302-.181638-1.6153541-.69-2.25-.320726-.3733905-.683078-.708901-1.08-1-.52043-.2952079-1.058058-.5590126-1.61-.79l-4.08-1.44c-1.156899-.5273709-2.166496-1.3309273-2.94-2.34-.732056-.9660808-1.122496-2.1479511-1.11-3.36.034162-.5854046.11441-1.1672061.24-1.74.249674-1.0084436.772084-1.9287165 1.51-2.66.717415-.8604169 1.6977-1.4612367 2.79-1.71.888217-.1868547 1.79243-.2873228 2.7-.3.34 0 .6-.02.79 0s.69.11 1.49.27c.952384.2440203 1.828847.7217784 2.55 1.39.886957.7438213 1.542733 1.7257498 1.89 2.83l-2.52 1.18c-.231967-.9777454-.834225-1.8273596-1.68-2.37-.863771-.5970755-1.889963-.9147062-2.94-.91-.734078-.0123934-1.459542.1595175-2.11.5-.634563.3317711-1.153963.8476851-1.49 1.48-.246667.5506652-.376075 1.1466251-.38 1.75-.032872 1.3755219.752397 2.6398045 2 3.22l6.06 2.23c1.062279.5779875 1.939383 1.4446906 2.53 2.5.581402 1.0240635.884779 2.1824127.88 3.36-.000115 1.005989-.211333 2.0007583-.62 2.92-.432084.9548905-1.070785 1.801938-1.87 2.48zm16.35-22.45h2.77v23.6h-2.77zm23.4 23.6v-21.11h-6.79v-2.49h16.52v2.49h-6.8v21.11zm23.56 0 10.36-24.27h.77l10.58 24.28h-3.31l-3-7.34h-9.4l-3 7.33zm14.58-9.47-3.97-10.19-3.83 10.19zm-143.95 22.63v-2.49h16.51v2.49h-6.79v21.1h-2.93v-21.1zm30.83 21.1v-23.59h12.82v2.55h-9.98v6.98h9.98v2.43h-9.98v9.08h9.98v2.55zm38.55-12.35c1.056441.558634 1.933483 1.404477 2.53 2.44.574062 1.026571.873709 2.183828.87 3.36.004938 1.009735-.206471 2.008814-.62 2.93-.430894.952909-1.065858 1.799527-1.86 2.48-1.462429 1.030264-3.211176 1.575873-5 1.56-1.606385.01333-3.184957-.419393-4.56-1.25-.691247-.496483-1.273253-1.129541-1.71-1.86-.459102-.854804-.814933-1.761167-1.06-2.7l2.58-1.3c-.026709 1.267344.494466 2.484634 1.43 3.34.904559.878114 2.119392 1.363328 3.38 1.35.516016-.001086 1.028753-.082045 1.52-.24.529283-.166129 1.023982-.427032 1.46-.77.502336-.383997.898195-.890009 1.15-1.47.285934-.603056.432878-1.262597.43-1.93.064532-.811927-.17815-1.618489-.68-2.26-.322535-.37524-.688422-.710916-1.09-1-.518462-.301834-1.0563-.569082-1.61-.8l-4.08-1.43c-1.154149-.531936-2.160208-1.338844-2.93-2.35-.739062-.962978-1.133463-2.14618-1.12-3.36.034162-.585405.11441-1.167206.24-1.74.255628-1.005377.78124-1.92174 1.52-2.65.720321-.857049 1.699383-1.457119 2.79-1.71.884762-.187334 1.785705-.287811 2.69-.3.34 0 .61-.02.8 0s.68.11 1.48.27c.952384.24402 1.828847.721778 2.55 1.39.90652.767376 1.570163 1.781951 1.91 2.92l-2.52 1.18c-.24342-.977894-.846978-1.827874-1.69-2.38-.861532-.593965-1.883563-.911387-2.93-.91-.721138-.013827-1.434871.14745-2.08.47-.62978.341991-1.139401.869065-1.46 1.51-.254445.548462-.387476 1.145395-.39 1.75-.031666 1.377691.752609 2.644294 2 3.23zm34.24-11.24v2.49h-6.79v21.1h-2.93v-21.1h-6.79v-2.49zm-151.65-7.02v15.45h48.03v6.68h-48.03v.07h-5.66v-22.2zm199.68 15.45v-15.45h5.66v22.2h-5.66v-.07h-48.03v-6.68zm0-46.17v-15.45h-48.03v-6.68h48.03v-.07h5.66v22.2zm-199.68-15.45v15.45h-5.66v-22.2h5.66v.07h48.03v6.68z"/></svg>
