<svg viewBox="0 0 306 85" xmlns="http://www.w3.org/2000/svg" class="svg-logo-opositatest-2"><path d="m64.26 31.28c1.7542833 4.0596929 2.7116605 8.4188147 2.82 12.84.4720056 8.8062952-2.8946093 17.3851447-9.23 23.52-6.1854261 6.399148-14.7409815 9.9567245-23.64 9.83-8.8917763.1353806-17.4438899-3.4114122-23.63-9.8-6.44659774-6.2450021-10.17547836-14.7768821-10.38-23.75-.47600662-8.8069413 2.89123671-17.3873923 9.23-23.52 6.188169-6.3951222 14.7419017-9.9519409 23.64-9.83 8.8917763-.1353806 17.4438899 3.4114122 23.63 9.8l.44.46 15.74-15.74 5.5 5.5-44.17 44.31-18.3-18.3 4.67-4.66 12.71 12.74 19.03-19.09c-.15-.15-.28-.31-.44-.46-4.7880925-4.9616764-11.470752-7.6369241-18.36-7.35-6.9890988.0819417-13.6533009 2.9637589-18.5 8-4.951251 4.7806975-7.63473286 11.4421322-7.38 18.32.08684105 6.9851401 2.9680892 13.6444249 8 18.49 4.7920474 4.9547356 11.4729445 7.6256389 18.36 7.34 4.2118029-.0502572 8.3491394-1.1171823 12.06-3.11l-8.61-8.62 4.66-4.66 9.37 9.36c.36-.29.69-.57 1-.88 4.9459739-4.8061917 7.6147112-11.4889428 7.34-18.38-.0406716-2.3395679-.3766636-4.6646322-1-6.92zm35.39-1.69c2.33856-2.4116097 5.571216-3.7473879 8.93-3.69 3.37975-.0520679 6.644516 1.2265424 9.09 3.56 2.47428 2.2209655 3.864126 5.405572 3.81 8.73.065113 3.3699758-1.266889 6.6167312-3.68 8.97-2.336846 2.4008108-5.56007 3.7320637-8.91 3.68-3.387025.0595166-6.660741-1.219784-9.11-3.56-2.4849416-2.2301632-3.875804-5.4317022-3.81-8.77-.053639-3.3531592 1.2776451-6.580076 3.68-8.92zm18.93 8.54c.023861-2.6069292-1.067868-5.09971-3-6.85-1.862943-1.8385123-4.38276-2.8572382-7-2.83-2.601712-.0513528-5.101454 1.0111287-6.87 2.92-1.8395703 1.8844163-2.8479563 4.4269896-2.8 7.06-.0469146 2.5930009 1.0111355 5.0836001 2.91 6.85 1.898109 1.8412837 4.456294 2.8429389 7.1 2.78 2.596082.0417758 5.08716-1.023751 6.85-2.93 1.829306-1.8674424 2.840343-4.3860415 2.81-7zm24.39-11.46c1.568416.1491038 3.047596.7975595 4.22 1.85 1.124046.9919961 1.750336 2.4313647 1.71 3.93v.83c.028555 1.5641179-.540025 3.0803312-1.59 4.24-1.082519 1.1761754-2.575138 1.8920599-4.17 2h-4.92v10.65h-2.9v-23.6zm2.17 8.91c.521658-.7473827.797761-1.6386011.79-2.55.013306-.74938-.184198-1.4874235-.57-2.13-.408583-.6575701-1.024208-1.1606237-1.75-1.43-.509876-.1769278-1.035651-.3041855-1.57-.38h-3.82v8.07h4.75c.883731-.2609975 1.650248-.8191073 2.17-1.58zm43.1 2.61c.059265 3.3531967-1.264451 6.5829194-3.66 8.93-2.325227 2.4104297-5.541038 3.7560784-8.89 3.72-3.387025.0595166-6.660741-1.219784-9.11-3.56-2.499764-2.222802-3.90568-5.4253668-3.85-8.77-.05461-3.355329 1.280948-6.5838318 3.69-8.92 2.331025-2.4105435 5.557212-3.7466411 8.91-3.69 3.383193-.0547059 6.652035 1.2240941 9.1 3.56 2.47428 2.2209655 3.864126 5.405572 3.81 8.73zm-12.59 9.9c2.586451.0147164 5.057772-1.0683037 6.8-2.98 1.829306-1.8674424 2.840343-4.3860415 2.81-7 .043669-2.6022599-1.021699-5.1002395-2.93-6.87-1.868668-1.8274271-4.386455-2.8381385-7-2.81-2.601343-.0433535-5.097364 1.0263697-6.86 2.94-1.83957 1.8844163-2.847956 4.4269896-2.8 7.06-.046915 2.5930009 1.011136 5.0836001 2.91 6.85 1.885854 1.8447603 4.432314 2.856861 7.07 2.81zm38.77.93c-1.46521 1.0322648-3.21777 1.577972-5.01 1.56-1.605428.0163451-3.183931-.4128971-4.56-1.24-.689479-.5025272-1.270983-1.1384403-1.71-1.87-.453252-.8540052-.808829-1.7563646-1.06-2.69l2.56-1.31c-.028299 1.2705504.492902 2.4915443 1.43 3.35.908536.8707802 2.121605 1.3517011 3.38 1.34.516016-.0010862 1.028753-.0820448 1.52-.24.530131-.1760602 1.027011-.439711 1.47-.78.494026-.3857685.885536-.8871758 1.14-1.46.294523-.5977144.451689-1.2537139.46-1.92.066964-.8091058-.176117-1.613417-.68-2.25-.323654-.374155-.689407-.7097082-1.09-1-.519347-.2972543-1.057102-.561122-1.61-.79l-4.08-1.44c-1.160715-.5163904-2.174557-1.3137164-2.95-2.32-.741192-.9656817-1.135712-2.1527655-1.12-3.37.034354-.5820834.114603-1.1605468.24-1.73.255584-1.0112036.78094-1.9340334 1.52-2.67.720842-.8544589 1.70014-1.4511639 2.79-1.7.884873-.1866468 1.785749-.2871163 2.69-.3.34 0 .61-.02.8 0s.68.11 1.48.27c.952022.2395331 1.828768.714007 2.55 1.38.9019.748693 1.568573 1.7417582 1.92 2.86l-2.52 1.18c-.233445-.9798272-.83971-1.8300325-1.69-2.37-.859536-.5980609-1.882887-.9158935-2.93-.91-.720311-.016929-1.434001.1409063-2.08.46-.630095.3461723-1.139471.8764815-1.46 1.52-.255655.5480515-.388746 1.1452534-.39 1.75-.030261 1.3748094.754193 2.6377799 2 3.22l6.06 2.23c1.065312.5773609 1.945803 1.4439866 2.54 2.5.569506 1.0175344.869016 2.1639328.87 3.33.007128 1.0099578-.204378 2.0094979-.62 2.93-.42686.9552885-1.062444 1.8027337-1.86 2.48zm16.32-22.45h2.77v23.6h-2.77zm23.4 23.6v-21.11h-6.8v-2.49h16.52v2.49h-6.79v21.11zm23.56 0 10.36-24.27h.76l10.59 24.27h-3.31l-3-7.33h-9.4l-3 7.33zm14.57-9.47-3.96-10.19-3.83 10.19zm-143.95 22.62v-2.48h16.52v2.48h-6.79v21.11h-2.93v-21.11zm30.84 21.11v-23.59h12.81v2.55h-9.98v6.98h9.98v2.42h-9.98v9.09h9.98v2.55zm38.55-12.4c1.04545.578846 1.905366 1.4422296 2.48 2.49.581402 1.0240635.884779 2.1824127.88 3.36.00108 1.0061141-.210191 2.0011294-.62 2.92-.434234.9564724-1.072493 1.806347-1.87 2.49-1.463321 1.0273282-3.212171 1.5694719-5 1.55-1.580054.0178998-3.13534-.3933869-4.5-1.19-.690734-.4940354-1.26992-1.127733-1.7-1.86-.461113-.8550191-.820238-1.7612232-1.07-2.7l2.58-1.31c-.029726 1.2728875.495905 2.4957102 1.44 3.35.906765.8735338 2.121008 1.3549199 3.38 1.34.512778-.0006604 1.022287-.081642 1.51-.24.530131-.1760602 1.027011-.439711 1.47-.78.499164-.3830735.89451-.8849912 1.15-1.46.28235-.6078229.429077-1.269799.43-1.94.065174-.8105302-.181638-1.6153541-.69-2.25-.319221-.3748376-.681751-.710513-1.08-1-.519615-.2996891-1.057313-.5668684-1.61-.8l-4.08-1.44c-1.156899-.5273709-2.166496-1.3309273-2.94-2.34-.732056-.9660808-1.122496-2.1479511-1.11-3.36.034162-.5854046.11441-1.1672061.24-1.74.249674-1.0084436.772084-1.9287165 1.51-2.66.717415-.8604169 1.6977-1.4612367 2.79-1.71.888217-.1868547 1.79243-.2873228 2.7-.3.33 0 .6-.02.79 0s.69.11 1.49.27c.952384.2440203 1.828847.7217784 2.55 1.39.89152.7438541 1.548062 1.7304029 1.89 2.84l-2.52 1.18c-.232062-.9830705-.838347-1.8368911-1.69-2.38-.859536-.5980609-1.882887-.9158935-2.93-.91-.721847-.0227895-1.438612.1281082-2.09.44-.632299.3524676-1.141732.8898145-1.46 1.54-.246667.5506652-.376075 1.1466251-.38 1.75-.032872 1.3755219.752397 2.6398045 2 3.22zm34.24-11.19v2.48h-6.79v21.11h-2.94v-21.11h-6.79v-2.48zm-151.65-7.02v15.45h48.02v6.68h-48.02v.07h-5.66v-22.2zm199.67 15.45v-15.45h5.66v22.2h-5.66v-.07h-48.02v-6.68zm0-61.62h-199.67v15.45h-5.66v-22.2h5.66v.07h199.67v-.07h5.66v22.2h-5.66z"/></svg>
