<svg viewBox="0 0 90 83" xmlns="http://www.w3.org/2000/svg" class="Icon Icon-isotipo"><path fill="currentColor" d="m73.88 29.91-6.19 6.18c.7287289 2.5619778 1.1253081 5.2069595 1.18 7.87.304736 7.8431412-2.7467544 15.4445893-8.39 20.9-.36.36-.73.67-1.1 1l-10.65-10.65c-1.76 1.77-3.53 3.53-5.3 5.3l9.8 9.8c-4.2209009 2.2692512-8.9280958 3.4837898-13.72 3.54-7.8328309.3247905-15.4310125-2.7137544-20.88-8.35-5.7253814-5.4973776-9.00392821-13.0632549-9.1-21-.29743012-7.8193563 2.75034-15.395138 8.38-20.83 5.5101844-5.7030972 13.0704897-8.9684291 21-9.07 7.8319475-.3196331 15.4280962 2.7180988 20.88 8.35.18.18.33.36.5.53l-21.67 21.67-14.48-14.48-5.31 5.3 20.81 20.81 50.25-50.39-6.26-6.25-17.9 17.9c-.17-.18-.32-.35-.5-.53-7.0345056-7.2638348-16.7594447-11.29568527-26.87-11.14-10.1183688-.1396295-19.8451453 3.9059569-26.88 11.18-7.18530395 6.9792965-10.99651589 16.7279755-10.45 26.73.23410933 10.2046256 4.48103404 19.9057227 11.82 27 7.0317567 7.2678759 16.758528 11.3004859 26.87 11.14 10.1061826.1481268 19.8251476-3.8827471 26.86-11.14 7.2023384-6.9795773 11.031462-16.7347253 10.5-26.75-.1279491-5.0324008-1.213998-9.9942865-3.2-14.62z"/></svg>
