<svg viewBox="0 0 512 512" xmlns="http://www.w3.org/2000/svg" class="Icon Icon-opocoin-bag"><g fill="none" fill-rule="nonzero"><path d="m309.947 150.069c102.498 109.241 140.26 228.414 140.26 273.655s-133.517 88.276-194.207 88.276-194.207-43.034-194.207-88.276 37.762-164.414 140.26-273.655" fill="#895438"/><path d="m287.741 150.069c47.708 55.172 126.1 216.903 118.328 264.828-5.244 32.334-35.972 62.522-72.662 84.23 57.517-16.107 116.8-45.255 116.8-75.402 0-45.241-37.762-164.414-140.26-273.656z" fill="#9d6e48"/><path d="m150.069 414.897c-14.712-44.138 92.69-264.828 92.69-264.828h-40.705c-102.499 109.241-140.261 228.414-140.261 273.655 0 41.663 113.19 81.425 178.499 87.459-36.288-7.772-72.871-44.229-90.223-96.286z" fill="#6c392c"/><path d="m313.379 150.069h-114.758c-7.313 0-13.241-5.929-13.241-13.241 0-7.313 5.929-13.241 13.241-13.241h114.759c7.313 0 13.241 5.929 13.241 13.241 0 7.312-5.929 13.241-13.242 13.241z" fill="#ffe159"/><path d="m308.966 123.586 26.483-105.931s-20.598-17.655-35.31-17.655-22.806 17.655-44.139 17.655-29.426-17.655-44.138-17.655-35.31 17.655-35.31 17.655l26.483 105.931" fill="#895438"/><path d="m335.448 17.655s-18.351-15.593-32.792-17.322l-29.001 123.253h35.31z" fill="#9d6e48"/><path d="m203.027 291.311c-1.821 0-3.659-.563-5.237-1.728-3.922-2.897-4.753-8.424-1.856-12.345 15.594-21.113 19.388-50.879 22.735-77.142 3.622-28.416 6.749-52.957 23.04-65.789 3.829-3.016 9.38-2.359 12.396 1.472 3.017 3.83 2.358 9.38-1.472 12.396-10.615 8.362-13.45 30.604-16.451 54.152-3.619 28.401-7.722 60.589-26.048 85.4-1.73 2.344-4.402 3.584-7.107 3.584z" fill="#ffc83c"/><path d="m300.136 247.172c-2.153 0-4.311-.783-6.012-2.367-19.095-17.771-23.51-41.588-27.058-60.725-3.425-18.476-5.995-30.054-15.27-35.078-4.287-2.322-5.88-7.679-3.559-11.966 2.321-4.288 7.68-5.88 11.966-3.559 17.161 9.293 20.75 28.657 24.222 47.382 3.392 18.3 6.901 37.22 21.726 51.021 3.569 3.321 3.769 8.907.447 12.476-1.737 1.872-4.098 2.816-6.462 2.816z" fill="#ffe159"/><path d="m242.759 150.069h-44.138c-7.313 0-13.241-5.929-13.241-13.241 0-7.313 5.929-13.241 13.241-13.241h44.138c7.313 0 13.241 5.929 13.241 13.241 0 7.312-5.929 13.241-13.241 13.241z" fill="#ffc83c"/><g fill="#6c392c" transform="translate(176)"><path d="m.552 17.655 26.483 105.931h39.724l-30.897-123.586c-14.713 0-35.31 17.655-35.31 17.655z"/><path d="m80 123.586 14.071-56.286c1.933-7.732 10.04-12.182 17.601-9.662l.036.012c6.95 2.316 10.842 9.696 8.83 16.739l-14.056 49.196h-26.482z"/></g><circle cx="317.793" cy="353.103" fill="#ffc83c" r="44.138"/><path d="m361.931 353.103c0-24.376-19.762-44.138-44.138-44.138v88.276c24.376 0 44.138-19.761 44.138-44.138z" fill="#ffe159"/><circle cx="317.793" cy="353.103" fill="#d49002" r="30.897"/><circle cx="211.862" cy="361.931" fill="#ffc83c" r="44.138"/><path d="m256 361.931c0-24.376-19.762-44.138-44.138-44.138v88.276c24.376 0 44.138-19.762 44.138-44.138z" fill="#ffe159"/><circle cx="211.862" cy="361.931" fill="#d49002" r="30.897"/><circle cx="264.828" cy="388.414" fill="#ffc83c" r="44.138"/><path d="m34.4372116 14.4717214-2.9240263 3.0042068c.3442363 1.2454226.531572 2.5311947.5574073 3.8257456.1439509 3.8126891-1.2975092 7.5078869-3.9632602 10.1598582-.1700564.1750023-.3448367.3256988-.5196169.4861176l-5.0308368-5.1771526c-.8313871.8604282-1.667498 1.7159952-2.5036089 2.5764234l4.6293146 4.7639526c-1.9938651 1.1031229-4.2174453 1.6935316-6.4810404 1.7208563-3.7000652.1578864-7.2892869-1.3192038-9.86327438-4.0590821-2.70455016-2.672372-4.25326696-6.3502783-4.29864926-10.2084698-.14049975-3.8011269 1.29920297-7.4838478 3.95853636-10.1258299 2.60289558-2.77237605 6.17422538-4.3597114 9.91995988-4.4090868 3.6996478-.15537928 7.2879092 1.3213157 9.8632743 4.0590821.0850282.0875011.1558851.1750023.2361895.2576423l-10.2364538 10.5341687-6.8400485-7.038983-2.50833267 2.5764233 9.83020787 10.1161076 23.7370467-24.49546661-2.9570928-3.03823509-8.4555848 8.70150529c-.0803044-.08750117-.1511613-.17014117-.2361895-.25764234-3.322953-3.53107804-7.9168104-5.49103157-12.6928248-5.41535022-4.7797054-.06787635-9.3744307 1.89875445-12.69754861 5.43479493-3.39418698 3.39275894-5.19452362 8.13176354-4.93636097 12.99392384.11058835 4.9606482 2.11674656 9.6765224 5.58352025 13.1251756 3.32165448 3.5330424 7.91637733 5.4933652 12.69282483 5.4153502 4.7739488.072007 9.3649842-1.8874718 12.688101-5.4153502 3.4022337-3.3928955 5.2110314-8.1350448 4.9599799-13.0036462-.0604405-2.4463387-.5734672-4.8583987-1.5116129-7.1070395z" fill="#ffc843" transform="translate(299 332)"/><path d="m308.966 388.414c0-24.376-19.762-44.138-44.138-44.138v88.276c24.376 0 44.138-19.762 44.138-44.138z" fill="#ffe159"/><circle cx="264.828" cy="388.414" fill="#d49002" r="30.897"/><g fill="#ffc843"><path d="m34.4372116 14.4717214-2.9240263 3.0042068c.3442363 1.2454226.531572 2.5311947.5574073 3.8257456.1439509 3.8126891-1.2975092 7.5078869-3.9632602 10.1598582-.1700564.1750023-.3448367.3256988-.5196169.4861176l-5.0308368-5.1771526c-.8313871.8604282-1.667498 1.7159952-2.5036089 2.5764234l4.6293146 4.7639526c-1.9938651 1.1031229-4.2174453 1.6935316-6.4810404 1.7208563-3.7000652.1578864-7.2892869-1.3192038-9.86327438-4.0590821-2.70455016-2.672372-4.25326696-6.3502783-4.29864926-10.2084698-.14049975-3.8011269 1.29920297-7.4838478 3.95853636-10.1258299 2.60289558-2.77237605 6.17422538-4.3597114 9.91995988-4.4090868 3.6996478-.15537928 7.2879092 1.3213157 9.8632743 4.0590821.0850282.0875011.1558851.1750023.2361895.2576423l-10.2364538 10.5341687-6.8400485-7.038983-2.50833267 2.5764233 9.83020787 10.1161076 23.7370467-24.49546661-2.9570928-3.03823509-8.4555848 8.70150529c-.0803044-.08750117-.1511613-.17014117-.2361895-.25764234-3.322953-3.53107804-7.9168104-5.49103157-12.6928248-5.41535022-4.7797054-.06787635-9.3744307 1.89875445-12.69754861 5.43479493-3.39418698 3.39275894-5.19452362 8.13176354-4.93636097 12.99392384.11058835 4.9606482 2.11674656 9.6765224 5.58352025 13.1251756 3.32165448 3.5330424 7.91637733 5.4933652 12.69282483 5.4153502 4.7739488.072007 9.3649842-1.8874718 12.688101-5.4153502 3.4022337-3.3928955 5.2110314-8.1350448 4.9599799-13.0036462-.0604405-2.4463387-.5734672-4.8583987-1.5116129-7.1070395z" transform="translate(246 367)"/><path d="m34.4372116 14.4717214-2.9240263 3.0042068c.3442363 1.2454226.531572 2.5311947.5574073 3.8257456.1439509 3.8126891-1.2975092 7.5078869-3.9632602 10.1598582-.1700564.1750023-.3448367.3256988-.5196169.4861176l-5.0308368-5.1771526c-.8313871.8604282-1.667498 1.7159952-2.5036089 2.5764234l4.6293146 4.7639526c-1.9938651 1.1031229-4.2174453 1.6935316-6.4810404 1.7208563-3.7000652.1578864-7.2892869-1.3192038-9.86327438-4.0590821-2.70455016-2.672372-4.25326696-6.3502783-4.29864926-10.2084698-.14049975-3.8011269 1.29920297-7.4838478 3.95853636-10.1258299 2.60289558-2.77237605 6.17422538-4.3597114 9.91995988-4.4090868 3.6996478-.15537928 7.2879092 1.3213157 9.8632743 4.0590821.0850282.0875011.1558851.1750023.2361895.2576423l-10.2364538 10.5341687-6.8400485-7.038983-2.50833267 2.5764233 9.83020787 10.1161076 23.7370467-24.49546661-2.9570928-3.03823509-8.4555848 8.70150529c-.0803044-.08750117-.1511613-.17014117-.2361895-.25764234-3.322953-3.53107804-7.9168104-5.49103157-12.6928248-5.41535022-4.7797054-.06787635-9.3744307 1.89875445-12.69754861 5.43479493-3.39418698 3.39275894-5.19452362 8.13176354-4.93636097 12.99392384.11058835 4.9606482 2.11674656 9.6765224 5.58352025 13.1251756 3.32165448 3.5330424 7.91637733 5.4933652 12.69282483 5.4153502 4.7739488.072007 9.3649842-1.8874718 12.688101-5.4153502 3.4022337-3.3928955 5.2110314-8.1350448 4.9599799-13.0036462-.0604405-2.4463387-.5734672-4.8583987-1.5116129-7.1070395z" transform="translate(193 340)"/></g></g></svg>
