<svg viewBox="0 0 512 512" xmlns="http://www.w3.org/2000/svg" class="Icon Icon-opocoin"><g fill="none" fill-rule="evenodd"><g fill-rule="evenodd"><circle cx="256" cy="256" fill="#ffc843" r="256"/><circle cx="256" cy="256" fill="#d49002" r="196"/></g><path d="m353.263137 211.021363-17.683397 17.649715c2.08181 7.316858 3.214744 14.870769 3.370987 22.476256.87056 22.399548-7.846842 44.108835-23.968288 59.689166-1.028437 1.028139-2.085441 1.913481-3.142445 2.855941l-30.424585-30.415771c-5.027912 5.055015-10.084392 10.081472-15.140873 15.136487l27.996332 27.988222c-12.058137 6.480847-25.505503 9.949498-39.194864 10.110031-22.376584.927582-44.08283-7.750323-59.649326-23.847107-16.356089-15.700186-25.722138-37.307885-25.996593-59.974761-.849689-22.33162 7.857085-43.967606 23.93972-59.489251 15.741321-16.287709 37.339363-25.613304 59.992138-25.903384 22.374061-.912854 44.074499 7.762729 59.649326 23.847107.514218.514069.942733 1.028139 1.428384 1.513649l-61.906173 61.888241-41.366007-41.354026-15.169441 15.136487 59.449352 59.432132 143.552616-143.910866-17.883371-17.849631-51.136155 51.121344c-.485651-.51407-.914166-.99958-1.428385-1.513649-20.095954-20.745084-47.877853-32.259811-76.761369-31.815183-28.905837-.398773-56.692985 11.155183-76.789936 31.92942-20.52675 19.932459-31.4145 47.774111-29.853231 76.339303.668796 29.143808 12.801277 56.849569 33.767003 77.110406 20.088101 20.756625 47.875235 32.273521 76.761369 31.815183 28.871024.423041 56.635857-11.088897 76.732802-31.815183 20.575413-19.93326 31.514333-47.793387 29.996069-76.396421-.365521-14.372239-3.468111-28.543092-9.141659-41.753857z" fill="#ffc843" fill-rule="nonzero"/></g></svg>
