<svg xmlns="http://www.w3.org/2000/svg" class="Icon Icon-activity" fill="currentColor" viewBox="0 0 24 24"><path d="M24 13.22a.67.67 0 0 0-.5-.64H22.18A7.44 7.44 0 0 0 23.49 8a6.32 6.32 0 0 0-6-6.19A6.12 6.12 0 0 0 12.06 5a6.1 6.1 0 0 0-5.41-3.17A6.32 6.32 0 0 0 .63 8a7.44 7.44 0 0 0 1.31 4.53H.62a.67.67 0 0 0 0 1.33H3c1.75 2.08 4 3.8 9.11 8.26 5-4.31 7.35-6.17 9.11-8.26h2.33a.69.69 0 0 0 .45-.64zm-11.94 7.15c-3-2.61-5.54-4.62-7.31-6.48h2.4l1-2.38 2.53 5 1.78-2.67h2.77l.89-2.21.88 2.26h2.4c-1.8 1.86-4.34 3.88-7.34 6.48zm8.47-7.82h-2.66l-1.79-4.48-1.79 4.48H11.7l-.9 1.35L8 8.24l-1.75 4.31H3.58A6.58 6.58 0 0 1 2 8.09a5 5 0 0 1 4.66-4.92 5.09 5.09 0 0 1 4.71 3.56l.63 2 .65-2a5.08 5.08 0 0 1 4.76-3.56 5 5 0 0 1 4.69 4.92 6.55 6.55 0 0 1-1.57 4.46z"/></svg>
