<svg xmlns="http://www.w3.org/2000/svg" fill="none" viewBox="0 0 24 24" class="Icon Icon-activity"><mask id="a" width="24" height="19" x="0" y="3" maskUnits="userSpaceOnUse" style="mask-type:alpha"><path fill="currentColor" fill-rule="evenodd" d="M14.12 3.456a5.986 5.986 0 0 1 7.568 8.363h1.062a.75.75 0 0 1 0 1.5h-2.202l-8.318 8.318a.75.75 0 0 1-1.06 0L2.851 13.32H.75a.75.75 0 0 1 0-1.5h.962a5.987 5.987 0 0 1 9.509-7.065l.479.479.478-.479a6 6 0 0 1 1.943-1.298M4.974 13.32l6.727 6.727 6.727-6.727h-.677a.75.75 0 0 1-.69-.454l-.668-1.561-.42 1.471a.75.75 0 0 1-.722.544h-2.625l-1.275 1.7a.75.75 0 0 1-1.283-.14L8.27 10.927l-.83 1.939a.75.75 0 0 1-.69.454zm14.92-1.5a4.484 4.484 0 0 0-.308-6.004 4.49 4.49 0 0 0-6.346 0l-1.01 1.008a.75.75 0 0 1-1.06 0l-1.01-1.01a4.487 4.487 0 0 0-6.654 6.005h2.75L7.56 8.774a.75.75 0 0 1 1.372-.015l1.976 4.348.741-.988a.75.75 0 0 1 .6-.3h2.434l.845-2.956a.75.75 0 0 1 1.41-.09l1.305 3.046z" clip-rule="evenodd"/></mask><g mask="url(#a)"><path fill="currentColor" d="M0 0h24v24H0z"/></g></svg>