<svg class="Icon Icon-arrow-drawed" viewBox="0 0 57 50" fill="none" xmlns="http://www.w3.org/2000/svg"><path fill-rule="evenodd" clip-rule="evenodd" d="M55.316.814c-.492-.178-1.044.063-1.08.39-.03.288-.066.582-.027.869.08.583.19 1.166.319 1.745.878 3.962.634 7.886.085 11.78-.41 2.907-1.545 5.607-3.11 8.132a45.796 45.796 0 01-2.657 3.83c-1.65 2.143-3.85 3.833-6.15 5.393-3.021 2.05-6.44 3.523-10.007 4.77-3.795 1.328-7.764 2.187-11.786 2.834-3.535.568-7.124.987-10.754 1.132-.569.023-1.131.121-1.69.21-.247.039-.485.472-.376.717.086.19.242.395.43.507.195.117.467.168.705.18.496.02.996.024 1.486-.014 4.344-.33 8.687-.672 12.918-1.53 1.991-.402 3.986-.805 5.937-1.318a55.11 55.11 0 005.047-1.6c3.455-1.275 6.755-2.804 9.692-4.833 3.724-2.575 6.694-5.728 8.863-9.476.999-1.724 1.766-3.537 2.537-5.35.608-1.432.675-2.978.883-4.484.57-4.13.469-8.284-.505-12.444-.083-.359-.17-.725-.332-1.062-.087-.179-.338-.303-.428-.378zM8.105 47.192c1.14.228 2.282.452 3.422.685 1.059.217 2.114.45 3.173.665 4.273.868 8.544 1.29 12.802.52a10.2 10.2 0 001.164-.3c.257-.077.433-.478.346-.732-.103-.3-.299-.557-.662-.602a3.317 3.317 0 00-.978.018c-4.095.743-8.207.373-12.313-.46-3.586-.728-7.184-1.435-10.584-2.82a4.48 4.48 0 01-.86-.457c-.092-.063-.15-.318-.089-.38.26-.263.563-.496.866-.723 4.553-3.392 9.301-6.588 13.442-10.39.843-.775 1.64-1.57 2.127-2.574.094-.194.172-.402.2-.612.043-.324-.167-.59-.484-.71-.199-.076-.491-.052-.692.022a1.114 1.114 0 00-.528.413c-1.167 1.84-2.958 3.185-4.655 4.594-2.347 1.95-4.811 3.78-7.347 5.544-1.641 1.142-3.184 2.395-4.87 3.495-.383.25-.705.577-1.03.89-.253.244-.142.752.189.984.198.139.388.31.613.394 2.25.835 4.41 1.884 6.749 2.536z" fill="currentColor"/></svg>
