<svg xmlns="http://www.w3.org/2000/svg" class="Icon Icon-bell" fill="currentColor" viewBox="0 0 24 24"><path d="M20.79 16.67a4.18 4.18 0 01-1.7-3.38V9.15a7.05 7.05 0 00-6.16-6.91h-.19V.67A.71.71 0 0012 0a.65.65 0 00-.68.67v1.55h-.18A7 7 0 005 9.15v4.14a3.79 3.79 0 01-1.73 3.36c-.53.3-1.13.72-1.13 1.25v2.17a.76.76 0 00.74.74h18.34a.71.71 0 00.67-.74V17.9c0-.59-.68-1.02-1.1-1.23zm-.88 1.13l.15.1h.06a.62.62 0 00.17.11l.12.06v1.22H3.59v-1.18l.55-.27a5.23 5.23 0 002.25-4.48V9.22A5.61 5.61 0 0116 5.35a5.11 5.11 0 011.45 3.82v4.12a5.37 5.37 0 002.46 4.51zM13.84 22.14h-3.68a.9.9 0 00-.75 1 .83.83 0 00.75.88h3.68c.33 0 .68-.28.68-.88s-.25-1-.68-1z"/></svg>
