<svg xmlns="http://www.w3.org/2000/svg" fill="none" viewBox="0 0 24 24" class="Icon Icon-blog"><mask id="opo-mask-39300836" width="23" height="22" x="1" y="1" maskUnits="userSpaceOnUse" style="mask-type:alpha"><path fill="currentColor" fill-rule="evenodd" d="M3.059 3.5c-.414.575-.559 1.287-.559 1.75V21H18V7.5H8.75A.75.75 0 0 1 8 6.75v-1.5c0-.518-.013-1.195-.335-1.747C7.39 3.033 6.795 2.5 5.25 2.5c-1.156 0-1.805.465-2.191 1m5.742-1q.085.12.16.247c.54.927.54 1.973.539 2.47V6H22V4.75a2.6 2.6 0 0 0-.459-1.437c-.31-.432-.835-.813-1.791-.813zM5.25 1h14.5c1.444 0 2.42.619 3.009 1.437A4.1 4.1 0 0 1 23.5 4.75v2a.75.75 0 0 1-.75.75H19.5v14.25a.75.75 0 0 1-.75.75h-17a.75.75 0 0 1-.75-.75V5.25c0-.703.205-1.742.841-2.626C2.505 1.702 3.606 1 5.25 1m-1 9.75A.75.75 0 0 1 5 10h10.75a.75.75 0 0 1 0 1.5H5a.75.75 0 0 1-.75-.75m0 3A.75.75 0 0 1 5 13h10.75a.75.75 0 0 1 0 1.5H5a.75.75 0 0 1-.75-.75m0 3A.75.75 0 0 1 5 16h10.75a.75.75 0 0 1 0 1.5H5a.75.75 0 0 1-.75-.75" clip-rule="evenodd"/></mask><g mask="url(#opo-mask-39300836)"><path fill="currentColor" d="M0 0h24v24H0z"/></g></svg>