<svg xmlns="http://www.w3.org/2000/svg" class="Icon Icon-blog" fill="currentColor" viewBox="0 0 24 24"><path d="M5.64 11.42h9.77a.5.5 0 100-1H5.64a.5.5 0 100 1zM15.41 13.91H5.64a.5.5 0 000 1h9.77a.5.5 0 000-1zM15.41 17.4H5.64a.5.5 0 100 1h9.77a.5.5 0 100-1z"/><path d="M18.74 1H5a4.36 4.36 0 0 0-4 4.37V20a2.94 2.94 0 0 0 .36 1.42 3 3 0 0 0 1.73 1.45l.15.05a11.38 11.38 0 0 0 1.48.1h11.83a3 3 0 0 0 3-3V7.66h2.74a.67.67 0 0 0 .5-.21A.71.71 0 0 0 23 7V5.25A4.28 4.28 0 0 0 18.74 1zm-2.19 20.62H3.95A1.61 1.61 0 0 1 2.39 20V5.37a2.94 2.94 0 0 1 2.68-3h.18a2.86 2.86 0 0 1 2.87 2.88V7a.7.7 0 0 0 .71.7h9.33V20a1.63 1.63 0 0 1-1.61 1.62zm5.06-15.37H9.53v-1a4.28 4.28 0 0 0-.93-2.66l-.16-.21h10.3a2.88 2.88 0 0 1 2.87 2.87z"/></svg>
