<svg xmlns="http://www.w3.org/2000/svg" class="Icon Icon-cart" fill="currentColor" viewBox="0 0 24 24"><path d="M7.19 15.55h12.73a.68.68 0 0 0 .64-.45L24 6a.72.72 0 0 0-.08-.65.73.73 0 0 0-.61-.35H5.67l-.35-1.71a.69.69 0 0 0-.67-.56h-4a.7.7 0 0 0 0 1.4h3.43l2 10.26a2.46 2.46 0 0 0-.8.56 2.69 2.69 0 0 0 1.58 4.57 2.37 2.37 0 0 0 4.56 0h4.49a2.37 2.37 0 0 0 4.56 0 .69.69 0 0 0 .67-.69.7.7 0 0 0-.67-.7 2.38 2.38 0 0 0-4.56 0h-4.46a2.37 2.37 0 0 0-4.54 0 1.3 1.3 0 0 1 .28-2.57zm.29-1.39L6 6.41h16.31l-2.87 7.75zm.68 4.7a1 1 0 1 1 1 1 1 1 0 0 1-1-1zm9.05 0a1 1 0 1 1 1 1 1 1 0 0 1-1-1z"/></svg>
