<svg xmlns="http://www.w3.org/2000/svg" class="Icon Icon-challenge" fill="currentColor" viewBox="0 0 24 24"><path d="M23.64 19.43l-2.16-2.19a2.81 2.81 0 0 0-.41-3.41.65.65 0 0 0-.91 0l-1 1-4.76-4.74 3-3 2.85-2.88V1.76h-2.41L12 7.67 8.46 4.09l-2.3-2.33H3.79v2.47l5.81 5.86-4.73 4.78-1-1a.63.63 0 0 0-.91 0 2.81 2.81 0 0 0-.41 3.41L.36 19.43a1.23 1.23 0 0 0-.36.87 1.27 1.27 0 0 0 .36.88l.67.68a1.26 1.26 0 0 0 1.73 0l2.17-2.19a2.67 2.67 0 0 0 1.43.41 2.71 2.71 0 0 0 2-.82.66.66 0 0 0 .19-.46.64.64 0 0 0-.19-.46l-1-1L12 12.52l4.73 4.78-1 1a.6.6 0 0 0-.19.46.65.65 0 0 0 .18.46 2.72 2.72 0 0 0 2 .82 2.67 2.67 0 0 0 1.43-.41l2.17 2.19a1.22 1.22 0 0 0 1.73 0l.67-.68a1.27 1.27 0 0 0 .28-.84 1.23 1.23 0 0 0-.36-.87zm-19.8-2.6a1.48 1.48 0 0 1-.35-1.5l3.33 3.36a1.45 1.45 0 0 1-1.49-.35zm.12 2L1.9 20.88l-.57-.58 2.05-2.08zm7.12-10.24l-.57.58-2.92-2.95-2.5-2.54v-.61h.53zm-4.72 7.78l-.57-.58 9.78-9.87 2.81-2.85h.53v.61zm11.28 0l-4.72-4.77.57-.58 4.72 4.77zm3 1.85l2.05 2.08-.57.58L20 18.8zm-.46-1.39l-1.49 1.51a1.45 1.45 0 0 1-1.49.35l3.33-3.36a1.48 1.48 0 0 1-.37 1.5z"/></svg>
