<svg xmlns="http://www.w3.org/2000/svg" fill="none" viewBox="0 0 24 24" class="Icon Icon-championship"><path fill="currentColor" fill-rule="evenodd" d="M5.75 3.667v9.487c.647-.325 1.49-.57 2.51-.57 1.285 0 2.535.618 3.622 1.157l.175.086c1.207.596 2.276 1.09 3.378 1.09 1.19 0 2.03-.252 2.65-.55.485-.235.838-.495 1.165-.742V4.05c-.242.123-.501.242-.767.351-.893.367-2 .681-3.048.681-1.339 0-2.803-.672-4.024-1.235l-.14-.065a25 25 0 0 0-1.647-.716C9.066 2.86 8.615 2.75 8.26 2.75c-1.1 0-2.038.539-2.511.917m0 11.285c.346-.325 1.182-.869 2.51-.869.926 0 1.89.476 3.122 1.084l.012.006c1.158.571 2.534 1.244 4.04 1.244 1.42 0 2.482-.304 3.302-.7.66-.318 1.164-.7 1.508-.963l.198-.148A.75.75 0 0 0 20.75 14V2.667a.75.75 0 0 0-1.286-.525c-.163.166-.732.536-1.55.873-.797.327-1.7.568-2.48.568-.943 0-2.088-.494-3.394-1.097l-.15-.07c-.576-.266-1.173-.542-1.742-.754-.613-.23-1.263-.412-1.887-.412-1.826 0-3.269 1.019-3.797 1.559a.75.75 0 0 0-.214.524V22a.75.75 0 0 0 1.5 0z" clip-rule="evenodd"/></svg>