<svg xmlns="http://www.w3.org/2000/svg" class="Icon Icon-courses" fill="currentColor" viewBox="0 0 24 24"><path d="M17.47 12.4h-4a.69.69 0 100 1.38h4a.69.69 0 000-1.38zM17.47 7.1h-4a.69.69 0 000 1.38h4a.69.69 0 100-1.38z"/><path d="M23.73 19.26l-1.6-3v-2.54a.71.71 0 0 0-1.41 0v2H3.36V3h17.36v5.9a.71.71 0 0 0 1.41 0V2.28a.71.71 0 0 0-.7-.7H2.66a.7.7 0 0 0-.7.7V16.2l-1.7 3.06a2.09 2.09 0 0 0 0 2.08 2.16 2.16 0 0 0 1.88 1.08h19.71a2.12 2.12 0 0 0 1.85-1.05 2.1 2.1 0 0 0 .03-2.11zm-1.24 1.39a.72.72 0 0 1-.64.36h-6.8v-.24a.7.7 0 0 0-.7-.66H9.6a.7.7 0 0 0-.7.66V21H2.18a.77.77 0 0 1-.67-.38.7.7 0 0 1 0-.7L3 17.15h18l1.52 2.78a.71.71 0 0 1-.03.72z"/><path d="M9.79 5.77L8.07 8l-1-1a.73.73 0 00-.48-.21.67.67 0 00-.48.2.64.64 0 00-.21.48.71.71 0 00.19.49l1 1a1.43 1.43 0 001 .4h.09a1.4 1.4 0 001-.51l1.72-2.19a.67.67 0 00-.11-1 .69.69 0 00-1 .11zM9.79 11.07l-1.72 2.18-1-1a.68.68 0 00-.49-.25.63.63 0 00-.48.2.68.68 0 000 1l1 1a1.43 1.43 0 001 .4h.09a1.45 1.45 0 001-.52l1.72-2.19a.67.67 0 00-.11-1 .69.69 0 00-1.01.18z"/></svg>
