<svg xmlns="http://www.w3.org/2000/svg" fill="none" viewBox="0 0 24 24" class="Icon Icon-courses"><path fill="currentColor" fill-rule="evenodd" d="M6.5 2.598a1.54 1.54 0 0 0-1 1.444v10.175a3 3 0 0 1 1-.37zM8 2.5v11.298h10.666V2.5zm12.166-.75a.75.75 0 0 0-.75-.75H7.042A3.04 3.04 0 0 0 4 4.042v12.797a3.04 3.04 0 0 0 3.042 3.042h1.041a.75.75 0 0 0 0-1.5H7.042a1.541 1.541 0 1 1 0-3.083h11.624v3.083h-2.011a.75.75 0 0 0 0 1.5h2.761a.75.75 0 0 0 .75-.75zM9.834 17.583a.75.75 0 0 1 .75-.75h3.332a.75.75 0 0 1 .75.75v4.167a.75.75 0 0 1-1.215.587l-1.2-.952-1.201.952a.75.75 0 0 1-1.216-.587zm1.5.75v1.864l.45-.357a.75.75 0 0 1 .932 0l.45.357v-1.864z" clip-rule="evenodd"/></svg>