<svg xmlns="http://www.w3.org/2000/svg" fill="none" viewBox="0 0 24 24" class="Icon Icon-gift"><mask id="opo-mask-15179803" width="22" height="22" x="1" y="1" maskUnits="userSpaceOnUse" style="mask-type:alpha"><path fill="currentColor" fill-rule="evenodd" d="M7.366 2.404a1.872 1.872 0 1 0 0 3.745h3.712a9 9 0 0 0-.659-1.534c-.667-1.213-1.641-2.21-3.053-2.21M4.677 6.15A3.277 3.277 0 0 1 7.366 1C9.558 1 10.9 2.576 11.65 3.938q.195.359.35.706.155-.347.35-.706C13.1 2.576 14.441 1 16.634 1a3.277 3.277 0 0 1 2.689 5.149h2.975c.388 0 .702.314.702.702V12a.7.7 0 0 1-.702.702H20.94v9.596a.7.7 0 0 1-.702.702H3.762a.7.7 0 0 1-.702-.702v-9.596H1.702A.7.7 0 0 1 1 12V6.851c0-.388.314-.702.702-.702zm6.62 1.404H2.405v3.745h8.894zm0 5.15H4.465v8.893h6.834zm1.405 8.893v-8.894h6.834v8.894zm0-10.298V7.553h8.894v3.745zm.22-5.149h3.712a1.872 1.872 0 1 0 0-3.745c-1.412 0-2.386.998-3.053 2.211a9 9 0 0 0-.66 1.534" clip-rule="evenodd"/></mask><g mask="url(#opo-mask-15179803)"><path fill="currentColor" d="M0 0h24v24H0z"/></g></svg>