<svg xmlns="http://www.w3.org/2000/svg" class="Icon Icon-gift" fill="currentColor" viewBox="0 0 24 24"><path d="M22.66 6.05h-4.38c2.82-1.49 3.12-3 3-3.81A2.77 2.77 0 0 0 18.55 0a5.75 5.75 0 0 0-4 1.31A9.19 9.19 0 0 0 12 4.75a9.07 9.07 0 0 0-2.57-3.42A5.75 5.75 0 0 0 5.42 0a2.77 2.77 0 0 0-2.77 2.24c-.08.8.22 2.32 3 3.81H1.31a.69.69 0 0 0-.68.68v4.56a.69.69 0 0 0 .68.68h.06v11.35a.68.68 0 0 0 .68.68h19.87a.68.68 0 0 0 .68-.68V12h.06a.69.69 0 0 0 .68-.68V6.73a.69.69 0 0 0-.68-.68zM9 12v10.64H2.73V12zm0-4.59v3.2H2v-3.2zm2-1.36H9.32C5.51 4.86 3.9 3.35 4 2.39c.06-.53.68-.94 1.54-1 1.71-.17 4.15.98 5.51 4.66zm2.53 1.36v15.23h-3.14V7.41zm6.39-5c.1 1-1.51 2.47-5.32 3.66h-1.68c1.36-3.68 3.79-4.82 5.51-4.68.86.06 1.48.47 1.57 1zm2 5v3.2h-7v-3.2zM21.24 12v10.64h-6.3V12z"/></svg>
