<svg xmlns="http://www.w3.org/2000/svg" class="Icon Icon-home" fill="currentColor" viewBox="0 0 24 24"><path d="M23.88 11.4L20 7.38V1.67a.69.69 0 0 0-.66-.67h-1.8a.69.69 0 0 0-.68.68v2.77L12.78.19a.72.72 0 0 0-1 0L.67 11.79a.66.66 0 0 0-.19.48.73.73 0 0 0 .21.48.68.68 0 0 0 .48.19.69.69 0 0 0 .48-.21l.42-.44v11a.68.68 0 0 0 .68.68h6.88a.68.68 0 0 0 .64-.46.69.69 0 0 0-.23-.76A3.88 3.88 0 0 1 12.28 16a3.94 3.94 0 0 1 2.94.95l.06.06-2.68 2.84-1.75-1.77a.68.68 0 0 0-1 1l2.25 2.27a.69.69 0 0 0 1 0l5.9-6.29a.63.63 0 0 0 .19-.48.68.68 0 0 0-.19-.48.74.74 0 0 0-.48-.18.68.68 0 0 0-.48.21l-1.84 1.93a5.35 5.35 0 0 0-3.94-1.38 5.13 5.13 0 0 0-4.89 5.21 5.26 5.26 0 0 0 .78 2.75H3.43V10.87l8.86-9.23 4.76 5a.68.68 0 0 0 1.17-.47V2.35h.44v5.3a.66.66 0 0 0 .19.47l2.33 2.43v12.09h-4a4.58 4.58 0 0 0 .45-4.38.68.68 0 0 0-1.22.6 3.37 3.37 0 0 1-.94 3.74l-1.14-1.19a.68.68 0 0 0-.48-.21.63.63 0 0 0-.47.19.68.68 0 0 0 0 1l1.38 1.44a.71.71 0 0 0 .49.21h6.64a.68.68 0 0 0 .68-.68V12l.36.37a.65.65 0 0 0 .48.21.68.68 0 0 0 .49-1.15z"/></svg>
