<svg xmlns="http://www.w3.org/2000/svg" fill="none" viewBox="0 0 24 24" class="Icon Icon-home"><g clip-path="url(#opo-mask-29364870)"><mask id="opo-mask-77822310" width="24" height="23" x="0" y="1" maskUnits="userSpaceOnUse" style="mask-type:alpha"><path fill="currentColor" fill-rule="evenodd" d="M11.22 1.22a.75.75 0 0 1 1.048-.012l11.5 11a.75.75 0 0 1-1.036 1.084l-.732-.7V22.75a.75.75 0 0 1-.75.75h-5a.75.75 0 0 1-.6-1.2c.534-.71.85-1.593.85-2.55 0-.417-.06-.819-.17-1.198a.75.75 0 0 1 1.439-.422c.15.515.231 1.059.231 1.62a5.7 5.7 0 0 1-.457 2.25H20.5V11.25q0-.045.005-.088L11.762 2.8 3.98 10.58q.019.082.019.17V22h2.957a5.75 5.75 0 0 1 8-7.323.75.75 0 1 1-.706 1.322 4.25 4.25 0 0 0-5.585 6.036q.045.071.072.145a.748.748 0 0 1-.488 1.32h-5a.75.75 0 0 1-.75-.75V12.06l-1.22 1.22a.75.75 0 0 1-1.06-1.06zm7.56 12.5a.75.75 0 0 1 0 1.06l-6 6a.75.75 0 0 1-1.06 0L9.5 18.5a.75.75 0 0 1 1.06-1.06l1.69 1.75 5.47-5.47a.75.75 0 0 1 1.06 0" clip-rule="evenodd"/></mask><g mask="url(#opo-mask-77822310)"><path fill="currentColor" d="M0 0h24v24H0z"/></g></g><defs><clipPath id="opo-mask-29364870"><path fill="currentColor" d="M0 0h24v24H0z"/></clipPath></defs></svg>