<svg xmlns="http://www.w3.org/2000/svg" fill="none" viewBox="0 0 24 24" class="Icon Icon-logout"><mask id="opo-mask-76057152" width="20" height="20" x="2" y="2" maskUnits="userSpaceOnUse" style="mask-type:alpha"><path fill="currentColor" fill-rule="evenodd" d="M4.75 3.5c-.69 0-1.25.56-1.25 1.25v14c0 .69.56 1.25 1.25 1.25h4.5a.75.75 0 0 1 0 1.5h-4.5A2.75 2.75 0 0 1 2 18.75v-14A2.75 2.75 0 0 1 4.75 2h4a.75.75 0 0 1 0 1.5zm11.757 2.947 4.773 4.773a.75.75 0 0 1 0 1.06l-4.773 4.773a.75.75 0 0 1-1.06-1.06l3.492-3.493H8.75a.75.75 0 0 1 0-1.5h10.19l-3.493-3.493a.75.75 0 1 1 1.06-1.06" clip-rule="evenodd"/></mask><g mask="url(#opo-mask-76057152)"><path fill="currentColor" d="M0 0h24v24H0z"/></g></svg>