<svg xmlns="http://www.w3.org/2000/svg" class="Icon Icon-logout" fill="currentColor" viewBox="0 0 24 24"><path d="M12.71 12.74l-2.48 2.49a.74.74 0 0 0 1 1.05l.73-.73 3-3a.73.73 0 0 0 .22-.53.76.76 0 0 0-.21-.53l-3-3-.73-.73a.74.74 0 0 0-1 0 .75.75 0 0 0 0 1L12 10.55l.71.71H.74a.74.74 0 0 0 0 1.48h12z"/><path d="M12 13.09l.1-.09H12v.09zM12 11h.1l-.1-.09V11z"/><path d="M19.51 0H7a4.5 4.5 0 0 0-4.5 4.49V7A.74.74 0 0 0 4 7V4.49a3 3 0 0 1 3-3h12.51a3 3 0 0 1 3 3v15a3 3 0 0 1-3 3H7a3 3 0 0 1-3-3V17a.74.74 0 0 0-1.5 0v2.51A4.5 4.5 0 0 0 7 24h12.51A4.5 4.5 0 0 0 24 19.51v-15A4.5 4.5 0 0 0 19.51 0z"/></svg>
