<svg xmlns="http://www.w3.org/2000/svg" class="Icon Icon-opposition" fill="currentColor" viewBox="0 0 24 24"><path d="M23.54 5.14L12.1 1.19a.76.76 0 0 0-.47 0L.47 5.36a.69.69 0 0 0-.4.35.67.67 0 0 0 0 .52.66.66 0 0 0 .39.41H.5l2.37.78V13.93c.31 1.3 2 2.07 3.29 2.49l.18.06V18l-.13.08a1.68 1.68 0 0 0-.9 1.52v1.52a1.72 1.72 0 0 0 3.43 0v-1.49a1.71 1.71 0 0 0-.9-1.5l-.13-.07v-1.18l.3.05a22.43 22.43 0 0 0 3.93.34c4 0 8.53-1 9.07-3.27l.07-6.54v-.18l2.4-.85a.71.71 0 0 0 .39-.35.68.68 0 0 0-.39-.94zM6.4 15.08l-.35-.14c-1.22-.46-1.81-.94-1.81-1.47V7.89l2.16.72zm13.37-1.53c-.13 1-3.14 2.33-7.77 2.33h-.15A19.49 19.49 0 0 1 8 15.49h-.2V9.07l4.09 1.36a.36.36 0 0 0 .21 0 .59.59 0 0 0 .23 0l7.47-2.68zm-7.69-4.49L8.81 8l2.3-1.21a.66.66 0 0 0 .34-.41.69.69 0 0 0-1-.8L7 7.38 2.78 6l9.11-3.38 9.34 3.18z"/></svg>
