<svg xmlns="http://www.w3.org/2000/svg" fill="none" viewBox="0 0 24 24" class="Icon Icon-opposition"><mask id="opo-mask-91342865" width="23" height="22" x="1" y="1" maskUnits="userSpaceOnUse" style="mask-type:alpha"><path fill="currentColor" fill-rule="evenodd" d="M11.733 1.056a.75.75 0 0 1 .557-.004l10.733 4.2a.75.75 0 0 1-.027 1.406l-10.733 3.734a.75.75 0 0 1-.503-.004L1.494 6.655a.75.75 0 0 1-.028-1.4zm.29 1.502L3.83 5.908l8.191 2.98 8.564-2.98z" clip-rule="evenodd"/><path fill="currentColor" fill-rule="evenodd" d="M4.083 6.657a.75.75 0 0 1 .75.75v6.067c0 .167.08.38.403.641.331.268.852.524 1.55.743 1.392.437 3.294.666 5.23.666 1.938 0 3.84-.23 5.23-.666.7-.219 1.22-.475 1.551-.743.324-.26.403-.474.403-.641V7.407a.75.75 0 0 1 1.5 0v6.067c0 .767-.417 1.37-.961 1.809-.536.433-1.255.76-2.044 1.007-1.584.497-3.649.734-5.678.734s-4.095-.237-5.68-.734c-.788-.248-1.506-.574-2.043-1.007-.544-.44-.96-1.042-.96-1.809V7.407a.75.75 0 0 1 .75-.75" clip-rule="evenodd"/><path fill="currentColor" fill-rule="evenodd" d="M12.231 5.638a.75.75 0 0 1-.37.994L8.1 8.356v9.894a.75.75 0 0 1-1.5 0V7.393l4.637-2.124a.75.75 0 0 1 .994.369" clip-rule="evenodd"/><path fill="currentColor" fill-rule="evenodd" d="M7.35 20.917a.833.833 0 1 0 0-1.667.833.833 0 0 0 0 1.667m0 1.5a2.333 2.333 0 1 0 0-4.667 2.333 2.333 0 0 0 0 4.667" clip-rule="evenodd"/></mask><g mask="url(#opo-mask-91342865)"><path fill="currentColor" d="M0 0h24v24H0z"/></g></svg>