<svg xmlns="http://www.w3.org/2000/svg" class="Icon Icon-progress" fill="currentColor" viewBox="0 0 24 24"><path d="M23.33 21.2H22V9.72a.67.67 0 0 0-.72-.72h-4.07a.67.67 0 0 0-.67.68V21.2H15v-6.82a.68.68 0 0 0-.68-.68h-4.07a.67.67 0 0 0-.68.68v6.82H8v-3.61a.68.68 0 0 0-.67-.68H3.28a.68.68 0 0 0-.67.68v3.61H1.34v-7.9h.11a20.65 20.65 0 0 0 13.7-9.07l.17-.27L16 7.2a.67.67 0 1 0 1.32-.27L16.3 2a.67.67 0 0 0-.3-.46.63.63 0 0 0-.5-.09l-4.92 1a.66.66 0 0 0-.52.79.64.64 0 0 0 .79.53l3.41-.68-.15.24A19.46 19.46 0 0 1 1.5 11.89h-.16V6.77a.68.68 0 0 0-.67-.68.68.68 0 0 0-.67.68v15.1a.67.67 0 0 0 .67.68h22.66a.68.68 0 0 0 0-1.35zm-16.66 0H4v-2.93h2.67zm7 0h-2.75v-6.15h2.72zm7 0h-2.79V10.39h2.73z"/></svg>
