<svg xmlns="http://www.w3.org/2000/svg" fill="none" viewBox="0 0 24 24" class="Icon Icon-ranking"><path fill="currentColor" fill-rule="evenodd" d="M11.88 1a.75.75 0 0 1 .696.469l.841 2.08 2.238.157a.75.75 0 0 1 .43 1.322l-1.719 1.443.543 2.177a.75.75 0 0 1-1.126.817l-1.902-1.188-1.903 1.188a.75.75 0 0 1-1.125-.817l.542-2.177-1.718-1.443a.75.75 0 0 1 .43-1.322l2.237-.158.841-2.08A.75.75 0 0 1 11.881 1m0 2.75-.32.795a.75.75 0 0 1-.643.467l-.855.06.656.551a.75.75 0 0 1 .245.756l-.206.831.726-.454a.75.75 0 0 1 .795 0l.727.454-.207-.831a.75.75 0 0 1 .245-.756l.657-.551-.855-.06a.75.75 0 0 1-.643-.467zm-4.228 8.434a.75.75 0 0 1 .75-.75h6.087a.75.75 0 0 1 .75.75v.99h5.337a.75.75 0 0 1 .75.75v7.826a.75.75 0 0 1-.75.75H2.75a.75.75 0 0 1-.75-.75v-5.653a.75.75 0 0 1 .75-.75h4.902zm0 4.663H3.5V21h4.153zM9.152 21h4.587v-8.066H9.152zm6.087 0h4.587v-6.326H15.24z" clip-rule="evenodd"/></svg>