<svg xmlns="http://www.w3.org/2000/svg" class="Icon Icon-ranking" fill="currentColor" viewBox="0 0 24 24"><path d="M23.3 16.92h-6.38V12a.7.7 0 0 0-.7-.7H7.78a.7.7 0 0 0-.7.7v2.11H.7a.7.7 0 0 0-.7.7v8.49a.7.7 0 0 0 .7.7h22.6a.7.7 0 0 0 .7-.7v-5.68a.7.7 0 0 0-.7-.7zm-.71 5.67H1.41v-7.07h6.37a.7.7 0 0 0 .7-.71V12.7h7v4.92a.7.7 0 0 0 .7.71h6.37zM9.24 5.82l-.42 2.39a.73.73 0 0 0 .28.69.71.71 0 0 0 .74.1L12 7.83 14.15 9a.73.73 0 0 0 .74-.05.72.72 0 0 0 .28-.69l-.41-2.4 1.74-1.73a.7.7 0 0 0 .18-.72.68.68 0 0 0-.56-.48l-2.41-.36L12.64.39A.71.71 0 0 0 12 0a.71.71 0 0 0-.63.39L10.3 2.57l-2.41.35a.69.69 0 0 0-.57.48.72.72 0 0 0 .18.72zm1.62-1.91a.7.7 0 0 0 .53-.38L12 2.29l.61 1.24a.7.7 0 0 0 .53.38l1.36.2-1 1a.7.7 0 0 0-.21.62l.23 1.36-1.21-.64a.7.7 0 0 0-.66 0l-1.22.64.24-1.36a.71.71 0 0 0-.21-.62l-1-1zm2.55 14.42h-.71v-3.52a.71.71 0 0 0-.43-.65.69.69 0 0 0-.77.16l-1.4 1.4a.7.7 0 0 0 1 1l.21-.21v1.82h-.71a.7.7 0 0 0 0 1.4h2.82a.7.7 0 0 0 0-1.4z"/></svg>
