<svg xmlns="http://www.w3.org/2000/svg" fill="none" viewBox="0 0 24 24" class="Icon Icon-recommend"><path fill="currentColor" fill-rule="evenodd" d="M17.75 2.5a2.25 2.25 0 1 0 0 4.5 2.25 2.25 0 0 0 0-4.5m-2.796 4.749a3.75 3.75 0 1 0-.756-1.295L8.545 9.25a3.75 3.75 0 1 0 0 4.997l5.653 3.294a3.75 3.75 0 1 0 .758-1.294l-5.654-3.295a3.78 3.78 0 0 0 0-2.407zm-7.286 3.324a1 1 0 0 0 .052.089c.178.322.28.693.28 1.088 0 .394-.101.764-.279 1.086a1 1 0 0 0-.054.093A2.249 2.249 0 0 1 3.5 11.75a2.25 2.25 0 0 1 4.168-1.178m8.086 7.137a.8.8 0 0 0 .112-.19 2.25 2.25 0 1 1-.111.19" clip-rule="evenodd"/></svg>