<svg xmlns="http://www.w3.org/2000/svg" class="Icon Icon-recommend" fill="currentColor" viewBox="0 0 24 24"><path d="M11.89 11A3.83 3.83 0 108 7.15 3.86 3.86 0 0011.89 11zm0-6.3a2.48 2.48 0 11-2.5 2.47 2.5 2.5 0 012.5-2.49zM4.35 13.3a2.91 2.91 0 10-2.95-2.91 2.93 2.93 0 002.95 2.91zm0-4.48a1.57 1.57 0 11-1.58 1.57 1.58 1.58 0 011.58-1.57zM19.43 13.3a2.91 2.91 0 10-2.94-2.91 2.93 2.93 0 002.94 2.91zm0-4.48a1.57 1.57 0 11-1.58 1.57 1.58 1.58 0 011.58-1.57zM19.54 15.16a4.2 4.2 0 00-2 .5l-.11.06-.06-.1a6.53 6.53 0 00-5.41-3 6.53 6.53 0 00-5.41 3l-.06.1-.11-.06a4.2 4.2 0 00-2-.5A4.67 4.67 0 000 20a.68.68 0 00.69.68.68.68 0 00.68-.68 3.31 3.31 0 013.08-3.49 2.68 2.68 0 011.34.35l.1.05v.1A7.81 7.81 0 005.28 20a.69.69 0 001.37 0c0-3.3 2.4-6 5.35-6s5.35 2.69 5.35 6a.69.69 0 001.37 0 7.81 7.81 0 00-.57-3v-.1l.1-.05a2.7 2.7 0 011.33-.35 3.32 3.32 0 013.05 3.5.69.69 0 001.37 0 4.67 4.67 0 00-4.46-4.84z"/></svg>
