<svg xmlns="http://www.w3.org/2000/svg" class="Icon Icon-resources" fill="currentColor" viewBox="0 0 24 24"><path d="M20.63.7a.7.7 0 0 0-.7-.7H5.49a3.67 3.67 0 0 0-3.66 3.68V19a3.66 3.66 0 0 0 3.65 3.66h5v.68a.69.69 0 0 0 .37.61.67.67 0 0 0 .71 0l1.27-.82 1.27.82a.76.76 0 0 0 .38.11.66.66 0 0 0 .33-.09.69.69 0 0 0 .37-.61v-.68h4.7a.7.7 0 0 0 .7-.7V.7zm-1.4 14.59h-13V1.41h13zM4.79 1.52v13.84a3.55 3.55 0 0 0-1.56.72V3.68a2.27 2.27 0 0 1 1.56-2.16zm9 20.49l-.57-.36a.71.71 0 0 0-.76 0l-.56.36v-2.3h1.89V22zm5.4-.8h-4v-1.55h1.9a.7.7 0 0 0 .7-.7.7.7 0 0 0-.7-.71H5.49a.71.71 0 0 0-.7.71.7.7 0 0 0 .7.7h5v1.55h-5a2.26 2.26 0 0 1 0-4.51h13.74v4.51z"/></svg>
