<svg xmlns="http://www.w3.org/2000/svg" fill="none" viewBox="0 0 24 24" class="Icon Icon-schemes"><mask id="opo-mask-38950325" width="21" height="18" x="1" y="3" maskUnits="userSpaceOnUse" style="mask-type:alpha"><path fill="currentColor" fill-rule="evenodd" d="m4.956 3.029-.206.721zl.022.006.06.017a49 49 0 0 1 1.028.31c.662.205 1.548.49 2.436.807.883.315 1.792.67 2.49 1.02.267.133.524.276.742.425a6 6 0 0 1 .676-.415c.652-.351 1.5-.708 2.32-1.024a54 54 0 0 1 3.223-1.118l.056-.018.02-.006.221.717-.221-.717A.75.75 0 0 1 19 3.75v2.293A.8.8 0 0 1 19.25 6h2a.75.75 0 0 1 .75.75v11a.75.75 0 0 1-.65.743 85 85 0 0 0-4.892.818c-1.816.359-3.502.765-4.43 1.135a.75.75 0 0 1-.499.02l-.142-.043C9.161 19.737 5.142 18.5 1.75 18.5a.75.75 0 0 1-.75-.75v-11A.75.75 0 0 1 1.75 6h2q.132 0 .25.043V3.75a.75.75 0 0 1 .956-.721M4 7.457a.8.8 0 0 1-.25.043H2.5v9.517c2.183.1 4.507.607 6.438 1.125a19 19 0 0 0-.983-.453 33 33 0 0 0-3.338-1.197l-.056-.016-.013-.004h-.004A.75.75 0 0 1 4 15.75zm1.5 7.737a33 33 0 0 1 3.045 1.117c.856.366 1.748.806 2.455 1.295V6.935l-.014-.011a4 4 0 0 0-.665-.394c-.615-.307-1.456-.639-2.323-.949A60 60 0 0 0 5.5 4.757zm8.653 3.077a59 59 0 0 1 2.014-.432 90 90 0 0 1 4.333-.742V7.5h-1.25a.8.8 0 0 1-.25-.043v8.293a.75.75 0 0 1-.53.717h-.002l-.013.005-.05.016-.2.064a29 29 0 0 0-2.89 1.129c-.406.187-.8.385-1.162.59m3.347-3.065V4.78l-.029.01a53 53 0 0 0-2.202.785c-.804.31-1.58.64-2.148.945a3.7 3.7 0 0 0-.621.398v10.627c.643-.462 1.43-.878 2.186-1.226a29 29 0 0 1 2.814-1.112M6.58 8.416a.75.75 0 0 1 1.005-.336l2 1a.75.75 0 1 1-.67 1.342l-2-1a.75.75 0 0 1-.336-1.006m10.09 0a.75.75 0 0 1-.335 1.006l-2 1a.75.75 0 1 1-.67-1.342l2-1a.75.75 0 0 1 1.006.336m-10.09 3a.75.75 0 0 1 1.005-.336l2 1a.75.75 0 1 1-.67 1.342l-2-1a.75.75 0 0 1-.336-1.006m10.09 0a.75.75 0 0 1-.335 1.006l-2 1a.75.75 0 1 1-.67-1.342l2-1a.75.75 0 0 1 1.006.336" clip-rule="evenodd"/></mask><g mask="url(#opo-mask-38950325)"><path fill="currentColor" d="M0 0h24v24H0z"/></g></svg>