<svg xmlns="http://www.w3.org/2000/svg" class="Icon Icon-schemes" fill="currentColor" viewBox="0 0 24 24"><path d="M23.32 5.64h-2.33V2.82a.72.72 0 0 0-.77-.72A13.4 13.4 0 0 0 12 5.76 13.4 13.4 0 0 0 3.78 2.1a.72.72 0 0 0-.78.72v2.9L.73 5.64a.71.71 0 0 0-.73.72v13a.7.7 0 0 0 .66.71c2.81.2 7.51.22 11.06 1.75a.7.7 0 0 0 .56 0c3.55-1.53 8.25-1.55 11.06-1.75a.7.7 0 0 0 .66-.71v-13a.72.72 0 0 0-.68-.72zm-3.75-2v12.23a14.84 14.84 0 0 0-6.86 3.53V7.11c1.54-1.95 4.47-3.11 6.86-3.49zm-15.14 0c2.39.36 5.32 1.52 6.86 3.47V19.4a14.84 14.84 0 0 0-6.86-3.53zm-3 15.08V7.09L3 7.15v9.3a.72.72 0 0 0 .58.7 14 14 0 0 1 5.66 2.41 46.37 46.37 0 0 0-7.84-.86zm21.18 0a46.47 46.47 0 0 0-7.84.86 14 14 0 0 1 5.66-2.41.72.72 0 0 0 .58-.7v-9.4h1.6V18.7z"/><path d="M9.24 11.63a6.92 6.92 0 00-2.66-1.1.76.76 0 00-.25 1.47 5.46 5.46 0 012.05.84.75.75 0 001-.19.76.76 0 00-.19-1zM9.23 14.39a7.91 7.91 0 00-2.58-1.08.75.75 0 00-.86.62.75.75 0 00.61.88 6.63 6.63 0 012 .88.74.74 0 001-.25.76.76 0 00-.25-1zM9.23 8.4a7.91 7.91 0 00-2.58-1.08.75.75 0 00-.86.62.75.75 0 00.61.88 6.63 6.63 0 012 .88.75.75 0 001-.25.76.76 0 00-.25-1zM15.5 12.87a5.4 5.4 0 012-.84.76.76 0 00-.25-1.5 6.87 6.87 0 00-2.65 1.1.76.76 0 00-.19 1 .75.75 0 001.05.19zM17.28 13.59a8 8 0 00-2.58 1.08.77.77 0 00-.25 1 .74.74 0 001 .26 6.63 6.63 0 012.05-.88.77.77 0 00.62-.88.76.76 0 00-.84-.58zM17.28 7.21a8 8 0 00-2.58 1.08.77.77 0 00-.25 1 .75.75 0 001 .26 6.63 6.63 0 012.05-.88.77.77 0 00.62-.88.75.75 0 00-.84-.58z"/></svg>
