<svg xmlns="http://www.w3.org/2000/svg" fill="none" viewBox="0 0 24 24" class="Icon Icon-settings"><mask id="opo-mask-85841488" width="22" height="22" x="1" y="1" maskUnits="userSpaceOnUse" style="mask-type:alpha"><path fill="currentColor" fill-rule="evenodd" d="M12 2.535a1.093 1.093 0 0 0-1.093 1.093v.161a2.3 2.3 0 0 1-1.395 2.107.8.8 0 0 1-.22.058 2.3 2.3 0 0 1-2.387-.522L6.9 5.426l-.056-.055a1.095 1.095 0 1 0-1.547 1.547l.062.062a2.3 2.3 0 0 1 .47 2.517A2.3 2.3 0 0 1 3.73 10.98h-.102a1.093 1.093 0 0 0 0 2.186h.161a2.3 2.3 0 0 1 2.105 1.392 2.3 2.3 0 0 1-.462 2.536l-.006.006-.055.056a1.095 1.095 0 1 0 1.547 1.547l.062-.062a2.3 2.3 0 0 1 2.517-.47 2.3 2.3 0 0 1 1.484 2.098v.102a1.093 1.093 0 0 0 2.186 0v-.161a2.3 2.3 0 0 1 1.392-2.105 2.3 2.3 0 0 1 2.536.462l.006.006.056.055a1.094 1.094 0 1 0 1.547-1.547l-.062-.062a2.3 2.3 0 0 1-.462-2.535 2.3 2.3 0 0 1 2.105-1.392h.087a1.093 1.093 0 1 0 0-2.186h-.161a2.3 2.3 0 0 1-2.107-1.395.8.8 0 0 1-.058-.22 2.3 2.3 0 0 1 .522-2.387l.006-.006.055-.056a1.094 1.094 0 1 0-1.547-1.547l-.062.062a2.3 2.3 0 0 1-2.535.462 2.3 2.3 0 0 1-1.392-2.105v-.087A1.093 1.093 0 0 0 12 2.535m-1.858-.765a2.628 2.628 0 0 1 4.486 1.858v.082a.77.77 0 0 0 .465.7l.008.004a.77.77 0 0 0 .844-.15l.052-.053a2.63 2.63 0 1 1 3.718 3.718l-.053.052a.77.77 0 0 0-.15.844.8.8 0 0 1 .054.18.77.77 0 0 0 .65.367h.156a2.628 2.628 0 1 1 0 5.256h-.082a.77.77 0 0 0-.7.465l-.004.008a.77.77 0 0 0 .15.844l.053.052a2.629 2.629 0 1 1-3.718 3.718l-.052-.053a.77.77 0 0 0-.844-.15l-.008.003a.77.77 0 0 0-.465.7v.157a2.627 2.627 0 1 1-5.255 0V20.3a.77.77 0 0 0-.503-.695l-.045-.018a.77.77 0 0 0-.844.15l-.052.053a2.63 2.63 0 1 1-3.718-3.718l.053-.052a.77.77 0 0 0 .15-.844l-.003-.008a.77.77 0 0 0-.7-.465h-.157a2.628 2.628 0 1 1 0-5.255H3.7a.77.77 0 0 0 .695-.503l.018-.045a.77.77 0 0 0-.15-.844l-.053-.052a2.628 2.628 0 1 1 3.72-3.718l.052.052a.77.77 0 0 0 .844.15.8.8 0 0 1 .18-.054.77.77 0 0 0 .367-.65v-.156c0-.697.277-1.365.77-1.858M12 9.977a2.023 2.023 0 1 0 0 4.046 2.023 2.023 0 0 0 0-4.046M8.442 12a3.558 3.558 0 1 1 7.116 0 3.558 3.558 0 0 1-7.116 0" clip-rule="evenodd"/></mask><g mask="url(#opo-mask-85841488)"><path fill="currentColor" d="M0 0h24v24H0z"/></g></svg>