<svg xmlns="http://www.w3.org/2000/svg" class="Icon Icon-settings" fill="currentColor" viewBox="0 0 24 24"><path d="M12 6.57A5.43 5.43 0 1 0 17.43 12 5.43 5.43 0 0 0 12 6.57zM16 12a4 4 0 1 1-4-3.94A4 4 0 0 1 16 12z"/><path d="M24 14.52v-5L20.68 9a9.1 9.1 0 0 0-.42-1l2-2.68-3.56-3.59L16 3.74a9.1 9.1 0 0 0-1-.42L14.52 0h-5L9 3.32a10 10 0 0 0-1 .42l-2.68-2L1.73 5.3 3.74 8a10 10 0 0 0-.42 1L0 9.48v5l3.32.52a10 10 0 0 0 .42 1l-2 2.68 3.56 3.59 2.68-2a10 10 0 0 0 1 .42l.5 3.31h5l.52-3.32a9.1 9.1 0 0 0 1-.42l2.68 2 3.57-3.57-2-2.68a9.1 9.1 0 0 0 .42-1zm-4.61-.4a7.27 7.27 0 0 1-.66 1.61l-.24.42 1.81 2.41-1.74 1.74-2.41-1.81-.42.24a7.79 7.79 0 0 1-1.61.66l-.46.14-.43 3h-2.46l-.43-3-.46-.14a7.79 7.79 0 0 1-1.61-.66l-.42-.24-2.41 1.81-1.74-1.74 1.8-2.41-.23-.42a7.57 7.57 0 0 1-.66-1.61l-.14-.46-3-.43v-2.46l3-.42.14-.47a7.57 7.57 0 0 1 .66-1.61l.23-.42-1.8-2.41L5.44 3.7l2.41 1.81.42-.24a7.79 7.79 0 0 1 1.61-.66l.46-.13.43-3h2.46l.43 3 .46.13a7.79 7.79 0 0 1 1.61.66l.42.24 2.41-1.81 1.74 1.74-1.81 2.41.24.42a7.27 7.27 0 0 1 .66 1.61l.14.47 3 .42v2.46l-3 .43z"/></svg>
