<svg xmlns="http://www.w3.org/2000/svg" fill="none" viewBox="0 0 24 24" class="Icon Icon-user-goals"><mask id="a" width="16" height="22" x="4" y="1" maskUnits="userSpaceOnUse" style="mask-type:alpha"><path fill="currentColor" fill-rule="evenodd" d="M11.574 2.5a6.074 6.074 0 0 0-2.966 11.375l.016.01a6.05 6.05 0 0 0 2.95.762c1.2 0 2.32-.349 3.263-.95l.018-.012A6.074 6.074 0 0 0 11.574 2.5m4.48 12.18a7.574 7.574 0 1 0-8.634.227l-1.308 7.18a.75.75 0 0 0 1.102.79l4.36-2.423 4.36 2.422a.75.75 0 0 0 1.107-.754zm-1.405.816c-.94.419-1.98.651-3.075.651a7.6 7.6 0 0 1-2.761-.519l-.941 5.167 3.337-1.855a.75.75 0 0 1 .729 0l3.42 1.9z" clip-rule="evenodd"/></mask><g mask="url(#a)"><path fill="currentColor" d="M0 0h24v24H0z"/></g></svg>